<svg width="40" height="40" viewBox="0 0 40 40" fill="none" xmlns="http://www.w3.org/2000/svg">
  <path d="M18.0677 14.351C19.1315 13.7264 20.8683 13.7264 21.932 14.351L34.0424 21.4613C35.0782 22.0694 35.0916 23.0461 34.0727 23.6638L21.9623 31.0053C20.8923 31.654 19.1074 31.654 18.0374 31.0053L5.92706 23.6638C4.90816 23.0461 4.92161 22.0694 5.95739 21.4613L18.0677 14.351Z" fill="url(#paint0_linear)"/>
  <path d="M18.0778 11.3675C19.1409 10.7458 20.8723 10.746 21.935 11.368L34.0031 18.4306C35.0549 19.0461 35.0549 20.0393 34.0031 20.6548L21.935 27.7174C20.8723 28.3394 19.1409 28.3396 18.0778 27.7179L5.99912 20.6553C4.9462 20.0396 4.9462 19.0458 5.99912 18.4301L18.0778 11.3675Z" fill="url(#paint1_linear)"/>
  <path d="M18.2205 6.66917C19.2418 6.15536 20.7579 6.15536 21.7792 6.66917L31.9479 11.7848C33.7554 12.6941 34.7939 14.0146 34.7939 15.4035C34.7939 16.1692 34.2674 16.9033 33.3315 17.4426L21.914 24.0216C20.8544 24.6322 19.1454 24.6322 18.0857 24.0216L6.66825 17.4426C5.73232 16.9033 5.20588 16.1692 5.20588 15.4035C5.20588 14.0146 6.24437 12.6941 8.05183 11.7848L18.2205 6.66917Z" fill="#EF6114"/>
  <defs>
    <linearGradient id="paint0_linear" x1="33.943" y1="30.4833" x2="21.2188" y2="15.5132" gradientUnits="userSpaceOnUse">
      <stop stop-color="#F7AF76"/>
      <stop offset="1" stop-color="#F59548"/>
    </linearGradient>
    <linearGradient id="paint1_linear" x1="34.1435" y1="30.9086" x2="18.7058" y2="12.746" gradientUnits="userSpaceOnUse">
      <stop stop-color="#F59548"/>
      <stop offset="1" stop-color="#F27A1A"/>
    </linearGradient>
  </defs>
</svg>
