<svg width="24" height="24" viewBox="0 0 24 24" fill="none" xmlns="http://www.w3.org/2000/svg">
<path fill-rule="evenodd" clip-rule="evenodd" d="M0.653961 3.27606C0 4.55953 0 6.23969 0 9.6V14.4C0 17.7603 0 19.4405 0.653961 20.7239C1.2292 21.8529 2.14708 22.7708 3.27606 23.346C4.55953 24 6.23969 24 9.6 24H14.4C17.7603 24 19.4405 24 20.7239 23.346C21.8529 22.7708 22.7708 21.8529 23.346 20.7239C24 19.4405 24 17.7603 24 14.4V9.6C24 6.23969 24 4.55953 23.346 3.27606C22.7708 2.14708 21.8529 1.2292 20.7239 0.653961C19.4405 0 17.7603 0 14.4 0H9.6C6.23969 0 4.55953 0 3.27606 0.653961C2.14708 1.2292 1.2292 2.14708 0.653961 3.27606ZM12 12C14.159 12 15.8889 10.22 15.8889 8C15.8889 5.78005 14.159 4 12 4C9.84171 4 8.11111 5.78005 8.11111 8C8.11111 10.22 9.84171 12 12 12ZM12 13.6C8.22471 13.6 5 15.3883 5 18.2222C5 19.6444 8.33333 20 12 20C15.6667 20 19 20 19 18.2222C19 15.3872 15.7963 13.6 12 13.6Z" fill="currentColor"/>
</svg>
