<svg width="25" height="24" viewBox="0 0 25 24" fill="none" xmlns="http://www.w3.org/2000/svg">
<path fill-rule="evenodd" clip-rule="evenodd" d="M18 14C18.6906 14 19.3608 13.9125 20 13.748V22C20 23.1046 19.1046 24 18 24H2C0.895431 24 0 23.1046 0 22V0H12.7084C11.2829 1.25812 10.3093 3.01628 10.0619 5H3.99998C3.44769 5 2.99998 5.44772 2.99998 6C2.99998 6.55228 3.44769 7 3.99998 7H10.0619C10.2493 8.50248 10.8533 9.87557 11.7546 11H3.99998C3.44769 11 2.99998 11.4477 2.99998 12C2.99998 12.5523 3.44769 13 3.99998 13H14.124C15.2722 13.6372 16.5937 14 18 14ZM3.99998 17C3.44769 17 2.99998 17.4477 2.99998 18C2.99998 18.5523 3.44769 19 3.99998 19H12C12.5523 19 13 18.5523 13 18C13 17.4477 12.5523 17 12 17H3.99998ZM15 18C15 17.4477 15.4477 17 16 17C16.5523 17 17 17.4477 17 18C17 18.5523 16.5523 19 16 19C15.4477 19 15 18.5523 15 18Z" fill="currentColor"/>
<path fill-rule="evenodd" clip-rule="evenodd" d="M24.0335 6C24.0335 9.31371 21.3434 12 18.025 12C14.7067 12 12.0166 9.31371 12.0166 6C12.0166 2.68629 14.7067 0 18.025 0C21.3434 0 24.0335 2.68629 24.0335 6ZM14.0194 6C14.0194 5.44771 14.4678 5 15.0208 5H17.0236V3C17.0236 2.44772 17.472 2 18.025 2C18.5781 2 19.0264 2.44772 19.0264 3V5H21.0293C21.5823 5 22.0307 5.44771 22.0307 6C22.0307 6.55229 21.5823 7 21.0293 7H19.0264V9C19.0264 9.55228 18.5781 10 18.025 10C17.472 10 17.0236 9.55229 17.0236 9V7H15.0208C14.4678 7 14.0194 6.55229 14.0194 6Z" fill="currentColor"/>
</svg>
