<svg width="24" height="24" viewBox="0 0 24 24" fill="none" xmlns="http://www.w3.org/2000/svg">
<path fill-rule="evenodd" clip-rule="evenodd" d="M12 0C18.6274 0 24 5.37258 24 12C24 18.6274 18.6274 24 12 24C5.37258 24 0 18.6274 0 12C0 5.37258 5.37258 0 12 0ZM10.4698 7.06658C10.4313 6.48938 10.8891 6 11.4676 6H12.5326C13.1111 6 13.5689 6.48938 13.5304 7.06658L13.13 13.0666C13.095 13.5919 12.6587 14 12.1323 14H11.8679C11.3415 14 10.9052 13.5919 10.8702 13.0666L10.4698 7.06658ZM12 18C12.8284 18 13.5 17.3284 13.5 16.5C13.5 15.6716 12.8284 15 12 15C11.1716 15 10.5 15.6716 10.5 16.5C10.5 17.3284 11.1716 18 12 18Z" fill="currentColor"/>
</svg>
