<svg width="24" height="24" viewBox="0 0 24 24" fill="none" xmlns="http://www.w3.org/2000/svg">
<path fill-rule="evenodd" clip-rule="evenodd" d="M16.4103 0C14.9015 0 13.4387 0.564524 12.3475 1.59362L2.36244 11.0108C0.860716 12.4271 0 14.3667 0 16.4083C0 18.4499 0.860716 20.3895 2.36244 21.8058C3.86135 23.2194 5.87719 24 7.96269 24C10.0482 24 12.064 23.2194 13.5629 21.8058L23.548 12.3886C24.1266 11.843 24.1533 10.9316 23.6076 10.353C23.0619 9.77447 22.1506 9.74779 21.572 10.2934L11.5869 19.7106C10.6393 20.6043 9.33698 21.12 7.96269 21.12C6.58841 21.12 5.28609 20.6043 4.33846 19.7106C3.39377 18.8196 2.88 17.6298 2.88 16.4083C2.88 15.1867 3.39377 13.9969 4.33846 13.1059L14.3235 3.6888C14.8634 3.17961 15.6127 2.88 16.4103 2.88C17.2079 2.88 17.9572 3.17961 18.4971 3.6888C19.0341 4.19519 19.3188 4.86343 19.3188 5.54118C19.3188 6.21882 19.034 6.88711 18.4971 7.39349L8.50124 16.8106C8.36902 16.9353 8.1727 17.0188 7.95182 17.0188C7.73094 17.0188 7.53462 16.9353 7.4024 16.8106C7.27339 16.689 7.2176 16.5424 7.2176 16.4083C7.2176 16.2741 7.27339 16.1276 7.4024 16.0059L16.6263 7.31685C17.2052 6.77153 17.2324 5.86018 16.6871 5.28129C16.1418 4.70241 15.2304 4.67519 14.6515 5.22051L5.42639 13.9107C4.74018 14.5579 4.3376 15.4543 4.3376 16.4083C4.3376 17.3622 4.74018 18.2586 5.42639 18.9058C6.10983 19.5504 7.01965 19.8988 7.95182 19.8988C8.88399 19.8988 9.79381 19.5504 10.4773 18.9058L20.4732 9.48867C21.5671 8.45695 22.1988 7.03898 22.1988 5.54118C22.1988 4.04339 21.5671 2.62536 20.4732 1.59362C19.382 0.564524 17.9192 0 16.4103 0Z" fill="currentColor"/>
</svg>
