<svg width="24" height="24" viewBox="0 0 24 24" fill="none" xmlns="http://www.w3.org/2000/svg">
<path fill-rule="evenodd" clip-rule="evenodd" d="M1 0C0.447715 0 0 0.447715 0 1V3C0 3.55228 0.447715 4 1 4C1.55228 4 2 3.55228 2 3V2H3C3.55228 2 4 1.55228 4 1C4 0.447715 3.55228 0 3 0H1ZM1 24C0.447715 24 0 23.5523 0 23V21C0 20.4477 0.447715 20 1 20C1.55228 20 2 20.4477 2 21V22H3C3.55228 22 4 22.4477 4 23C4 23.5523 3.55228 24 3 24H1ZM24 1C24 0.447715 23.5523 0 23 0H21C20.4477 0 20 0.447715 20 1C20 1.55228 20.4477 2 21 2H22V3C22 3.55228 22.4477 4 23 4C23.5523 4 24 3.55228 24 3V1ZM23 24C23.5523 24 24 23.5523 24 23V21C24 20.4477 23.5523 20 23 20C22.4477 20 22 20.4477 22 21V22H21C20.4477 22 20 22.4477 20 23C20 23.5523 20.4477 24 21 24H23ZM6 5C5.44772 5 5 5.44772 5 6V18C5 18.5523 5.44772 19 6 19H8C8.55228 19 9 18.5523 9 18V6C9 5.44772 8.55228 5 8 5H6ZM11 6C11 5.44772 11.4477 5 12 5C12.5523 5 13 5.44772 13 6V18C13 18.5523 12.5523 19 12 19C11.4477 19 11 18.5523 11 18V6ZM2 5C1.44772 5 1 5.44772 1 6V18C1 18.5523 1.44772 19 2 19C2.55228 19 3 18.5523 3 18V6C3 5.44772 2.55228 5 2 5ZM19 6C19 5.44772 19.4477 5 20 5H22C22.5523 5 23 5.44772 23 6V18C23 18.5523 22.5523 19 22 19H20C19.4477 19 19 18.5523 19 18V6ZM16 5C15.4477 5 15 5.44772 15 6V18C15 18.5523 15.4477 19 16 19C16.5523 19 17 18.5523 17 18V6C17 5.44772 16.5523 5 16 5Z" fill="currentColor"/>
</svg>
