<svg width="24" height="24" viewBox="0 0 24 24" fill="none" xmlns="http://www.w3.org/2000/svg">
<path fill-rule="evenodd" clip-rule="evenodd" d="M12 1C6.47715 1 2 5.47715 2 11V13H22V11C22 5.47715 17.5228 1 12 1ZM13 14H2C0.895431 14 0 14.8954 0 16C0 17.1046 0.89543 18 2 18H22C23.1046 18 24 17.1046 24 16C24 14.8954 23.1046 14 22 14H17V14.5C17 15.6046 16.1046 16.5 15 16.5C13.8954 16.5 13 15.6046 13 14.5V14ZM2 20V19H22V20C22 21.6569 20.6569 23 19 23H5C3.34315 23 2 21.6569 2 20Z" fill="currentColor"/>
</svg>
