<svg width="24" height="24" viewBox="0 0 24 24" fill="none" xmlns="http://www.w3.org/2000/svg">
<path fill-rule="evenodd" clip-rule="evenodd" d="M0.435974 5.18404C0 6.03969 0 7.15979 0 9.4V14.6C0 16.8402 0 17.9603 0.435974 18.816C0.819467 19.5686 1.43139 20.1805 2.18404 20.564C3.03969 21 4.15979 21 6.4 21H11.6C13.8402 21 14.9603 21 15.816 20.564C16.5686 20.1805 17.1805 19.5686 17.564 18.816C17.9373 18.0833 17.991 17.1568 17.9987 15.4992L22.4961 18.1227C23.1628 18.5116 24 18.0308 24 17.259V6.74104C24 5.96925 23.1628 5.48838 22.4961 5.87726L17.9987 8.50076C17.991 6.84321 17.9373 5.91668 17.564 5.18404C17.1805 4.43139 16.5686 3.81947 15.816 3.43597C14.9603 3 13.8402 3 11.6 3H6.4C4.15979 3 3.03969 3 2.18404 3.43597C1.43139 3.81947 0.819467 4.43139 0.435974 5.18404Z" fill="currentColor"/>
</svg>
