<svg width="24" height="24" viewBox="0 0 24 24" fill="none" xmlns="http://www.w3.org/2000/svg">
<path fill-rule="evenodd" clip-rule="evenodd" d="M7.20018 5.30144C7.34527 5.24557 7.48217 5.17131 7.6069 5.08037H7.6257L7.76375 4.95289C8.61495 4.16691 9.70198 3.62529 10.8915 3.40027C12.0811 3.17523 13.3159 3.27775 14.4412 3.69397C15.5664 4.11013 16.5284 4.81993 17.2117 5.72988C17.7923 6.50304 18.1506 7.39236 18.2611 8.31611C17.6901 8.31144 17.24 8.31598 16.9264 8.35833C16.76 8.38081 16.5672 8.42101 16.4076 8.51906C16.3204 8.5726 16.2295 8.65156 16.1644 8.76609C16.0977 8.8835 16.0754 9.00791 16.081 9.12279C16.0908 9.32714 16.1888 9.50659 16.2693 9.6324C16.3581 9.77128 16.4781 9.92275 16.6136 10.0829C16.758 10.2535 16.9433 10.4605 17.1555 10.6975C17.3316 10.8942 17.5262 11.1116 17.7312 11.346C17.9419 11.5869 18.1331 11.8111 18.3061 12.0139C18.5672 12.3201 18.7869 12.5777 18.9697 12.7708C19.1255 12.9354 19.2819 13.0838 19.4435 13.1922C19.6096 13.3036 19.8086 13.3913 20.0413 13.3913C20.2739 13.3913 20.4729 13.3036 20.639 13.1922C20.8006 13.0838 20.957 12.9354 21.1128 12.7708C21.2956 12.5777 21.5153 12.3201 21.7764 12.0139C21.9494 11.811 22.1406 11.5869 22.3513 11.3459C22.5594 11.1081 22.7569 10.8875 22.9352 10.6885C23.1436 10.4558 23.3259 10.2524 23.4676 10.0852C23.6028 9.92571 23.7227 9.77483 23.8113 9.63651C23.8915 9.51137 23.9898 9.33192 23.9993 9.12716C24.0046 9.01191 23.9818 8.8875 23.9147 8.77041C23.8493 8.65636 23.7583 8.57797 23.6716 8.52489C23.5126 8.42761 23.3206 8.38729 23.1546 8.36448C22.831 8.32002 22.3612 8.31487 21.763 8.31722C21.6435 6.72053 21.063 5.18214 20.0815 3.8636C19.0043 2.41653 17.4929 1.2993 15.7398 0.646029C13.9868 -0.0071795 12.0658 -0.16922 10.2153 0.17898C8.36466 0.527193 6.66164 1.37127 5.32052 2.61081C5.15769 2.76182 5.02596 2.94353 4.93597 3.14549C4.84592 3.34758 4.79934 3.56549 4.8 3.78642C4.80066 4.00735 4.84855 4.22498 4.93978 4.42655C5.03095 4.628 5.16312 4.8084 5.32678 4.95852C5.49037 5.10857 5.68243 5.22568 5.89115 5.3048C6.09983 5.3839 6.32225 5.42394 6.54599 5.42337C6.76973 5.4228 6.99193 5.38163 7.20018 5.30144Z" fill="currentColor"/>
<path fill-rule="evenodd" clip-rule="evenodd" d="M16.7998 18.6986C16.6547 18.7544 16.5178 18.8287 16.3931 18.9196H16.3743L16.2362 19.0471C15.385 19.8331 14.298 20.3747 13.1085 20.5997C11.9189 20.8248 10.6841 20.7222 9.55877 20.306C8.43364 19.8899 7.47154 19.1801 6.78824 18.2701C6.20766 17.497 5.84941 16.6076 5.73891 15.6839C6.30993 15.6886 6.75997 15.684 7.07356 15.6417C7.24002 15.6192 7.43278 15.579 7.59244 15.4809C7.6796 15.4274 7.77052 15.3484 7.8356 15.2339C7.90231 15.1165 7.92455 14.9921 7.91903 14.8772C7.90921 14.6729 7.81119 14.4934 7.73073 14.3676C7.64191 14.2287 7.52187 14.0772 7.38636 13.9171C7.24195 13.7465 7.05665 13.5395 6.8445 13.3025C6.66843 13.1058 6.47383 12.8884 6.2688 12.654C6.0581 12.4131 5.86691 12.1889 5.69391 11.9861C5.43275 11.6799 5.21305 11.4223 5.03033 11.2292C4.87453 11.0646 4.7181 10.9162 4.55645 10.8078C4.3904 10.6964 4.19136 10.6087 3.95874 10.6087C3.72611 10.6087 3.52708 10.6964 3.36103 10.8078C3.19938 10.9162 3.04295 11.0646 2.88715 11.2292C2.70443 11.4223 2.48473 11.6799 2.22357 11.9861C2.05056 12.189 1.85936 12.4132 1.64865 12.6541C1.44062 12.8919 1.24306 13.1125 1.06476 13.3115C0.856374 13.5442 0.674125 13.7476 0.532369 13.9148C0.397163 14.0743 0.277317 14.2252 0.18868 14.3635C0.108495 14.4886 0.0101582 14.6681 0.000737837 14.8728C-0.00456458 14.9881 0.0182111 15.1125 0.0853383 15.2296C0.150715 15.3436 0.241657 15.422 0.328401 15.4751C0.487398 15.5724 0.679344 15.6127 0.845344 15.6355C1.16897 15.68 1.63875 15.6851 2.23702 15.6828C2.35652 17.2795 2.93701 18.8179 3.91851 20.1364C4.99567 21.5835 6.50709 22.7007 8.26024 23.354C10.0132 24.0072 11.9342 24.1692 13.7847 23.821C15.6353 23.4728 17.3383 22.6287 18.6795 21.3892C18.8423 21.2382 18.974 21.0565 19.064 20.8545C19.1541 20.6524 19.2006 20.4345 19.2 20.2136C19.1993 19.9926 19.1514 19.775 19.0602 19.5735C18.969 19.372 18.8369 19.1916 18.6732 19.0415C18.5096 18.8914 18.3176 18.7743 18.1088 18.6952C17.9002 18.6161 17.6777 18.5761 17.454 18.5766C17.2303 18.5772 17.0081 18.6184 16.7998 18.6986Z" fill="currentColor"/>
</svg>
