<svg width="24" height="24" viewBox="0 0 24 24" fill="none" xmlns="http://www.w3.org/2000/svg">
<path fill-rule="evenodd" clip-rule="evenodd" d="M12 24C18.6274 24 24 18.6274 24 12C24 5.37258 18.6274 0 12 0C5.37258 0 0 5.37258 0 12C0 18.6274 5.37258 24 12 24ZM7.77269 7.31638C7.67664 7.40349 7.56251 7.47269 7.43681 7.52002C7.31112 7.56735 7.17631 7.59189 7.0401 7.59223C6.90389 7.59257 6.76894 7.5687 6.64295 7.522C6.51697 7.4753 6.40241 7.40667 6.30583 7.32004C6.20925 7.23341 6.13253 7.13046 6.08006 7.01709C6.02758 6.90371 6.00038 6.78212 6 6.65926C5.99963 6.5364 6.02608 6.41468 6.07786 6.30104C6.12964 6.18741 6.20572 6.08408 6.30177 5.99697C7.34821 5.05116 8.68034 4.40434 10.1319 4.13726C11.5834 3.87017 13.0899 3.99465 14.4635 4.49517C15.8371 4.99568 17.0167 5.85004 17.8552 6.95159C18.6937 8.05314 19.1539 9.35307 19.1783 10.6891H19.4639C21.3935 10.6794 21.3332 10.7452 20.2308 11.9481C20.0851 12.1071 19.9213 12.2859 19.7413 12.4871C19.5575 12.6926 19.3966 12.8772 19.254 13.0408C18.6966 13.6803 18.4179 14 18.1392 14C17.8605 14 17.5818 13.6803 17.0244 13.0408C16.8818 12.8772 16.7209 12.6926 16.537 12.4871C16.36 12.2892 16.1984 12.1127 16.0544 11.9554L16.0543 11.9553C14.9442 10.7432 14.8765 10.6692 16.8145 10.6891H17.0988C17.0752 9.72402 16.7377 8.78647 16.1284 7.99292C15.519 7.19937 14.6646 6.58478 13.6713 6.22549C12.6779 5.8662 11.5895 5.77806 10.5411 5.972C9.49271 6.16594 8.53058 6.63342 7.77425 7.31638H7.77269ZM7.18192 13.3104H6.90066C6.92435 14.2766 7.26239 15.2151 7.87268 16.0092C8.48297 16.8032 9.33855 17.4176 10.3329 17.7759C11.3272 18.1343 12.4163 18.2207 13.4646 18.0244C14.513 17.8281 15.4741 17.3577 16.2285 16.672C16.3245 16.5848 16.4385 16.5156 16.5642 16.4683C16.6898 16.421 16.8245 16.3964 16.9606 16.3961C17.0967 16.3958 17.2316 16.4196 17.3575 16.4663C17.4834 16.513 17.5979 16.5817 17.6944 16.6683C17.7909 16.7549 17.8676 16.8579 17.92 16.9713C17.9724 17.0847 17.9996 17.2063 18 17.3291C18.0004 17.452 17.9739 17.5737 17.9222 17.6874C17.8704 17.801 17.7944 17.9043 17.6984 17.9915C16.6543 18.9406 15.3233 19.5906 13.8719 19.8603C12.4205 20.13 10.9133 20.0074 9.5387 19.5078C8.16415 19.0081 6.98336 18.1537 6.14408 17.0514C5.30479 15.9491 4.84429 14.6478 4.82018 13.3104H4.53487C2.60666 13.3201 2.66699 13.2543 3.76895 12.0511L3.769 12.0511C3.91446 11.8923 4.07807 11.7136 4.25766 11.5127C4.44133 11.3072 4.60209 11.1227 4.74461 10.959C5.3015 10.3197 5.57995 10 5.85839 10C6.13684 10 6.41528 10.3197 6.97218 10.959C7.1147 11.1227 7.27546 11.3072 7.45913 11.5127C7.63869 11.7136 7.80228 11.8923 7.94773 12.0511L7.94782 12.0512C9.0495 13.2543 9.1098 13.3201 7.18192 13.3104Z" fill="currentColor"/>
</svg>
