<svg width="24" height="24" viewBox="0 0 24 24" fill="none" xmlns="http://www.w3.org/2000/svg">
<path fill-rule="evenodd" clip-rule="evenodd" d="M24 12C24 5.37258 18.6274 0 12 0C5.37258 0 0 5.37258 0 12C0 18.6274 5.37258 24 12 24C18.6274 24 24 18.6274 24 12ZM16.7282 10.1854C17.1067 9.78319 17.0875 9.15032 16.6854 8.7718C16.2832 8.39329 15.6503 8.41246 15.2718 8.81464L10.3529 14.0409L8.7282 12.3146C8.34969 11.9125 7.71681 11.8933 7.31464 12.2718C6.91246 12.6503 6.89329 13.2832 7.2718 13.6854L9.62474 16.1854C9.81372 16.3862 10.0772 16.5 10.3529 16.5C10.6287 16.5 10.8922 16.3862 11.0811 16.1854L16.7282 10.1854Z" fill="currentColor"/>
</svg>
