<svg width="24" height="24" viewBox="0 0 24 24" fill="none" xmlns="http://www.w3.org/2000/svg">
<path fill-rule="evenodd" clip-rule="evenodd" d="M0.540726 0.540726C1.26169 -0.180242 2.43061 -0.180242 3.15158 0.540726L12 9.38914L20.8484 0.540726C21.5694 -0.180242 22.7383 -0.180242 23.4593 0.540726C24.1802 1.26169 24.1802 2.43061 23.4593 3.15158L14.6109 12L23.4593 20.8484C24.1802 21.5694 24.1802 22.7383 23.4593 23.4593C22.7383 24.1802 21.5694 24.1802 20.8484 23.4593L12 14.6109L3.15158 23.4593C2.43061 24.1802 1.26169 24.1802 0.540726 23.4593C-0.180242 22.7383 -0.180242 21.5694 0.540726 20.8484L9.38914 12L0.540726 3.15158C-0.180242 2.43061 -0.180242 1.26169 0.540726 0.540726Z" fill="currentColor"/>
</svg>
