<svg width="24" height="24" viewBox="0 0 24 24" fill="none" xmlns="http://www.w3.org/2000/svg">
<path fill-rule="evenodd" clip-rule="evenodd" d="M0 12C0 18.6168 5.3832 24 12 24C18.6168 24 24 18.6168 24 12C24 5.382 18.6168 0 12 0C5.3832 0 0 5.382 0 12ZM6.53003 17.3705C6.52286 17.3626 6.51784 17.3539 6.51291 17.3453C6.50958 17.3395 6.5063 17.3338 6.50243 17.3285C6.21563 16.9973 6.11123 16.5293 6.28883 16.0961L9.38403 9.98651C9.50643 9.68651 9.74523 9.45011 10.0452 9.32891L16.1008 6.28651C16.5736 6.09931 17.092 6.23371 17.4184 6.58171C17.7688 6.91291 17.9032 7.43131 17.71 7.90411L14.6136 14.0125C14.4924 14.3137 14.2548 14.5501 13.9548 14.6725L7.89923 17.7125C7.75163 17.7725 7.59923 17.8001 7.45043 17.8001C7.12523 17.8001 6.81923 17.6597 6.59483 17.4281C6.5867 17.4208 6.57873 17.414 6.57091 17.4074L6.57084 17.4073C6.55674 17.3952 6.54314 17.3836 6.53003 17.3705ZM12 13C12.5523 13 13 12.5523 13 12C13 11.4477 12.5523 11 12 11C11.4477 11 11 11.4477 11 12C11 12.5523 11.4477 13 12 13Z" fill="currentColor"/>
</svg>
