<svg width="24" height="24" viewBox="0 0 24 24" fill="none" xmlns="http://www.w3.org/2000/svg">
<path fill-rule="evenodd" clip-rule="evenodd" d="M7 4V3C7 1.34315 8.34315 0 10 0H14C15.6569 0 17 1.34315 17 3V4H21.5C22.3284 4 23 4.67157 23 5.5C23 6.32843 22.3284 7 21.5 7H2.5C1.67157 7 1 6.32843 1 5.5C1 4.67157 1.67157 4 2.5 4H7ZM10.5 2.5H13.5C14.0523 2.5 14.5 2.94772 14.5 3.5V4H9.5V3.5C9.5 2.94772 9.94772 2.5 10.5 2.5Z" fill="currentColor"/>
<path d="M3 8H21L20.1758 21.1871C20.077 22.7682 18.7658 24 17.1816 24H6.81835C5.23416 24 3.92301 22.7682 3.8242 21.1871L3 8Z" fill="currentColor"/>
</svg>
