<svg width="24" height="24" viewBox="0 0 24 24" fill="none" xmlns="http://www.w3.org/2000/svg">
<path fill-rule="evenodd" clip-rule="evenodd" d="M19.2 11.9999V3.59997C19.2 1.61176 17.5882 0 15.6 0H3.6C1.61177 0 0 1.61176 0 3.59997V11.9999C0 13.9881 1.61177 15.5999 3.6 15.5999V17.9998C3.60137 18.4517 3.85646 18.8645 4.26 19.0678C4.4256 19.1577 4.61163 19.2032 4.8 19.1998C5.05964 19.1998 5.31228 19.1156 5.52 18.9598L7.44 17.5198L9.996 15.5999H15.6C17.5882 15.5999 19.2 13.9881 19.2 11.9999ZM8.0383 20.3998C7.79003 20.3988 7.54377 20.3732 7.30307 20.3241L11.0834 17.5H16.9168C19.0914 17.5 21.0001 15.2995 21.0001 13.1249V4.86183C22.7079 5.175 24.0001 6.63999 24.0001 8.39994V16.7999C24.0001 18.7881 22.3509 20.3998 20.3166 20.3998V22.7998C20.3152 23.2517 20.0542 23.6645 19.6413 23.8678C19.4719 23.9577 19.2815 24.0031 19.0888 23.9998C18.8231 23.9998 18.5646 23.9156 18.3521 23.7598L13.7723 20.3998H8.0383Z" fill="currentColor"/>
</svg>
