<svg width="24" height="24" viewBox="0 0 24 24" fill="none" xmlns="http://www.w3.org/2000/svg">
<path fill-rule="evenodd" clip-rule="evenodd" d="M1.5 11C0.671573 11 0 11.6716 0 12.5V21.5C0 22.3284 0.671573 23 1.5 23C2.32843 23 3 22.3284 3 21.5V12.5C3 11.6716 2.32843 11 1.5 11ZM5 12H7.32677C7.77418 12 8.2202 12.0508 8.65649 12.1514L17.9179 14.2868C18.5508 14.4327 19 15.0036 19 15.6621C19 16.4411 18.3776 17.0726 17.6097 17.0726H12.5616C12.2514 17.0726 12 17.3277 12 17.6423C12 17.9037 12.1754 18.1316 12.4254 18.195L16 19.1016L22.4038 17.8835C23.2332 17.7257 24 18.3713 24 19.2275C24 19.7679 23.6863 20.2576 23.1996 20.4771L16.1621 23.6502C15.406 23.9911 14.5643 24.0858 13.753 23.9212L5 22.1452V12Z" fill="currentColor"/>
<path fill-rule="evenodd" clip-rule="evenodd" d="M18.1232 0.34459C18.64 0.117347 19.1949 0 19.7559 0C20.3169 0 20.8718 0.117346 21.3886 0.34459C21.9052 0.571764 22.3729 0.903952 22.7656 1.32087C23.1585 1.73764 23.4689 2.23107 23.6802 2.77229C23.8915 3.31349 24 3.8927 24 4.47708C24 5.06145 23.8915 5.64067 23.6802 6.18186C23.4689 6.72304 23.1586 7.21644 22.7657 7.63318L18.2852 12.3881L13.5167 11.1171L10.2339 7.63318C9.44109 6.79181 9 5.65606 9 4.47708C9 3.29809 9.44109 2.16235 10.2339 1.32097C11.0276 0.478697 12.1097 0.000383475 13.2437 0.000383475C14.5288 0.000383475 15.6339 0.526457 16.5 1.5C16.9693 0.972192 17.485 0.625252 18.1232 0.34459ZM16.5587 13.9972C16.5392 13.999 16.5196 14 16.4998 14C16.3917 14 16.2865 13.9715 16.194 13.9186L16.5587 13.9972Z" fill="currentColor"/>
</svg>
