<svg width="24" height="24" viewBox="0 0 24 24" fill="none" xmlns="http://www.w3.org/2000/svg">
<path fill-rule="evenodd" clip-rule="evenodd" d="M12 0C11.1716 -3.62117e-08 10.5 0.671573 10.5 1.5L10.5 14C10.5 14.8284 11.1716 15.5 12 15.5C12.8284 15.5 13.5 14.8284 13.5 14L13.5 1.5C13.5 0.671573 12.8284 3.62117e-08 12 0Z" fill="currentColor"/>
<path fill-rule="evenodd" clip-rule="evenodd" d="M6.43934 8.93934C5.85355 9.52513 5.85355 10.4749 6.43934 11.0607L10.9393 15.5607C11.5251 16.1464 12.4749 16.1464 13.0607 15.5607L17.5607 11.0607C18.1464 10.4749 18.1464 9.52513 17.5607 8.93934C16.9749 8.35355 16.0251 8.35355 15.4393 8.93934L12 12.3787L8.56066 8.93934C7.97487 8.35355 7.02513 8.35355 6.43934 8.93934Z" fill="currentColor"/>
<path fill-rule="evenodd" clip-rule="evenodd" d="M1.5 13C2.32843 13 3 13.6716 3 14.5V19.5C3 20.3284 3.67157 21 4.5 21H19.5C20.3284 21 21 20.3284 21 19.5V14.5C21 13.6716 21.6716 13 22.5 13C23.3284 13 24 13.6716 24 14.5V19.5C24 21.9853 21.9853 24 19.5 24H4.5C2.01472 24 0 21.9853 0 19.5V14.5C0 13.6716 0.671573 13 1.5 13Z" fill="currentColor"/>
</svg>
