<svg width="24" height="24" viewBox="0 0 24 24" fill="none" xmlns="http://www.w3.org/2000/svg">
<path fill-rule="evenodd" clip-rule="evenodd" d="M0 21.3342V2.66677L13.8462 0V24L0 21.3342ZM7.14738 13.644L8.75815 16.6892L11.2551 16.6883L8.37322 11.9741L11.1766 7.33843H8.83015L7.34399 10.116C7.20092 10.4769 7.10307 10.7483 7.05046 10.931H7.02461C6.94153 10.6274 6.8483 10.3643 6.74399 10.1427L5.40738 7.33935H2.84492L5.57076 12.0147L2.59107 16.6892H5.10092L6.71722 13.6707C6.83076 13.379 6.90276 13.1612 6.93322 13.0181H6.95815C7.02369 13.3218 7.08645 13.5304 7.14738 13.644ZM14.7692 2.76921H23.2265C23.652 2.76921 24 3.13014 24 3.57229V20.4277C24 20.8698 23.652 21.2308 23.2265 21.2308H14.7692V18.4615H17.5385V16.6154H14.7692V14.7692H17.5385V12.9231H14.7692V11.0769H17.5385V9.23075H14.7692V7.39845H17.5671V5.52368H14.7692V2.76921ZM18.4615 18.4615H22.1538V16.6153H18.4615V18.4615ZM18.4615 14.7692H22.1538V12.9231H18.4615V14.7692ZM18.4615 11.0769H22.1538V9.23077H18.4615V11.0769ZM18.4615 7.38457H22.1538V5.53842H18.4615V7.38457Z" fill="currentColor"/>
</svg>
