<svg width="24" height="24" viewBox="0 0 24 24" fill="none" xmlns="http://www.w3.org/2000/svg">
<path fill-rule="evenodd" clip-rule="evenodd" d="M0 4.5C0 2.01472 2.01472 0 4.5 0H9.5C10.3284 0 11 0.671573 11 1.5C11 2.32843 10.3284 3 9.5 3H4.5C3.67157 3 3 3.67157 3 4.5V19.5C3 20.3284 3.67157 21 4.5 21H9.5C10.3284 21 11 21.6716 11 22.5C11 23.3284 10.3284 24 9.5 24H4.5C2.01472 24 0 21.9853 0 19.5V4.5Z" fill="currentColor"/>
<path fill-rule="evenodd" clip-rule="evenodd" d="M8 12C8 11.1716 8.67157 10.5 9.5 10.5H22C22.8284 10.5 23.5 11.1716 23.5 12C23.5 12.8284 22.8284 13.5 22 13.5H9.5C8.67157 13.5 8 12.8284 8 12Z" fill="currentColor"/>
<path fill-rule="evenodd" clip-rule="evenodd" d="M16.9393 6.43934C17.5251 5.85355 18.4749 5.85355 19.0607 6.43934L23.5607 10.9393C24.1464 11.5251 24.1464 12.4749 23.5607 13.0607L19.0607 17.5607C18.4749 18.1464 17.5251 18.1464 16.9393 17.5607C16.3536 16.9749 16.3536 16.0251 16.9393 15.4393L20.3787 12L16.9393 8.56066C16.3536 7.97487 16.3536 7.02512 16.9393 6.43934Z" fill="currentColor"/>
</svg>
