<svg width="24" height="24" viewBox="0 0 24 24" fill="none" xmlns="http://www.w3.org/2000/svg">
<path fill-rule="evenodd" clip-rule="evenodd" d="M6.33186 5.45317C4.06833 6.67613 2.13157 8.57187 0.426031 10.7536C-0.14201 11.4803 -0.14201 12.5197 0.426031 13.2464C3.40737 17.0601 7.09521 20 12 20C14.5631 20 16.7938 19.1972 18.7651 17.8864L15.9476 15.0689C15.0327 16.2441 13.6046 17 12 17C9.23858 17 7 14.7614 7 12C7 10.3953 7.7559 8.96724 8.93105 8.05235L6.33186 5.45317ZM12.1228 7.00147L9.40816 4.28682C10.2329 4.09992 11.0958 4 12 4C16.9048 4 20.5926 6.93986 23.574 10.7536C24.142 11.4803 24.142 12.5197 23.574 13.2464C22.8037 14.2317 21.9863 15.1586 21.113 15.9917L16.9985 11.8772C16.9343 9.21332 14.7867 7.06568 12.1228 7.00147ZM10.3638 9.48507C9.54273 10.0203 9 10.9468 9 12C9 13.6569 10.3431 15 12 15C13.0532 15 13.9797 14.4573 14.5149 13.6362L10.3638 9.48507Z" fill="currentColor"/>
<path fill-rule="evenodd" clip-rule="evenodd" d="M0.292892 0.292892C0.683416 -0.0976315 1.31658 -0.0976315 1.70711 0.292892L23.7071 22.2929C24.0976 22.6834 24.0976 23.3166 23.7071 23.7071C23.3166 24.0976 22.6834 24.0976 22.2929 23.7071L0.292892 1.70711C-0.0976321 1.31658 -0.0976321 0.683418 0.292892 0.292892Z" fill="currentColor"/>
</svg>
