<svg width="24" height="24" viewBox="0 0 24 24" fill="none" xmlns="http://www.w3.org/2000/svg">
<path fill-rule="evenodd" clip-rule="evenodd" d="M3 0C1.34315 0 0 1.34315 0 3V11H11V0H3ZM13 0V11H24V3C24 1.34315 22.6569 0 21 0H13ZM24 13H13V24H21C22.6569 24 24 22.6569 24 21V13ZM11 24V13H0V21C0 22.6569 1.34315 24 3 24H11ZM5.50018 2.5C5.12362 2.5 4.81836 2.80526 4.81836 3.18182V4.81821L3.18182 4.81821C2.80526 4.81821 2.5 5.12347 2.5 5.50003C2.5 5.87659 2.80526 6.18185 3.18182 6.18185L4.81836 6.18185V7.8182C4.81836 8.19476 5.12362 8.50002 5.50018 8.50002C5.87674 8.50002 6.182 8.19453 6.182 7.81797V6.18185L7.81818 6.18185C8.19474 6.18185 8.5 5.87659 8.5 5.50004C8.5 5.12348 8.19474 4.81822 7.81818 4.81822L6.182 4.81822V3.18204C6.182 2.80548 5.87674 2.5 5.50018 2.5ZM6.74645 16.2154C7.03323 15.9286 7.49821 15.9286 7.78499 16.2154C8.07178 16.5021 8.07161 16.9673 7.78482 17.2541L6.53872 18.5002L7.7847 19.7462C8.07149 20.033 8.07149 20.4979 7.7847 20.7847C7.49792 21.0715 7.03294 21.0715 6.74615 20.7847L5.50017 19.5387L4.25409 20.7848C3.9673 21.0716 3.50215 21.0718 3.21537 20.785C2.92858 20.4982 2.92858 20.0332 3.21537 19.7464L4.46162 18.5002L3.21509 17.2536C2.9283 16.9669 2.9283 16.5019 3.21509 16.2151C3.50188 15.9283 3.96685 15.9283 4.25364 16.2151L5.50017 17.4616L6.74645 16.2154ZM16.1818 6.18184C15.8053 6.18184 15.5 5.87658 15.5 5.50002C15.5 5.12347 15.8053 4.81821 16.1818 4.81821L20.8182 4.81821C21.1947 4.81821 21.5 5.12347 21.5 5.50003C21.5 5.87658 21.1947 6.18184 20.8182 6.18184L16.1818 6.18184ZM17.7857 16.0071C17.7857 15.6125 18.1056 15.2897 18.5001 15.2897C18.8947 15.2897 19.2145 15.6125 19.2145 16.0071C19.2145 16.4016 18.8947 16.7245 18.5001 16.7245C18.1056 16.7245 17.7857 16.4016 17.7857 16.0071ZM17.7857 20.9901C17.7857 20.5956 18.1056 20.2695 18.5001 20.2695C18.8947 20.2695 19.2145 20.5956 19.2145 20.9901C19.2145 21.3847 18.8947 21.7107 18.5001 21.7107C18.1056 21.7107 17.7857 21.3847 17.7857 20.9901ZM15.5 18.5C15.5 18.1134 15.8134 17.8 16.2 17.8H20.8C21.1866 17.8 21.5 18.1134 21.5 18.5C21.5 18.8866 21.1866 19.2 20.8 19.2H16.2C15.8134 19.2 15.5 18.8866 15.5 18.5Z" fill="currentColor"/>
</svg>
