<svg width="24" height="24" viewBox="0 0 24 24" fill="none" xmlns="http://www.w3.org/2000/svg">
<path fill-rule="evenodd" clip-rule="evenodd" d="M2.84337 21.5126C3.96758 16.7905 7.92253 13.3793 12.6897 12.863V14.3136C12.6897 15.2273 13.2189 16.0412 14.0703 16.4359C14.9937 16.8669 16.0712 16.7116 16.8202 16.0425L23.2194 10.3175C23.7158 9.87235 24 9.24213 24 8.58862C24 7.93511 23.7158 7.30489 23.2194 6.85973L16.8202 1.13471C16.0712 0.465669 14.9937 0.310379 14.0703 0.741309C13.2189 1.136 12.6897 1.94998 12.6897 2.8636V4.43979C5.58568 5.07778 9.53674e-07 11.0474 9.53674e-07 18.2942C9.53674e-07 19.3424 0.13137 20.4243 0.389054 21.5113C0.525475 22.0924 1.032 22.5 1.61558 22.5C2.19789 22.5 2.70568 22.0924 2.84337 21.5126Z" fill="currentColor"/>
</svg>
