<svg width="24" height="24" viewBox="0 0 24 24" fill="none" xmlns="http://www.w3.org/2000/svg">
<path fill-rule="evenodd" clip-rule="evenodd" d="M9.24261 4.86076L15.9221 1.34462C16.8704 0.845439 18.0129 0.889988 18.9194 1.46149L21.3293 2.98077C21.6487 3.18208 22.0184 3.28892 22.3959 3.28892H22.9999C23.5522 3.28892 23.9999 3.73663 23.9999 4.28892V12.4377C23.9999 12.8545 23.662 13.1924 23.2452 13.1924C23.0312 13.1924 22.8273 13.1016 22.6842 12.9425L17.479 7.15722C17.1258 6.76463 16.5914 6.58801 16.0738 6.69281L10.3108 7.85975C9.43743 8.0366 8.58679 7.46952 8.4141 6.59533C8.27625 5.89753 8.61321 5.19208 9.24261 4.86076ZM0 11.092V5.3893C0 4.83701 0.447715 4.3893 1 4.3893H2.61126C3.0408 4.3893 3.45892 4.25101 3.80376 3.9949L6.02885 2.34229C6.71852 1.83006 7.55477 1.55348 8.41385 1.55348H13.0909L8.59806 3.82786C6.99434 4.63969 6.56969 6.73636 7.73114 8.10824C8.35085 8.84023 9.30385 9.20146 10.2531 9.06417L15.834 8.25698C16.1649 8.20912 16.4978 8.3298 16.7212 8.57857L17.5133 9.46079C17.559 9.5021 17.6032 9.54614 17.6456 9.59292L21.5853 13.9342C21.6756 14.0338 21.7529 14.1411 21.8171 14.2539L21.8182 14.255L21.8179 14.2552C22.2562 15.0259 22.0906 16.0536 21.3761 16.6301C20.9929 16.9393 20.5222 17.0587 20.0739 16.9945C20.4866 17.8707 20.2838 18.9752 19.5087 19.6267C18.9438 20.1016 18.2109 20.2171 17.57 19.9939C17.5444 20.6154 17.2418 21.2213 16.6933 21.5901C16.1533 21.9533 15.4992 21.9973 14.9437 21.7569C14.8399 22.0887 14.6427 22.3936 14.3566 22.6245C13.6504 23.1943 12.6507 23.1059 12.0541 22.4251L12.355 22.1856C13.44 21.3221 13.6282 19.7317 12.7754 18.6332C12.3402 18.0727 11.7181 17.7486 11.0691 17.6803C11.1065 17.0814 10.9348 16.4669 10.5397 15.958C10.0983 15.3895 9.46468 15.0642 8.80557 15.0023C8.83646 14.4117 8.66408 13.8077 8.27471 13.3062C7.77848 12.667 7.03915 12.3352 6.29389 12.3396C6.27872 11.8172 6.1041 11.295 5.7606 10.8526C4.90776 9.75411 3.33684 9.5636 2.25186 10.4271L1.52092 11.0088C1.16236 11.2941 0.901745 11.6589 0.744278 12.059C0.315878 11.946 0 11.5559 0 11.092Z" fill="currentColor"/>
<path fill-rule="evenodd" clip-rule="evenodd" d="M4.9029 11.5351C4.42238 10.9162 3.53729 10.8089 2.92598 11.2954L2.19504 11.8771C1.58374 12.3635 1.47771 13.2597 1.95823 13.8786C2.43874 14.4975 3.32384 14.6048 3.93514 14.1183L4.66608 13.5366C5.27739 13.0501 5.38341 12.154 4.9029 11.5351ZM7.41701 13.9887C6.93649 13.3698 6.05139 13.2624 5.44009 13.7489L3.86424 15.003C3.25293 15.4895 3.1469 16.3856 3.62742 17.0045C4.10794 17.6234 4.99303 17.7308 5.60434 17.2443L7.18019 15.9902C7.79149 15.5037 7.89752 14.6076 7.41701 13.9887ZM7.70507 16.4008C8.31637 15.9143 9.20147 16.0216 9.68198 16.6405C10.1625 17.2594 10.0565 18.1555 9.44517 18.642L7.81057 19.9429C7.19927 20.4294 6.31417 20.322 5.83366 19.7031C5.35314 19.0842 5.45917 18.1881 6.07047 17.7016L7.70507 16.4008ZM11.9176 19.3157C11.4371 18.6968 10.552 18.5895 9.94073 19.076L9.50449 19.4231C8.89318 19.9096 8.78715 20.8057 9.26767 21.4246C9.74818 22.0436 10.6333 22.1509 11.2446 21.6644L11.6808 21.3172C12.2921 20.8307 12.3982 19.9346 11.9176 19.3157Z" fill="currentColor"/>
</svg>
