<svg width="24" height="24" viewBox="0 0 24 24" fill="none" xmlns="http://www.w3.org/2000/svg">
<path d="M17.2095 1C16.3118 1 15.424 1.1844 14.5972 1.5415C13.7704 1.89854 13.022 2.42067 12.3936 3.07599C12.387 3.08288 12.3805 3.08987 12.374 3.09696L12 3.5L11.6252 3.09677C11.6188 3.08969 11.6123 3.08271 11.6057 3.07582C10.3358 1.75224 8.60445 1.0006 6.78997 1.0006C4.9755 1.0006 3.24413 1.75224 1.97426 3.07582C0.705738 4.39798 0 6.18272 0 8.03541C0 9.8881 0.705738 11.6728 1.97426 12.995L11.2781 22.6923C11.4667 22.8889 11.7273 23 11.9997 23C12.2721 23 12.5327 22.8889 12.7213 22.6923L22.0252 12.995C22.6538 12.3401 23.1503 11.5648 23.4884 10.7144C23.8265 9.86391 24 8.95371 24 8.03541C24 7.1171 23.8265 6.20691 23.4884 5.35646C23.1503 4.50596 22.6537 3.73057 22.025 3.07565C21.3967 2.4205 20.6484 1.89849 19.8218 1.5415C18.9949 1.1844 18.1071 1 17.2095 1Z" fill="currentColor"/>
</svg>
