<svg width="24" height="24" viewBox="0 0 24 24" fill="none" xmlns="http://www.w3.org/2000/svg">
<path d="M1.44 7.10886C0.533499 7.79734 0 8.87785 0 10.0253V21.5696C0 22.9119 1.07452 24 2.4 24H7.4C7.95229 24 8.4 23.5523 8.4 23V18.0304C8.4 16.6881 9.47452 15.6 10.8 15.6H13.2C14.5255 15.6 15.6 16.6881 15.6 18.0304V23C15.6 23.5523 16.0477 24 16.6 24H21.6C22.9255 24 24 22.9119 24 21.5696V10.0253C24 8.87785 23.4665 7.79734 22.56 7.10886L14.16 0.729114C12.88 -0.243038 11.12 -0.243038 9.84 0.729114L1.44 7.10886Z" fill="currentColor"/>
</svg>
