<svg width="24" height="24" viewBox="0 0 24 24" fill="none" xmlns="http://www.w3.org/2000/svg">
<path d="M20.4 0H3.6C1.56 0 0 1.56 0 3.6V20.4C0 22.44 1.56 24 3.6 24H20.4C22.44 24 24 22.44 24 20.4V3.6C24 1.56 22.44 0 20.4 0ZM21.6 14.28L19.32 12C17.88 10.68 15.6 10.68 14.28 12L13.2 13.08L9.72 9.6C8.28 8.28 6 8.28 4.68 9.6L2.4 11.88V3.6C2.4 2.88 2.88 2.4 3.6 2.4H20.4C21.12 2.4 21.6 2.88 21.6 3.6V14.28Z" fill="currentColor"/>
<circle cx="13.5" cy="7.5" r="1.5" fill="currentColor"/>
<path d="M4 3C3.44772 3 3 3.44772 3 4V12H1V2H2V1L22 1V2H23V15H21V4C21 3.44771 20.5523 3 20 3L4 3Z" fill="currentColor"/>
</svg>
