<svg width="24" height="24" viewBox="0 0 24 24" fill="none" xmlns="http://www.w3.org/2000/svg">
<path fill-rule="evenodd" clip-rule="evenodd" d="M10.8 0C7.48645 0 4.8 2.68645 4.8 6C4.8 9.31355 7.48645 12 10.8 12C14.1135 12 16.8 9.31355 16.8 6C16.8 2.68645 14.1135 0 10.8 0ZM15.1474 14.7527L11.7884 15.2692L11.6353 15.3056C11.0025 15.5122 10.7751 16.3335 11.2651 16.8354L13.7213 19.3502L13.1411 22.92L13.1283 23.0702C13.124 23.757 13.8736 24.232 14.5067 23.8819L17.5 22.2264L20.4933 23.8819L20.6305 23.9445C21.2757 24.1799 21.9754 23.634 21.8589 22.92L21.2769 19.3502L23.7349 16.8354L23.8354 16.7144C24.2169 16.1688 23.905 15.3758 23.2116 15.2692L19.8508 14.7527L18.3404 11.5339C18.0063 10.822 16.9937 10.822 16.6596 11.5339L15.1474 14.7527ZM9.27353 14.568L9.95004 14.3882H9C4.02944 14.3882 0 18.4176 0 23.3882V23.9999H10.8674L11.5 20.3809L8.42827 16.9776C7.63662 16.2054 8.00397 14.9418 9.02623 14.6239L9.27353 14.568Z" fill="currentColor"/>
</svg>
