<svg width="24" height="24" viewBox="0 0 24 24" fill="none" xmlns="http://www.w3.org/2000/svg">
<path fill-rule="evenodd" clip-rule="evenodd" d="M21 9C21 12.5507 18.9438 15.6212 15.9572 17.0856L15.2764 18.4472C15.107 18.786 14.7607 19 14.382 19H9.61803C9.23926 19 8.893 18.786 8.72361 18.4472L8.04281 17.0856C5.05619 15.6212 3 12.5507 3 9C3 4.02944 7.02944 0 12 0C16.9706 0 21 4.02944 21 9ZM9 21C9 20.4477 9.44772 20 10 20H14C14.5523 20 15 20.4477 15 21V22C15 22.5523 14.5523 23 14 23C14 23.5523 13.5523 24 13 24H11C10.4477 24 10 23.5523 10 23C9.44772 23 9 22.5523 9 22V21ZM12 2.5C11.4477 2.5 11 2.94772 11 3.5C11 4.05228 11.4477 4.5 12 4.5C12.9443 4.5 14.0935 4.98964 15.0259 5.81234C15.964 6.6401 16.5 7.63908 16.5 8.5C16.5 9.05228 16.9477 9.5 17.5 9.5C18.0523 9.5 18.5 9.05228 18.5 8.5C18.5 6.86092 17.536 5.3599 16.3491 4.31266C15.1565 3.26036 13.5557 2.5 12 2.5Z" fill="currentColor"/>
</svg>
