<svg width="24" height="24" viewBox="0 0 24 24" fill="none" xmlns="http://www.w3.org/2000/svg">
<path d="M22.135 10.874L17.6296 15.3777C14.6998 18.3093 9.71238 17.5045 7.644 14.0139C8.281 13.3769 10.0878 11.7744 10.0878 11.7744C10.9606 13.8891 13.5543 14.9493 15.3777 13.1258L19.8815 8.62204C21.1241 7.37945 21.1241 5.35927 19.8815 4.11748C18.6405 2.87569 16.6203 2.87569 15.3777 4.11748L13.7759 5.72087C12.4765 5.21466 11.0761 5.0786 9.71296 5.27841L13.1258 1.8656C15.6141 -0.621867 19.6466 -0.621867 22.1349 1.8656C24.6217 4.35317 24.6217 8.3865 22.135 10.874ZM10.2246 18.2797L8.62204 19.8831C7.38024 21.1241 5.35926 21.1241 4.11746 19.8831C2.87566 18.6405 2.87566 16.6203 4.11746 15.3778L8.62204 10.874C9.86464 9.63143 11.884 9.63143 13.1258 10.874C13.5139 11.262 13.9128 12.2239 13.9128 12.2239C13.9128 12.2239 15.586 10.6663 16.3451 9.90747C14.2897 6.40627 9.29128 5.70034 6.3694 8.62214L1.86561 13.1259C-0.621871 15.6142 -0.621871 19.6467 1.86561 22.135C4.3531 24.6217 8.38645 24.6217 10.874 22.135L14.2876 18.7214C12.9237 18.922 11.5232 18.7851 10.2246 18.2797Z" fill="currentColor"/>
</svg>
