<svg width="24" height="24" viewBox="0 0 24 24" fill="none" xmlns="http://www.w3.org/2000/svg">
<path fill-rule="evenodd" clip-rule="evenodd" d="M3 1C1.34315 1 0 2.34315 0 4V16C0 17.6569 1.34315 19 3 19H9V21H6C5.44772 21 5 21.4477 5 22C5 22.5523 5.44772 23 6 23H18C18.5523 23 19 22.5523 19 22C19 21.4477 18.5523 21 18 21H15V19H21C22.6569 19 24 17.6569 24 16V4C24 2.34315 22.6569 1 21 1H3ZM18 5C17.4477 5 17 5.44772 17 6V14C17 14.5523 17.4477 15 18 15C18.5523 15 19 14.5523 19 14V6C19 5.44772 18.5523 5 18 5ZM11 9C11 8.44772 11.4477 8 12 8C12.5523 8 13 8.44772 13 9V14C13 14.5523 12.5523 15 12 15C11.4477 15 11 14.5523 11 14V9ZM6 10C5.44772 10 5 10.4477 5 11V14C5 14.5523 5.44772 15 6 15C6.55228 15 7 14.5523 7 14V11C7 10.4477 6.55228 10 6 10Z" fill="currentColor"/>
</svg>
