<svg width="24" height="24" viewBox="0 0 24 24" fill="none" xmlns="http://www.w3.org/2000/svg">
<path fill-rule="evenodd" clip-rule="evenodd" d="M5.46925 9C5.62696 7.00422 6.28102 5.49355 7.23358 4.45338C8.32904 3.25717 9.93762 2.55319 12 2.55319C14.0624 2.55319 15.671 3.25717 16.7664 4.45338C17.719 5.49355 18.373 7.00422 18.5307 9H18C17.4477 9 17 9.44771 17 10V19C17 19.5523 17.4477 20 18 20C18 20.5523 17.5523 21 17 21H15.7324C15.3866 20.4022 14.7403 20 14 20H13C11.8954 20 11 20.8954 11 22C11 23.1046 11.8954 24 13 24H14C14.7403 24 15.3866 23.5978 15.7324 23H17C18.6569 23 20 21.6569 20 20C22.2091 20 24 18.2091 24 16V13C24 11.1279 22.7139 9.55614 20.977 9.12016C20.8307 6.50118 19.9908 4.28999 18.5201 2.68403C16.8912 0.905358 14.6079 0 12 0C9.39211 0 7.1088 0.905358 5.47994 2.68403C4.00924 4.28999 3.16926 6.50118 3.02304 9.12016C1.28613 9.55614 0 11.1279 0 13V16C0 18.2091 1.79086 20 4 20H6C6.55228 20 7 19.5523 7 19V10C7 9.44772 6.55228 9 6 9H5.46925Z" fill="currentColor"/>
</svg>
