<svg width="24" height="24" viewBox="0 0 24 24" fill="none" xmlns="http://www.w3.org/2000/svg">
<path fill-rule="evenodd" clip-rule="evenodd" d="M0 9.29748C0 7.87481 0.755646 6.55921 1.98452 5.84237L9.98452 1.1757C11.23 0.449184 12.77 0.449186 14.0155 1.1757L22.0155 5.84237C23.2444 6.55921 24 7.87481 24 9.29748L24 20C24 22.2091 22.2091 24 20 24L4 24C1.79086 24 0 22.2091 0 20L0 9.29748ZM10.8906 13.2604L3 8L11.0287 3.5396C11.6328 3.20402 12.3672 3.20402 12.9713 3.5396L21 8L13.1094 13.2604C12.4376 13.7083 11.5624 13.7083 10.8906 13.2604Z" fill="currentColor"/>
</svg>
