<svg width="24" height="24" viewBox="0 0 24 24" fill="none" xmlns="http://www.w3.org/2000/svg">
<mask id="path-1-inside-1_8644_17013" fill="white">
<path d="M0 6.50011C0 5.67168 0.671573 5.00011 1.5 5.00011H22.5C23.3284 5.00011 24 5.67168 24 6.50011V8.50011C24 9.32853 23.3284 10.0001 22.5 10.0001H1.5C0.671573 10.0001 0 9.32853 0 8.50011V6.50011Z"/>
<path fill-rule="evenodd" clip-rule="evenodd" d="M14.1178 0.287002C14.7878 -0.200256 15.7259 -0.0521306 16.2132 0.617848L20.2132 6.11785C20.7005 6.78783 20.5523 7.72595 19.8824 8.21321C19.2124 8.70047 18.2743 8.55234 17.787 7.88236L13.787 2.38236C13.2997 1.71238 13.4479 0.774259 14.1178 0.287002Z"/>
<path fill-rule="evenodd" clip-rule="evenodd" d="M9.88221 0.287002C10.5522 0.774259 10.7003 1.71238 10.2131 2.38236L6.21306 7.88236C5.7258 8.55234 4.78767 8.70047 4.11769 8.21321C3.44771 7.72595 3.29959 6.78783 3.78685 6.11785L7.78685 0.617848C8.2741 -0.0521306 9.21223 -0.200256 9.88221 0.287002Z"/>
<path fill-rule="evenodd" clip-rule="evenodd" d="M23 11.0001H1L2.98459 21.5545C3.25126 22.9727 4.48986 24.0001 5.93292 24.0001H18.0671C19.5101 24.0001 20.7487 22.9727 21.0154 21.5545L23 11.0001ZM13 15.0001C13 14.4478 12.5523 14.0001 12 14.0001C11.4477 14.0001 11 14.4478 11 15.0001V20.0001C11 20.5524 11.4477 21.0001 12 21.0001C12.5523 21.0001 13 20.5524 13 20.0001V15.0001ZM16 14.0001C16.5523 14.0001 17 14.4478 17 15.0001V20.0001C17 20.5524 16.5523 21.0001 16 21.0001C15.4477 21.0001 15 20.5524 15 20.0001V15.0001C15 14.4478 15.4477 14.0001 16 14.0001ZM9 15.0001C9 14.4478 8.55228 14.0001 8 14.0001C7.44772 14.0001 7 14.4478 7 15.0001V20.0001C7 20.5524 7.44772 21.0001 8 21.0001C8.55228 21.0001 9 20.5524 9 20.0001V15.0001Z"/>
</mask>
<path d="M0 6.50011C0 5.67168 0.671573 5.00011 1.5 5.00011H22.5C23.3284 5.00011 24 5.67168 24 6.50011V8.50011C24 9.32853 23.3284 10.0001 22.5 10.0001H1.5C0.671573 10.0001 0 9.32853 0 8.50011V6.50011Z" fill="currentColor"/>
<path fill-rule="evenodd" clip-rule="evenodd" d="M14.1178 0.287002C14.7878 -0.200256 15.7259 -0.0521306 16.2132 0.617848L20.2132 6.11785C20.7005 6.78783 20.5523 7.72595 19.8824 8.21321C19.2124 8.70047 18.2743 8.55234 17.787 7.88236L13.787 2.38236C13.2997 1.71238 13.4479 0.774259 14.1178 0.287002Z" fill="currentColor"/>
<path fill-rule="evenodd" clip-rule="evenodd" d="M9.88221 0.287002C10.5522 0.774259 10.7003 1.71238 10.2131 2.38236L6.21306 7.88236C5.7258 8.55234 4.78767 8.70047 4.11769 8.21321C3.44771 7.72595 3.29959 6.78783 3.78685 6.11785L7.78685 0.617848C8.2741 -0.0521306 9.21223 -0.200256 9.88221 0.287002Z" fill="currentColor"/>
<path fill-rule="evenodd" clip-rule="evenodd" d="M23 11.0001H1L2.98459 21.5545C3.25126 22.9727 4.48986 24.0001 5.93292 24.0001H18.0671C19.5101 24.0001 20.7487 22.9727 21.0154 21.5545L23 11.0001ZM13 15.0001C13 14.4478 12.5523 14.0001 12 14.0001C11.4477 14.0001 11 14.4478 11 15.0001V20.0001C11 20.5524 11.4477 21.0001 12 21.0001C12.5523 21.0001 13 20.5524 13 20.0001V15.0001ZM16 14.0001C16.5523 14.0001 17 14.4478 17 15.0001V20.0001C17 20.5524 16.5523 21.0001 16 21.0001C15.4477 21.0001 15 20.5524 15 20.0001V15.0001C15 14.4478 15.4477 14.0001 16 14.0001ZM9 15.0001C9 14.4478 8.55228 14.0001 8 14.0001C7.44772 14.0001 7 14.4478 7 15.0001V20.0001C7 20.5524 7.44772 21.0001 8 21.0001C8.55228 21.0001 9 20.5524 9 20.0001V15.0001Z" fill="currentColor"/>
<path d="M16.2132 0.617848L15.4045 1.20602L16.2132 0.617848ZM14.1178 0.287002L14.706 1.09574V1.09574L14.1178 0.287002ZM20.2132 6.11785L19.4045 6.70602V6.70602L20.2132 6.11785ZM19.8824 8.21321L19.2942 7.40447V7.40447L19.8824 8.21321ZM17.787 7.88236L18.5957 7.29419L17.787 7.88236ZM13.787 2.38236L14.5957 1.79419L13.787 2.38236ZM10.2131 2.38236L9.40432 1.79419V1.79419L10.2131 2.38236ZM9.88221 0.287002L9.29404 1.09574V1.09574L9.88221 0.287002ZM6.21306 7.88236L5.40432 7.29419H5.40432L6.21306 7.88236ZM4.11769 8.21321L4.70587 7.40447L4.11769 8.21321ZM3.78685 6.11785L4.59558 6.70602L4.59558 6.70602L3.78685 6.11785ZM7.78685 0.617848L8.59558 1.20602V1.20602L7.78685 0.617848ZM1 11.0001V10.0001H-0.205559L0.017223 11.1849L1 11.0001ZM23 11.0001L23.9828 11.1849L24.2056 10.0001H23V11.0001ZM2.98459 21.5545L3.96736 21.3697L2.98459 21.5545ZM21.0154 21.5545L21.9982 21.7393L21.0154 21.5545ZM1.5 6.00011H22.5V4.00011H1.5V6.00011ZM23 6.50011V8.50011H25V6.50011H23ZM22.5 9.00011H1.5V11.0001H22.5V9.00011ZM1 8.50011V6.50011H-1V8.50011H1ZM1.5 9.00011C1.22386 9.00011 1 8.77625 1 8.50011H-1C-1 9.88082 0.119288 11.0001 1.5 11.0001V9.00011ZM23 8.50011C23 8.77625 22.7761 9.00011 22.5 9.00011V11.0001C23.8807 11.0001 25 9.88082 25 8.50011H23ZM22.5 6.00011C22.7761 6.00011 23 6.22396 23 6.50011H25C25 5.11939 23.8807 4.00011 22.5 4.00011V6.00011ZM1.5 4.00011C0.119288 4.00011 -1 5.11939 -1 6.50011H1C1 6.22396 1.22386 6.00011 1.5 6.00011V4.00011ZM17.0219 0.0296766C16.2098 -1.08695 14.6463 -1.33383 13.5297 -0.521734L14.706 1.09574C14.9293 0.933319 15.242 0.982694 15.4045 1.20602L17.0219 0.0296766ZM21.0219 5.52968L17.0219 0.0296766L15.4045 1.20602L19.4045 6.70602L21.0219 5.52968ZM20.4705 9.02195C21.5872 8.20985 21.834 6.64631 21.0219 5.52968L19.4045 6.70602C19.5669 6.92935 19.5175 7.24205 19.2942 7.40447L20.4705 9.02195ZM16.9783 8.47053C17.7904 9.58717 19.3539 9.83404 20.4705 9.02195L19.2942 7.40447C19.0709 7.56689 18.7581 7.51752 18.5957 7.29419L16.9783 8.47053ZM12.9783 2.97054L16.9783 8.47054L18.5957 7.29419L14.5957 1.79419L12.9783 2.97054ZM13.5297 -0.521734C12.413 0.290361 12.1662 1.8539 12.9783 2.97054L14.5957 1.79419C14.4333 1.57087 14.4827 1.25816 14.706 1.09574L13.5297 -0.521734ZM11.0218 2.97054C11.8339 1.8539 11.587 0.290361 10.4704 -0.521735L9.29404 1.09574C9.51736 1.25816 9.56674 1.57087 9.40432 1.79419L11.0218 2.97054ZM7.02179 8.47054L11.0218 2.97054L9.40432 1.79419L5.40432 7.29419L7.02179 8.47054ZM3.52952 9.02195C4.64615 9.83404 6.2097 9.58717 7.02179 8.47054L5.40432 7.29419C5.2419 7.51752 4.92919 7.56689 4.70587 7.40447L3.52952 9.02195ZM2.97811 5.52968C2.16602 6.64631 2.41289 8.20985 3.52952 9.02195L4.70587 7.40447C4.48254 7.24205 4.43316 6.92935 4.59558 6.70602L2.97811 5.52968ZM6.97811 0.0296766L2.97811 5.52968L4.59558 6.70602L8.59558 1.20602L6.97811 0.0296766ZM10.4704 -0.521734C9.35375 -1.33383 7.79021 -1.08695 6.97811 0.0296767L8.59558 1.20602C8.758 0.982694 9.07071 0.933319 9.29404 1.09574L10.4704 -0.521734ZM1 12.0001H23V10.0001H1V12.0001ZM3.96736 21.3697L1.98278 10.8153L0.017223 11.1849L2.00181 21.7393L3.96736 21.3697ZM5.93292 23.0001C4.97088 23.0001 4.14514 22.3152 3.96736 21.3697L2.00181 21.7393C2.35737 23.6302 4.00884 25.0001 5.93292 25.0001V23.0001ZM18.0671 23.0001H5.93292V25.0001H18.0671V23.0001ZM20.0326 21.3697C19.8549 22.3152 19.0291 23.0001 18.0671 23.0001V25.0001C19.9912 25.0001 21.6426 23.6302 21.9982 21.7393L20.0326 21.3697ZM22.0172 10.8153L20.0326 21.3697L21.9982 21.7393L23.9828 11.1849L22.0172 10.8153ZM12 15.0001H14C14 13.8955 13.1046 13.0001 12 13.0001V15.0001ZM12 15.0001V13.0001C10.8954 13.0001 10 13.8955 10 15.0001H12ZM12 20.0001V15.0001H10V20.0001H12ZM12 20.0001H10C10 21.1047 10.8954 22.0001 12 22.0001V20.0001ZM12 20.0001V22.0001C13.1046 22.0001 14 21.1047 14 20.0001H12ZM12 15.0001V20.0001H14V15.0001H12ZM18 15.0001C18 13.8955 17.1046 13.0001 16 13.0001V15.0001H18ZM18 20.0001V15.0001H16V20.0001H18ZM16 22.0001C17.1046 22.0001 18 21.1047 18 20.0001H16V22.0001ZM14 20.0001C14 21.1047 14.8954 22.0001 16 22.0001V20.0001H14ZM14 15.0001V20.0001H16V15.0001H14ZM16 13.0001C14.8954 13.0001 14 13.8955 14 15.0001H16V13.0001ZM8 15.0001H10C10 13.8955 9.10457 13.0001 8 13.0001V15.0001ZM8 15.0001V13.0001C6.89543 13.0001 6 13.8955 6 15.0001H8ZM8 20.0001V15.0001H6V20.0001H8ZM8 20.0001H6C6 21.1047 6.89543 22.0001 8 22.0001V20.0001ZM8 20.0001V22.0001C9.10457 22.0001 10 21.1047 10 20.0001H8ZM8 15.0001V20.0001H10V15.0001H8Z" fill="currentColor" mask="url(#path-1-inside-1_8644_17013)"/>
</svg>
