<svg width="24" height="24" viewBox="0 0 24 24" fill="none" xmlns="http://www.w3.org/2000/svg">
<path fill-rule="evenodd" clip-rule="evenodd" d="M16.2132 0.617848C15.726 -0.0521306 14.7878 -0.200256 14.1178 0.287002C13.4479 0.774259 13.2997 1.71238 13.787 2.38236L15.6908 5.00009H8.30941L10.2132 2.38236C10.7005 1.71238 10.5523 0.774259 9.88236 0.287002C9.21239 -0.200256 8.27426 -0.0521306 7.787 0.617848L4.59992 5.00009H1.5C0.671573 5.00009 0 5.67166 0 6.50009V8.50009C0 9.32852 0.671573 10.0001 1.5 10.0001H22.5C23.3284 10.0001 24 9.32852 24 8.50009V6.50009C24 5.67166 23.3284 5.00009 22.5 5.00009H19.4003L16.2132 0.617848ZM1 11H23L21.0154 21.5544C20.7487 22.9726 19.5101 24 18.0671 24H5.93292C4.48986 24 3.25126 22.9726 2.98459 21.5544L1 11ZM12 13C11.1677 13 10.3936 13.2549 9.75311 13.6903C9.75176 13.3088 9.44209 13 9.06029 13C8.67765 13 8.36746 13.3102 8.36746 13.6928V15.3005C8.36746 15.6418 8.61608 15.9323 8.95333 15.985L10.4232 16.2147C10.8012 16.2737 11.1556 16.0151 11.2147 15.6371C11.2737 15.2591 11.0151 14.9047 10.6371 14.8456L10.5405 14.8305C10.9573 14.5494 11.4588 14.3856 12 14.3856C13.4439 14.3856 14.6144 15.5561 14.6144 17C14.6144 18.4439 13.4439 19.6144 12 19.6144C10.7931 19.6144 9.77729 18.7966 9.4763 17.685C9.3763 17.3156 9.07546 17 8.69282 17C8.31019 17 7.99372 17.3127 8.05924 17.6897C8.38606 19.5702 10.0261 21 12 21C14.2091 21 16 19.2091 16 17C16 14.7909 14.2091 13 12 13Z" fill="currentColor"/>
</svg>
