<svg width="24" height="24" viewBox="0 0 24 24" fill="none" xmlns="http://www.w3.org/2000/svg">
<path fill-rule="evenodd" clip-rule="evenodd" d="M3 1C1.346 1 0 2.346 0 4V22C0 22.36 0.194 22.693 0.507 22.87C0.66 22.957 0.83 23 1 23C1.178 23 1.356 22.953 1.514 22.857L5.039 20.143C5.195 20.048 5.373 20 5.553 20H21C22.655 20 24 18.654 24 17V4C24 2.346 22.655 1 21 1H3ZM5 13.75C5 13.0596 5.55964 12.5 6.25 12.5H11.75C12.4404 12.5 13 13.0596 13 13.75C13 14.4404 12.4404 15 11.75 15H6.25C5.55964 15 5 14.4404 5 13.75ZM6.25 7C5.55964 7 5 7.55964 5 8.25C5 8.94036 5.55964 9.5 6.25 9.5H16.75C17.4404 9.5 18 8.94036 18 8.25C18 7.55964 17.4404 7 16.75 7H6.25Z" fill="currentColor"/>
</svg>
