<svg width="24" height="24" viewBox="0 0 24 24" fill="none" xmlns="http://www.w3.org/2000/svg">
<circle opacity="0.1" cx="12" cy="12" r="12" fill="currentColor"/>
<path fill-rule="evenodd" clip-rule="evenodd" d="M13.9303 16.5H8.20433C7.81534 16.5 7.5 16.1847 7.5 15.7957L7.5 10.0697C7.5 9.68073 7.81534 9.36539 8.20433 9.36539C8.59331 9.36539 8.90865 9.68073 8.90865 10.0697L8.90918 14.0954L15.2976 7.70629C15.5727 7.43124 16.0187 7.43124 16.2937 7.70629C16.5688 7.98135 16.5688 8.4273 16.2937 8.70236L9.90525 15.0915L13.9303 15.0913C14.3193 15.0913 14.6346 15.4067 14.6346 15.7957C14.6346 16.1847 14.3193 16.5 13.9303 16.5Z" fill="currentColor"/>
</svg>
