<svg width="24" height="24" viewBox="0 0 24 24" fill="none" xmlns="http://www.w3.org/2000/svg">
<path fill-rule="evenodd" clip-rule="evenodd" d="M1 3C1 1.34315 2.34315 0 4 0H14C15.6569 0 17 1.34315 17 3V8.0213C16.8874 8.00754 16.7738 8.00039 16.6598 8H15.2752C15.0121 8.00023 14.7514 8.03625 14.5 8.10625V3.5C14.5 2.94772 14.0523 2.5 13.5 2.5H4.5C3.94772 2.5 3.5 2.94771 3.5 3.5V20.5C3.5 21.0523 3.94772 21.5 4.5 21.5H8.46098C8.4949 21.6299 8.53803 21.7575 8.59019 21.8819C8.73556 22.2286 8.94816 22.543 9.21556 22.8072L10.1929 23.7846C10.27 23.8612 10.3509 23.9331 10.4353 24H4C2.34315 24 1 22.6569 1 21V3Z" fill="currentColor"/>
<path fill-rule="evenodd" clip-rule="evenodd" d="M14.5164 10.3452C14.7379 10.1241 15.0374 9.99999 15.3496 10H16.7063C17.013 10.0164 17.3011 10.1527 17.5089 10.3799C17.7167 10.607 17.8278 10.9069 17.8182 11.2153V11.9809C17.8211 12.0263 17.8373 12.0698 17.8646 12.106C17.892 12.1422 17.9293 12.1696 17.972 12.1846C18.0181 12.2062 18.0681 12.2181 18.1189 12.2198C18.1706 12.2178 18.22 12.198 18.2587 12.1636L18.7972 11.6227C18.9061 11.5126 19.0358 11.4254 19.1787 11.3663C19.3216 11.3072 19.4748 11.2773 19.6294 11.2785C19.7829 11.2771 19.9351 11.3068 20.0769 11.366C20.2187 11.4251 20.3472 11.5124 20.4545 11.6227L21.3916 12.564C21.5026 12.672 21.5909 12.8014 21.6512 12.9444C21.7115 13.0874 21.7425 13.2411 21.7425 13.3964C21.7425 13.5517 21.7115 13.7054 21.6512 13.8484C21.5909 13.9914 21.5026 14.1207 21.3916 14.2288L20.8531 14.7697C20.8282 14.8084 20.8149 14.8535 20.8149 14.8997C20.8149 14.9458 20.8282 14.9909 20.8531 15.0296C20.8951 15.135 20.965 15.2193 21.0629 15.2193H21.8252C22.1368 15.2193 22.4356 15.3436 22.6559 15.5649C22.8762 15.7862 23 16.0864 23 16.3994V17.727C22.9894 18.0279 22.8647 18.3133 22.6515 18.5248C22.4383 18.7363 22.1527 18.858 21.8531 18.865H21.0909C21.0455 18.8702 21.0024 18.8881 20.9665 18.9167C20.9307 18.9452 20.9035 18.9833 20.8881 19.0266C20.8631 19.0653 20.8498 19.1104 20.8498 19.1566C20.8498 19.2027 20.8631 19.2478 20.8881 19.2865L21.4266 19.8274C21.5359 19.9364 21.6226 20.0661 21.6818 20.209C21.741 20.3518 21.7715 20.5051 21.7715 20.6598C21.7715 20.8146 21.741 20.9678 21.6818 21.1106C21.6226 21.2535 21.5359 21.3832 21.4266 21.4922L20.4895 22.4335C20.3819 22.5434 20.2534 22.6305 20.1117 22.6897C19.9699 22.7488 19.8178 22.7787 19.6643 22.7777C19.5098 22.7789 19.3566 22.749 19.2137 22.6899C19.0708 22.6308 18.9411 22.5437 18.8322 22.4335L18.3007 21.8926C18.2814 21.8736 18.2584 21.8588 18.2331 21.8491C18.2079 21.8394 18.1809 21.8351 18.1539 21.8364C18.1169 21.8291 18.0789 21.8291 18.042 21.8364C17.9371 21.8856 17.8601 21.9559 17.8601 22.0542V22.8199C17.8583 23.1335 17.733 23.4337 17.5115 23.6548C17.2901 23.8759 16.9906 24 16.6783 24H15.3567C15.0451 24 14.7462 23.8757 14.5259 23.6543C14.3056 23.433 14.1818 23.1329 14.1818 22.8199V22.0542C14.1789 22.0088 14.1627 21.9653 14.1354 21.9291C14.108 21.8929 14.0707 21.8655 14.028 21.8505C13.9795 21.8404 13.9296 21.8404 13.8811 21.8505C13.8302 21.8499 13.7807 21.8673 13.7413 21.8997L13.2028 22.4405C13.0939 22.5507 12.9642 22.6378 12.8213 22.697C12.6784 22.7561 12.5252 22.7859 12.3706 22.7848C12.2171 22.7862 12.0649 22.7564 11.9231 22.6973C11.7813 22.6381 11.6528 22.5508 11.5455 22.4405L10.6084 21.4992C10.4975 21.3904 10.4094 21.2604 10.3494 21.1168C10.2893 20.9733 10.2585 20.819 10.2587 20.6633C10.2628 20.3496 10.3882 20.0499 10.6084 19.8274L11.1469 19.2935C11.1718 19.2548 11.1851 19.2097 11.1851 19.1636C11.1851 19.1175 11.1718 19.0723 11.1469 19.0336C11.1049 18.9282 11.035 18.844 10.9371 18.844H10.1748C10.0206 18.844 9.86778 18.8134 9.72524 18.7541C9.5827 18.6948 9.45319 18.6079 9.3441 18.4983C9.23501 18.3887 9.14847 18.2586 9.08943 18.1154C9.03039 17.9723 9 17.8188 9 17.6638V16.3362C9.00185 16.0244 9.12644 15.726 9.34657 15.5062C9.56669 15.2864 9.86446 15.1631 10.1748 15.1631H10.9371C10.9825 15.1579 11.0256 15.14 11.0615 15.1114C11.0973 15.0829 11.1245 15.0448 11.1399 15.0015C11.1673 14.9585 11.1818 14.9086 11.1818 14.8575C11.1818 14.8065 11.1673 14.7565 11.1399 14.7135L10.6014 14.1726C10.4921 14.0636 10.4053 13.9339 10.3461 13.791C10.2869 13.6482 10.2564 13.4949 10.2564 13.3402C10.2564 13.1854 10.2869 13.0322 10.3461 12.8894C10.4053 12.7465 10.4921 12.6168 10.6014 12.5078L11.5385 11.5665C11.6461 11.4566 11.7746 11.3695 11.9163 11.3103C12.058 11.2512 12.2102 11.2213 12.3636 11.2223C12.5182 11.2211 12.6714 11.251 12.8143 11.3101C12.9572 11.3692 13.0869 11.4564 13.1958 11.5665L13.7273 12.1074C13.7466 12.1264 13.7696 12.1412 13.7948 12.1509C13.8201 12.1606 13.8471 12.1649 13.8741 12.1636C13.9111 12.1709 13.9491 12.1709 13.986 12.1636C14.0909 12.1144 14.1678 12.0441 14.1678 11.9458V11.1801C14.1697 10.8665 14.295 10.5663 14.5164 10.3452ZM18.333 16.9999C18.333 18.2886 17.2883 19.3333 15.9997 19.3333C14.711 19.3333 13.6663 18.2886 13.6663 16.9999C13.6663 15.7113 14.711 14.6666 15.9997 14.6666C17.2883 14.6666 18.333 15.7113 18.333 16.9999Z" fill="currentColor"/>
<path d="M6 1H12V3C12 3.55228 11.5523 4 11 4H7C6.44772 4 6 3.55228 6 3V1Z" fill="currentColor"/>
</svg>
