<svg width="24" height="24" viewBox="0 0 24 24" fill="none" xmlns="http://www.w3.org/2000/svg">
<path fill-rule="evenodd" clip-rule="evenodd" d="M19.6364 12.2C21.0654 12.2 22.4236 12.6703 23.5647 13.56C24.0458 13.9363 24.1429 14.6469 23.7818 15.1467C23.4207 15.6476 22.7356 15.7485 22.2545 15.3733C21.4953 14.7795 20.5887 14.4667 19.6364 14.4667C17.558 14.4667 15.8149 15.9831 15.3781 18.0072C15.2616 18.547 14.825 19 14.2727 19L14.1818 19L13.0909 19L10.9091 19L9.81818 19L1.09091 19C0.48873 19 2.8838e-06 18.4934 2.77422e-06 17.8667L2.3779e-06 15.6C1.94017e-06 13.0965 1.95382 11.0667 4.36363 11.0667L9.81818 11.0667C10.4214 11.0667 10.9091 11.5733 10.9091 12.2L10.9091 16.7333L13.4727 16.7333C13.5556 16.4931 13.6494 16.2596 13.7564 16.0329L13.7585 16.0284C14.4 14.665 15.4647 13.5589 16.7771 12.8925L16.7793 12.8913C16.9985 12.7803 17.2244 12.6828 17.4545 12.5955L17.4545 4.26666L15.2727 4.26666C14.6705 4.26666 14.1818 3.76006 14.1818 3.13333C14.1818 2.5066 14.6705 2 15.2727 2L17.4545 2C18.66 2 19.6363 3.01433 19.6363 4.26666L19.6363 6.53333L20.1818 6.53333C21.0862 6.53333 21.8182 7.29493 21.8182 8.23333C21.8182 9.17173 21.0862 9.93333 20.1818 9.93333L19.6364 9.93333L19.6364 12.2ZM9.85714 10L4.14286 10C3.51086 10 3 9.553 3 9C3 8.447 3.51086 8 4.14286 8L9.85714 8C10.4891 8 11 8.447 11 9C11 9.553 10.4891 10 9.85714 10ZM8 20C7.56002 21.162 6.39027 22 5 22C3.60973 22 2.43999 21.162 2 20L8 20ZM20 16C18.343 16 17 17.344 17 19C17 20.656 18.343 22 20 22C21.657 22 23 20.656 23 19C23 17.344 21.657 16 20 16Z" fill="currentColor"/>
</svg>
