<svg width="24" height="24" viewBox="0 0 24 24" fill="none" xmlns="http://www.w3.org/2000/svg">
<path fill-rule="evenodd" clip-rule="evenodd" d="M24 12C24 18.6274 18.6274 24 12 24C5.37258 24 0 18.6274 0 12C0 5.37258 5.37258 0 12 0C18.6274 0 24 5.37258 24 12ZM7.2 8.4C6.53726 8.4 6 8.93726 6 9.6C6 10.2627 6.53726 10.8 7.2 10.8C7.86274 10.8 8.4 10.2627 8.4 9.6C8.4 8.93726 7.86274 8.4 7.2 8.4ZM15.6 9.6C15.6 8.93726 16.1373 8.4 16.8 8.4C17.4627 8.4 18 8.93726 18 9.6C18 10.2627 17.4627 10.8 16.8 10.8C16.1373 10.8 15.6 10.2627 15.6 9.6ZM9.3 14.4C8.80294 14.4 8.4 14.8029 8.4 15.3C8.4 15.7971 8.80294 16.2 9.3 16.2H14.7C15.1971 16.2 15.6 15.7971 15.6 15.3C15.6 14.8029 15.1971 14.4 14.7 14.4H9.3Z" fill="currentColor"/>
</svg>
