<svg width="24" height="24" viewBox="0 0 24 24" fill="none" xmlns="http://www.w3.org/2000/svg">
<mask id="path-1-inside-1_8643_22733" fill="white">
<path fill-rule="evenodd" clip-rule="evenodd" d="M19 0C17.8954 0 17 0.895431 17 2V18C17 19.1046 17.8954 20 19 20C20.1046 20 21 19.1046 21 18V13C22.6569 13 24 11.6569 24 10C24 8.34315 22.6569 7 21 7V2C21 0.895431 20.1046 0 19 0ZM4.4 16H2.99852C1.34167 16 0 14.6569 0 13V8C0 6.34315 1.34167 5 2.99852 5H9.5C11.9852 5 13.7866 4.34347 15 3.64467V16.8713C13.9389 16.4785 12.4282 16.1064 10.4038 16.0192L11.5216 21.6078C11.7691 22.8453 10.8225 24 9.56039 24H7.63961C6.68625 24 5.86542 23.3271 5.67845 22.3922L4.4 16Z"/>
</mask>
<path fill-rule="evenodd" clip-rule="evenodd" d="M19 0C17.8954 0 17 0.895431 17 2V18C17 19.1046 17.8954 20 19 20C20.1046 20 21 19.1046 21 18V13C22.6569 13 24 11.6569 24 10C24 8.34315 22.6569 7 21 7V2C21 0.895431 20.1046 0 19 0ZM4.4 16H2.99852C1.34167 16 0 14.6569 0 13V8C0 6.34315 1.34167 5 2.99852 5H9.5C11.9852 5 13.7866 4.34347 15 3.64467V16.8713C13.9389 16.4785 12.4282 16.1064 10.4038 16.0192L11.5216 21.6078C11.7691 22.8453 10.8225 24 9.56039 24H7.63961C6.68625 24 5.86542 23.3271 5.67845 22.3922L4.4 16Z" fill="currentColor"/>
<path d="M21 13V11H19V13H21ZM21 7H19V9H21V7ZM4.4 16L6.36116 15.6078L6.03961 14H4.4V16ZM15 3.64467H17V0.184945L14.0019 1.91152L15 3.64467ZM15 16.8713L14.3056 18.7469L17 19.7444V16.8713H15ZM10.4038 16.0192L10.4899 14.021L7.94265 13.9113L8.44267 16.4114L10.4038 16.0192ZM11.5216 21.6078L13.4827 21.2155V21.2155L11.5216 21.6078ZM5.67845 22.3922L3.71728 22.7845H3.71729L5.67845 22.3922ZM19 2V2V-2C16.7909 -2 15 -0.209139 15 2H19ZM19 18V2H15V18H19ZM19 18H15C15 20.2091 16.7909 22 19 22V18ZM19 18V22C21.2091 22 23 20.2091 23 18H19ZM19 13V18H23V13H19ZM22 10C22 10.5523 21.5523 11 21 11V15C23.7614 15 26 12.7614 26 10H22ZM21 9C21.5523 9 22 9.44771 22 10H26C26 7.23858 23.7614 5 21 5V9ZM19 2V7H23V2H19ZM19 2H23C23 -0.209138 21.2091 -2 19 -2V2ZM2.99852 18H4.4V14H2.99852V18ZM-2 13C-2 15.7601 0.235819 18 2.99852 18V14C2.44752 14 2 13.5536 2 13H-2ZM-2 8V13H2V8H-2ZM2.99852 3C0.235818 3 -2 5.23986 -2 8H2C2 7.44643 2.44752 7 2.99852 7V3ZM9.5 3H2.99852V7H9.5V3ZM14.0019 1.91152C13.0736 2.44614 11.6142 3 9.5 3V7C12.3563 7 14.4996 6.24079 15.9981 5.37781L14.0019 1.91152ZM17 16.8713V3.64467H13V16.8713H17ZM10.3177 18.0173C12.1369 18.0957 13.4421 18.4272 14.3056 18.7469L15.6944 14.9957C14.4357 14.5297 12.7196 14.1171 10.4899 14.021L10.3177 18.0173ZM8.44267 16.4114L9.56039 22L13.4827 21.2155L12.365 15.6269L8.44267 16.4114ZM9.56039 22L9.56039 22V26C12.0846 26 13.9777 23.6907 13.4827 21.2155L9.56039 22ZM9.56039 22H7.63961V26H9.56039V22ZM7.63961 22H7.63961L3.71729 22.7845C4.09122 24.6542 5.73288 26 7.63961 26V22ZM7.63961 22L6.36116 15.6078L2.43884 16.3922L3.71728 22.7845L7.63961 22Z" fill="currentColor" mask="url(#path-1-inside-1_8643_22733)"/>
</svg>
