<svg width="24" height="24" viewBox="0 0 24 24" fill="none" xmlns="http://www.w3.org/2000/svg">
<path fill-rule="evenodd" clip-rule="evenodd" d="M20.9669 10.7987C20.9818 11.7446 21.5793 12.6754 22.1661 13.4174C22.7171 14.1143 23 15.0156 23 16C23 18.2091 21.1239 19 18.8095 19H5.19048C2.87614 19 1 18.2091 1 16C1 15.0156 1.28286 14.1143 1.83389 13.4174C2.42067 12.6754 3.01823 11.7446 3.0331 10.7987C3.04078 10.3106 3.05789 9.79651 3.07222 9.36613C3.0848 8.98808 3.09524 8.6746 3.09524 8.5C3.09524 3.80558 7.08204 0 12 0C16.918 0 20.9048 3.80558 20.9048 8.5C20.9048 8.6746 20.9152 8.98809 20.9278 9.36614C20.9421 9.79652 20.9592 10.3106 20.9669 10.7987ZM8.33333 21.9598C8.33333 21.43 8.91515 21.1873 9.45317 21.0834C10.0825 20.9722 13.9175 20.9722 14.5468 21.0834C15.0849 21.1873 15.6667 21.43 15.6667 21.9598C15.6354 22.4642 15.2813 22.9113 14.7921 23.1953C14.1577 23.6086 13.4132 23.8703 12.635 23.9646C12.2046 24.0113 11.7817 24.0123 11.3663 23.9646C10.5868 23.8703 9.84229 23.6086 9.20918 23.1943C8.71871 22.9113 8.36461 22.4642 8.33333 21.9598Z" fill="currentColor"/>
</svg>
