<svg width="24" height="24" viewBox="0 0 24 24" fill="none" xmlns="http://www.w3.org/2000/svg">
<path d="M24 7H13V0H18.5694C19.6934 0 20.7232 0.628356 21.2372 1.62796L24 7Z" fill="currentColor"/>
<path d="M11 0V7H0L2.76276 1.62796C3.27684 0.628358 4.30658 0 5.43063 0H11Z" fill="currentColor"/>
<path d="M0 9H12.8728C9.97844 10.4962 8 13.5171 8 17C8 19.8273 9.30367 22.35 11.3427 24H3C1.34315 24 0 22.6569 0 21V9Z" fill="currentColor"/>
<path d="M13 12C13 11.4477 12.5523 11 12 11C11.4477 11 11 11.4477 11 12V15C11 15.5523 11.4477 16 12 16H12.3553C12.3679 16.0002 12.3804 16.0002 12.3929 16H15C15.5523 16 16 15.5523 16 15C16 14.4477 15.5523 14 15 14H14.5272C15.393 13.3329 16.4437 13 17.5001 13C19.9854 13 22.0001 15.0147 22.0001 17.5C22.0001 19.9853 19.9854 22 17.5001 22C15.5937 22 13.9618 20.8141 13.3065 19.1362C13.1056 18.6218 12.5257 18.3676 12.0113 18.5685C11.4968 18.7694 11.2426 19.3493 11.4435 19.8638C12.3884 22.2832 14.7425 24 17.5001 24C21.0899 24 24.0001 21.0899 24.0001 17.5C24.0001 13.9101 21.0899 11 17.5001 11C15.8927 11 14.2787 11.5557 13 12.6657V12Z" fill="currentColor"/>
</svg>
