<svg width="24" height="24" viewBox="0 0 24 24" fill="none" xmlns="http://www.w3.org/2000/svg">
<path fill-rule="evenodd" clip-rule="evenodd" d="M0.774804 3.81604C0.873111 1.68069 2.63296 0 4.77057 0H19.2287C21.3663 0 23.1261 1.68069 23.2244 3.81604L23.961 19.816C24.066 22.095 22.2466 24 19.9653 24H4.03396C1.75261 24 -0.0667228 22.095 0.038195 19.816L0.774804 3.81604ZM4.99998 19C4.99998 18.4477 5.4477 18 5.99998 18H18C18.5523 18 19 18.4477 19 19C19 19.5523 18.5523 20 18 20H5.99998C5.4477 20 4.99998 19.5523 4.99998 19ZM5.99998 13C5.4477 13 4.99998 13.4477 4.99998 14C4.99998 14.5523 5.4477 15 5.99998 15H12C12.5523 15 13 14.5523 13 14C13 13.4477 12.5523 13 12 13H5.99998Z" fill="currentColor"/>
</svg>
