<svg width="24" height="24" viewBox="0 0 24 24" fill="none" xmlns="http://www.w3.org/2000/svg">
<path fill-rule="evenodd" clip-rule="evenodd" d="M12 0C5.37258 0 0 5.37258 0 12C0 18.6274 5.37258 24 12 24C18.6274 24 24 18.6274 24 12C24 5.37258 18.6274 0 12 0ZM7 8C7 7.44772 7.44772 7 8 7H10C10.5523 7 11 7.44772 11 8V16C11 16.5523 10.5523 17 10 17H8C7.44772 17 7 16.5523 7 16L7 8ZM13 8C13 7.44772 13.4477 7 14 7H16C16.5523 7 17 7.44772 17 8L17 16C17 16.5523 16.5523 17 16 17L14 17C13.4477 17 13 16.5523 13 16V8Z" fill="currentColor"/>
</svg>
