<svg width="24" height="24" viewBox="0 0 24 24" fill="none" xmlns="http://www.w3.org/2000/svg">
<path fill-rule="evenodd" clip-rule="evenodd" d="M14 7C14 9.77494 11.7759 12 9 12C6.22506 12 4 9.77494 4 7C4 4.22506 6.22506 2 9 2C11.7759 2 14 4.22506 14 7ZM19.8549 20.9328C19.9505 20.5945 19.9999 20.2031 19.9999 19.7506C19.9999 17.4721 18.6045 15.4232 16.383 14.0051C20.5519 14.1166 23.9999 16.0465 23.9999 19.0556C23.9999 20.3667 22.2679 20.7937 19.8549 20.9328ZM15.8676 7C15.8676 8.76749 15.2179 10.382 14.1462 11.6139C14.7014 11.8622 15.3172 12 15.9668 12C18.4445 12 20.4296 9.99745 20.4296 7.5C20.4296 5.00255 18.4445 3 15.9668 3C15.54 3 15.1277 3.05948 14.7377 3.17071C15.4521 4.27105 15.8676 5.58661 15.8676 7ZM9 14C4.14605 14 0 16.2353 0 19.7778C0 21.5556 4.28571 22 9 22C13.7143 22 18 22 18 19.7778C18 16.234 13.881 14 9 14Z" fill="currentColor"/>
</svg>
