<svg width="24" height="24" viewBox="0 0 24 24" fill="none" xmlns="http://www.w3.org/2000/svg">
<path fill-rule="evenodd" clip-rule="evenodd" d="M24 18C24 20.2091 22.2091 22 20 22H4C1.79086 22 0 20.2091 0 18V9C0 6.79086 1.79086 5 4 5H6L7.40627 2.8906C7.7772 2.3342 8.40166 2 9.07037 2H14.9296C15.5983 2 16.2228 2.3342 16.5937 2.8906L18 5H20C22.2091 5 24 6.79086 24 9V18ZM12 16C13.6569 16 15 14.6569 15 13C15 11.3431 13.6569 10 12 10C10.3431 10 9 11.3431 9 13C9 14.6569 10.3431 16 12 16ZM17 13C17 15.7614 14.7614 18 12 18C9.23858 18 7 15.7614 7 13C7 10.2386 9.23858 8 12 8C14.7614 8 17 10.2386 17 13ZM20 10C20.5523 10 21 9.55228 21 9C21 8.44772 20.5523 8 20 8C19.4477 8 19 8.44772 19 9C19 9.55228 19.4477 10 20 10Z" fill="currentColor"/>
</svg>
