<svg width="24" height="24" viewBox="0 0 24 24" fill="none" xmlns="http://www.w3.org/2000/svg">
<path fill-rule="evenodd" clip-rule="evenodd" d="M12 24C18.6274 24 24 18.6274 24 12C24 5.37258 18.6274 0 12 0C5.37258 0 0 5.37258 0 12C0 18.6274 5.37258 24 12 24ZM12 18C11.3373 18 10.8 17.4627 10.8 16.8V13.2H7.2C6.53726 13.2 6 12.6627 6 12C6 11.3373 6.53726 10.8 7.2 10.8H10.8V7.2C10.8 6.53726 11.3373 6 12 6C12.6627 6 13.2 6.53726 13.2 7.2V10.8H16.8C17.4627 10.8 18 11.3373 18 12C18 12.6627 17.4627 13.2 16.8 13.2H13.2V16.8C13.2 17.4627 12.6627 18 12 18Z" fill="currentColor"/>
</svg>
