<svg width="24" height="24" viewBox="0 0 24 24" fill="none" xmlns="http://www.w3.org/2000/svg">
<path d="M20.832 5.88889H19.2V3.44444C19.226 2.82395 19.0096 2.21824 18.5979 1.76005C18.1863 1.30185 17.6132 1.02854 17.004 1H6.99596C6.38684 1.02854 5.81369 1.30185 5.40206 1.76005C4.99044 2.21824 4.77396 2.82395 4.80001 3.44444V5.88889H3.16803C2.32355 5.89535 1.51592 6.2424 0.92214 6.85404C0.328365 7.46569 -0.00317574 8.29209 2.29322e-05 9.15224V17.2922C-0.00317574 18.1524 0.328365 18.9788 0.92214 19.5904C1.51592 20.202 2.32355 20.5491 3.16803 20.5556H4.20001C4.20001 21.2039 4.45291 21.8256 4.90299 22.284C5.35308 22.7425 5.96349 23 6.60001 23H17.4C18.0365 23 18.6469 22.7425 19.097 22.284C19.5471 21.8256 19.8 21.2039 19.8 20.5556H20.832C21.6765 20.5491 22.4841 20.202 23.0779 19.5904C23.6716 18.9788 24.0032 18.1524 24 17.2922V9.15224C24.0032 8.29209 23.6716 7.46569 23.0779 6.85404C22.4841 6.2424 21.6765 5.89535 20.832 5.88889ZM7.20001 3.44444H16.8V5.88889H7.20001V3.44444ZM6.588 20.5556V15.6667H17.388V20.5556H6.588Z" fill="currentColor"/>
</svg>
