<svg width="24" height="24" viewBox="0 0 24 24" fill="none" xmlns="http://www.w3.org/2000/svg">
<path fill-rule="evenodd" clip-rule="evenodd" d="M24 12C24 18.6274 18.6274 24 12 24C5.37258 24 0 18.6274 0 12C0 5.37258 5.37258 0 12 0C18.6274 0 24 5.37258 24 12ZM7.86005 16.32C8.25163 16.6137 8.80464 16.54 9.10621 16.158L9.10941 16.1544C9.119 16.1439 9.14227 16.1194 9.18079 16.0852C9.25753 16.017 9.39634 15.9086 9.61108 15.7941C10.0356 15.5677 10.7888 15.3 12.0001 15.3C13.2113 15.3 13.9646 15.5677 14.389 15.7941C14.6038 15.9086 14.7426 16.017 14.8193 16.0852C14.8578 16.1194 14.8811 16.1439 14.8907 16.1544L14.8939 16.158C15.1955 16.54 15.7485 16.6137 16.1401 16.32C16.5377 16.0218 16.6183 15.4576 16.3201 15.06L15.6001 15.6C16.3201 15.06 16.3197 15.0595 16.3193 15.059L16.3185 15.0579L16.3168 15.0557L16.3132 15.051L16.3049 15.0403L16.2958 15.0288L16.2835 15.0138C16.2672 14.994 16.2466 14.97 16.2215 14.9424C16.1713 14.8874 16.1032 14.8181 16.0152 14.7398C15.8388 14.583 15.5838 14.3914 15.2361 14.2059C14.5356 13.8323 13.4888 13.5 12.0001 13.5C10.5113 13.5 9.46455 13.8323 8.76402 14.2059C8.41627 14.3914 8.16133 14.583 7.98494 14.7398C7.8969 14.8181 7.82876 14.8874 7.77859 14.9424C7.75351 14.97 7.73292 14.994 7.71658 15.0138C7.70841 15.0237 7.70131 15.0325 7.69523 15.0403L7.68688 15.051L7.68328 15.0557L7.68162 15.0579L7.68082 15.059C7.68044 15.0595 7.68005 15.06 8.39999 15.6L7.68005 15.06C7.38182 15.4576 7.46241 16.0218 7.86005 16.32ZM6 9.6C6 8.93726 6.53726 8.4 7.2 8.4C7.86274 8.4 8.4 8.93726 8.4 9.6C8.4 10.2627 7.86274 10.8 7.2 10.8C6.53726 10.8 6 10.2627 6 9.6ZM16.8 8.4C16.1373 8.4 15.6 8.93726 15.6 9.6C15.6 10.2627 16.1373 10.8 16.8 10.8C17.4627 10.8 18 10.2627 18 9.6C18 8.93726 17.4627 8.4 16.8 8.4Z" fill="currentColor"/>
</svg>
