<svg width="24" height="24" viewBox="0 0 24 24" fill="none" xmlns="http://www.w3.org/2000/svg">
<path fill-rule="evenodd" clip-rule="evenodd" d="M1.5 11C0.671573 11 0 11.6716 0 12.5V21.5C0 22.3284 0.671573 23 1.5 23C2.32843 23 3 22.3284 3 21.5V12.5C3 11.6716 2.32843 11 1.5 11ZM5 12H7.32677C7.77418 12 8.2202 12.0508 8.65649 12.1514L17.9179 14.2868C18.5508 14.4327 19 15.0036 19 15.6621C19 16.4411 18.3776 17.0726 17.6097 17.0726H12.5616C12.2514 17.0726 12 17.3277 12 17.6423C12 17.9037 12.1754 18.1316 12.4254 18.195L16 19.1016L22.4038 17.8835C23.2332 17.7257 24 18.3713 24 19.2275C24 19.7679 23.6863 20.2576 23.1996 20.4771L16.1621 23.6502C15.406 23.9911 14.5643 24.0858 13.753 23.9212L5 22.1452V12Z" fill="currentColor"/>
<path fill-rule="evenodd" clip-rule="evenodd" d="M17.6713 0H16.3496C16.0374 -5.4902e-06 15.7379 0.124109 15.5164 0.345227C15.295 0.566345 15.1697 0.866491 15.1678 1.18013V1.9458C15.1678 2.04415 15.0909 2.11439 14.986 2.16356C14.9491 2.17094 14.9111 2.17094 14.8741 2.16356C14.8471 2.16489 14.8201 2.16059 14.7948 2.15092C14.7696 2.14124 14.7466 2.12642 14.7273 2.10738L14.1958 1.56649C14.0869 1.45636 13.9572 1.36919 13.8143 1.31008C13.6714 1.25097 13.5182 1.22111 13.3636 1.22227C13.2102 1.22126 13.058 1.25121 12.9163 1.31034C12.7746 1.36946 12.6461 1.45657 12.5385 1.56649L11.6014 2.50778C11.4921 2.61682 11.4053 2.7465 11.3461 2.88937C11.2869 3.03223 11.2564 3.18545 11.2564 3.3402C11.2564 3.49494 11.2869 3.64816 11.3461 3.79102C11.4053 3.93389 11.4921 4.06357 11.6014 4.17261L12.1399 4.71349C12.1673 4.75647 12.1818 4.80646 12.1818 4.85751C12.1818 4.90856 12.1673 4.95852 12.1399 5.0015C12.1245 5.04478 12.0973 5.08286 12.0615 5.11141C12.0256 5.13997 11.9825 5.15788 11.9371 5.16308H11.1748C10.8645 5.16307 10.5667 5.28645 10.3466 5.50625C10.1264 5.72605 10.0018 6.0244 10 6.33617V7.66383C10 7.81881 10.0304 7.97227 10.0894 8.11545C10.1485 8.25863 10.235 8.38871 10.3441 8.4983C10.4532 8.60788 10.5827 8.69483 10.7252 8.75413C10.8678 8.81344 11.0206 8.84395 11.1748 8.84395H11.9371C12.035 8.84395 12.1049 8.92824 12.1469 9.03361C12.1718 9.07231 12.1851 9.11746 12.1851 9.16359C12.1851 9.20971 12.1718 9.25484 12.1469 9.29354L11.6084 9.82739C11.4225 10.0152 11.3042 10.2582 11.2694 10.518L18.8601 12.5413V12.0542C18.8601 11.9559 18.9371 11.8856 19.042 11.8364C19.0789 11.8291 19.1169 11.8291 19.1539 11.8364C19.1809 11.8351 19.2079 11.8394 19.2331 11.8491C19.2584 11.8588 19.2814 11.8736 19.3007 11.8926L19.8322 12.4335C19.9411 12.5437 20.0708 12.6308 20.2137 12.6899C20.3566 12.749 20.5098 12.7789 20.6643 12.7777C20.8178 12.7787 20.9699 12.7488 21.1117 12.6897C21.2534 12.6305 21.3819 12.5434 21.4895 12.4335L22.4266 11.4922C22.5359 11.3832 22.6226 11.2535 22.6818 11.1106C22.741 10.9678 22.7715 10.8146 22.7715 10.6598C22.7715 10.5051 22.741 10.3518 22.6818 10.209C22.6226 10.0661 22.5359 9.93643 22.4266 9.82739L21.8881 9.28651C21.8631 9.24781 21.8498 9.20268 21.8498 9.15655C21.8498 9.11043 21.8631 9.0653 21.8881 9.0266C21.9035 8.98332 21.9307 8.94525 21.9665 8.91669C22.0024 8.88813 22.0455 8.87023 22.0909 8.86503H22.8531C23.1527 8.85805 23.4383 8.73634 23.6515 8.5248C23.8647 8.31325 23.9894 8.02788 24 7.72705V6.39939C24 6.0864 23.8762 5.78624 23.6559 5.56492C23.4356 5.3436 23.1368 5.21926 22.8252 5.21926H22.0629C21.965 5.21926 21.8951 5.13498 21.8531 5.02961C21.8282 4.99091 21.8149 4.94578 21.8149 4.89965C21.8149 4.85353 21.8282 4.8084 21.8531 4.7697L22.3916 4.22879C22.5026 4.12074 22.5909 3.99138 22.6512 3.84839C22.7115 3.70539 22.7425 3.55167 22.7425 3.39638C22.7425 3.24109 22.7115 3.08739 22.6512 2.9444C22.5909 2.8014 22.5026 2.67203 22.3916 2.56397L21.4545 1.62268C21.3472 1.51244 21.2187 1.42511 21.0769 1.36597C20.9351 1.30682 20.7829 1.27707 20.6294 1.27848C20.4748 1.27732 20.3216 1.30716 20.1787 1.36627C20.0358 1.42537 19.9061 1.51255 19.7972 1.62268L19.2587 2.16356C19.22 2.19797 19.1706 2.21784 19.1189 2.21977C19.0681 2.21811 19.0181 2.20615 18.972 2.18464C18.9293 2.16958 18.892 2.14225 18.8646 2.10603C18.8373 2.0698 18.8211 2.02631 18.8182 1.98094V1.21526C18.8278 0.906904 18.7167 0.607036 18.5089 0.379891C18.3011 0.152746 18.013 0.0163773 17.7063 0H17.6713ZM16.5719 14L15.7314 13.819C15.9172 13.9363 16.1337 14 16.3566 14H16.5719ZM17 9.1C18.1598 9.1 19.1 8.1598 19.1 7C19.1 5.8402 18.1598 4.9 17 4.9C15.8402 4.9 14.9 5.8402 14.9 7C14.9 8.1598 15.8402 9.1 17 9.1Z" fill="currentColor"/>
</svg>
