<svg width="24" height="24" viewBox="0 0 24 24" fill="none" xmlns="http://www.w3.org/2000/svg">
<mask id="path-1-inside-1_8654_17552" fill="white">
<path fill-rule="evenodd" clip-rule="evenodd" d="M10.8851 0H13.1508H13.2108C13.7365 0.0280753 14.2304 0.26185 14.5867 0.651242C14.943 1.04063 15.1333 1.55469 15.1169 2.08331V3.3959C15.1219 3.47367 15.1496 3.54824 15.1965 3.61033C15.2434 3.67242 15.3074 3.71928 15.3806 3.74509C15.4596 3.78198 15.5453 3.80248 15.6324 3.80532C15.721 3.80201 15.8057 3.76795 15.8721 3.70897L16.7952 2.78173C16.9819 2.59295 17.2043 2.4435 17.4493 2.34217C17.6942 2.24085 17.9569 2.1897 18.2218 2.19168C18.485 2.18926 18.7459 2.24026 18.989 2.34166C19.2321 2.44305 19.4523 2.59275 19.6364 2.78173L21.2428 4.39538C21.4331 4.58062 21.5844 4.8024 21.6878 5.04754C21.7911 5.29267 21.8444 5.55616 21.8444 5.82237C21.8444 6.08858 21.7911 6.3521 21.6878 6.59724C21.5844 6.84237 21.4331 7.06412 21.2428 7.24936L20.3197 8.17663C20.2768 8.24297 20.2541 8.32034 20.2541 8.39941C20.2541 8.47847 20.2768 8.55585 20.3197 8.62218C20.3916 8.80282 20.5115 8.94731 20.6793 8.94731H21.986C22.5202 8.94731 23.0324 9.16046 23.4101 9.53986C23.7878 9.91926 24 10.4338 24 10.9704V13.2464C23.9818 13.7621 23.7681 14.2513 23.4026 14.6139C23.0371 14.9766 22.5475 15.1852 22.034 15.1972H20.7273C20.6494 15.2061 20.5755 15.2368 20.514 15.2858C20.4526 15.3347 20.406 15.4 20.3796 15.4742C20.3368 15.5405 20.314 15.6179 20.314 15.6969C20.314 15.776 20.3368 15.8534 20.3796 15.9197L21.3027 16.847C21.4901 17.0339 21.6388 17.2562 21.7403 17.5011C21.8418 17.746 21.894 18.0087 21.894 18.274C21.894 18.5392 21.8418 18.8019 21.7403 19.0468C21.6388 19.2917 21.4901 19.514 21.3027 19.7009L19.6963 21.3146C19.5118 21.5031 19.2915 21.6524 19.0486 21.7537C18.8056 21.8551 18.5448 21.9064 18.2817 21.9047C18.0168 21.9067 17.7542 21.8555 17.5092 21.7542C17.2642 21.6528 17.0419 21.5034 16.8551 21.3146L15.9441 20.3874C15.911 20.3547 15.8716 20.3293 15.8282 20.3127C15.7849 20.2961 15.7386 20.2888 15.6923 20.291C15.629 20.2784 15.5638 20.2784 15.5005 20.291C15.3207 20.3753 15.1888 20.4957 15.1888 20.6643V21.9769C15.1856 22.5146 14.9708 23.0291 14.5912 23.4082C14.2116 23.7872 13.6981 24 13.1628 24H10.8971C10.363 24 9.8507 23.7868 9.47301 23.4074C9.09531 23.028 8.88312 22.5135 8.88312 21.9769V20.6643C8.87809 20.5866 8.85042 20.512 8.80353 20.4499C8.75664 20.3878 8.69259 20.3409 8.61938 20.3151C8.53634 20.2979 8.45069 20.2979 8.36764 20.3151C8.28035 20.314 8.19545 20.3439 8.12787 20.3994L7.20481 21.3266C7.01809 21.5154 6.79572 21.6649 6.55075 21.7662C6.30578 21.8675 6.04314 21.9187 5.77823 21.9167C5.51503 21.9191 5.25406 21.8681 5.01098 21.7667C4.7679 21.6653 4.54771 21.5156 4.36363 21.3266L2.75725 19.713C2.56714 19.5264 2.41617 19.3035 2.31322 19.0574C2.21027 18.8113 2.15743 18.5469 2.15785 18.28C2.16487 17.7423 2.37983 17.2284 2.75725 16.847L3.68033 15.9318C3.72316 15.8654 3.74594 15.7881 3.74594 15.709C3.74594 15.6299 3.72316 15.5525 3.68033 15.4862C3.6084 15.3056 3.48852 15.1611 3.32068 15.1611H2.014C1.74951 15.1611 1.48762 15.1088 1.24327 15.0071C0.998921 14.9054 0.776904 14.7564 0.589889 14.5685C0.402873 14.3807 0.25452 14.1576 0.153307 13.9122C0.0520951 13.6667 0 13.4037 0 13.138V10.862C0.00316709 10.3275 0.216761 9.81608 0.594114 9.43928C0.971467 9.06248 1.48192 8.85098 2.014 8.85099H3.32068C3.39861 8.84208 3.47248 8.81138 3.53393 8.76242C3.59538 8.71347 3.64194 8.6482 3.66833 8.57401C3.71532 8.50032 3.74031 8.41467 3.74031 8.32716C3.74031 8.23965 3.71532 8.15396 3.66833 8.08027L2.74526 7.15304C2.55787 6.96612 2.40915 6.7438 2.30766 6.4989C2.20617 6.25399 2.15391 5.99133 2.15391 5.72605C2.15391 5.46077 2.20617 5.19811 2.30766 4.9532C2.40915 4.70829 2.55787 4.48598 2.74526 4.29906L4.35165 2.68541C4.53614 2.49698 4.7564 2.34765 4.99938 2.24629C5.24237 2.14493 5.50313 2.09359 5.76623 2.09532C6.03115 2.09334 6.2938 2.14452 6.53877 2.24585C6.78373 2.34717 7.00609 2.49662 7.19281 2.68541L8.10391 3.61265C8.13697 3.6453 8.1764 3.6707 8.21973 3.68728C8.26306 3.70386 8.30933 3.71125 8.35564 3.70897C8.41896 3.72162 8.48414 3.72162 8.54746 3.70897C8.72728 3.62467 8.85914 3.50425 8.85914 3.33566V2.02307C8.86231 1.48541 9.07716 0.970877 9.45676 0.591818C9.83636 0.212759 10.3499 -9.4124e-06 10.8851 0ZM16 12C16 14.2091 14.2091 16 12 16C9.79086 16 8 14.2091 8 12C8 9.79086 9.79086 8 12 8C14.2091 8 16 9.79086 16 12Z"/>
</mask>
<path fill-rule="evenodd" clip-rule="evenodd" d="M10.8851 0H13.1508H13.2108C13.7365 0.0280753 14.2304 0.26185 14.5867 0.651242C14.943 1.04063 15.1333 1.55469 15.1169 2.08331V3.3959C15.1219 3.47367 15.1496 3.54824 15.1965 3.61033C15.2434 3.67242 15.3074 3.71928 15.3806 3.74509C15.4596 3.78198 15.5453 3.80248 15.6324 3.80532C15.721 3.80201 15.8057 3.76795 15.8721 3.70897L16.7952 2.78173C16.9819 2.59295 17.2043 2.4435 17.4493 2.34217C17.6942 2.24085 17.9569 2.1897 18.2218 2.19168C18.485 2.18926 18.7459 2.24026 18.989 2.34166C19.2321 2.44305 19.4523 2.59275 19.6364 2.78173L21.2428 4.39538C21.4331 4.58062 21.5844 4.8024 21.6878 5.04754C21.7911 5.29267 21.8444 5.55616 21.8444 5.82237C21.8444 6.08858 21.7911 6.3521 21.6878 6.59724C21.5844 6.84237 21.4331 7.06412 21.2428 7.24936L20.3197 8.17663C20.2768 8.24297 20.2541 8.32034 20.2541 8.39941C20.2541 8.47847 20.2768 8.55585 20.3197 8.62218C20.3916 8.80282 20.5115 8.94731 20.6793 8.94731H21.986C22.5202 8.94731 23.0324 9.16046 23.4101 9.53986C23.7878 9.91926 24 10.4338 24 10.9704V13.2464C23.9818 13.7621 23.7681 14.2513 23.4026 14.6139C23.0371 14.9766 22.5475 15.1852 22.034 15.1972H20.7273C20.6494 15.2061 20.5755 15.2368 20.514 15.2858C20.4526 15.3347 20.406 15.4 20.3796 15.4742C20.3368 15.5405 20.314 15.6179 20.314 15.6969C20.314 15.776 20.3368 15.8534 20.3796 15.9197L21.3027 16.847C21.4901 17.0339 21.6388 17.2562 21.7403 17.5011C21.8418 17.746 21.894 18.0087 21.894 18.274C21.894 18.5392 21.8418 18.8019 21.7403 19.0468C21.6388 19.2917 21.4901 19.514 21.3027 19.7009L19.6963 21.3146C19.5118 21.5031 19.2915 21.6524 19.0486 21.7537C18.8056 21.8551 18.5448 21.9064 18.2817 21.9047C18.0168 21.9067 17.7542 21.8555 17.5092 21.7542C17.2642 21.6528 17.0419 21.5034 16.8551 21.3146L15.9441 20.3874C15.911 20.3547 15.8716 20.3293 15.8282 20.3127C15.7849 20.2961 15.7386 20.2888 15.6923 20.291C15.629 20.2784 15.5638 20.2784 15.5005 20.291C15.3207 20.3753 15.1888 20.4957 15.1888 20.6643V21.9769C15.1856 22.5146 14.9708 23.0291 14.5912 23.4082C14.2116 23.7872 13.6981 24 13.1628 24H10.8971C10.363 24 9.8507 23.7868 9.47301 23.4074C9.09531 23.028 8.88312 22.5135 8.88312 21.9769V20.6643C8.87809 20.5866 8.85042 20.512 8.80353 20.4499C8.75664 20.3878 8.69259 20.3409 8.61938 20.3151C8.53634 20.2979 8.45069 20.2979 8.36764 20.3151C8.28035 20.314 8.19545 20.3439 8.12787 20.3994L7.20481 21.3266C7.01809 21.5154 6.79572 21.6649 6.55075 21.7662C6.30578 21.8675 6.04314 21.9187 5.77823 21.9167C5.51503 21.9191 5.25406 21.8681 5.01098 21.7667C4.7679 21.6653 4.54771 21.5156 4.36363 21.3266L2.75725 19.713C2.56714 19.5264 2.41617 19.3035 2.31322 19.0574C2.21027 18.8113 2.15743 18.5469 2.15785 18.28C2.16487 17.7423 2.37983 17.2284 2.75725 16.847L3.68033 15.9318C3.72316 15.8654 3.74594 15.7881 3.74594 15.709C3.74594 15.6299 3.72316 15.5525 3.68033 15.4862C3.6084 15.3056 3.48852 15.1611 3.32068 15.1611H2.014C1.74951 15.1611 1.48762 15.1088 1.24327 15.0071C0.998921 14.9054 0.776904 14.7564 0.589889 14.5685C0.402873 14.3807 0.25452 14.1576 0.153307 13.9122C0.0520951 13.6667 0 13.4037 0 13.138V10.862C0.00316709 10.3275 0.216761 9.81608 0.594114 9.43928C0.971467 9.06248 1.48192 8.85098 2.014 8.85099H3.32068C3.39861 8.84208 3.47248 8.81138 3.53393 8.76242C3.59538 8.71347 3.64194 8.6482 3.66833 8.57401C3.71532 8.50032 3.74031 8.41467 3.74031 8.32716C3.74031 8.23965 3.71532 8.15396 3.66833 8.08027L2.74526 7.15304C2.55787 6.96612 2.40915 6.7438 2.30766 6.4989C2.20617 6.25399 2.15391 5.99133 2.15391 5.72605C2.15391 5.46077 2.20617 5.19811 2.30766 4.9532C2.40915 4.70829 2.55787 4.48598 2.74526 4.29906L4.35165 2.68541C4.53614 2.49698 4.7564 2.34765 4.99938 2.24629C5.24237 2.14493 5.50313 2.09359 5.76623 2.09532C6.03115 2.09334 6.2938 2.14452 6.53877 2.24585C6.78373 2.34717 7.00609 2.49662 7.19281 2.68541L8.10391 3.61265C8.13697 3.6453 8.1764 3.6707 8.21973 3.68728C8.26306 3.70386 8.30933 3.71125 8.35564 3.70897C8.41896 3.72162 8.48414 3.72162 8.54746 3.70897C8.72728 3.62467 8.85914 3.50425 8.85914 3.33566V2.02307C8.86231 1.48541 9.07716 0.970877 9.45676 0.591818C9.83636 0.212759 10.3499 -9.4124e-06 10.8851 0ZM16 12C16 14.2091 14.2091 16 12 16C9.79086 16 8 14.2091 8 12C8 9.79086 9.79086 8 12 8C14.2091 8 16 9.79086 16 12Z" fill="currentColor"/>
<path d="M10.8851 3.12275e-10L10.8851 2H10.8851V3.12275e-10ZM13.2108 3.12275e-10L13.3174 -1.99715L13.2642 -2H13.2108V3.12275e-10ZM14.5867 0.651242L13.1111 2.00131L13.1111 2.00131L14.5867 0.651242ZM15.1169 2.08331L13.1178 2.02124L13.1169 2.05227V2.08331H15.1169ZM15.1169 3.3959H13.1169V3.46044L13.121 3.52484L15.1169 3.3959ZM15.1965 3.61033L13.6005 4.81564L13.6005 4.81564L15.1965 3.61033ZM15.3806 3.74509L16.2265 1.93279L16.1379 1.89144L16.0457 1.85893L15.3806 3.74509ZM15.6324 3.80532L15.5671 5.80426L15.6371 5.80655L15.7072 5.80393L15.6324 3.80532ZM15.8721 3.70897L17.1999 5.20462L17.246 5.16369L17.2895 5.12L15.8721 3.70897ZM16.7952 2.78173L18.2126 4.19278L18.2172 4.18812L16.7952 2.78173ZM17.4493 2.34217L16.6848 0.494026L16.6848 0.494027L17.4493 2.34217ZM18.2218 2.19168L18.2068 4.19162L18.2235 4.19175L18.2401 4.1916L18.2218 2.19168ZM18.989 2.34166L19.759 0.495806V0.495805L18.989 2.34166ZM19.6364 2.78173L18.2037 4.1772L18.2113 4.18502L18.219 4.19276L19.6364 2.78173ZM21.2428 4.39538L19.8254 5.8064L19.8365 5.81759L19.8478 5.82861L21.2428 4.39538ZM21.2428 7.24936L19.8478 5.81613L19.8365 5.82715L19.8253 5.83835L21.2428 7.24936ZM20.3197 8.17663L18.9023 6.76562L18.7537 6.9149L18.6394 7.09186L20.3197 8.17663ZM20.3197 8.62218L22.1778 7.88229L22.1057 7.70118L21.9999 7.53741L20.3197 8.62218ZM23.4101 9.53986L21.9927 10.9509L21.9927 10.9509L23.4101 9.53986ZM24 13.2464L25.9988 13.3169L26 13.2817V13.2464H24ZM23.4026 14.6139L21.9939 13.1942L21.9939 13.1942L23.4026 14.6139ZM22.034 15.1972V17.1972H22.0573L22.0805 17.1966L22.034 15.1972ZM20.7273 15.1972V13.1972H20.6133L20.5 13.2101L20.7273 15.1972ZM20.514 15.2858L21.7602 16.85L21.7602 16.85L20.514 15.2858ZM20.3796 15.4742L22.0599 16.5589L22.186 16.3635L22.264 16.1443L20.3796 15.4742ZM20.3796 15.9197L18.6994 17.0045L18.8136 17.1815L18.9622 17.3308L20.3796 15.9197ZM21.3027 16.847L19.8853 18.258L19.8903 18.2629L21.3027 16.847ZM21.7403 17.5011L19.8927 18.2668L19.8927 18.2668L21.7403 17.5011ZM21.7403 19.0468L19.8927 18.2811L19.8927 18.2811L21.7403 19.0468ZM21.3027 19.7009L19.8902 18.2849L19.8853 18.2899L21.3027 19.7009ZM19.6963 21.3146L18.2789 19.9036L18.273 19.9095L18.2672 19.9154L19.6963 21.3146ZM19.0486 21.7537L19.8185 23.5996L19.8185 23.5996L19.0486 21.7537ZM18.2817 21.9047L18.2949 19.9047L18.2808 19.9046L18.2667 19.9047L18.2817 21.9047ZM17.5092 21.7542L16.7448 23.6023L16.7448 23.6023L17.5092 21.7542ZM16.8551 21.3146L15.4285 22.7163L15.4331 22.721L16.8551 21.3146ZM15.9441 20.3874L17.3707 18.9856L17.3601 18.9749L17.3494 18.9643L15.9441 20.3874ZM15.8282 20.3127L15.1134 22.1806L15.1134 22.1806L15.8282 20.3127ZM15.6923 20.291L15.3004 22.2523L15.5433 22.3008L15.7906 22.2886L15.6923 20.291ZM15.5005 20.291L15.1086 18.3298L14.871 18.3773L14.6516 18.4801L15.5005 20.291ZM15.1888 21.9769L17.1888 21.9887V21.9769H15.1888ZM14.5912 23.4082L16.0044 24.8234L16.0044 24.8234L14.5912 23.4082ZM13.1628 24L13.1629 22H13.1628V24ZM9.47301 23.4074L10.8904 21.9964L10.8904 21.9964L9.47301 23.4074ZM8.88312 20.6643H10.8831V20.5998L10.879 20.5354L8.88312 20.6643ZM8.80353 20.4499L10.3995 19.2446L10.3995 19.2446L8.80353 20.4499ZM8.61938 20.3151L9.28452 18.4289L9.15719 18.384L9.02498 18.3567L8.61938 20.3151ZM8.36764 20.3151L8.3433 22.315L8.56052 22.3176L8.77324 22.2735L8.36764 20.3151ZM8.12787 20.3994L6.85837 18.854L6.78106 18.9175L6.71047 18.9884L8.12787 20.3994ZM7.20481 21.3266L5.7874 19.9156L5.78281 19.9203L7.20481 21.3266ZM6.55075 21.7662L5.78632 19.9181L5.7863 19.9181L6.55075 21.7662ZM5.77823 21.9167L5.7932 19.9168L5.77654 19.9167L5.75987 19.9168L5.77823 21.9167ZM5.01098 21.7667L5.78094 19.9209H5.78094L5.01098 21.7667ZM4.36363 21.3266L5.79635 19.9312L5.78873 19.9234L5.78103 19.9156L4.36363 21.3266ZM2.75725 19.713L4.17464 18.302L4.16639 18.2937L4.15805 18.2855L2.75725 19.713ZM2.31322 19.0574L0.468123 19.8292L0.468124 19.8292L2.31322 19.0574ZM2.15785 18.28L0.158016 18.2538L0.157865 18.2654L0.157848 18.2769L2.15785 18.28ZM2.75725 16.847L1.34913 15.4267L1.34235 15.4334L1.33564 15.4402L2.75725 16.847ZM3.68033 15.9318L5.08845 17.3521L5.24274 17.1991L5.36058 17.0166L3.68033 15.9318ZM3.68033 15.4862L1.82222 16.2261L1.89434 16.4072L2.00008 16.571L3.68033 15.4862ZM1.24327 15.0071L0.474955 16.8536H0.474955L1.24327 15.0071ZM0.589889 14.5685L2.00728 13.1575V13.1575L0.589889 14.5685ZM0.153307 13.9122L2.00228 13.1498L2.00228 13.1498L0.153307 13.9122ZM0 10.862L-2 10.8502V10.862H0ZM2.014 8.85099L2.01396 10.851H2.014V8.85099ZM3.32068 8.85099V10.851H3.43469L3.54796 10.838L3.32068 8.85099ZM3.53393 8.76242L2.28771 7.19816L2.2877 7.19816L3.53393 8.76242ZM3.66833 8.57401L1.98212 7.4985L1.86004 7.68991L1.78396 7.90382L3.66833 8.57401ZM3.66833 8.08027L5.35453 7.00477L5.23826 6.82248L5.08572 6.66925L3.66833 8.08027ZM2.74526 7.15304L4.16267 5.74201L4.1577 5.73706L2.74526 7.15304ZM2.30766 6.4989L4.1553 5.73324L4.1553 5.73324L2.30766 6.4989ZM2.30766 4.9532L4.1553 5.71886L4.1553 5.71886L2.30766 4.9532ZM2.74526 4.29906L4.15772 5.71505L4.16266 5.71008L2.74526 4.29906ZM4.35165 2.68541L5.76905 4.09644L5.77492 4.09054L5.78074 4.08459L4.35165 2.68541ZM4.99938 2.24629L4.22942 0.40044L4.22942 0.40044L4.99938 2.24629ZM5.76623 2.09532L5.75308 4.09528L5.76714 4.09537L5.7812 4.09527L5.76623 2.09532ZM6.53877 2.24585L5.77433 4.09399L5.77433 4.09399L6.53877 2.24585ZM7.19281 2.68541L8.61938 1.28366L8.61481 1.27903L7.19281 2.68541ZM8.10391 3.61265L6.67734 5.01439L6.68786 5.02511L6.69854 5.03566L8.10391 3.61265ZM8.35564 3.70897L8.74759 1.74775L8.50472 1.69921L8.25735 1.71138L8.35564 3.70897ZM8.54746 3.70897L8.93939 5.67019L9.17698 5.62271L9.39636 5.51987L8.54746 3.70897ZM8.85914 2.02307L6.85914 2.01129V2.02307H8.85914ZM9.45676 0.591818L10.87 2.00704L10.87 2.00704L9.45676 0.591818ZM13.1508 -2H10.8851V2H13.1508V-2ZM13.2108 -2H13.1508V2H13.2108V-2ZM16.0623 -0.698824C15.3531 -1.47391 14.3681 -1.94105 13.3174 -1.99715L13.1041 1.99715C13.105 1.9972 13.1078 1.99761 13.1111 2.00131L16.0623 -0.698824ZM17.1159 2.14537C17.1485 1.09704 16.7712 0.0759907 16.0623 -0.698826L13.1111 2.00131C13.1148 2.00528 13.1181 2.01234 13.1178 2.02124L17.1159 2.14537ZM17.1169 3.3959V2.08331H13.1169V3.3959H17.1169ZM16.7925 2.40502C16.9815 2.65531 17.0926 2.95505 17.1127 3.26695L13.121 3.52484C13.1512 3.99229 13.3177 4.44117 13.6005 4.81564L16.7925 2.40502ZM16.0457 1.85893C16.3437 1.964 16.6032 2.15431 16.7925 2.40502L13.6005 4.81564C13.8836 5.19053 14.2711 5.47455 14.7155 5.63125L16.0457 1.85893ZM15.6977 1.80639C15.8812 1.81239 16.0611 1.85558 16.2265 1.93279L14.5347 5.55739C14.8582 5.70837 15.2093 5.79257 15.5671 5.80426L15.6977 1.80639ZM14.5443 2.21332C14.8236 1.96536 15.1815 1.82079 15.5576 1.80672L15.7072 5.80393C16.2604 5.78322 16.7877 5.57053 17.1999 5.20462L14.5443 2.21332ZM15.3778 1.3707L14.4547 2.29793L17.2895 5.12L18.2126 4.19277L15.3778 1.3707ZM16.6848 0.494027C16.1929 0.697485 15.7471 0.997302 15.3732 1.37535L18.2172 4.18812C18.2167 4.18859 18.2156 4.18951 18.2137 4.19031L16.6848 0.494027ZM18.2367 0.191736C17.7044 0.187751 17.1768 0.290546 16.6848 0.494026L18.2137 4.19031C18.2117 4.19115 18.2093 4.19164 18.2068 4.19162L18.2367 0.191736ZM19.759 0.495805C19.2663 0.290294 18.7371 0.186863 18.2034 0.191765L18.2401 4.1916C18.2328 4.19166 18.2256 4.19023 18.2191 4.18751L19.759 0.495805ZM21.0691 1.38627C20.6971 1.00434 20.2516 0.701274 19.759 0.495806L18.2191 4.18751C18.2126 4.18483 18.2075 4.18116 18.2037 4.1772L21.0691 1.38627ZM22.6602 2.98435L21.0538 1.37071L18.219 4.19276L19.8254 5.8064L22.6602 2.98435ZM23.5307 4.27059C23.3236 3.77934 23.0201 3.33429 22.6377 2.96215L19.8478 5.82861C19.8461 5.82695 19.8453 5.82547 19.8448 5.82449L23.5307 4.27059ZM23.8444 5.82237C23.8444 5.28946 23.7378 4.76179 23.5307 4.27059L19.8448 5.82449C19.8445 5.82356 19.8444 5.82286 19.8444 5.82237H23.8444ZM23.5307 7.37419C23.7378 6.88295 23.8444 6.35524 23.8444 5.82237H19.8444C19.8444 5.82192 19.8444 5.82125 19.8448 5.82029L23.5307 7.37419ZM22.6377 8.68259C23.02 8.31052 23.3235 7.86554 23.5307 7.37419L19.8448 5.82029C19.8453 5.81921 19.8462 5.81772 19.8478 5.81613L22.6377 8.68259ZM21.7371 9.58764L22.6602 8.66037L19.8253 5.83835L18.9023 6.76562L21.7371 9.58764ZM22.2541 8.39941C22.2541 8.70458 22.1661 9.00395 21.9999 9.26141L18.6394 7.09186C18.3875 7.48199 18.2541 7.93611 18.2541 8.39941H22.2541ZM21.9999 7.53741C22.1661 7.79486 22.2541 8.09424 22.2541 8.39941H18.2541C18.2541 8.86271 18.3875 9.31683 18.6394 9.70696L21.9999 7.53741ZM20.6793 6.94731C21.2272 6.94731 21.6345 7.19994 21.8629 7.42358C22.0657 7.62218 22.1494 7.81112 22.1778 7.88229L18.4616 9.36208C18.5961 9.69993 19.1947 10.9473 20.6793 10.9473V6.94731ZM21.986 6.94731H20.6793V10.9473H21.986V6.94731ZM24.8275 8.12884C24.0755 7.3734 23.0535 6.94731 21.986 6.94731V10.9473C21.9868 10.9473 21.9894 10.9475 21.9927 10.9509L24.8275 8.12884ZM26 10.9704C26 9.90627 25.5793 8.88398 24.8275 8.12884L21.9927 10.9509C21.9964 10.9546 22 10.9614 22 10.9704H26ZM26 13.2464V10.9704H22V13.2464H26ZM24.8113 16.0336C25.5388 15.3118 25.9626 14.3398 25.9988 13.3169L22.0012 13.1758C22.0009 13.1844 21.9974 13.1908 21.9939 13.1942L24.8113 16.0336ZM22.0805 17.1966C23.1069 17.1727 24.0836 16.7557 24.8113 16.0336L21.9939 13.1942C21.9907 13.1974 21.9882 13.1977 21.9874 13.1977L22.0805 17.1966ZM20.7273 17.1972H22.034V13.1972H20.7273V17.1972ZM21.7602 16.85C21.5291 17.0341 21.2501 17.1504 20.9545 17.1842L20.5 13.2101C20.0486 13.2618 19.6218 13.4395 19.2678 13.7215L21.7602 16.85ZM22.264 16.1443C22.1656 16.4211 21.9914 16.6658 21.7602 16.85L19.2678 13.7215C18.9137 14.0036 18.6464 14.3788 18.4952 14.804L22.264 16.1443ZM22.314 15.6969C22.314 16.0021 22.2261 16.3015 22.0599 16.5589L18.6994 14.3894C18.4475 14.7795 18.314 15.2336 18.314 15.6969H22.314ZM22.0599 14.835C22.2261 15.0924 22.314 15.3918 22.314 15.6969H18.314C18.314 16.1603 18.4475 16.6144 18.6994 17.0045L22.0599 14.835ZM22.7201 15.4359L21.797 14.5087L18.9622 17.3308L19.8853 18.258L22.7201 15.4359ZM23.5879 16.7354C23.3858 16.2476 23.0893 15.8042 22.7151 15.431L19.8903 18.2629C19.8909 18.2636 19.8918 18.2648 19.8927 18.2668L23.5879 16.7354ZM23.894 18.274C23.894 17.7462 23.7901 17.2233 23.5879 16.7354L19.8927 18.2668C19.8935 18.2687 19.894 18.2712 19.894 18.274H23.894ZM23.5879 19.8125C23.7901 19.3246 23.894 18.8017 23.894 18.274H19.894C19.894 18.2767 19.8935 18.2792 19.8927 18.2811L23.5879 19.8125ZM22.7151 21.1169C23.0893 20.7437 23.3858 20.3003 23.5879 19.8125L19.8927 18.2811C19.8918 18.2831 19.8909 18.2843 19.8903 18.285L22.7151 21.1169ZM21.1137 22.7256L22.7201 21.112L19.8853 18.2899L18.2789 19.9036L21.1137 22.7256ZM19.8185 23.5996C20.3092 23.3949 20.7536 23.0936 21.1254 22.7138L18.2672 19.9154C18.2701 19.9125 18.2739 19.9098 18.2786 19.9079L19.8185 23.5996ZM18.2686 23.9046C18.8006 23.9081 19.3277 23.8043 19.8185 23.5996L18.2786 19.9079C18.2834 19.9058 18.289 19.9047 18.2949 19.9047L18.2686 23.9046ZM16.7448 23.6023C17.2365 23.8057 17.7642 23.9086 18.2967 23.9046L18.2667 19.9047C18.2694 19.9047 18.2718 19.9052 18.2736 19.906L16.7448 23.6023ZM15.4331 22.721C15.8072 23.0992 16.2531 23.3989 16.7448 23.6023L18.2736 19.906C18.2754 19.9067 18.2765 19.9076 18.2771 19.9082L15.4331 22.721ZM14.5174 21.7891L15.4285 22.7163L18.2817 19.9129L17.3707 18.9856L14.5174 21.7891ZM15.1134 22.1806C14.8981 22.0982 14.7024 21.972 14.5387 21.8104L17.3494 18.9643C17.1196 18.7374 16.8451 18.5604 16.543 18.4448L15.1134 22.1806ZM15.7906 22.2886C15.5597 22.3 15.3291 22.2631 15.1134 22.1806L16.543 18.4448C16.2407 18.3291 15.9175 18.2775 15.594 18.2935L15.7906 22.2886ZM15.8924 22.2523C15.697 22.2913 15.4958 22.2913 15.3004 22.2523L16.0843 18.3298C15.7622 18.2655 15.4306 18.2655 15.1086 18.3298L15.8924 22.2523ZM17.1888 20.6643C17.1888 21.1553 16.9802 21.5431 16.765 21.7827C16.5784 21.9904 16.3989 22.0787 16.3494 22.1019L14.6516 18.4801C14.303 18.6435 13.1888 19.2668 13.1888 20.6643H17.1888ZM17.1888 21.9769V20.6643H13.1888V21.9769H17.1888ZM16.0044 24.8234C16.7578 24.0711 17.1825 23.0519 17.1888 21.9887L13.1888 21.9651C13.1888 21.9773 13.1838 21.9871 13.178 21.993L16.0044 24.8234ZM13.1628 26C14.2294 26 15.2508 25.576 16.0044 24.8234L13.178 21.993C13.1724 21.9985 13.1668 22 13.1629 22L13.1628 26ZM10.8971 26H13.1628V22H10.8971V26ZM8.05561 24.8185C8.80767 25.5739 9.82961 26 10.8971 26V22C10.8963 22 10.8937 21.9998 10.8904 21.9964L8.05561 24.8185ZM6.88312 21.9769C6.88312 23.041 7.30387 24.0633 8.05561 24.8185L10.8904 21.9964C10.8868 21.9928 10.8831 21.9859 10.8831 21.9769H6.88312ZM6.88312 20.6643V21.9769H10.8831V20.6643H6.88312ZM7.20752 21.6552C7.01832 21.4047 6.90741 21.1049 6.88728 20.7933L10.879 20.5354C10.8488 20.0682 10.6825 19.6193 10.3995 19.2446L7.20752 21.6552ZM7.95425 22.2013C7.65596 22.0961 7.39665 21.9056 7.20754 21.6552L10.3995 19.2446C10.1166 18.87 9.72922 18.5858 9.28452 18.4289L7.95425 22.2013ZM8.77324 22.2735C8.58873 22.3118 8.3983 22.3118 8.21378 22.2735L9.02498 18.3567C8.67438 18.2841 8.31265 18.2841 7.96204 18.3567L8.77324 22.2735ZM9.39737 21.9448C9.10146 22.1879 8.72835 22.3196 8.3433 22.315L8.39198 18.3153C7.83234 18.3084 7.28944 18.4999 6.85837 18.854L9.39737 21.9448ZM8.6222 22.7377L9.54527 21.8104L6.71047 18.9884L5.78741 19.9156L8.6222 22.7377ZM7.31518 23.6143C7.80703 23.4109 8.25287 23.1111 8.6268 22.733L5.78281 19.9203C5.78331 19.9197 5.78441 19.9188 5.78632 19.9181L7.31518 23.6143ZM5.76325 23.9167C6.29577 23.9207 6.82342 23.8178 7.31519 23.6143L5.7863 19.9181C5.78814 19.9173 5.79052 19.9168 5.7932 19.9168L5.76325 23.9167ZM4.24102 23.6126C4.73353 23.818 5.26266 23.9215 5.79659 23.9166L5.75987 19.9168C5.7674 19.9167 5.77459 19.9182 5.78094 19.9209L4.24102 23.6126ZM2.93092 22.7221C3.30292 23.104 3.74845 23.4071 4.24102 23.6126L5.78094 19.9209C5.78735 19.9235 5.79249 19.9272 5.79635 19.9312L2.93092 22.7221ZM1.33985 21.124L2.94624 22.7377L5.78103 19.9156L4.17464 18.302L1.33985 21.124ZM0.468124 19.8292C0.673794 20.3209 0.975673 20.7668 1.35644 21.1405L4.15805 18.2855L4.15832 18.2857L0.468124 19.8292ZM0.157848 18.2769C0.157029 18.8097 0.262471 19.3375 0.468123 19.8292L4.15832 18.2857C4.15807 18.2851 4.15784 18.2842 4.15784 18.2831L0.157848 18.2769ZM1.33564 15.4402C0.593125 16.1905 0.171797 17.1997 0.158016 18.2538L4.15767 18.3061C4.15795 18.2848 4.16653 18.2662 4.17885 18.2537L1.33564 15.4402ZM2.27221 14.5115L1.34913 15.4267L4.16537 18.2672L5.08845 17.3521L2.27221 14.5115ZM1.74594 15.709C1.74594 15.4038 1.83385 15.1045 2.00008 14.847L5.36058 17.0166C5.61246 16.6264 5.74594 16.1723 5.74594 15.709H1.74594ZM2.00008 16.571C1.83375 16.3133 1.74594 16.014 1.74594 15.709H5.74594C5.74594 15.2459 5.61256 14.7917 5.36058 14.4014L2.00008 16.571ZM3.32068 17.1611C2.77281 17.1611 2.36546 16.9084 2.1371 16.6848C1.93431 16.4862 1.85056 16.2973 1.82222 16.2261L5.53843 14.7463C5.40391 14.4085 4.8053 13.1611 3.32068 13.1611V17.1611ZM2.014 17.1611H3.32068V13.1611H2.014V17.1611ZM0.474955 16.8536C0.962703 17.0566 1.48571 17.1611 2.014 17.1611V13.1611C2.01332 13.1611 2.01253 13.1609 2.01158 13.1605L0.474955 16.8536ZM-0.827508 15.9795C-0.45526 16.3535 -0.0127863 16.6507 0.474955 16.8536L2.01158 13.1605C2.01063 13.1602 2.00907 13.1593 2.00728 13.1575L-0.827508 15.9795ZM-1.69567 14.6746C-1.49464 15.1621 -1.19976 15.6056 -0.827508 15.9795L2.00728 13.1575C2.0055 13.1557 2.00367 13.1532 2.00228 13.1498L-1.69567 14.6746ZM-2 13.138C-2 13.6651 -1.89666 14.1872 -1.69567 14.6746L2.00228 13.1498C2.00085 13.1463 2 13.1423 2 13.138H-2ZM-2 10.862V13.138H2V10.862H-2ZM-0.819063 8.02403C-1.57013 8.774 -1.99368 9.79015 -1.99996 10.8502L1.99996 10.8739C2.00002 10.8649 2.00365 10.8582 2.00729 10.8545L-0.819063 8.02403ZM2.01403 6.85099C0.950664 6.85097 -0.0676747 7.27374 -0.819063 8.02403L2.00729 10.8545C2.01061 10.8512 2.01318 10.851 2.01396 10.851L2.01403 6.85099ZM3.32068 6.85099H2.014V10.851H3.32068V6.85099ZM2.2877 7.19816C2.51872 7.01412 2.79771 6.89777 3.09341 6.86394L3.54796 10.838C3.99951 10.7864 4.42625 10.6086 4.78017 10.3267L2.2877 7.19816ZM1.78396 7.90382C1.88239 7.62706 2.05651 7.38235 2.28771 7.19816L4.78016 10.3267C5.13426 10.0446 5.40149 9.66934 5.5527 9.24419L1.78396 7.90382ZM1.74031 8.32716C1.74031 8.03398 1.82399 7.74643 1.98212 7.4985L5.35453 9.64951C5.60666 9.25422 5.74031 8.79536 5.74031 8.32716H1.74031ZM1.98212 9.15578C1.8239 8.90771 1.74031 8.62018 1.74031 8.32716H5.74031C5.74031 7.85912 5.60675 7.4002 5.35453 7.00477L1.98212 9.15578ZM1.32787 8.56406L2.25093 9.4913L5.08572 6.66925L4.16266 5.74202L1.32787 8.56406ZM0.460019 7.26455C0.662178 7.75239 0.958665 8.1958 1.33282 8.56903L4.1577 5.73706C4.15708 5.73643 4.15612 5.73522 4.1553 5.73324L0.460019 7.26455ZM0.153913 5.72605C0.153913 6.25394 0.257889 6.77678 0.46002 7.26455L4.1553 5.73324C4.15445 5.73119 4.15391 5.72872 4.15391 5.72605H0.153913ZM0.46002 4.18755C0.257889 4.67532 0.153913 5.19816 0.153913 5.72605H4.15391C4.15391 5.72338 4.15445 5.7209 4.1553 5.71886L0.46002 4.18755ZM1.33282 2.88307C0.958666 3.2563 0.662179 3.69971 0.460019 4.18755L4.1553 5.71886C4.15612 5.71688 4.15708 5.71566 4.15771 5.71504L1.33282 2.88307ZM2.93426 1.27439L1.32787 2.88803L4.16266 5.71008L5.76905 4.09644L2.93426 1.27439ZM4.22942 0.40044C3.73851 0.605216 3.29422 0.906631 2.92256 1.28623L5.78074 4.08459C5.77806 4.08733 5.77428 4.09008 5.76934 4.09214L4.22942 0.40044ZM5.77938 0.0953658C5.24732 0.0918674 4.72023 0.195708 4.22942 0.40044L5.76934 4.09214C5.7645 4.09416 5.75894 4.09532 5.75308 4.09528L5.77938 0.0953658ZM7.3032 0.397706C6.81141 0.194289 6.28375 0.0913919 5.75126 0.0953787L5.7812 4.09527C5.77854 4.09529 5.77618 4.09476 5.77433 4.09399L7.3032 0.397706ZM8.61481 1.27903C8.24091 0.900979 7.79509 0.601162 7.3032 0.397705L5.77433 4.09399C5.77238 4.09319 5.77127 4.09227 5.7708 4.09179L8.61481 1.27903ZM9.53047 2.2109L8.61937 1.28366L5.76624 4.08716L6.67734 5.01439L9.53047 2.2109ZM8.93453 1.81938C9.14989 1.90179 9.34555 2.02795 9.50927 2.18963L6.69854 5.03566C6.92838 5.26264 7.20292 5.43961 7.50494 5.55519L8.93453 1.81938ZM8.25735 1.71138C8.48822 1.70002 8.71884 1.73684 8.93453 1.81938L7.50494 5.55519C7.80728 5.67089 8.13044 5.72247 8.45394 5.70655L8.25735 1.71138ZM8.15552 1.74775C8.35093 1.70869 8.55216 1.70869 8.74759 1.74775L7.9637 5.67019C8.28576 5.73455 8.61735 5.73455 8.93939 5.67019L8.15552 1.74775ZM6.85914 3.33566C6.85914 2.84474 7.06766 2.45697 7.28293 2.21734C7.46953 2.00963 7.64899 1.9213 7.69855 1.89807L9.39636 5.51987C9.7451 5.35639 10.8591 4.73313 10.8591 3.33566H6.85914ZM6.85914 2.02307V3.33566H10.8591V2.02307H6.85914ZM8.04356 -0.823407C7.29024 -0.0711592 6.86544 0.948095 6.85917 2.01129L10.8591 2.03485C10.8592 2.02273 10.8641 2.01291 10.87 2.00704L8.04356 -0.823407ZM10.8851 -2C9.81858 -2.00002 8.79719 -1.57596 8.04356 -0.823405L10.87 2.00704C10.8755 2.00148 10.8811 2 10.8851 2L10.8851 -2ZM12 18C15.3137 18 18 15.3137 18 12H14C14 13.1046 13.1046 14 12 14V18ZM6 12C6 15.3137 8.68629 18 12 18V14C10.8954 14 10 13.1046 10 12H6ZM12 6C8.68629 6 6 8.68629 6 12H10C10 10.8954 10.8954 10 12 10V6ZM18 12C18 8.68629 15.3137 6 12 6V10C13.1046 10 14 10.8954 14 12H18Z" fill="currentColor" mask="url(#path-1-inside-1_8654_17552)"/>
</svg>
