<svg width="24" height="24" viewBox="0 0 24 24" fill="none" xmlns="http://www.w3.org/2000/svg">
<path d="M19 12V21H5L5 12L6 12C6.82843 12 7.5 11.3284 7.5 10.5C7.5 9.67157 6.82843 9 6 9L5 9C3.34315 9 2 10.3431 2 12V21C2 22.6569 3.34315 24 5 24H19C20.6569 24 22 22.6569 22 21V12C22 10.3431 20.6569 9 19 9H18C17.1716 9 16.5 9.67157 16.5 10.5C16.5 11.3284 17.1716 12 18 12H19Z" fill="currentColor"/>
<path fill-rule="evenodd" clip-rule="evenodd" d="M12 16C12.8284 16 13.5 15.3284 13.5 14.5L13.5 2C13.5 1.17157 12.8284 0.499999 12 0.499999C11.1716 0.499999 10.5 1.17157 10.5 2L10.5 14.5C10.5 15.3284 11.1716 16 12 16Z" fill="currentColor"/>
<path fill-rule="evenodd" clip-rule="evenodd" d="M17.5607 7.06066C18.1464 6.47487 18.1464 5.52513 17.5607 4.93934L13.0607 0.43934C12.4749 -0.146447 11.5251 -0.146447 10.9393 0.43934L6.43934 4.93934C5.85356 5.52513 5.85356 6.47487 6.43934 7.06066C7.02513 7.64645 7.97487 7.64645 8.56066 7.06066L12 3.62132L15.4393 7.06066C16.0251 7.64645 16.9749 7.64645 17.5607 7.06066Z" fill="currentColor"/>
</svg>
