<svg width="24" height="24" viewBox="0 0 24 24" fill="none" xmlns="http://www.w3.org/2000/svg">
<path d="M12 12V15H15" stroke="currentColor" stroke-width="2" stroke-linecap="round" stroke-linejoin="round"/>
<path d="M12 19.3278C12.8377 21.6378 15.1472 23.132 17.6642 22.9908C20.1812 22.8502 22.2988 21.1092 22.8586 18.7204C23.4177 16.3322 22.2837 13.8718 20.0774 12.6869C17.8711 11.5013 15.1239 11.8772 13.3396 13.6078L12.3082 14.4041" stroke="currentColor" stroke-width="2" stroke-linecap="round" stroke-linejoin="round"/>
<path d="M16.7495 6.10358C16.7495 6.2237 16.7277 6.24105 16.7091 6.25585C16.707 6.25748 16.705 6.25909 16.7031 6.26079C16.6294 6.3255 16.4287 6.44278 15.9755 6.54171C15.0524 6.74325 13.7117 6.75 11.9995 6.75C10.2873 6.75 8.94659 6.74325 8.02349 6.54171C7.57036 6.44278 7.3696 6.3255 7.29594 6.26079C7.294 6.25909 7.29198 6.25748 7.28993 6.25585C7.27132 6.24105 7.24951 6.2237 7.24951 6.10358C7.24951 3.40277 9.39624 1.25 11.9995 1.25C14.6028 1.25 16.7495 3.40277 16.7495 6.10358Z" stroke="currentColor" stroke-width="2.5"/>
<mask id="path-4-inside-1_8654_17290" fill="white">
<path fill-rule="evenodd" clip-rule="evenodd" d="M4.01649 5C2.43306 5 1.12226 6.23062 1.02245 7.8109L0.2014 20.8109C0.0922759 22.5387 1.46419 24 3.19544 24H11.3427C9.30367 22.35 8 19.8273 8 17C8 12.0294 12.0294 8 17 8C17.0608 8 17.1214 8.0006 17.1819 8.0018C17.2043 8.00061 17.2269 8 17.2496 8C17.2995 8 17.3487 8.00292 17.397 8.0086C19.6147 8.10486 21.6243 9.0037 23.1424 10.4219L22.9775 7.8109C22.8777 6.23062 21.5669 5 19.9835 5H4.01649ZM6.74965 8C6.0593 8 5.49965 8.55964 5.49965 9.25C5.49965 9.94036 6.0593 10.5 6.74965 10.5C7.44001 10.5 7.99965 9.94036 7.99965 9.25C7.99965 8.55964 7.44001 8 6.74965 8Z"/>
</mask>
<path fill-rule="evenodd" clip-rule="evenodd" d="M4.01649 5C2.43306 5 1.12226 6.23062 1.02245 7.8109L0.2014 20.8109C0.0922759 22.5387 1.46419 24 3.19544 24H11.3427C9.30367 22.35 8 19.8273 8 17C8 12.0294 12.0294 8 17 8C17.0608 8 17.1214 8.0006 17.1819 8.0018C17.2043 8.00061 17.2269 8 17.2496 8C17.2995 8 17.3487 8.00292 17.397 8.0086C19.6147 8.10486 21.6243 9.0037 23.1424 10.4219L22.9775 7.8109C22.8777 6.23062 21.5669 5 19.9835 5H4.01649ZM6.74965 8C6.0593 8 5.49965 8.55964 5.49965 9.25C5.49965 9.94036 6.0593 10.5 6.74965 10.5C7.44001 10.5 7.99965 9.94036 7.99965 9.25C7.99965 8.55964 7.44001 8 6.74965 8Z" fill="currentColor"/>
<path d="M1.02245 7.8109L0.0244411 7.74787L1.02245 7.8109ZM0.2014 20.8109L1.19941 20.8739L0.2014 20.8109ZM11.3427 24V25H14.1682L11.9717 23.2226L11.3427 24ZM17.1819 8.0018L17.1621 9.00161L17.1987 9.00233L17.2352 9.00038L17.1819 8.0018ZM17.397 8.0086L17.2803 9.00177L17.3169 9.00606L17.3536 9.00766L17.397 8.0086ZM23.1424 10.4219L22.4598 11.1527L24.2991 12.8709L24.1404 10.3589L23.1424 10.4219ZM22.9775 7.8109L23.9755 7.74787V7.74787L22.9775 7.8109ZM2.02046 7.87394C2.087 6.82041 2.96087 6 4.01649 6V4C1.90524 4 0.157518 5.64083 0.0244411 7.74787L2.02046 7.87394ZM1.19941 20.8739L2.02046 7.87394L0.0244411 7.74787L-0.796611 20.7479L1.19941 20.8739ZM3.19544 23C2.04127 23 1.12666 22.0258 1.19941 20.8739L-0.796611 20.7479C-0.94211 23.0516 0.887113 25 3.19544 25V23ZM11.3427 23H3.19544V25H11.3427V23ZM7 17C7 20.1418 8.45007 22.9457 10.7136 24.7774L11.9717 23.2226C10.1573 21.7544 9 19.5127 9 17H7ZM17 7C11.4772 7 7 11.4772 7 17H9C9 12.5817 12.5817 9 17 9V7ZM17.2017 7.002C17.1346 7.00067 17.0674 7 17 7V9C17.0542 9 17.1082 9.00054 17.1621 9.00161L17.2017 7.002ZM17.2352 9.00038C17.2399 9.00013 17.2447 9 17.2496 9V7C17.2091 7 17.1688 7.00108 17.1286 7.00322L17.2352 9.00038ZM17.2496 9C17.2604 9 17.2706 9.00063 17.2803 9.00177L17.5137 7.01543C17.4267 7.00521 17.3386 7 17.2496 7V9ZM23.8251 9.69116C22.1392 8.11628 19.9052 7.11653 17.4404 7.00954L17.3536 9.00766C19.3243 9.0932 21.1093 9.89112 22.4598 11.1527L23.8251 9.69116ZM21.9795 7.87393L22.1444 10.4849L24.1404 10.3589L23.9755 7.74787L21.9795 7.87393ZM19.9835 6C21.0391 6 21.913 6.82041 21.9795 7.87394L23.9755 7.74787C23.8425 5.64083 22.0947 4 19.9835 4V6ZM4.01649 6H19.9835V4H4.01649V6ZM6.49965 9.25C6.49965 9.11193 6.61158 9 6.74965 9V7C5.50701 7 4.49965 8.00736 4.49965 9.25H6.49965ZM6.74965 9.5C6.61158 9.5 6.49965 9.38807 6.49965 9.25H4.49965C4.49965 10.4926 5.50701 11.5 6.74965 11.5V9.5ZM6.99965 9.25C6.99965 9.38807 6.88773 9.5 6.74965 9.5V11.5C7.9923 11.5 8.99965 10.4926 8.99965 9.25H6.99965ZM6.74965 9C6.88773 9 6.99965 9.11193 6.99965 9.25H8.99965C8.99965 8.00736 7.9923 7 6.74965 7V9Z" fill="currentColor" mask="url(#path-4-inside-1_8654_17290)"/>
</svg>
