<svg width="24" height="24" viewBox="0 0 24 24" fill="none" xmlns="http://www.w3.org/2000/svg">
<path fill-rule="evenodd" clip-rule="evenodd" d="M5 7L10.7768 0.778807C11.238 0.282184 11.8851 0 12.5628 0C13.9088 0 15 1.09118 15 2.43721V21.4838C15 22.8735 13.8735 24 12.4838 24C11.8512 24 11.2419 23.7618 10.7771 23.3327L5 18H3C1.34315 18 0 16.6569 0 15V10C0 8.34315 1.34315 7 3 7H5ZM23.0461 8.22193C22.4186 7.04758 21.5073 6.024 20.3833 5.23123C20.1635 5.06151 19.8801 4.97985 19.5955 5.00423C19.3109 5.02861 19.0484 5.157 18.8657 5.36119C18.683 5.56539 18.5951 5.82866 18.6214 6.09306C18.6476 6.35747 18.7858 6.60135 19.0056 6.77107C19.8869 7.37526 20.6031 8.16322 21.0967 9.07153C21.5903 9.97984 21.8474 10.9831 21.8474 12.0006C21.8474 13.0181 21.5903 14.0214 21.0967 14.9297C20.6031 15.838 19.8869 16.626 19.0056 17.2302C18.8966 17.3141 18.8066 17.4172 18.7405 17.5335C18.6745 17.6499 18.6338 17.7771 18.6208 17.9081C18.6078 18.0391 18.6228 18.1712 18.6648 18.2968C18.7068 18.4223 18.7751 18.539 18.8657 18.64C18.9669 18.7529 19.0936 18.8437 19.2369 18.9059C19.3801 18.9681 19.5364 19.0002 19.6945 19C19.946 19.0005 20.1897 18.9191 20.3833 18.77C21.5073 17.9772 22.4186 16.9537 23.0461 15.7793C23.6735 14.605 24 13.3117 24 12.0006C24 10.6896 23.6735 9.39629 23.0461 8.22193ZM20.2355 12.0006C20.2355 10.6897 19.7733 9.41476 18.9196 8.37094C18.8305 8.26851 18.7206 8.18341 18.5962 8.12044C18.4717 8.05747 18.3351 8.01789 18.1942 8.00397C18.0533 7.99004 17.9107 8.00201 17.7748 8.03924C17.6389 8.07647 17.5122 8.13823 17.4019 8.22096C17.2917 8.30368 17.2 8.40578 17.1323 8.52141C17.0645 8.63703 17.0219 8.7639 17.0069 8.89482C16.9919 9.02573 17.0048 9.15812 17.0449 9.2844C17.085 9.41068 17.1514 9.52841 17.2404 9.63083C17.7842 10.3177 18.0776 11.148 18.0776 12.0006C18.0776 12.8532 17.7842 13.6836 17.2404 14.3704C17.1121 14.5174 17.0313 14.6951 17.0074 14.883C16.9835 15.0709 17.0175 15.2613 17.1054 15.432C17.1934 15.6027 17.3316 15.7467 17.5041 15.8473C17.6767 15.9479 17.8763 16.0009 18.08 16.0003C18.2408 16.0008 18.3997 15.9678 18.545 15.9038C18.6903 15.8398 18.8183 15.7463 18.9196 15.6303C19.7733 14.5865 20.2355 13.3116 20.2355 12.0006Z" fill="currentColor"/>
</svg>
