<svg width="24" height="24" viewBox="0 0 24 24" fill="none" xmlns="http://www.w3.org/2000/svg">
<path d="M10.9517 0.681778C11.3805 -0.227258 12.6195 -0.22726 13.0483 0.681777L15.8509 6.62277C16.0212 6.98375 16.3503 7.23395 16.7311 7.29184L22.9978 8.24452C23.9567 8.39029 24.3395 9.6231 23.6457 10.3307L19.1111 14.9551C18.8355 15.2361 18.7098 15.6409 18.7749 16.0377L19.8453 22.5675C20.0091 23.5666 19.0067 24.3285 18.1491 23.8568L12.544 20.7738C12.2034 20.5865 11.7966 20.5865 11.456 20.7738L5.8509 23.8568C4.99325 24.3285 3.99088 23.5666 4.15467 22.5675L5.22515 16.0377C5.29019 15.6409 5.16447 15.2361 4.88894 14.9551L0.354315 10.3307C-0.339532 9.62311 0.0433404 8.39029 1.00221 8.24452L7.26891 7.29184C7.64968 7.23395 7.97884 6.98375 8.14913 6.62277L10.9517 0.681778Z" fill="currentColor"/>
</svg>
