<svg width="28" height="24" viewBox="0 0 28 24" fill="none" xmlns="http://www.w3.org/2000/svg">
<path fill-rule="evenodd" clip-rule="evenodd" d="M23.3335 12.8414C23.8907 13.3299 24.6088 13.6461 25.4002 13.7045L25.6667 13.7143V21.7143C25.6667 22.9767 24.622 24 23.3333 24H4.66667C3.378 24 2.33333 22.9767 2.33333 21.7143V13.7143C3.23024 13.7143 4.04836 13.3838 4.66678 12.8414C5.00344 13.1365 5.39875 13.3687 5.83348 13.5192L5.83333 18.2857H22.1667L22.1683 13.5187C22.6027 13.3681 22.9975 13.136 23.3335 12.8414ZM22.75 0C23.8517 0 24.889 0.508094 25.55 1.37143L27.3 3.65714C27.7544 4.25062 28 4.97245 28 5.71429V9.14286C28 10.4052 26.9553 11.4286 25.6667 11.4286C24.378 11.4286 23.3333 10.4052 23.3333 9.14286C23.3333 10.4052 22.2887 11.4286 21 11.4286C19.7113 11.4286 18.6667 10.4052 18.6667 9.14286C18.6667 10.4052 17.622 11.4286 16.3333 11.4286C15.0447 11.4286 14 10.4052 14 9.14286C14 10.4052 12.9553 11.4286 11.6667 11.4286C10.378 11.4286 9.33333 10.4052 9.33333 9.14286C9.33333 10.4052 8.28866 11.4286 7 11.4286C5.71134 11.4286 4.66667 10.4052 4.66667 9.14286C4.66667 10.4052 3.622 11.4286 2.33333 11.4286C1.04467 11.4286 0 10.4052 0 9.14286V5.71429C0 4.97245 0.245623 4.25062 0.7 3.65714L2.45 1.37143C3.11099 0.508094 4.14835 0 5.25 0H22.75Z" fill="currentColor"/>
</svg>
