<svg width="24" height="24" viewBox="0 0 24 24" fill="none" xmlns="http://www.w3.org/2000/svg">
<path fill-rule="evenodd" clip-rule="evenodd" d="M20.0001 10.0069C20.4778 10.4257 21.0932 10.6967 21.7716 10.7467L22 10.7551V21.0408C22 22.1228 21.1046 23 20 23H4C2.89543 23 2 22.1228 2 21.0408V10.7551C2.76878 10.7551 3.47002 10.4718 4.0001 10.0069C4.28866 10.2599 4.6275 10.4589 5.00013 10.5879V20H19.0014V10.5875C19.3737 10.4584 19.7122 10.2594 20.0001 10.0069ZM19.5 1C20.4443 1 21.3334 1.43551 21.9 2.17551L23.4 4.13469C23.7895 4.64339 24 5.2621 24 5.89796V6.83674C24 7.91876 23.1046 8.79592 22 8.79592C20.8954 8.79592 20 7.91876 20 6.83674C20 7.91876 19.1046 8.79592 18 8.79592C16.8954 8.79592 16 7.91876 16 6.83674C16 7.91876 15.1046 8.79592 14 8.79592C12.8954 8.79592 12 7.91876 12 6.83674C12 7.91876 11.1046 8.79592 10 8.79592C8.89543 8.79592 8 7.91876 8 6.83674C8 7.91876 7.10457 8.79592 6 8.79592C4.89543 8.79592 4 7.91876 4 6.83674C4 7.91876 3.10457 8.79592 2 8.79592C0.895431 8.79592 0 7.91876 0 6.83674V5.89796C0 5.2621 0.210534 4.64339 0.6 4.13469L2.1 2.17551C2.66656 1.43551 3.55573 1 4.5 1H19.5Z" fill="currentColor"/>
<path fill-rule="evenodd" clip-rule="evenodd" d="M16.3992 10.0831C16.9056 10.3036 17.1374 10.8928 16.9169 11.3992L16.9175 11.3978C16.9175 11.3978 16.9134 11.4078 16.9041 11.4331C16.8938 11.4612 16.8806 11.4982 16.8641 11.5459C16.8344 11.6313 16.7986 11.7374 16.7552 11.8661L16.7387 11.915C16.638 12.213 16.5055 12.6038 16.3475 13.0399C16.0343 13.9044 15.6083 14.9826 15.106 15.9102C14.855 16.3737 14.5701 16.8277 14.2521 17.2068C13.9448 17.5729 13.5412 17.9486 13.0326 18.1386C12.4601 18.3525 11.844 18.2955 11.2932 17.9315C10.8002 17.6056 10.4194 17.0749 10.1056 16.4472C10.0204 16.2769 9.94528 16.1517 9.88288 16.0611C9.8785 16.0673 9.87403 16.0736 9.86948 16.0801C9.45345 16.6763 9.11998 17.7554 8.95658 18.2915C8.79558 18.8198 8.23679 19.1176 7.7085 18.9566C7.1802 18.7956 6.88245 18.2368 7.04346 17.7085C7.04874 17.6912 7.05445 17.6723 7.06059 17.6521C7.21136 17.1552 7.61979 15.8091 8.22934 14.9356C8.50979 14.5337 9.10806 13.8301 10.0303 13.9133C10.4917 13.9549 10.8681 14.1885 11.1563 14.4739C11.4392 14.754 11.68 15.1239 11.8944 15.5528C12.1157 15.9953 12.2883 16.1793 12.372 16.2455C12.4355 16.2085 12.5544 16.1185 12.72 15.9212C12.9197 15.6831 13.1317 15.3561 13.3473 14.9579C13.7782 14.1622 14.1643 13.1946 14.4671 12.3586C14.6172 11.9445 14.7438 11.5713 14.8438 11.2751C14.8528 11.2484 14.8618 11.2216 14.8709 11.1948C14.9508 10.9578 15.0297 10.7236 15.0831 10.6008C15.3036 10.0945 15.8928 9.86268 16.3992 10.0831ZM10.0515 15.87C10.0515 15.87 10.0482 15.873 10.0415 15.8766C10.0481 15.8714 10.0515 15.87 10.0515 15.87Z" fill="currentColor"/>
</svg>
