<svg width="24" height="24" viewBox="0 0 24 24" fill="none" xmlns="http://www.w3.org/2000/svg">
<path fill-rule="evenodd" clip-rule="evenodd" d="M0 5C0 2.79086 1.79086 1 4 1H20C22.2091 1 24 2.79086 24 5V16C24 18.2091 22.2091 20 20 20H9.88552L6.6247 22.7657C5.96993 23.321 5 22.8268 5 21.9378V20H4C1.79086 20 0 18.2091 0 16V5ZM7.8 10.4C7.8 11.1732 7.1732 11.8 6.4 11.8C5.6268 11.8 5 11.1732 5 10.4C5 9.6268 5.6268 9 6.4 9C7.1732 9 7.8 9.6268 7.8 10.4ZM13.4 10.4C13.4 11.1732 12.7732 11.8 12 11.8C11.2268 11.8 10.6 11.1732 10.6 10.4C10.6 9.6268 11.2268 9 12 9C12.7732 9 13.4 9.6268 13.4 10.4ZM17.6 11.8C18.3732 11.8 19 11.1732 19 10.4C19 9.6268 18.3732 9 17.6 9C16.8268 9 16.2 9.6268 16.2 10.4C16.2 11.1732 16.8268 11.8 17.6 11.8Z" fill="currentColor"/>
</svg>
