<svg width="24" height="24" viewBox="0 0 24 24" fill="none" xmlns="http://www.w3.org/2000/svg">
<path fill-rule="evenodd" clip-rule="evenodd" d="M0 5C0 3.89543 0.895431 3 2 3H22C23.1046 3 24 3.89543 24 5V9C22.3431 9 21 10.3431 21 12C21 13.6569 22.3431 15 24 15V19C24 20.1046 23.1046 21 22 21H2C0.89543 21 0 20.1046 0 19V15C1.65685 15 3 13.6569 3 12C3 10.3431 1.65685 9 0 9V5ZM6 9C6 8.44772 6.44772 8 7 8H18C18.5523 8 19 8.44772 19 9C19 9.55228 18.5523 10 18 10H7C6.44772 10 6 9.55228 6 9ZM7 14C6.44772 14 6 14.4477 6 15C6 15.5523 6.44772 16 7 16H13C13.5523 16 14 15.5523 14 15C14 14.4477 13.5523 14 13 14H7Z" fill="currentColor"/>
</svg>
