<svg width="24" height="24" viewBox="0 0 24 24" fill="none" xmlns="http://www.w3.org/2000/svg">
<path d="M1 3C0.447715 3 0 3.44772 0 4V18C0 18.5523 0.447715 19 1 19H3.03544C3.01209 18.8367 3 18.6698 3 18.5C3 16.567 4.567 15 6.5 15C8.433 15 10 16.567 10 18.5C10 18.6698 9.98791 18.8367 9.96456 19H13V7C13 5.89543 13.8954 5 15 5H17V4C17 3.44772 16.5523 3 16 3H1Z" fill="currentColor"/>
<path fill-rule="evenodd" clip-rule="evenodd" d="M14 7C14 6.44772 14.4477 6 15 6H20.382C20.7607 6 21.107 6.214 21.2764 6.55279L23.6833 11.3666C23.8916 11.7831 24 12.2425 24 12.7082V18C24 18.5523 23.5523 19 23 19H21.9646C21.9879 18.8367 22 18.6698 22 18.5C22 16.567 20.433 15 18.5 15C16.567 15 15 16.567 15 18.5C15 18.6698 15.0121 18.8367 15.0354 19H14V7ZM21.6875 11.7969L20.2639 8.59386C20.1034 8.23273 19.7453 8 19.3501 8H16V12.5H21.2306C21.5924 12.5 21.8345 12.1276 21.6875 11.7969Z" fill="currentColor"/>
<path d="M21 18.5C21 19.8807 19.8807 21 18.5 21C17.1193 21 16 19.8807 16 18.5C16 17.1193 17.1193 16 18.5 16C19.8807 16 21 17.1193 21 18.5Z" fill="currentColor"/>
<path d="M9 18.5C9 19.8807 7.88071 21 6.5 21C5.11929 21 4 19.8807 4 18.5C4 17.1193 5.11929 16 6.5 16C7.88071 16 9 17.1193 9 18.5Z" fill="currentColor"/>
</svg>
