<svg width="24" height="24" viewBox="0 0 24 24" fill="none" xmlns="http://www.w3.org/2000/svg">
<path fill-rule="evenodd" clip-rule="evenodd" d="M1.5 13C2.32843 13 3 13.6716 3 14.5V19.5C3 20.3284 3.67157 21 4.5 21H19.5C20.3284 21 21 20.3284 21 19.5V14.5C21 13.6716 21.6716 13 22.5 13C23.3284 13 24 13.6716 24 14.5V19.5C24 21.9853 21.9853 24 19.5 24H4.5C2.01472 24 0 21.9853 0 19.5V14.5C0 13.6716 0.671573 13 1.5 13Z" fill="currentColor"/>
<path fill-rule="evenodd" clip-rule="evenodd" d="M12 16C12.8284 16 13.5 15.3284 13.5 14.5L13.5 2C13.5 1.17157 12.8284 0.499999 12 0.499999C11.1716 0.499999 10.5 1.17157 10.5 2L10.5 14.5C10.5 15.3284 11.1716 16 12 16Z" fill="currentColor"/>
<path fill-rule="evenodd" clip-rule="evenodd" d="M17.5607 7.06066C18.1464 6.47487 18.1464 5.52513 17.5607 4.93934L13.0607 0.43934C12.4749 -0.146447 11.5251 -0.146447 10.9393 0.43934L6.43934 4.93934C5.85356 5.52513 5.85356 6.47487 6.43934 7.06066C7.02513 7.64645 7.97487 7.64645 8.56066 7.06066L12 3.62132L15.4393 7.06066C16.0251 7.64645 16.9749 7.64645 17.5607 7.06066Z" fill="currentColor"/>
</svg>
