<svg width="24" height="24" viewBox="0 0 24 24" fill="none" xmlns="http://www.w3.org/2000/svg">
<path fill-rule="evenodd" clip-rule="evenodd" d="M10.5 12C13.8311 12 16.5 9.32993 16.5 6C16.5 2.67007 13.8311 0 10.5 0C7.17007 0 4.5 2.67007 4.5 6C4.5 9.32993 7.17007 12 10.5 12ZM13.5681 23.9796C13.4221 23.8867 13.2854 23.7777 13.1607 23.6538L12.3463 22.8394C12.1235 22.6192 11.9463 22.3571 11.8252 22.0682C11.704 21.7794 11.6413 21.4694 11.6404 21.1561C11.6194 20.9621 11.6194 20.7664 11.6404 20.5724C11.2912 20.3598 11.0027 20.0607 10.8029 19.704C10.6032 19.3473 10.4988 18.945 10.5 18.5362V17.3824C10.5015 16.9725 10.6085 16.5699 10.8105 16.2133C11.0126 15.8567 11.3031 15.5581 11.654 15.3462C11.5562 14.9485 11.5622 14.5324 11.6715 14.1378C11.7278 13.935 11.8103 13.7414 11.9164 13.5616C11.4521 13.5208 10.9792 13.5 10.5 13.5C4.83706 13.5 0 16.4339 0 21.0833C0 23.4167 5 24 10.5 24C11.5514 24 12.5846 24 13.5681 23.9796ZM17.4426 12C17.1749 12 16.9182 12.1064 16.7284 12.2959C16.5386 12.4854 16.4312 12.7427 16.4296 13.0115V13.6678C16.4296 13.7521 16.3636 13.8123 16.2737 13.8545C16.2421 13.8608 16.2095 13.8608 16.1778 13.8545C16.1547 13.8556 16.1315 13.8519 16.1099 13.8436C16.0882 13.8354 16.0685 13.8226 16.052 13.8063L15.5964 13.3427C15.503 13.2483 15.3919 13.1736 15.2694 13.1229C15.1469 13.0723 15.0156 13.0467 14.8831 13.0477C14.7516 13.0468 14.6212 13.0725 14.4997 13.1231C14.3782 13.1738 14.2681 13.2485 14.1758 13.3427L13.3726 14.1495C13.2789 14.243 13.2046 14.3541 13.1538 14.4766C13.1031 14.5991 13.077 14.7304 13.077 14.863C13.077 14.9957 13.1031 15.127 13.1538 15.2494C13.2046 15.3719 13.2789 15.4831 13.3726 15.5765L13.8342 16.0401C13.8577 16.077 13.8702 16.1198 13.8702 16.1636C13.8702 16.2073 13.8577 16.2502 13.8342 16.287C13.821 16.3241 13.7977 16.3567 13.767 16.3812C13.7362 16.4057 13.6993 16.421 13.6603 16.4255H13.007C12.741 16.4255 12.4857 16.5312 12.2971 16.7196C12.1084 16.908 12.0016 17.1638 12 17.431V18.569C12 18.7018 12.026 18.8334 12.0767 18.9561C12.1273 19.0788 12.2014 19.1903 12.2949 19.2843C12.3885 19.3782 12.4995 19.4527 12.6216 19.5035C12.7438 19.5544 12.8748 19.5805 13.007 19.5805H13.6603C13.7443 19.5805 13.8042 19.6528 13.8402 19.7431C13.8616 19.7763 13.873 19.815 13.873 19.8545C13.873 19.894 13.8616 19.9327 13.8402 19.9659L13.3786 20.4235C13.1899 20.6142 13.0824 20.8711 13.0789 21.14C13.0787 21.2735 13.1051 21.4056 13.1566 21.5287C13.2081 21.6518 13.2836 21.7632 13.3786 21.8565L14.1818 22.6633C14.2739 22.7578 14.3839 22.8327 14.5055 22.8834C14.627 22.9341 14.7575 22.9596 14.8891 22.9584C15.0216 22.9594 15.1529 22.9338 15.2754 22.8831C15.3979 22.8324 15.509 22.7577 15.6024 22.6633L16.0639 22.1997C16.0977 22.1719 16.1402 22.157 16.1838 22.1576C16.2253 22.149 16.2682 22.149 16.3097 22.1576C16.3463 22.1705 16.3783 22.1939 16.4018 22.225C16.4252 22.256 16.439 22.2933 16.4416 22.3322V22.9885C16.4416 23.2567 16.5477 23.514 16.7365 23.7037C16.9254 23.8934 17.1815 24 17.4486 24H18.5814C18.849 24 19.1058 23.8936 19.2956 23.7041C19.4854 23.5146 19.5928 23.2573 19.5944 22.9885V22.3322C19.5944 22.2479 19.6603 22.1877 19.7503 22.1455C19.7819 22.1392 19.8145 22.1392 19.8462 22.1455C19.8693 22.1444 19.8925 22.1481 19.9141 22.1564C19.9358 22.1646 19.9555 22.1774 19.972 22.1937L20.4276 22.6573C20.5209 22.7517 20.6321 22.8264 20.7546 22.8771C20.8771 22.9277 21.0084 22.9533 21.1409 22.9523C21.2724 22.9532 21.4028 22.9275 21.5243 22.8769C21.6458 22.8262 21.7559 22.7515 21.8482 22.6573L22.6513 21.8505C22.745 21.757 22.8194 21.6459 22.8702 21.5234C22.9209 21.4009 22.947 21.2696 22.947 21.137C22.947 21.0043 22.9209 20.873 22.8702 20.7506C22.8194 20.6281 22.745 20.5169 22.6513 20.4235L22.1898 19.9599C22.1684 19.9267 22.157 19.888 22.157 19.8485C22.157 19.8089 22.1684 19.7703 22.1898 19.7371C22.203 19.7 22.2263 19.6674 22.257 19.6429C22.2877 19.6184 22.3247 19.6031 22.3636 19.5986H23.017C23.2738 19.5926 23.5186 19.4883 23.7013 19.307C23.884 19.1256 23.9909 18.881 24 18.6232V17.4852C24 17.2169 23.8939 16.9596 23.7051 16.7699C23.5162 16.5802 23.2601 16.4737 22.993 16.4737H22.3397C22.2557 16.4737 22.1958 16.4014 22.1598 16.3111C22.1384 16.2779 22.127 16.2392 22.127 16.1997C22.127 16.1602 22.1384 16.1215 22.1598 16.0883L22.6214 15.6247C22.7165 15.5321 22.7922 15.4212 22.8439 15.2986C22.8956 15.1761 22.9222 15.0443 22.9222 14.9112C22.9222 14.7781 22.8956 14.6463 22.8439 14.5238C22.7922 14.4012 22.7165 14.2903 22.6214 14.1977L21.8182 13.3909C21.7261 13.2964 21.6161 13.2215 21.4945 13.1708C21.373 13.1201 21.2425 13.0946 21.1109 13.0958C20.9784 13.0948 20.8471 13.1204 20.7246 13.1711C20.6021 13.2217 20.491 13.2965 20.3976 13.3909L19.9361 13.8545C19.9028 13.884 19.8605 13.901 19.8162 13.9027C19.7726 13.9012 19.7298 13.891 19.6903 13.8725C19.6537 13.8596 19.6217 13.8362 19.5982 13.8052C19.5748 13.7741 19.561 13.7368 19.5584 13.6979V13.0417C19.5666 12.7773 19.4715 12.5203 19.2934 12.3256C19.1152 12.1309 18.8683 12.014 18.6054 12H17.4426ZM17.9997 20C19.1043 20 19.9997 19.1045 19.9997 18C19.9997 16.8954 19.1043 16 17.9997 16C16.8951 16 15.9997 16.8954 15.9997 18C15.9997 19.1045 16.8951 20 17.9997 20Z" fill="currentColor"/>
</svg>
