<svg width="24" height="24" viewBox="0 0 24 24" fill="none" xmlns="http://www.w3.org/2000/svg">
<path d="M12.0008 17C5.37297 17 0 19.4441 0 22.4594C0 23.578 5.37297 24 12.0008 24C18.6287 24 24 23.5802 24 22.4594C24 19.4441 18.6276 17 12.0008 17Z" fill="currentColor"/>
<path fill-rule="evenodd" clip-rule="evenodd" d="M10.5 7.92672C7.5 7.92672 5 11.45 5 11.45C5 3.39672 11.0252 3.88883 11.0252 3.88883C10.5 1.88673 7.5 2.39006 7.5 2.39006C10.4578 -0.124866 14.3295 1.60153 14.3295 1.60153C20 -2.64345 24 2.89329 24 2.89329C19.5 1.38321 18 4.40321 18 4.40321C23.5 4.90654 23.5 10.9465 23.5 10.9465C20.5 7.92653 17.1937 7.67876 17.1937 7.67876C18.4831 10.2651 18.9425 13.577 19.0787 16.2553C18.1309 15.8717 17.0775 15.5681 15.9472 15.3557C16.233 11.4582 15 8.43005 15 8.43005C12 9.93986 10.5 14.9732 10.5 14.9732C9 11.45 10.5 7.92672 10.5 7.92672Z" fill="currentColor"/>
</svg>
