<svg width="24" height="24" viewBox="0 0 24 24" fill="none" xmlns="http://www.w3.org/2000/svg">
<path fill-rule="evenodd" clip-rule="evenodd" d="M4 0C1.79086 0 0 1.79086 0 4V7V21C0 22.6569 1.34315 24 3 24H20C21.6569 24 23 22.6569 23 21V19H20C17.7909 19 16 17.2091 16 15V14C16 11.7909 17.7909 10 20 10H23V8C23 6.34315 21.6569 5 20 5H18.8293H4C3.44771 5 3 4.55228 3 4C3 3.44772 3.44772 3 4 3L12.4994 3L12.5 3L19 3L19.5 3C20.3284 3 21 2.32843 21 1.5C21 0.671573 20.3284 0 19.5 0H16H12.5H4ZM20 12C18.8954 12 18 12.8954 18 14V15C18 16.1046 18.8954 17 20 17H22C23.1046 17 24 16.1046 24 15V14C24 12.8954 23.1046 12 22 12H20Z" fill="currentColor"/>
</svg>
