<svg width="24" height="24" viewBox="0 0 24 24" fill="none" xmlns="http://www.w3.org/2000/svg">
<path fill-rule="evenodd" clip-rule="evenodd" d="M8.39279 6H10C10 8.16633 10.8611 10.1315 12.2596 11.5721C11.8594 11.46 11.4368 11.4 11 11.4C8.46869 11.4 6.41667 13.4147 6.41667 15.9C6.41667 18.3853 8.46869 20.4 11 20.4C13.5313 20.4 15.5833 18.3853 15.5833 15.9C15.5833 14.9368 15.2751 14.0443 14.7503 13.3124C15.7433 13.7544 16.843 14 18 14C19.4571 14 20.8233 13.6104 22 12.9297V20C22 22.2091 20.2091 24 18 24H4C1.79086 24 0 22.2091 0 20V12.7C0 10.4909 1.79086 8.7 4 8.7H5.5L6.73818 6.8765C7.11045 6.32825 7.73011 6 8.39279 6ZM13.5833 15.9C13.5833 17.2463 12.4615 18.4 11 18.4C9.53851 18.4 8.41667 17.2463 8.41667 15.9C8.41667 14.5537 9.53851 13.4 11 13.4C12.4615 13.4 13.5833 14.5537 13.5833 15.9Z" fill="currentColor"/>
<path fill-rule="evenodd" clip-rule="evenodd" d="M24 6C24 9.31371 21.3137 12 18 12C14.6863 12 12 9.31371 12 6C12 2.68629 14.6863 0 18 0C21.3137 0 24 2.68629 24 6ZM14.5714 6C14.5714 5.52661 14.9552 5.14286 15.4286 5.14286H17.1429V3.42857C17.1429 2.95518 17.5266 2.57143 18 2.57143C18.4734 2.57143 18.8571 2.95518 18.8571 3.42857V5.14286H20.5714C21.0448 5.14286 21.4286 5.52661 21.4286 6C21.4286 6.47339 21.0448 6.85714 20.5714 6.85714H18.8571V8.57143C18.8571 9.04482 18.4734 9.42857 18 9.42857C17.5266 9.42857 17.1429 9.04482 17.1429 8.57143V6.85714H15.4286C14.9552 6.85714 14.5714 6.47339 14.5714 6Z" fill="currentColor"/>
</svg>
