<svg width="24" height="24" viewBox="0 0 24 24" fill="none" xmlns="http://www.w3.org/2000/svg">
<path d="M3 0C1.34315 0 0 1.34315 0 3V8C0 9.65685 1.34315 11 3 11H8C9.65685 11 11 9.65685 11 8V3C11 1.34315 9.65685 0 8 0H3Z" fill="currentColor"/>
<path d="M3 13C1.34315 13 0 14.3431 0 16V21C0 22.6569 1.34315 24 3 24H8C9.65685 24 11 22.6569 11 21V16C11 14.3431 9.65685 13 8 13H3Z" fill="currentColor"/>
<path d="M13 3C13 1.34315 14.3431 0 16 0H21C22.6569 0 24 1.34315 24 3V8C24 9.65685 22.6569 11 21 11H16C14.3431 11 13 9.65685 13 8V3Z" fill="currentColor"/>
<path fill-rule="evenodd" clip-rule="evenodd" d="M24 18.5C24 21.5376 21.5376 24 18.5 24C15.4624 24 13 21.5376 13 18.5C13 15.4624 15.4624 13 18.5 13C21.5376 13 24 15.4624 24 18.5ZM19.1875 16.4375C19.1875 16.0578 18.8797 15.75 18.5 15.75C18.1203 15.75 17.8125 16.0578 17.8125 16.4375V17.8125H16.4375C16.0578 17.8125 15.75 18.1203 15.75 18.5C15.75 18.8797 16.0578 19.1875 16.4375 19.1875H17.8125V20.5625C17.8125 20.9422 18.1203 21.25 18.5 21.25C18.8797 21.25 19.1875 20.9422 19.1875 20.5625V19.1875H20.5625C20.9422 19.1875 21.25 18.8797 21.25 18.5C21.25 18.1203 20.9422 17.8125 20.5625 17.8125H19.1875V16.4375Z" fill="currentColor"/>
</svg>
