<svg width="24" height="25" viewBox="0 0 24 25" fill="none" xmlns="http://www.w3.org/2000/svg">
<g id="Size=Xlarge">
<path id="Alert_ICO" fill-rule="evenodd" clip-rule="evenodd" d="M12 0.5C18.6274 0.5 24 5.87258 24 12.5C24 19.1274 18.6274 24.5 12 24.5C5.37258 24.5 0 19.1274 0 12.5C0 5.87258 5.37258 0.5 12 0.5ZM10.4698 7.56658C10.4313 6.98938 10.8891 6.5 11.4676 6.5H12.5326C13.1111 6.5 13.5689 6.98938 13.5304 7.56658L13.13 13.5666C13.095 14.0919 12.6587 14.5 12.1323 14.5H11.8679C11.3415 14.5 10.9052 14.0919 10.8702 13.5666L10.4698 7.56658ZM12 18.5C12.8284 18.5 13.5 17.8284 13.5 17C13.5 16.1716 12.8284 15.5 12 15.5C11.1716 15.5 10.5 16.1716 10.5 17C10.5 17.8284 11.1716 18.5 12 18.5Z" fill="currentColor"/>
</g>
</svg>
