<svg width="24" height="24" viewBox="0 0 24 24" fill="none" xmlns="http://www.w3.org/2000/svg">
<path fill-rule="evenodd" clip-rule="evenodd" d="M13.9605 0.169812C13.3677 0.519385 13.1646 1.29361 13.5068 1.89909L14.0646 2.88577L4.52377 12.3081C3.86959 12.9542 3.72986 13.9721 4.18484 14.777L9.112 23.4935C9.34436 23.9046 9.82509 24.0957 10.2684 23.9532L14.6283 22.5516C14.9998 22.4321 15.2684 22.1016 15.315 21.7067L15.8243 17.3887L21.1757 15.466L21.687 16.3705C22.0293 16.9759 22.7873 17.1834 23.3801 16.8338C23.9729 16.4843 24.176 15.71 23.8337 15.1045L15.6536 0.63317C15.3113 0.0276909 14.5533 -0.179761 13.9605 0.169812ZM13.7385 18.1381L9.28011 19.74L10.4317 21.7772L13.4227 20.8157L13.7385 18.1381Z" fill="currentColor"/>
<path d="M0.619916 15.0531C0.0271115 15.4027 -0.175998 16.1769 0.166258 16.7824L2.89298 21.6062C3.23523 22.2116 3.99325 22.4191 4.58606 22.0695C5.17886 21.72 5.38197 20.9457 5.03971 20.3403L2.31299 15.5165C1.97074 14.911 1.21272 14.7035 0.619916 15.0531Z" fill="currentColor"/>
</svg>
