<svg width="24" height="24" viewBox="0 0 24 24" fill="none" xmlns="http://www.w3.org/2000/svg">
<path fill-rule="evenodd" clip-rule="evenodd" d="M0 3C0 1.34315 1.34315 0 3 0H21C22.6569 0 24 1.34315 24 3V4.2C24 5.31042 23.3967 6.27994 22.5 6.79865V21C22.5 22.6569 21.1569 24 19.5 24H4.5C2.84315 24 1.5 22.6569 1.5 21V6.79865C0.603298 6.27994 0 5.31042 0 4.2V3ZM2.5 3.5C2.5 2.94772 2.94772 2.5 3.5 2.5H20.5C21.0523 2.5 21.5 2.94772 21.5 3.5C21.5 4.05228 21.0523 4.5 20.5 4.5H3.5C2.94771 4.5 2.5 4.05228 2.5 3.5ZM8.0001 13.25C8.0001 12.5596 8.55974 12 9.2501 12H14.7501C15.4405 12 16.0001 12.5596 16.0001 13.25C16.0001 13.9404 15.4405 14.5 14.7501 14.5H9.2501C8.55974 14.5 8.0001 13.9404 8.0001 13.25Z" fill="currentColor"/>
</svg>
