<svg width="24" height="24" viewBox="0 0 24 24" fill="none" xmlns="http://www.w3.org/2000/svg">
<path fill-rule="evenodd" clip-rule="evenodd" d="M13.5 17H10.5V22H9C8.44772 22 8 22.4477 8 23C8 23.5523 8.44772 24 9 24H15C15.5523 24 16 23.5523 16 23C16 22.4477 15.5523 22 15 22H13.5V17Z" fill="currentColor"/>
<path fill-rule="evenodd" clip-rule="evenodd" d="M5 0C4.44771 0 4 0.447716 4 1V10C4 14.4183 7.58172 18 12 18C16.4183 18 20 14.4183 20 10V1C20 0.447716 19.5523 0 19 0H5ZM13.6045 5.75949L12.4368 3.28407C12.2581 2.90531 11.7419 2.90531 11.5632 3.28407L10.3955 5.75949C10.3245 5.9099 10.1874 6.01415 10.0287 6.03827L7.41759 6.43522C7.01806 6.49595 6.85853 7.00963 7.14763 7.30445L9.03706 9.2313C9.15186 9.34837 9.20425 9.51705 9.17715 9.68237L8.73111 12.4031C8.66286 12.8194 9.08052 13.1369 9.43787 12.9403L11.7733 11.6558C11.9152 11.5777 12.0848 11.5777 12.2267 11.6558L14.5621 12.9403C14.9195 13.1369 15.3371 12.8194 15.2689 12.4031L14.8229 9.68237C14.7958 9.51705 14.8481 9.34837 14.9629 9.2313L16.8524 7.30445C17.1415 7.00963 16.9819 6.49595 16.5824 6.43522L13.9713 6.03827C13.8126 6.01415 13.6755 5.9099 13.6045 5.75949Z" fill="currentColor"/>
<path d="M0 6.25C0 5.55964 0.559644 5 1.25 5V5C1.94036 5 2.5 5.55964 2.5 6.25V9.75C2.5 10.4404 1.94036 11 1.25 11V11C0.559644 11 0 10.4404 0 9.75V6.25Z" fill="currentColor"/>
<path d="M21.5 6.25C21.5 5.55964 22.0596 5 22.75 5V5C23.4404 5 24 5.55964 24 6.25V9.75C24 10.4404 23.4404 11 22.75 11V11C22.0596 11 21.5 10.4404 21.5 9.75V6.25Z" fill="currentColor"/>
</svg>
