<svg width="24" height="24" viewBox="0 0 24 24" fill="none" xmlns="http://www.w3.org/2000/svg">
<path fill-rule="evenodd" clip-rule="evenodd" d="M24 12C24 5.37258 18.6274 0 12 0C5.37258 0 0 5.37258 0 12C0 18.6274 5.37258 24 12 24C18.6274 24 24 18.6274 24 12ZM17.548 18.3442C17.6921 18.4499 17.8693 18.5048 18.0501 18.4997L17.963 18.4691C18.1438 18.4742 18.321 18.4193 18.465 18.3136C18.6091 18.2079 18.7113 18.0577 18.7546 17.8881C18.9165 17.2657 18.9989 16.6265 19 15.9847C18.9717 13.9136 18.1449 11.9271 16.6811 10.4131C15.2173 8.89919 13.2217 7.96658 11.084 7.79748V6.9031C11.0839 6.63532 11.0019 6.37351 10.8484 6.1505C10.695 5.9275 10.4768 5.7532 10.2212 5.6494C9.9418 5.52049 9.62943 5.47352 9.32271 5.51428C9.01599 5.55504 8.72837 5.68173 8.49546 5.87872L4.48996 9.25754C4.33636 9.38385 4.213 9.54087 4.12841 9.71773C4.04381 9.89459 4 10.0871 4 10.2819C4 10.4767 4.04381 10.6692 4.12841 10.8461C4.213 11.023 4.33636 11.18 4.48996 11.3063L8.49546 14.6851C8.72837 14.8821 9.01599 15.0088 9.32271 15.0496C9.62943 15.0903 9.9418 15.0433 10.2212 14.9144C10.4768 14.8106 10.695 14.6363 10.8484 14.4133C11.0019 14.1903 11.0839 13.9285 11.084 13.6607V12.8046C12.534 12.937 13.906 13.4998 15.0116 14.4155C16.1172 15.3312 16.9021 16.5549 17.2585 17.9187C17.3018 18.0883 17.404 18.2385 17.548 18.3442Z" fill="currentColor"/>
</svg>
