<svg width="24" height="24" viewBox="0 0 24 24" fill="none" xmlns="http://www.w3.org/2000/svg">
<path fill-rule="evenodd" clip-rule="evenodd" d="M21.1566 21.5126C20.0324 16.7905 16.0775 13.3793 11.3103 12.863V14.3136C11.3103 15.2273 10.7811 16.0412 9.92968 16.4359C9.00632 16.8669 7.92884 16.7116 7.17979 16.0425L0.780632 10.3175C0.28421 9.87235 0 9.24213 0 8.58862C0 7.93511 0.28421 7.30489 0.780632 6.85973L7.17979 1.13471C7.92884 0.465669 9.00632 0.310379 9.92968 0.741309C10.7811 1.136 11.3103 1.94998 11.3103 2.8636V4.43979C18.4143 5.07778 24 11.0474 24 18.2942C24 19.3424 23.8686 20.4243 23.6109 21.5113C23.4745 22.0924 22.968 22.5 22.3844 22.5C21.8021 22.5 21.2943 22.0924 21.1566 21.5126Z" fill="currentColor"/>
</svg>
