<svg width="24" height="24" viewBox="0 0 24 24" fill="none" xmlns="http://www.w3.org/2000/svg">
<path fill-rule="evenodd" clip-rule="evenodd" d="M2 1C2 0.447716 2.44772 0 3 0H21C21.5523 0 22 0.447715 22 1V22.6743C22 23.3386 21.3641 23.8183 20.7253 23.6358L19.0949 23.17C18.7074 23.0592 18.2954 23.0682 17.913 23.1957L16.087 23.8043C15.7046 23.9318 15.2926 23.9408 14.9051 23.83L12.5494 23.157C12.1903 23.0544 11.8097 23.0544 11.4506 23.157L9.09492 23.83C8.70737 23.9408 8.2954 23.9318 7.91302 23.8043L6.08698 23.1957C5.7046 23.0682 5.29263 23.0592 4.90508 23.17L3.27472 23.6358C2.63591 23.8183 2 23.3386 2 22.6743V1ZM6 7C6 6.44772 6.44772 6 7 6H17C17.5523 6 18 6.44772 18 7C18 7.55228 17.5523 8 17 8H7C6.44771 8 6 7.55228 6 7ZM7 11C6.44772 11 6 11.4477 6 12C6 12.5523 6.44772 13 7 13H12C12.5523 13 13 12.5523 13 12C13 11.4477 12.5523 11 12 11H7ZM15 12C15 11.4477 15.4477 11 16 11H17C17.5523 11 18 11.4477 18 12C18 12.5523 17.5523 13 17 13H16C15.4477 13 15 12.5523 15 12ZM7 16C6.44772 16 6 16.4477 6 17C6 17.5523 6.44772 18 7 18H12C12.5523 18 13 17.5523 13 17C13 16.4477 12.5523 16 12 16H7Z" fill="currentColor"/>
</svg>
