<svg width="24" height="24" viewBox="0 0 24 24" fill="none" xmlns="http://www.w3.org/2000/svg">
<path fill-rule="evenodd" clip-rule="evenodd" d="M3 0C1.34315 0 0 1.34314 0 3V20.9966C0 22.6535 1.34314 23.9966 3 23.9966H12.176L9.2922 14.2638C8.39072 11.2213 11.2212 8.39079 14.2638 9.29228L23.9964 12.1761V3C23.9964 1.34315 22.6533 0 20.9964 0H3ZM14.3979 3.59949C14.3979 4.26214 13.8607 4.79932 13.198 4.79932C12.5354 4.79932 11.9982 4.26214 11.9982 3.59949C11.9982 2.93685 12.5354 2.39966 13.198 2.39966C13.8607 2.39966 14.3979 2.93685 14.3979 3.59949ZM16.7975 4.79932C17.4602 4.79932 17.9973 4.26214 17.9973 3.59949C17.9973 2.93685 17.4602 2.39966 16.7975 2.39966C16.1349 2.39966 15.5977 2.93685 15.5977 3.59949C15.5977 4.26214 16.1349 4.79932 16.7975 4.79932ZM21.5968 3.59949C21.5968 4.26214 21.0596 4.79932 20.397 4.79932C19.7343 4.79932 19.1972 4.26214 19.1972 3.59949C19.1972 2.93685 19.7343 2.39966 20.397 2.39966C21.0596 2.39966 21.5968 2.93685 21.5968 3.59949ZM13.2587 11.7694C12.3476 11.5014 11.5011 12.3479 11.7691 13.259L14.3874 22.1612C14.6444 23.035 15.7429 23.3151 16.3868 22.6711L18.2196 20.8383L20.9452 23.4902C21.6576 24.1833 22.797 24.1677 23.4902 23.4553C24.1833 22.7429 24.1677 21.6035 23.4553 20.9103L20.7651 18.2928L22.6707 16.3871C23.3147 15.7432 23.0346 14.6446 22.1609 14.3877L13.2587 11.7694Z" fill="currentColor"/>
</svg>
