<svg width="24" height="24" viewBox="0 0 24 24" fill="none" xmlns="http://www.w3.org/2000/svg">
<path d="M2.80006 0.400059C2.46869 -0.0417689 1.84189 -0.131312 1.40006 0.200059C0.958231 0.53143 0.868688 1.15823 1.20006 1.60006L2.47982 3.30641C2.37719 3.34465 2.27899 3.38766 2.18404 3.43603C1.43139 3.81953 0.819467 4.43145 0.435974 5.1841C0 6.03975 0 7.15985 0 9.40006V14.6001C0 16.8403 0 17.9604 0.435974 18.816C0.819467 19.5687 1.43139 20.1806 2.18404 20.5641C3.03969 21.0001 4.15979 21.0001 6.4 21.0001H11.6C13.5917 21.0001 14.698 21.0001 15.5203 20.6937L17.7001 23.6001C18.0314 24.0419 18.6582 24.1314 19.1001 23.8001C19.5419 23.4687 19.6314 22.8419 19.3001 22.4001L2.80006 0.400059Z" fill="currentColor"/>
<path d="M6.75 3.00006L17.8726 17.8302C17.9724 17.2425 17.994 16.5057 17.9987 15.4993L22.4961 18.1228C23.1628 18.5117 24 18.0308 24 17.259V6.7411C24 5.96931 23.1628 5.48844 22.4961 5.87732L17.9987 8.50082C17.991 6.84327 17.9373 5.91674 17.564 5.1841C17.1805 4.43145 16.5686 3.81953 15.816 3.43603C14.9603 3.00006 13.8402 3.00006 11.6 3.00006H6.75Z" fill="currentColor"/>
</svg>
