<svg width="24" height="24" viewBox="0 0 24 24" fill="none" xmlns="http://www.w3.org/2000/svg">
<path fill-rule="evenodd" clip-rule="evenodd" d="M13.777 0.881231C12.6574 0.326048 11.3426 0.326048 10.223 0.881231L3.223 4.35231C1.86135 5.0275 1 6.41606 1 7.93592V16.0642C1 17.5841 1.86136 18.9726 3.223 19.6478L10.223 23.1189C11.3426 23.6741 12.6574 23.6741 13.777 23.1189L20.777 19.6478C22.1386 18.9726 23 17.5841 23 16.0642V7.93592C23 6.41606 22.1386 5.0275 20.777 4.35231L13.777 0.881231ZM9 11.0001C10.1046 11.0001 11 10.1046 11 9.00008C11 7.89551 10.1046 7.00008 9 7.00008C7.89543 7.00008 7 7.89551 7 9.00008C7 10.1046 7.89543 11.0001 9 11.0001ZM17 15.0001C17 16.1046 16.1046 17.0001 15 17.0001C13.8954 17.0001 13 16.1046 13 15.0001C13 13.8955 13.8954 13.0001 15 13.0001C16.1046 13.0001 17 13.8955 17 15.0001ZM16.7071 8.70718C17.0976 8.31666 17.0976 7.68349 16.7071 7.29297C16.3166 6.90245 15.6834 6.90245 15.2929 7.29297L7.29289 15.293C6.90237 15.6835 6.90237 16.3167 7.29289 16.7072C7.68342 17.0977 8.31658 17.0977 8.70711 16.7072L16.7071 8.70718Z" fill="currentColor"/>
</svg>
