<svg width="24" height="24" viewBox="0 0 24 24" fill="none" xmlns="http://www.w3.org/2000/svg">
<path d="M9 1.5C9 0.671573 9.67157 0 10.5 0H13.5C14.3284 0 15 0.671573 15 1.5V22.5C15 23.3284 14.3284 24 13.5 24H10.5C9.67157 24 9 23.3284 9 22.5V1.5Z" fill="currentColor"/>
<path d="M0 7.5C0 6.67157 0.671573 6 1.5 6H4.5C5.32843 6 6 6.67157 6 7.5V22.5C6 23.3284 5.32843 24 4.5 24H1.5C0.671573 24 0 23.3284 0 22.5V7.5Z" fill="currentColor"/>
<path d="M19.5 12C18.6716 12 18 12.6716 18 13.5V22.5C18 23.3284 18.6716 24 19.5 24H22.5C23.3284 24 24 23.3284 24 22.5V13.5C24 12.6716 23.3284 12 22.5 12H19.5Z" fill="currentColor"/>
</svg>
