<svg width="24" height="24" viewBox="0 0 24 24" fill="none" xmlns="http://www.w3.org/2000/svg">
<path fill-rule="evenodd" clip-rule="evenodd" d="M2 6C2 3.23858 4.23858 1 7 1H17C19.7614 1 22 3.23858 22 6V8C23.1046 8 24 8.89543 24 10V13C24 14.1046 23.1046 15 22 15V16C22 18.7614 19.7614 21 17 21H14.1535L12.7597 22.6464C12.3606 23.1179 11.6394 23.1179 11.2403 22.6464L9.84654 21H7C4.23858 21 2 18.7614 2 16V15C0.895431 15 0 14.1046 0 13V10C0 8.89543 0.895431 8 2 8V6ZM8 9.50001C8 10.3284 7.32843 11 6.5 11C5.67157 11 5 10.3284 5 9.50001C5 8.67158 5.67157 8.00001 6.5 8.00001C7.32843 8.00001 8 8.67158 8 9.50001ZM9.92066 13.6095C9.70491 13.1012 9.1179 12.864 8.60954 13.0797C8.10118 13.2955 7.86397 13.8825 8.07973 14.3909C8.72822 15.9189 10.2359 17 12.0027 17C13.7632 17 15.2664 15.9265 15.9186 14.4073C16.1365 13.8998 15.9017 13.3118 15.3943 13.0939C14.8868 12.8761 14.2988 13.1109 14.081 13.6183C13.7292 14.4377 12.9264 15.0001 12.0027 15.0001C11.0757 15.0001 10.2704 14.4336 9.92066 13.6095ZM17.5 11C18.3284 11 19 10.3284 19 9.50001C19 8.67158 18.3284 8.00001 17.5 8.00001C16.6716 8.00001 16 8.67158 16 9.50001C16 10.3284 16.6716 11 17.5 11Z" fill="currentColor"/>
</svg>
