<svg width="24" height="24" viewBox="0 0 24 24" fill="none" xmlns="http://www.w3.org/2000/svg">
<path fill-rule="evenodd" clip-rule="evenodd" d="M2.45061 2.45061C3.05141 1.8498 4.02551 1.8498 4.62632 2.45061L12 9.82429L19.3737 2.45061C19.9745 1.8498 20.9486 1.8498 21.5494 2.45061C22.1502 3.05141 22.1502 4.02551 21.5494 4.62632L14.1757 12L21.5494 19.3737C22.1502 19.9745 22.1502 20.9486 21.5494 21.5494C20.9486 22.1502 19.9745 22.1502 19.3737 21.5494L12 14.1757L4.62632 21.5494C4.02551 22.1502 3.05141 22.1502 2.45061 21.5494C1.8498 20.9486 1.8498 19.9745 2.45061 19.3737L9.82429 12L2.45061 4.62632C1.8498 4.02551 1.8498 3.05141 2.45061 2.45061Z" fill="currentColor"/>
</svg>
