<svg width="24" height="24" viewBox="0 0 24 24" fill="none" xmlns="http://www.w3.org/2000/svg">
<g id="Size=Xlarge">
<path id="Vector 3 (Stroke)" fill-rule="evenodd" clip-rule="evenodd" d="M0.492905 0.49289C0.88343 0.102366 1.51659 0.102366 1.90712 0.49289L23.5071 22.0929C23.8976 22.4834 23.8976 23.1166 23.5071 23.5071C23.1166 23.8976 22.4834 23.8976 22.0929 23.5071L0.492905 1.9071C0.102381 1.51658 0.102381 0.883414 0.492905 0.49289Z" fill="currentColor"/>
<path id="Vector 4 (Stroke)" fill-rule="evenodd" clip-rule="evenodd" d="M0.492905 23.5071C0.102381 23.1166 0.102381 22.4834 0.492905 22.0929L22.0929 0.492879C22.4834 0.102355 23.1166 0.102355 23.5071 0.492879C23.8976 0.883403 23.8976 1.51657 23.5071 1.90709L1.90712 23.5071C1.51659 23.8976 0.88343 23.8976 0.492905 23.5071Z" fill="currentColor"/>
</g>
</svg>
