<svg width="24" height="24" viewBox="0 0 24 24" fill="none" xmlns="http://www.w3.org/2000/svg">
<path fill-rule="evenodd" clip-rule="evenodd" d="M0 4C0 1.79086 1.79086 0 4 0H20C22.2091 0 24 1.79086 24 4V20C24 22.2091 22.2091 24 20 24H4C1.79086 24 0 22.2091 0 20V4ZM7.29289 16.7071C7.68342 17.0976 8.31658 17.0976 8.70711 16.7071C9.09763 16.3166 9.09763 15.6834 8.70711 15.2929L5.41421 12L8.70711 8.70711C9.09763 8.31658 9.09763 7.68342 8.70711 7.29289C8.31658 6.90237 7.68342 6.90237 7.29289 7.29289L3.29289 11.2929C2.90237 11.6834 2.90237 12.3166 3.29289 12.7071L7.29289 16.7071ZM15.2929 7.29289C15.6834 6.90237 16.3166 6.90237 16.7071 7.29289L20.7071 11.2929C21.0976 11.6834 21.0976 12.3166 20.7071 12.7071L16.7071 16.7071C16.3166 17.0976 15.6834 17.0976 15.2929 16.7071C14.9024 16.3166 14.9024 15.6834 15.2929 15.2929L18.5858 12L15.2929 8.70711C14.9024 8.31658 14.9024 7.68342 15.2929 7.29289ZM13.9866 6.1644C14.0773 5.61963 13.7093 5.1044 13.1646 5.01361C12.6198 4.92281 12.1046 5.29083 12.0138 5.8356L10.0138 17.8356C9.92297 18.3804 10.291 18.8956 10.8358 18.9864C11.3805 19.0772 11.8958 18.7092 11.9866 18.1644L13.9866 6.1644Z" fill="currentColor"/>
</svg>
