<svg width="24" height="24" viewBox="0 0 24 24" fill="none" xmlns="http://www.w3.org/2000/svg">
<path fill-rule="evenodd" clip-rule="evenodd" d="M4 1C1.79086 1 0 2.79086 0 5V16C0 18.2091 1.79086 20 4 20H5V21.9378C5 22.8268 5.96993 23.321 6.6247 22.7657L9.88552 20H20C22.2091 20 24 18.2091 24 16V5C24 2.79086 22.2091 1 20 1H4ZM10.5 5.5C10.5 4.67157 11.1716 4 12 4C12.8284 4 13.5 4.67157 13.5 5.5V11.5C13.5 12.3284 12.8284 13 12 13C11.1716 13 10.5 12.3284 10.5 11.5V5.5ZM12 14C11.1716 14 10.5 14.6716 10.5 15.5C10.5 16.3284 11.1716 17 12 17C12.8284 17 13.5 16.3284 13.5 15.5C13.5 14.6716 12.8284 14 12 14Z" fill="currentColor"/>
</svg>
