<svg width="24" height="24" viewBox="0 0 24 24" fill="none" xmlns="http://www.w3.org/2000/svg">
<path d="M5.96238 7.37436C5.37346 6.78544 5.37346 5.83061 5.96238 5.24169C6.55129 4.65277 7.50612 4.65277 8.09503 5.24169L18.7583 15.905C19.3472 16.494 19.3472 17.4488 18.7583 18.0377C18.1694 18.6266 17.2146 18.6266 16.6257 18.0377L5.96238 7.37436Z" fill="currentColor"/>
<path d="M7.02863 6.30797L17.6919 16.9713L3.06352 23.798C2.24311 24.1808 1.27084 24.0095 0.630659 23.3693C-0.00951877 22.7292 -0.18081 21.7569 0.202049 20.9365L7.02863 6.30797Z" fill="currentColor"/>
<path d="M9.36383 0.140016C9.46594 -0.0466719 9.73406 -0.0466721 9.83617 0.140016L10.5139 1.37913C10.5386 1.4243 10.5757 1.46144 10.6209 1.48614L11.86 2.16383C12.0467 2.26594 12.0467 2.53406 11.86 2.63617L10.6209 3.31386C10.5757 3.33857 10.5386 3.3757 10.5139 3.42087L9.83617 4.65998C9.73406 4.84667 9.46594 4.84667 9.36383 4.65998L8.68614 3.42087C8.66144 3.3757 8.6243 3.33857 8.57914 3.31386L7.34002 2.63617C7.15333 2.53406 7.15333 2.26594 7.34002 2.16383L8.57914 1.48614C8.6243 1.46144 8.66144 1.4243 8.68614 1.37913L9.36383 0.140016Z" fill="currentColor"/>
<path d="M21.3638 10.94C21.4659 10.7533 21.7341 10.7533 21.8362 10.94L22.5139 12.1791C22.5386 12.2243 22.5757 12.2614 22.6209 12.2861L23.86 12.9638C24.0467 13.0659 24.0467 13.3341 23.86 13.4362L22.6209 14.1139C22.5757 14.1386 22.5386 14.1757 22.5139 14.2209L21.8362 15.46C21.7341 15.6467 21.4659 15.6467 21.3638 15.46L20.6861 14.2209C20.6614 14.1757 20.6243 14.1386 20.5791 14.1139L19.34 13.4362C19.1533 13.3341 19.1533 13.0659 19.34 12.9638L20.5791 12.2861C20.6243 12.2614 20.6614 12.2243 20.6861 12.1791L21.3638 10.94Z" fill="currentColor"/>
<path d="M20.1638 0.140016C20.2659 -0.0466719 20.5341 -0.0466721 20.6362 0.140016L21.3139 1.37913C21.3386 1.4243 21.3757 1.46144 21.4209 1.48614L22.66 2.16383C22.8467 2.26594 22.8467 2.53406 22.66 2.63617L21.4209 3.31386C21.3757 3.33857 21.3386 3.3757 21.3139 3.42087L20.6362 4.65998C20.5341 4.84667 20.2659 4.84667 20.1638 4.65998L19.4861 3.42087C19.4614 3.3757 19.4243 3.33857 19.3791 3.31386L18.14 2.63617C17.9533 2.53406 17.9533 2.26594 18.14 2.16383L19.3791 1.48614C19.4243 1.46144 19.4614 1.4243 19.4861 1.37913L20.1638 0.140016Z" fill="currentColor"/>
<path fill-rule="evenodd" clip-rule="evenodd" d="M14.4 2.4C15.0627 2.4 15.6 2.93726 15.6 3.6C15.6 7.75175 13.8781 10.6189 12.8485 11.6485C12.3799 12.1172 11.6201 12.1172 11.1515 11.6485C10.6828 11.1799 10.6828 10.4201 11.1515 9.95147C11.7219 9.38108 13.2 7.12825 13.2 3.6C13.2 2.93726 13.7373 2.4 14.4 2.4Z" fill="currentColor"/>
<path fill-rule="evenodd" clip-rule="evenodd" d="M24 7.2C24 6.53726 23.4627 6 22.8 6C19.4163 6 17.3256 7.37737 15.9515 8.75147C15.4828 9.2201 15.4828 9.9799 15.9515 10.4485C16.4201 10.9172 17.1799 10.9172 17.6485 10.4485C18.6744 9.42263 20.1837 8.4 22.8 8.4C23.4627 8.4 24 7.86274 24 7.2Z" fill="currentColor"/>
</svg>
