<svg width="24" height="24" viewBox="0 0 24 24" fill="none" xmlns="http://www.w3.org/2000/svg">
<path fill-rule="evenodd" clip-rule="evenodd" d="M3 0C1.34315 0 0 1.34315 0 3V14C0 15.6569 1.34315 17 3 17H5V8C5 6.34315 6.34315 5 8 5H17V3C17 1.34315 15.6569 0 14 0H3ZM7 10C7 8.34315 8.34315 7 10 7H21C22.6569 7 24 8.34315 24 10V21C24 22.6569 22.6569 24 21 24H19.0083H10C8.34314 24 7 22.6569 7 21V10ZM19.7433 13.669C20.1128 13.2584 20.0795 12.6262 19.669 12.2567C19.2585 11.8872 18.6262 11.9205 18.2567 12.331L14.4618 16.5476L12.7071 14.7929C12.3166 14.4024 11.6834 14.4024 11.2929 14.7929C10.9024 15.1834 10.9024 15.8166 11.2929 16.2071L13.7929 18.7071C13.9869 18.9011 14.252 19.0069 14.5263 18.9996C14.8005 18.9924 15.0598 18.8729 15.2433 18.669L19.7433 13.669Z" fill="currentColor"/>
</svg>
