<svg width="24" height="24" viewBox="0 0 24 24" fill="none" xmlns="http://www.w3.org/2000/svg">
<path fill-rule="evenodd" clip-rule="evenodd" d="M2 3H15V4C15 4.55228 15.4477 5 16 5C16.5523 5 17 4.55228 17 4V3H22C23.1046 3 24 3.89543 24 5V10C22.8954 10 22 10.8954 22 12C22 13.1046 22.8954 14 24 14V19C24 20.1046 23.1046 21 22 21H17V20C17 19.4477 16.5523 19 16 19C15.4477 19 15 19.4477 15 20V21H2C0.89543 21 0 20.1046 0 19V14C1.10457 14 2 13.1046 2 12C2 10.8954 1.10457 10 0 10V5C0 3.89543 0.895431 3 2 3ZM17 8C17 7.44772 16.5523 7 16 7C15.4477 7 15 7.44772 15 8V10C15 10.5523 15.4477 11 16 11C16.5523 11 17 10.5523 17 10V8ZM16 13C16.5523 13 17 13.4477 17 14V16C17 16.5523 16.5523 17 16 17C15.4477 17 15 16.5523 15 16V14C15 13.4477 15.4477 13 16 13Z" fill="currentColor"/>
</svg>
