<svg width="24" height="24" viewBox="0 0 24 24" fill="none" xmlns="http://www.w3.org/2000/svg">
<path d="M0 6.00002C0 4.1144 0 3.17159 0.585786 2.5858C1.17157 2.00002 2.11438 2.00002 4 2.00002H20C21.8856 2.00002 22.8284 2.00002 23.4142 2.5858C24 3.17159 24 4.1144 24 6.00002V7.00002H0V6.00002Z" fill="currentColor"/>
<path fill-rule="evenodd" clip-rule="evenodd" d="M0 10H24V18C24 19.8856 24 20.8284 23.4142 21.4142C22.8284 22 21.8856 22 20 22H4C2.11438 22 1.17157 22 0.585786 21.4142C0 20.8284 0 19.8856 0 18V10ZM17.5 16C16.6716 16 16 16.6716 16 17.5C16 18.3284 16.6716 19 17.5 19H19.5C20.3284 19 21 18.3284 21 17.5C21 16.6716 20.3284 16 19.5 16H17.5Z" fill="currentColor"/>
</svg>
