<svg width="24" height="24" viewBox="0 0 24 24" fill="none" xmlns="http://www.w3.org/2000/svg">
<path fill-rule="evenodd" clip-rule="evenodd" d="M14 22L14 18H10V22H7C6.44772 22 6 22.4477 6 23C6 23.5523 6.44772 24 7 24L17 24C17.5523 24 18 23.5523 18 23C18 22.4477 17.5523 22 17 22H14Z" fill="currentColor"/>
<path fill-rule="evenodd" clip-rule="evenodd" d="M3 0C1.34315 0 0 1.34315 0 3V17C0 18.6569 1.34315 20 3 20H21C22.6569 20 24 18.6569 24 17V3C24 1.34315 22.6569 0 21 0H3ZM3 16C2.44772 16 2 16.4477 2 17C2 17.5523 2.44772 18 3 18H21C21.5523 18 22 17.5523 22 17C22 16.4477 21.5523 16 21 16H3Z" fill="currentColor"/>
</svg>
