<svg width="24" height="24" viewBox="0 0 24 24" fill="none" xmlns="http://www.w3.org/2000/svg">
<path fill-rule="evenodd" clip-rule="evenodd" d="M4 3H20C20.5523 3 21 3.44772 21 4V16C21 16.5523 20.5523 17 20 17H4C3.44772 17 3 16.5523 3 16V4C3 3.44772 3.44772 3 4 3ZM0 4C0 1.79086 1.79086 0 4 0H20C22.2091 0 24 1.79086 24 4V16C24 18.2091 22.2091 20 20 20H13.5V21.5H16.75C17.4404 21.5 18 22.0596 18 22.75C18 23.4404 17.4404 24 16.75 24H7.25C6.55964 24 6 23.4404 6 22.75C6 22.0596 6.55964 21.5 7.25 21.5H10.5V20H4C1.79086 20 0 18.2091 0 16V4Z" fill="currentColor"/>
</svg>
