<svg width="24" height="24" viewBox="0 0 24 24" fill="none" xmlns="http://www.w3.org/2000/svg">
<path fill-rule="evenodd" clip-rule="evenodd" d="M17.2148 19.3361C15.7436 20.3838 13.9437 21 12 21C7.02944 21 3 16.9706 3 12C3 10.0563 3.61619 8.25643 4.66388 6.7852L17.2148 19.3361ZM19.3361 17.2148L6.7852 4.66388C8.25643 3.61619 10.0563 3 12 3C16.9706 3 21 7.02944 21 12C21 13.9437 20.3838 15.7436 19.3361 17.2148ZM24 12C24 18.6274 18.6274 24 12 24C5.37258 24 0 18.6274 0 12C0 5.37258 5.37258 0 12 0C18.6274 0 24 5.37258 24 12Z" fill="currentColor" />
</svg>
