<svg width="24" height="25" viewBox="0 0 24 25" fill="none" xmlns="http://www.w3.org/2000/svg">
<g id="Size=Xlarge">
<path id="No_icon" fill-rule="evenodd" clip-rule="evenodd" d="M9 20.4448V15.6342H3C2.65329 15.6382 1.72884 15.6096 1.41251 15.4664C1.09617 15.3233 0.81448 15.1125 0.586959 14.8486C0.359437 14.5848 0.191522 14.2742 0.0948483 13.9384C-0.00182575 13.6027 -0.0249475 13.2497 0.0270853 12.904L1.6775 2.0503C1.76399 1.47517 2.0537 0.950931 2.49325 0.574187C2.93279 0.197444 3.49255 -0.00642157 4.06939 0.000154253H18V13.229L12.8762 23.4991C12.7069 23.8383 12.3584 24.0634 11.9837 24.0057C10.411 23.7636 9 22.5852 9 20.4448ZM22 0H20V13H22C23.1046 13 24 12.1046 24 11V2C24 0.895431 23.1046 0 22 0Z" fill="currentColor"/>
</g>
</svg>
