<svg width="24" height="24" viewBox="0 0 24 24" fill="none" xmlns="http://www.w3.org/2000/svg">
<path fill-rule="evenodd" clip-rule="evenodd" d="M2 3C2 1.34315 3.34315 0 5 0H14.5518C15.4875 0 16.3937 0.328065 17.1125 0.927115L20.5607 3.80062C21.4727 4.56059 22 5.68638 22 6.8735V21C22 22.6569 20.6569 24 19 24H5C3.34315 24 2 22.6569 2 21V3ZM5 14C5 13.4477 5.44772 13 6 13H13C13.5523 13 14 13.4477 14 14C14 14.5523 13.5523 15 13 15H6C5.44772 15 5 14.5523 5 14ZM6 18C5.44772 18 5 18.4477 5 19C5 19.5523 5.44772 20 6 20H18C18.5523 20 19 19.5523 19 19C19 18.4477 18.5523 18 18 18H6Z" fill="currentColor"/>
</svg>
