<svg width="24" height="24" viewBox="0 0 24 24" fill="none" xmlns="http://www.w3.org/2000/svg">
<path d="M23.7537 22.5713L20.9225 19.7484C21.9622 18.41 22.4527 16.7256 22.2941 15.0383C22.1355 13.3509 21.3397 11.7875 20.0688 10.6663C18.798 9.54502 17.1475 8.95032 15.4536 9.00325C13.7596 9.05619 12.1495 9.75276 10.9511 10.9511C9.75276 12.1495 9.05619 13.7596 9.00325 15.4536C8.95032 17.1475 9.545 18.798 10.6662 20.0689C11.7875 21.3397 13.3509 22.1355 15.0383 22.2941C16.7256 22.4527 18.41 21.9622 19.7484 20.9225L22.5712 23.7537C22.6486 23.8317 22.7407 23.8937 22.8422 23.936C22.9437 23.9782 23.0525 24 23.1625 24C23.2724 24 23.3812 23.9782 23.4827 23.936C23.5842 23.8937 23.6763 23.8317 23.7537 23.7537C23.8318 23.6763 23.8937 23.5842 23.936 23.4827C23.9782 23.3812 24 23.2724 24 23.1625C24 23.0525 23.9782 22.9437 23.936 22.8422C23.8937 22.7407 23.8318 22.6487 23.7537 22.5713Z" fill="currentColor"/>
<path fill-rule="evenodd" clip-rule="evenodd" d="M0 2C0 0.89543 0.895431 0 2 0H16C17.1046 0 18 0.895431 18 2V7H15.5H15V7.01446C12.6057 7.15335 10.4774 8.28322 9.01903 10H4C3.44772 10 3 10.4477 3 11C3 11.5523 3.44772 12 4 12H7.75174C7.26883 13.0674 7 14.2523 7 15.5C7 15.6678 7.00487 15.8346 7.01446 16H4C3.44772 16 3 16.4477 3 17C3 17.5523 3.44772 18 4 18H7.3736C8.39431 21.3219 11.3959 23.7765 15 23.9855V24H2C0.89543 24 0 23.1046 0 22V2ZM4 4C3.44772 4 3 4.44772 3 5C3 5.55228 3.44772 6 4 6H14C14.5523 6 15 5.55228 15 5C15 4.44772 14.5523 4 14 4H4Z" fill="currentColor"/>
</svg>
