<svg width="24" height="24" viewBox="0 0 24 24" fill="none" xmlns="http://www.w3.org/2000/svg">
<path fill-rule="evenodd" clip-rule="evenodd" d="M14.8356 0.0138454C15.4451 -0.0876836 16 0.382083 16 0.99966V2H19C19.5523 2 20 2.44772 20 3V21C20 21.5523 19.5523 22 19 22H16V23.0002C16 23.6177 15.4451 24.0875 14.8356 23.986L4.8356 22.2424C4.35341 22.1621 4 21.7452 4 21.2566V2.96162C4 2.47307 4.35341 2.05612 4.8356 1.9758L14.8356 0.0138454ZM16 20H18V4H16V20ZM10.5714 12.1091C10.5714 11.1629 11.3389 10.3958 12.2857 10.3958C13.2325 10.3958 14 11.1629 14 12.1091C14 13.0553 13.2325 13.8224 12.2857 13.8224C11.3389 13.8224 10.5714 13.0553 10.5714 12.1091Z" fill="currentColor"/>
</svg>
