<svg width="24" height="24" viewBox="0 0 24 24" fill="none" xmlns="http://www.w3.org/2000/svg">
<path fill-rule="evenodd" clip-rule="evenodd" d="M8.00001 6.00002C9.10458 6.00002 10 5.10458 10 4.00001C10 2.89543 9.10458 2 8.00001 2C6.89543 2 6 2.89543 6 4.00001C6 5.10458 6.89543 6.00002 8.00001 6.00002ZM15.9993 6.00002C17.1039 6.00002 17.9993 5.10458 17.9993 4.00001C17.9993 2.89543 17.1039 2 15.9993 2C14.8947 2 13.9993 2.89543 13.9993 4.00001C13.9993 5.10458 14.8947 6.00002 15.9993 6.00002ZM10 12C10 13.1046 9.10458 14 8.00001 14C6.89543 14 6 13.1046 6 12C6 10.8955 6.89543 10 8.00001 10C9.10458 10 10 10.8955 10 12ZM15.9993 14C17.1039 14 17.9993 13.1046 17.9993 12C17.9993 10.8955 17.1039 10 15.9993 10C14.8947 10 13.9993 10.8955 13.9993 12C13.9993 13.1046 14.8947 14 15.9993 14ZM10 20C10 21.1046 9.10458 22 8.00001 22C6.89543 22 6 21.1046 6 20C6 18.8954 6.89543 18 8.00001 18C9.10458 18 10 18.8954 10 20ZM15.9993 22C17.1039 22 17.9993 21.1046 17.9993 20C17.9993 18.8954 17.1039 18 15.9993 18C14.8947 18 13.9993 18.8954 13.9993 20C13.9993 21.1046 14.8947 22 15.9993 22Z" fill="currentColor"/>
</svg>
