<svg width="24" height="24" viewBox="0 0 24 24" fill="none" xmlns="http://www.w3.org/2000/svg">
<path fill-rule="evenodd" clip-rule="evenodd" d="M14.9237 0.761547L1.42952 14.2756C0.941962 14.7638 0.637424 15.4127 0.574416 16.0991L0.00584476 22.3627C-0.0331601 22.8059 0.12436 23.2445 0.439399 23.5584C0.722934 23.8423 1.10548 24 1.50003 24C1.54654 24 1.59154 23.9985 1.63655 23.994L7.89233 23.4247C8.57942 23.3616 9.226 23.0582 9.71356 22.5715L23.2107 9.05745C24.3014 7.96095 24.2564 6.12993 23.1087 4.97935L18.9997 0.866692C18.4251 0.291401 17.633 0 16.8605 0C16.1389 0 15.4308 0.252347 14.9237 0.761547ZM13.9876 5.95117L16.91 3.02214L20.9515 7.07021L18.0306 9.99774L13.9876 5.95117Z" fill="currentColor"/>
<rect x="13" y="21" width="11" height="3" rx="1.5" fill="currentColor"/>
</svg>
