<svg width="24" height="24" viewBox="0 0 24 24" fill="none" xmlns="http://www.w3.org/2000/svg">
<rect y="12" width="3" height="12" rx="1.5" fill="currentColor"/>
<rect y="24" width="3" height="12" rx="1.5" transform="rotate(-90 0 24)" fill="currentColor"/>
<rect x="24" y="12" width="3" height="12" rx="1.5" transform="rotate(180 24 12)" fill="currentColor"/>
<rect x="24" width="3" height="12" rx="1.5" transform="rotate(90 24 0)" fill="currentColor"/>
<path d="M0.93934 20.9393C0.353553 21.5251 0.353553 22.4749 0.93934 23.0607C1.52513 23.6464 2.47487 23.6464 3.06066 23.0607L0.93934 20.9393ZM11.0607 15.0607C11.6464 14.4749 11.6464 13.5251 11.0607 12.9393C10.4749 12.3536 9.52513 12.3536 8.93934 12.9393L11.0607 15.0607ZM3.06066 23.0607L11.0607 15.0607L8.93934 12.9393L0.93934 20.9393L3.06066 23.0607Z" fill="currentColor"/>
<path d="M12.9393 8.93934C12.3536 9.52513 12.3536 10.4749 12.9393 11.0607C13.5251 11.6464 14.4749 11.6464 15.0607 11.0607L12.9393 8.93934ZM23.0607 3.06066C23.6464 2.47487 23.6464 1.52513 23.0607 0.93934C22.4749 0.353553 21.5251 0.353553 20.9393 0.93934L23.0607 3.06066ZM15.0607 11.0607L23.0607 3.06066L20.9393 0.93934L12.9393 8.93934L15.0607 11.0607Z" fill="currentColor"/>
</svg>
