<svg width="24" height="24" viewBox="0 0 24 24" fill="none" xmlns="http://www.w3.org/2000/svg">
<path fill-rule="evenodd" clip-rule="evenodd" d="M4.5 0C2.01472 0 0 2.01472 0 4.5V19.5C0 21.9853 2.01472 24 4.5 24H19.5C21.9853 24 24 21.9853 24 19.5V14C24 13.1716 23.3284 12.5 22.5 12.5C21.6716 12.5 21 13.1716 21 14V19.5C21 20.3284 20.3284 21 19.5 21H4.5C3.67157 21 3 20.3284 3 19.5V4.5C3 3.67157 3.67157 3 4.5 3H11C11.8284 3 12.5 2.32843 12.5 1.5C12.5 0.671573 11.8284 0 11 0H4.5ZM15.9885 9.4293C12.6118 9.78135 9.81037 12.1072 9.01405 15.3268C8.91653 15.7221 8.55684 16 8.14437 16C7.731 16 7.37221 15.7221 7.27558 15.3259C7.09305 14.5847 7 13.8471 7 13.1324C7 8.19139 10.9565 4.12121 15.9885 3.68622V2.61155C15.9885 1.98862 16.3634 1.43364 16.9665 1.16453C17.6205 0.870713 18.3837 0.976593 18.9143 1.43276L23.4471 5.33618C23.7987 5.6397 24 6.06939 24 6.51497C24 6.96054 23.7987 7.39024 23.4471 7.69376L18.9143 11.5972C18.3837 12.0533 17.6205 12.1592 16.9665 11.8654C16.3634 11.5963 15.9885 11.0413 15.9885 10.4184V9.4293Z" fill="currentColor"/>
</svg>
