<svg width="24" height="24" viewBox="0 0 24 24" fill="none" xmlns="http://www.w3.org/2000/svg">
<path d="M2.18177 2C1.57929 2 1.09089 2.49746 1.09089 3.11111C1.09089 3.72476 1.57929 4.22222 2.18177 4.22222H4.36371C4.96619 4.22222 5.45459 4.71968 5.45459 5.33333C5.45459 5.94698 4.96619 6.44444 4.36371 6.44444H1.09089C0.488406 6.44444 0 6.94191 0 7.55556C0 8.16921 0.488406 8.66667 1.09089 8.66667H6.54548C7.14796 8.66667 7.63636 9.16413 7.63636 9.77778C7.63636 10.3914 7.14796 10.8889 6.54548 10.8889H2.18194C1.57946 10.8889 1.09089 11.3864 1.09089 12C1.09089 12.6137 1.57929 13.1111 2.18177 13.1111H5.45443C6.05691 13.1111 6.54548 13.6086 6.54548 14.2222C6.54548 14.8359 6.05707 15.3333 5.45459 15.3333H2.18194V18.7593C2.18194 19.3218 2.62964 19.7778 3.18191 19.7778H5.03586C4.7374 17.6526 6.42764 15.8889 8.50034 15.8889C10.573 15.8889 12.2633 17.6526 11.9648 19.7778H13.0002V7.18519C13.0002 6.06016 13.8956 5.14815 15.0002 5.14815H17.0002V3.01852C17.0002 2.45601 16.5524 2 16.0002 2H2.18177Z" fill="currentColor"/>
<path fill-rule="evenodd" clip-rule="evenodd" d="M15.0002 6.16667C14.4479 6.16667 14.0002 6.62267 14.0002 7.18519V19.7778H15.0356C14.7372 17.6526 16.4274 15.8889 18.5001 15.8889C20.5728 15.8889 22.2631 17.6526 21.9646 19.7778H23C23.5523 19.7778 24 19.3218 24 18.7593V12.9991C24 12.5247 23.8916 12.0569 23.6833 11.6326L21.2765 6.72969C21.1071 6.38463 20.7608 6.16667 20.382 6.16667H15.0002ZM20.264 8.80856L21.6876 12.0709C21.8345 12.4077 21.5925 12.787 21.2307 12.787H16.0002V8.2037H19.3502C19.7454 8.2037 20.1035 8.44075 20.264 8.80856Z" fill="currentColor"/>
<path d="M21.0001 19.4537C21.0001 20.86 19.8808 22 18.5001 22C17.1194 22 16.0002 20.86 16.0002 19.4537C16.0002 18.0474 17.1194 16.9074 18.5001 16.9074C19.8808 16.9074 21.0001 18.0474 21.0001 19.4537Z" fill="currentColor"/>
<path d="M8.50034 22C9.88102 22 11.0003 20.86 11.0003 19.4537C11.0003 18.0474 9.88102 16.9074 8.50034 16.9074C7.11965 16.9074 6.00039 18.0474 6.00039 19.4537C6.00039 20.86 7.11965 22 8.50034 22Z" fill="currentColor"/>
</svg>
