<svg width="24" height="24" viewBox="0 0 24 24" fill="none" xmlns="http://www.w3.org/2000/svg">
<path fill-rule="evenodd" clip-rule="evenodd" d="M21.9352 3.80547C25.4777 7.85818 24.3492 14.8124 19.4144 19.3381C14.4796 23.8638 7.60741 24.2472 4.06484 20.1945C3.73724 19.8198 3.44959 19.4202 3.2012 19H1C0.447715 19 0 18.5523 0 18C0 17.4477 0.447715 17 1 17H4C4.55228 17 5 16.5523 5 16C5 15.4477 4.55228 15 4 15H2C1.44772 15 1 14.5523 1 14C1 13.4477 1.44772 13 2 13H7C7.55228 13 8 12.5523 8 12C8 11.4477 7.55228 11 7 11H1C0.447715 11 0 10.5523 0 10C0 9.44771 0.447715 9 1 9H3.31377C4.08184 7.43897 5.17913 5.95181 6.5856 4.66192C11.5204 0.136209 18.3926 -0.24724 21.9352 3.80547ZM17.24 8.17268C17.6115 7.76402 17.5814 7.13157 17.1727 6.76007C16.764 6.38856 16.1316 6.41868 15.7601 6.82733L10.7601 12.3273C10.4938 12.6202 10.4254 13.0426 10.5855 13.4046C10.7456 13.7665 11.1042 14 11.5 14H16C16.5523 14 17 13.5523 17 13C17 12.4477 16.5523 12 16 12H13.7606L17.24 8.17268Z" fill="currentColor"/>
</svg>
