<svg width="24" height="24" viewBox="0 0 24 24" fill="none" xmlns="http://www.w3.org/2000/svg">
<path d="M9 1C7.34315 1 6 2.34315 6 4V6.5C7.38071 6.5 8.5 7.61929 8.5 9V13.5H19.5V9C19.5 7.61929 20.6193 6.5 22 6.5V4C22 2.34315 20.6569 1 19 1H9Z" fill="currentColor"/>
<path d="M4 10H3C2.44772 10 2 9.55229 2 9C2 8.44772 2.44772 8 3 8H5.21922C5.2622 8 5.30442 8.00267 5.34575 8.00783C5.39646 8.00265 5.44792 8 5.5 8C6.32843 8 7 8.67157 7 9.5V14C7 14.5523 7.44772 15 8 15H20C20.5523 15 21 14.5523 21 14V9.5C21 8.67157 21.6716 8 22.5 8C23.3284 8 24 8.67157 24 9.5V18C24 19.1046 23.1046 20 22 20H6C4.89543 20 4 19.1046 4 18H3C2.44772 18 2 17.5523 2 17C2 16.4477 2.44772 16 3 16H5C5.55228 16 6 15.5523 6 15C6 14.4477 5.55228 14 5 14H1C0.447715 14 0 13.5523 0 13C0 12.4477 0.447715 12 1 12H4C4.55228 12 5 11.5523 5 11C5 10.4477 4.55228 10 4 10Z" fill="currentColor"/>
<path d="M9 21H6L6.31063 22.2425C6.42193 22.6877 6.82191 23 7.28078 23H7.71922C8.17809 23 8.57807 22.6877 8.68937 22.2425L9 21Z" fill="currentColor"/>
<path d="M22 21H19L19.3106 22.2425C19.4219 22.6877 19.8219 23 20.2808 23H20.7192C21.1781 23 21.5781 22.6877 21.6894 22.2425L22 21Z" fill="currentColor"/>
</svg>
