<svg width="24" height="24" viewBox="0 0 24 24" fill="none" xmlns="http://www.w3.org/2000/svg">
<path fill-rule="evenodd" clip-rule="evenodd" d="M15 1C15 0.447715 15.4477 0 16 0H23C23.5523 0 24 0.447715 24 1V8C24 8.55228 23.5523 9 23 9C22.4477 9 22 8.55228 22 8V2H16C15.4477 2 15 1.55228 15 1Z" fill="currentColor"/>
<path fill-rule="evenodd" clip-rule="evenodd" d="M15.5 0C14.6716 0 14 0.671573 14 1.5C14 2.32843 14.6716 3 15.5 3H18.8787L8.43934 13.4393C7.85355 14.0251 7.85355 14.9749 8.43934 15.5607C9.02513 16.1464 9.97487 16.1464 10.5607 15.5607L21 5.12132V8.5C21 9.32843 21.6716 10 22.5 10C23.3284 10 24 9.32843 24 8.5V1.5C24 0.671573 23.3284 0 22.5 0H15.5ZM10.5 4C11.3284 4 12 4.67157 12 5.5C12 6.32843 11.3284 7 10.5 7H4C3.44772 7 3 7.44772 3 8L3 20C3 20.5523 3.44772 21 4 21H16C16.5523 21 17 20.5523 17 20V14.5C17 13.6716 17.6716 13 18.5 13C19.3284 13 20 13.6716 20 14.5V21C20 22.6569 18.6569 24 17 24H3C1.34315 24 0 22.6569 0 21V7C0 5.34315 1.34315 4 3 4H10.5Z" fill="currentColor"/>
</svg>
