<svg width="24" height="24" viewBox="0 0 24 24" fill="none" xmlns="http://www.w3.org/2000/svg">
<path fill-rule="evenodd" clip-rule="evenodd" d="M12 4C7.09521 4 3.40737 6.93986 0.426031 10.7536C-0.14201 11.4803 -0.14201 12.5197 0.426031 13.2464C3.40737 17.0601 7.09521 20 12 20C16.9048 20 20.5926 17.0601 23.574 13.2464C24.142 12.5197 24.142 11.4803 23.574 10.7536C20.5926 6.93986 16.9048 4 12 4ZM17 12C17 14.7614 14.7614 17 12 17C9.23858 17 7 14.7614 7 12C7 9.23856 9.23858 6.99999 12 6.99999C14.7614 6.99999 17 9.23856 17 12ZM12 15C13.6569 15 15 13.6569 15 12C15 10.3431 13.6569 9 12 9C10.3431 9 9 10.3431 9 12C9 13.6569 10.3431 15 12 15Z" fill="currentColor"/>
</svg>
