<svg width="24" height="24" viewBox="0 0 24 24" fill="none" xmlns="http://www.w3.org/2000/svg">
<path fill-rule="evenodd" clip-rule="evenodd" d="M15.5129 20.6565C14.56 21.5324 13.2986 22.0081 11.9586 21.9999H11.9571C10.6186 21.9889 9.36571 21.4925 8.42857 20.6029C6.50142 18.7756 6.52713 15.8221 8.48714 14.0222L11.5771 11.1788C11.7043 11.0619 11.8757 10.9986 12.0557 11C12.2343 11.0014 12.4057 11.0674 12.53 11.1856L15.5714 14.0745C17.4986 15.9032 17.4729 18.8553 15.5129 20.6565M13.0459 0.393533C12.4856 -0.127796 11.5513 -0.127796 10.9704 0.373534C10.6566 0.645531 10.4894 1.03086 10.5172 1.42419C10.5304 1.61086 10.5304 1.79485 10.5304 1.99219C10.5304 5.40149 9.58733 7.41747 9.06664 7.91614C8.84516 7.69481 8.44328 7.11348 8.10446 5.92549C7.97246 5.46149 7.57644 5.09749 7.06749 4.97216C6.5556 4.8495 6.01291 4.98149 5.64183 5.32149L4.19857 6.64548C-0.0710743 10.6014 -0.0652074 17.0467 4.2103 21.008C6.28279 22.936 9.04464 23.9973 11.9884 24H12.0001C14.9467 24 17.7145 22.9387 19.7943 21.0094C24.0742 17.0467 24.0669 10.6014 19.7825 6.64815L13.0459 0.393533Z" fill="currentColor"/>
</svg>
