<svg width="24" height="24" viewBox="0 0 24 24" fill="none" xmlns="http://www.w3.org/2000/svg">
<path fill-rule="evenodd" clip-rule="evenodd" d="M12 24C18.6274 24 24 18.6274 24 12C24 5.37258 18.6274 0 12 0C5.37258 0 0 5.37258 0 12C0 18.6274 5.37258 24 12 24ZM9.78078 5H15.2235C15.5871 5 15.8292 5.37585 15.6787 5.7069L13.5 10.5H16.8333C17.2729 10.5 17.4986 11.0265 17.1954 11.3448L9.69135 19.2241C9.31586 19.6184 8.66994 19.2135 8.86111 18.7037L11 13H7.64039C7.3151 13 7.07642 12.6943 7.15532 12.3787L8.81063 5.75746C8.92193 5.3123 9.32191 5 9.78078 5Z" fill="currentColor"/>
</svg>
