<svg width="24" height="24" viewBox="0 0 24 24" fill="none" xmlns="http://www.w3.org/2000/svg">
<path fill-rule="evenodd" clip-rule="evenodd" d="M6.5 3H3V6.5C3 7.32843 2.32843 8 1.5 8C0.671573 8 0 7.32843 0 6.5V2.5C0 1.11929 1.11929 0 2.5 0H6.5C7.32843 0 8 0.671573 8 1.5C8 2.32843 7.32843 3 6.5 3ZM17.5 3H21V6.5C21 7.32843 21.6716 8 22.5 8C23.3284 8 24 7.32843 24 6.5V2.5C24 1.11929 22.8807 0 21.5 0H17.5C16.6716 0 16 0.671573 16 1.5C16 2.32843 16.6716 3 17.5 3ZM3 21V17.5C3 16.6716 2.32843 16 1.5 16C0.671573 16 0 16.6716 0 17.5V21.5C0 22.8807 1.11929 24 2.5 24H6.5C7.32843 24 8 23.3284 8 22.5C8 21.6716 7.32843 21 6.5 21H3ZM21 17.5V21H17.5C16.6716 21 16 21.6716 16 22.5C16 23.3284 16.6716 24 17.5 24H21.5C22.8807 24 24 22.8807 24 21.5V17.5C24 16.6716 23.3284 16 22.5 16C21.6716 16 21 16.6716 21 17.5Z" fill="currentColor"/>
</svg>
