<svg width="24" height="24" viewBox="0 0 24 24" fill="none" xmlns="http://www.w3.org/2000/svg">
<path fill-rule="evenodd" clip-rule="evenodd" d="M12 21.5C17.2467 21.5 21.5 17.2467 21.5 12C21.5 6.75329 17.2467 2.5 12 2.5C6.75329 2.5 2.5 6.75329 2.5 12C2.5 17.2467 6.75329 21.5 12 21.5ZM24 12C24 18.6274 18.6274 24 12 24C5.37258 24 0 18.6274 0 12C0 5.37258 5.37258 0 12 0C18.6274 0 24 5.37258 24 12Z" fill="currentColor"/>
<path fill-rule="evenodd" clip-rule="evenodd" d="M0.75 12C0.75 11.3096 1.30964 10.75 2 10.75H22C22.6904 10.75 23.25 11.3096 23.25 12C23.25 12.6904 22.6904 13.25 22 13.25H2C1.30964 13.25 0.75 12.6904 0.75 12Z" fill="currentColor"/>
<path fill-rule="evenodd" clip-rule="evenodd" d="M6.46466 11.9674C6.55589 8.46401 7.35753 4.13996 10.0962 1H13.9037C16.6424 4.13996 17.444 8.46401 17.5352 11.9674C17.5358 11.9891 17.5358 12.0108 17.5352 12.0325C17.444 15.536 16.6424 19.86 13.9037 23H10.0962C7.35754 19.86 6.55589 15.536 6.46466 12.0325C6.46409 12.0108 6.46409 11.9891 6.46466 11.9674ZM8.96468 12C9.05515 15.3049 9.82488 18.8967 11.9999 21.3782C14.175 18.8967 14.9447 15.3049 15.0352 12C14.9447 8.69501 14.175 5.1032 11.9999 2.62171C9.82488 5.1032 9.05515 8.69501 8.96468 12Z" fill="currentColor"/>
</svg>
