<svg width="24" height="24" viewBox="0 0 24 24" fill="none" xmlns="http://www.w3.org/2000/svg">
<path fill-rule="evenodd" clip-rule="evenodd" d="M2.5815 13.25C2.95075 16.0593 4.54752 18.4821 6.81555 19.9619C7.46335 21.4616 8.46772 22.7713 9.7218 23.784C4.18385 22.7197 0 17.8485 0 12C0 5.37258 5.37258 0 12 0C17.8485 0 22.7197 4.18385 23.784 9.7218C22.7713 8.46772 21.4616 7.46335 19.9619 6.81555C18.8734 5.14722 17.2746 3.84211 15.3871 3.12159C15.9028 4.04726 16.3043 5.02475 16.6135 6.01851C16.4105 6.00623 16.206 6 16 6C15.3279 6 14.6714 6.0663 14.0365 6.19271C13.5658 4.87737 12.9044 3.65355 11.9999 2.62171C10.5715 4.25141 9.74917 6.35999 9.32731 8.5517C7.94331 9.79242 6.90711 11.4132 6.38288 13.25H2.5815ZM8.61273 3.12165C7.27519 5.52256 6.70568 8.27213 6.52466 10.75H2.5815C3.04206 7.24598 5.41225 4.34341 8.61273 3.12165ZM24 16C24 20.4183 20.4183 24 16 24C11.5817 24 8 20.4183 8 16C8 11.5817 11.5817 8 16 8C20.4183 8 24 11.5817 24 16ZM16.587 13.8504C16.2208 13.4843 16.2208 12.8907 16.587 12.5246C16.9531 12.1585 17.5467 12.1585 17.9128 12.5246L20.7253 15.3371C21.0914 15.7032 21.0914 16.2968 20.7253 16.6629L17.9128 19.4754C17.5467 19.8415 16.9531 19.8415 16.587 19.4754C16.2208 19.1093 16.2208 18.5157 16.587 18.1496L17.799 16.9375L11.9375 16.9375C11.4197 16.9375 11 16.5178 11 16C11 15.4823 11.4197 15.0625 11.9375 15.0625H17.7991L16.587 13.8504Z" fill="currentColor"/>
</svg>
