<svg width="24" height="24" viewBox="0 0 24 24" fill="none" xmlns="http://www.w3.org/2000/svg">
<path fill-rule="evenodd" clip-rule="evenodd" d="M14.9826 2.60221C14.3738 2.04031 14.3359 1.09132 14.8978 0.482587C15.4597 -0.126144 16.4087 -0.164103 17.0174 0.397802L23.5174 6.3978C23.825 6.68176 24 7.08136 24 7.50001C24 7.91865 23.825 8.31825 23.5174 8.60221L17.0174 14.6022C16.4087 15.1641 15.4597 15.1262 14.8978 14.5174C14.3359 13.9087 14.3738 12.9597 14.9826 12.3978L18.6635 9H9C5.68629 9 3 11.6863 3 15C3 18.3137 5.68629 21 9 21H22.5C23.3284 21 24 21.6716 24 22.5C24 23.3284 23.3284 24 22.5 24H9C4.02944 24 0 19.9706 0 15C0 10.0294 4.02944 6 9 6H18.6635L14.9826 2.60221Z" fill="currentColor"/>
</svg>
