<svg width="24" height="24" viewBox="0 0 24 24" fill="none" xmlns="http://www.w3.org/2000/svg">
<path fill-rule="evenodd" clip-rule="evenodd" d="M4 24C1.79086 24 0 22.2091 0 20V4C0 1.79086 1.79086 0 4 0H20C22.2091 0 24 1.79086 24 4V20C24 22.2091 22.2091 24 20 24H4ZM20.0485 16.4485C20.1912 16.3059 20.2904 16.1362 20.3462 15.956C20.3592 15.9143 20.3698 15.8719 20.378 15.8292C20.3937 15.7485 20.4009 15.6666 20.3999 15.5847V12C20.3999 11.3373 19.8626 10.8 19.1999 10.8C18.5372 10.8 17.9999 11.3373 17.9999 12V12.7028L14.0485 8.75147C13.5799 8.28284 12.8201 8.28284 12.3515 8.75147L10.2 10.9029L5.64853 6.35147C5.1799 5.88284 4.4201 5.88284 3.95147 6.35147C3.48284 6.8201 3.48284 7.5799 3.95147 8.04853L9.35147 13.4485C9.8201 13.9172 10.5799 13.9172 11.0485 13.4485L13.2 11.2971L16.3029 14.4H15.5999C14.9372 14.4 14.3999 14.9373 14.3999 15.6C14.3999 16.2627 14.9372 16.8 15.5999 16.8H19.1999L19.211 16.7999C19.3492 16.7987 19.4873 16.7737 19.6185 16.725C19.7753 16.6667 19.9225 16.5746 20.0485 16.4485Z" fill="currentColor"/>
</svg>
