<svg width="24" height="24" viewBox="0 0 24 24" fill="none" xmlns="http://www.w3.org/2000/svg">
<path fill-rule="evenodd" clip-rule="evenodd" d="M3 0C1.34315 0 0 1.34315 0 3V21C0 22.6569 1.34315 24 3 24H21C22.6569 24 24 22.6569 24 21V3C24 1.34315 22.6569 0 21 0H3ZM20.0485 7.55147C20.1912 7.69413 20.2904 7.86377 20.3462 8.04396C20.3592 8.08574 20.3698 8.12809 20.378 8.17081C20.3937 8.25147 20.4009 8.33342 20.3999 8.41529V12C20.3999 12.6627 19.8626 13.2 19.1999 13.2C18.5372 13.2 17.9999 12.6627 17.9999 12V11.2972L14.0485 15.2485C13.5799 15.7172 12.8201 15.7172 12.3515 15.2485L10.2 13.0971L5.64853 17.6485C5.1799 18.1172 4.4201 18.1172 3.95147 17.6485C3.48284 17.1799 3.48284 16.4201 3.95147 15.9515L9.35147 10.5515C9.8201 10.0828 10.5799 10.0828 11.0485 10.5515L13.2 12.7029L16.3029 9.6H15.5999C14.9372 9.6 14.3999 9.06274 14.3999 8.4C14.3999 7.73726 14.9372 7.2 15.5999 7.2H19.1999H19.2L19.211 7.20005C19.3492 7.20131 19.4873 7.2263 19.6185 7.27502C19.7753 7.33326 19.9225 7.42541 20.0485 7.55147Z" fill="currentColor"/>
</svg>
