<svg width="24" height="24" viewBox="0 0 24 24" fill="none" xmlns="http://www.w3.org/2000/svg">
<path d="M21.5567 18.4881C21.3804 15.9834 19.273 13.8335 16.253 12.7501C16.6244 12.7119 17.0052 12.6923 17.3922 12.6923C20.9758 12.6923 24 14.3507 24 16.9814C24 17.901 23.022 18.308 21.5567 18.4881Z" fill="currentColor"/>
<path d="M18.1986 7.84617C18.1986 9.1198 17.8265 10.3042 17.188 11.2909C17.2986 11.302 17.4109 11.3077 17.5246 11.3077C19.3956 11.3077 20.8947 9.76727 20.8947 7.84615C20.8947 5.92504 19.3956 4.38462 17.5246 4.38462C17.4109 4.38462 17.2986 4.3903 17.188 4.40142C17.8265 5.38814 18.1986 6.57253 18.1986 7.84617Z" fill="currentColor"/>
<path d="M8.70114 12.9851C8.75011 13.0196 8.7996 13.0535 8.8496 13.0866C5.61324 13.8937 3.2147 15.8597 2.77032 18.2345C1.13287 18.0926 0 17.7227 0 16.7589C0 14.2647 2.86733 12.6923 6.26505 12.6923C7.12176 12.6923 7.94679 12.7934 8.70114 12.9851Z" fill="currentColor"/>
<path d="M7.00294 4.51842C6.40966 5.48118 6.06622 6.62247 6.06622 7.84616C6.06622 9.06984 6.40966 10.2111 7.00293 11.1739C6.70588 11.2611 6.39167 11.3077 6.06623 11.3077C4.19521 11.3077 2.6961 9.76727 2.6961 7.84615C2.6961 5.92504 4.19521 4.38462 6.06623 4.38462C6.39167 4.38462 6.70588 4.43125 7.00294 4.51842Z" fill="currentColor"/>
<path d="M12.1325 14.0769C7.77027 14.0769 4.04421 16.0113 4.04421 19.0769C4.04421 20.6154 7.89578 21 12.1325 21C16.3692 21 20.2208 21 20.2208 19.0769C20.2208 16.0102 16.519 14.0769 12.1325 14.0769Z" fill="currentColor"/>
<path d="M12.1325 12.6923C14.7519 12.6923 16.8507 10.5357 16.8507 7.84615C16.8507 5.15659 14.7519 3 12.1325 3C9.51397 3 7.41433 5.15659 7.41433 7.84615C7.41433 10.5357 9.51397 12.6923 12.1325 12.6923Z" fill="currentColor"/>
</svg>
