<svg width="24" height="24" viewBox="0 0 24 24" fill="none" xmlns="http://www.w3.org/2000/svg">
<path fill-rule="evenodd" clip-rule="evenodd" d="M15.3446 2.56209C14.6797 1.96935 15.0335 0.876738 15.9225 0.777666L22.8419 0.00656632C23.4565 -0.0619256 23.9946 0.41413 23.995 1.02668L24 7.96997C24.0006 8.8597 22.9367 9.32947 22.2689 8.73427L19.9975 6.70957C16.1534 10.3457 10.2712 14.0003 1.5 14.0003C0.671573 14.0003 0 13.3288 0 12.5003C0 11.6719 0.671573 11.0003 1.5 11.0003C9.15324 11.0003 14.3005 7.90953 17.7497 4.70593L15.3446 2.56209ZM18 13C18 12.4477 18.4477 12 19 12H23C23.5523 12 24 12.4477 24 13V23C24 23.5523 23.5523 24 23 24H19C18.4477 24 18 23.5523 18 23V13ZM10 15C9.44772 15 9 15.4477 9 16V23C9 23.5523 9.44772 24 10 24H14C14.5523 24 15 23.5523 15 23V16C15 15.4477 14.5523 15 14 15H10ZM1 18C0.447715 18 0 18.4477 0 19V23C0 23.5523 0.447715 24 1 24H5C5.55228 24 6 23.5523 6 23V19C6 18.4477 5.55228 18 5 18H1Z" fill="currentColor"/>
</svg>
