<svg width="24" height="24" viewBox="0 0 24 24" fill="none" xmlns="http://www.w3.org/2000/svg">
<path d="M0 20C0 19.1716 0.671573 18.5 1.5 18.5H22.5C23.3284 18.5 24 19.1716 24 20V20C24 20.8284 23.3284 21.5 22.5 21.5H1.5C0.671573 21.5 0 20.8284 0 20V20Z" fill="currentColor"/>
<path d="M0 12C0 11.1716 0.671573 10.5 1.5 10.5H22.5C23.3284 10.5 24 11.1716 24 12V12C24 12.8284 23.3284 13.5 22.5 13.5H1.5C0.671573 13.5 0 12.8284 0 12V12Z" fill="currentColor"/>
<path d="M0 4C0 3.17157 0.671573 2.5 1.5 2.5H22.5C23.3284 2.5 24 3.17157 24 4V4C24 4.82843 23.3284 5.5 22.5 5.5H1.5C0.671573 5.5 0 4.82843 0 4V4Z" fill="currentColor"/>
</svg>
