<svg width="24" height="24" viewBox="0 0 24 24" fill="none" xmlns="http://www.w3.org/2000/svg">
<path fill-rule="evenodd" clip-rule="evenodd" d="M24 12C24 18.6274 18.6274 24 12 24C5.37258 24 0 18.6274 0 12C0 5.37258 5.37258 0 12 0C18.6274 0 24 5.37258 24 12ZM16.1399 13.6801C15.7484 13.3864 15.1954 13.46 14.8938 13.8421L14.8906 13.8456C14.881 13.8562 14.8577 13.8806 14.8192 13.9149C14.7425 13.9831 14.6037 14.0914 14.3889 14.2059C13.9644 14.4323 13.2112 14.7001 11.9999 14.7001C10.7887 14.7001 10.0354 14.4323 9.61098 14.2059C9.39623 14.0914 9.25742 13.9831 9.18069 13.9149C9.14216 13.8806 9.1189 13.8562 9.1093 13.8456L9.10609 13.8421C8.80451 13.46 8.25152 13.3864 7.85995 13.6801C7.4623 13.9783 7.38171 14.5424 7.67995 14.9401L8.39995 14.4001C7.67995 14.9401 7.68033 14.9406 7.68072 14.9411L7.68151 14.9421L7.68317 14.9443L7.68677 14.9491L7.69512 14.9598C7.7012 14.9675 7.70831 14.9764 7.71648 14.9863C7.73281 15.0061 7.7534 15.0301 7.77848 15.0576C7.82865 15.1127 7.89679 15.182 7.98483 15.2602C8.16122 15.417 8.41616 15.6087 8.76392 15.7942C9.46445 16.1678 10.5112 16.5001 11.9999 16.5001C13.4887 16.5001 14.5354 16.1678 15.236 15.7942C15.5837 15.6087 15.8387 15.417 16.0151 15.2602C16.1031 15.182 16.1712 15.1127 16.2214 15.0576C16.2465 15.0301 16.2671 15.0061 16.2834 14.9863C16.2916 14.9764 16.2987 14.9675 16.3048 14.9598L16.3131 14.9491L16.3167 14.9443L16.3184 14.9421L16.3192 14.9411C16.3196 14.9406 16.3199 14.9401 15.6 14.4001L16.3199 14.9401C16.6182 14.5424 16.5376 13.9783 16.1399 13.6801ZM6 9.6C6 8.93726 6.53726 8.4 7.2 8.4C7.86274 8.4 8.4 8.93726 8.4 9.6C8.4 10.2627 7.86274 10.8 7.2 10.8C6.53726 10.8 6 10.2627 6 9.6ZM16.8 8.4C16.1373 8.4 15.6 8.93726 15.6 9.6C15.6 10.2627 16.1373 10.8 16.8 10.8C17.4627 10.8 18 10.2627 18 9.6C18 8.93726 17.4627 8.4 16.8 8.4Z" fill="currentColor"/>
</svg>
