<svg width="24" height="24" viewBox="0 0 24 24" fill="none" xmlns="http://www.w3.org/2000/svg">
<path d="M14.5972 1.5415C15.424 1.1844 16.3118 1 17.2095 1C18.1071 1 18.9949 1.1844 19.8218 1.5415C20.6484 1.89849 21.3967 2.4205 22.025 3.07565C22.6537 3.73057 23.1503 4.50596 23.4884 5.35646C23.8265 6.20691 24 7.1171 24 8.03541C24 8.95371 23.8265 9.86391 23.4884 10.7144C23.1503 11.5648 22.6538 12.3401 22.0252 12.995L12.7213 22.6923C12.5327 22.8889 12.2721 23 11.9997 23C11.7273 23 11.4667 22.8889 11.2781 22.6923L1.97426 12.995C1.67856 12.6868 1.41345 12.3535 1.18072 12H4C4.26522 12 4.51957 11.8946 4.70711 11.7071L5.91708 10.4971L9.21913 14.6247C9.39682 14.8468 9.66069 14.9827 9.9447 14.9985C10.2287 15.0142 10.506 14.9082 10.7071 14.7071L13.4142 12H15C15.5523 12 16 11.5523 16 11C16 10.4477 15.5523 10 15 10H13C12.7348 10 12.4804 10.1054 12.2929 10.2929L10.0829 12.5029L6.78087 8.37531C6.60318 8.15319 6.33931 8.01726 6.0553 8.00153C5.77129 7.9858 5.49402 8.09176 5.29289 8.2929L3.58579 10H0.270106C0.0922887 9.36646 0 8.70538 0 8.03541C0 6.18272 0.705738 4.39798 1.97426 3.07582C3.24413 1.75224 4.9755 1.0006 6.78997 1.0006C8.60445 1.0006 10.3358 1.75224 11.6057 3.07582C11.6123 3.08271 11.6188 3.08969 11.6252 3.09677L12 3.5L12.374 3.09696C12.3805 3.08987 12.387 3.08288 12.3936 3.07599C13.022 2.42067 13.7704 1.89854 14.5972 1.5415Z" fill="currentColor"/>
</svg>
