<svg width="24" height="24" viewBox="0 0 24 24" fill="none" xmlns="http://www.w3.org/2000/svg">
<path d="M12 0C9.62663 0 7.30655 0.703786 5.33316 2.02236C3.35977 3.34094 1.82171 5.21507 0.913454 7.40779C0.00520277 9.6005 -0.232442 12.0133 0.230581 14.3411C0.693603 16.6689 1.83649 18.807 3.51472 20.4853C5.19295 22.1635 7.33115 23.3064 9.65892 23.7694C11.9867 24.2325 14.3995 23.9948 16.5922 23.0865C18.7849 22.1783 20.6591 20.6403 21.9776 18.6669C23.2962 16.6935 24 14.3734 24 12C24 8.8174 22.7357 5.76518 20.4853 3.51475C18.2348 1.26431 15.1826 0 12 0V0ZM12 19.2C11.7627 19.2 11.5307 19.1296 11.3333 18.9978C11.136 18.8659 10.9822 18.6785 10.8913 18.4592C10.8005 18.24 10.7768 17.9987 10.8231 17.7659C10.8694 17.5331 10.9837 17.3193 11.1515 17.1515C11.3193 16.9837 11.5331 16.8694 11.7659 16.8231C11.9987 16.7768 12.24 16.8005 12.4592 16.8913C12.6785 16.9822 12.8659 17.136 12.9978 17.3333C13.1296 17.5307 13.2 17.7627 13.2 18C13.2 18.3183 13.0736 18.6235 12.8485 18.8485C12.6235 19.0736 12.3183 19.2 12 19.2ZM13.2 13.008V14.4C13.2 14.7183 13.0736 15.0235 12.8485 15.2485C12.6235 15.4736 12.3183 15.6 12 15.6C11.6817 15.6 11.3765 15.4736 11.1515 15.2485C10.9264 15.0235 10.8 14.7183 10.8 14.4V12C10.8 11.6817 10.9264 11.3765 11.1515 11.1515C11.3765 10.9264 11.6817 10.8 12 10.8C12.356 10.8 12.704 10.6944 13 10.4966C13.296 10.2988 13.5267 10.0177 13.663 9.68884C13.7992 9.35993 13.8349 8.99797 13.7654 8.6488C13.696 8.29964 13.5245 7.97893 13.2728 7.7272C13.0211 7.47546 12.7003 7.30402 12.3512 7.23457C12.002 7.16512 11.6401 7.2008 11.3112 7.33704C10.9823 7.47327 10.7011 7.70394 10.5034 7.99995C10.3056 8.29596 10.2 8.64399 10.2 9C10.2 9.31826 10.0736 9.62347 9.84853 9.84851C9.62349 10.0736 9.31826 10.2 9 10.2C8.68174 10.2 8.37652 10.0736 8.15147 9.84851C7.92643 9.62347 7.8 9.31826 7.8 9C7.79686 8.22036 8.01079 7.45523 8.41784 6.79028C8.82489 6.12533 9.40899 5.58679 10.1047 5.23498C10.8005 4.88317 11.5804 4.73199 12.3573 4.79831C13.1341 4.86464 13.8771 5.14591 14.5031 5.61057C15.1292 6.07523 15.6135 6.70492 15.902 7.42925C16.1904 8.15358 16.2715 8.94394 16.1363 9.71177C16.001 10.4796 15.6547 11.1946 15.1361 11.7768C14.6175 12.3589 13.9471 12.7853 13.2 13.008V13.008Z" fill="currentColor"/>
</svg>
