<svg width="24" height="24" viewBox="0 0 24 24" fill="none" xmlns="http://www.w3.org/2000/svg">
<path fill-rule="evenodd" clip-rule="evenodd" d="M12 2C6.47715 2 2 6.47715 2 12C2 14.5363 2.94322 16.8511 4.5 18.6146L4.5 16.5C4.5 15.9477 4.94771 15.5 5.5 15.5C6.05228 15.5 6.5 15.9477 6.5 16.5L6.5 21C6.5 21.5523 6.05228 22 5.5 22H0.999999C0.447714 22 0 21.5523 0 21C0 20.4477 0.447715 20 0.999999 20H3.00133C2.78185 19.7298 2.56458 19.4305 2.34762 19.1316L2.28608 19.0468C0.848662 17.0684 -1.91887e-06 14.6329 0 12C0 5.37258 5.37258 0 12 0C18.6274 2.44269e-06 24 5.37259 24 12C24 18.6274 18.6274 24 12 24C11.4477 24 11 23.5523 11 23C11 22.4477 11.4477 22 12 22C17.5228 22 22 17.5229 22 12C22 6.47716 17.5228 2 12 2ZM21 12C21 16.9706 16.9706 21 12 21C10.5632 21 9.20496 20.6633 8 20.0645L8 16.5C8 15.1193 6.88071 14 5.5 14C4.68709 14 3.96479 14.388 3.5082 14.9889C3.17904 14.0537 3 13.0478 3 12C3 7.02944 7.02944 3 12 3C16.9706 3 21 7.02944 21 12ZM11 7C11 6.44772 11.4477 6 12 6C12.5523 6 13 6.44772 13 7V11H16C16.5523 11 17 11.4477 17 12C17 12.5523 16.5523 13 16 13H12C11.4477 13 11 12.5523 11 12V7Z" fill="currentColor"/>
</svg>
