<svg width="24" height="24" viewBox="0 0 24 24" fill="none" xmlns="http://www.w3.org/2000/svg">
<path fill-rule="evenodd" clip-rule="evenodd" d="M1 1.5C1 0.671573 1.67157 0 2.5 0H21.5C22.3284 0 23 0.671573 23 1.5C23 2.32843 22.3284 3 21.5 3H21V5C21 8.31371 18.3137 11 15 11H14.9902C14.438 11 13.9902 11.4477 13.9902 12C13.9902 12.5523 14.438 13 14.9902 13H15C18.3137 13 21 15.6863 21 19V21H21.5C22.3284 21 23 21.6716 23 22.5C23 23.3284 22.3284 24 21.5 24H2.5C1.67157 24 1 23.3284 1 22.5C1 21.6716 1.67157 21 2.5 21H3V19C3 15.6863 5.68629 13 9 13H8.92578C9.47649 13 9.92355 12.5547 9.92577 12.004C9.92801 11.4502 9.47964 11 8.92578 11H9C5.68629 11 3 8.31371 3 5V3H2.5C1.67157 3 1 2.32843 1 1.5ZM7 4.5C7 3.94772 6.55228 3.5 6 3.5C5.44772 3.5 5 3.94772 5 4.5V5C5 7.20914 6.79086 9 9 9H9.5C10.0523 9 10.5 8.55228 10.5 8C10.5 7.44772 10.0523 7 9.5 7H9C7.89543 7 7 6.10457 7 5V4.5ZM10.5 16C10.5 16.5523 10.0523 17 9.5 17H9C7.89543 17 7 17.8954 7 19V19.5C7 20.0523 6.55228 20.5 6 20.5C5.44772 20.5 5 20.0523 5 19.5V19C5 16.7909 6.79086 15 9 15H9.5C10.0523 15 10.5 15.4477 10.5 16Z" fill="currentColor"/>
</svg>
