<svg width="24" height="24" viewBox="0 0 24 24" fill="none" xmlns="http://www.w3.org/2000/svg">
<path fill-rule="evenodd" clip-rule="evenodd" d="M17.2183 15.6C15.8811 15.6 14.6515 15.9544 13.6909 16.5451C12.6329 17.1949 11.3649 17.1949 10.3069 16.5451C9.34631 15.9544 8.1167 15.6 6.77951 15.6C3.69782 15.6 1.2002 17.4814 1.2002 19.8C1.2002 22.1185 3.70039 24 6.78207 24C8.11927 24 9.34887 23.6455 10.3095 23.0548C11.3675 22.405 12.6355 22.405 13.6935 23.0548C14.6541 23.6455 15.8837 24 17.2209 24C20.3026 24 22.8002 22.1185 22.8002 19.8C22.8002 17.4814 20.3 15.6 17.2183 15.6ZM6.78214 21.6075C5.32199 21.6075 4.13594 20.7982 4.13594 19.7999C4.13594 18.8015 5.31943 17.9923 6.78214 17.9923C8.24486 17.9923 9.42835 18.8015 9.42835 19.7999C9.42835 20.7982 8.24229 21.6075 6.78214 21.6075ZM14.5722 19.7999C14.5722 20.7982 15.7583 21.6075 17.2184 21.6075C18.6786 21.6075 19.8646 20.7982 19.8646 19.7999C19.8646 18.8015 18.6811 17.9923 17.2184 17.9923C15.7557 17.9923 14.5722 18.8015 14.5722 19.7999Z" fill="currentColor"/>
<path d="M12 0C17.7303 0 22.4052 4.01931 22.6561 10.5601C23.403 10.56 24 11.151 24 11.88C24 12.609 23.403 13.2 22.6667 13.2H1.33333C0.596954 13.2 0 12.609 0 11.88C0 11.151 0.596954 10.56 1.33333 10.56C1.59479 4.01931 6.26971 0 12 0Z" fill="currentColor"/>
</svg>
