<svg width="24" height="24" viewBox="0 0 24 24" fill="none" xmlns="http://www.w3.org/2000/svg">
<path d="M11.9949 7.99752C9.79198 7.99752 7.99216 9.79741 7.99216 12.0004C7.99216 14.2034 9.79198 16.0033 11.9949 16.0033C14.1978 16.0033 15.9976 14.2034 15.9976 12.0004C15.9976 9.79741 14.1978 7.99752 11.9949 7.99752V7.99752ZM23.9984 12.0004C23.9984 10.3411 24.0125 8.7006 23.9187 7.04601C23.825 5.12425 23.3891 3.42279 21.983 2.01662C20.5769 0.610454 18.8755 0.174542 16.9538 0.0807979C15.2946 -0.0129466 13.6541 0.00111506 11.9996 0.00111506C10.3451 0.00111506 8.6999 -0.0129466 7.04537 0.0807979C5.12369 0.174542 3.42229 0.610454 2.01618 2.01662C0.610064 3.42279 0.174169 5.12425 0.0804285 7.04601C-0.0133123 8.70529 0.000748817 10.3458 0.000748817 12.0004C0.000748817 13.655 -0.0133123 15.3002 0.0804285 16.9548C0.174169 18.8766 0.610064 20.578 2.01618 21.9842C3.42229 23.3904 5.12369 23.8263 7.04537 23.92C8.70459 24.0138 10.3451 23.9997 11.9996 23.9997C13.6541 23.9997 15.2993 24.0138 16.9538 23.92C18.8755 23.8263 20.5816 23.3904 21.983 21.9842C23.3891 20.578 23.825 18.8766 23.9187 16.9548C24.0172 15.3002 23.9984 13.6597 23.9984 12.0004ZM11.9949 18.1594C8.58741 18.1594 5.83612 15.408 5.83612 12.0004C5.83612 8.5928 8.58741 5.8414 11.9949 5.8414C15.4024 5.8414 18.1537 8.5928 18.1537 12.0004C18.1537 15.408 15.4024 18.1594 11.9949 18.1594V18.1594ZM18.4068 7.02726C17.61 7.02726 16.9678 6.38512 16.9678 5.58829C16.9678 4.79146 17.61 4.14931 18.4068 4.14931C19.2036 4.14931 19.8457 4.79146 19.8457 5.58829C19.8457 6.38512 19.2036 7.02726 18.4068 7.02726Z" fill="currentColor"/>
</svg>
