<svg width="24" height="24" viewBox="0 0 24 24" fill="none" xmlns="http://www.w3.org/2000/svg">
<path fill-rule="evenodd" clip-rule="evenodd" d="M12.5953 0.00542086C11.8625 -0.0424 11.1446 0.227917 10.6253 0.747217L0.747211 10.6253C-0.249071 11.6216 -0.24907 13.2369 0.747211 14.2332L9.76685 23.2528C10.7631 24.2491 12.3784 24.2491 13.3747 23.2528L23.2528 13.3747C23.7721 12.8554 24.0424 12.1375 23.9946 11.4047L23.4421 2.93754C23.3587 1.65946 22.3405 0.641337 21.0625 0.557937L12.5953 0.00542086ZM16.0806 7.91941C17.0769 8.91569 18.6922 8.91569 19.6884 7.91941C20.6847 6.92313 20.6847 5.30784 19.6884 4.31156C18.6922 3.31528 17.0769 3.31528 16.0806 4.31156C15.0843 5.30784 15.0843 6.92313 16.0806 7.91941Z" fill="currentColor"/>
</svg>
