<svg width="24" height="24" viewBox="0 0 24 24" fill="none" xmlns="http://www.w3.org/2000/svg">
<path fill-rule="evenodd" clip-rule="evenodd" d="M20 0C22.2091 0 24 1.79086 24 4V20C24 22.2091 22.2091 24 20 24H4C1.79086 24 0 22.2091 0 20V4C0 1.79086 1.79086 0 4 0H20ZM11 15.0568V13.5H18C18.5523 13.5 19 13.0523 19 12.5V11.5C19 10.9477 18.5523 10.5 18 10.5H11V8.94319C11 8.12982 10.0806 7.6567 9.41876 8.12946L5.13923 11.1863C4.58088 11.5851 4.58088 12.4149 5.13923 12.8137L9.41876 15.8705C10.0806 16.3433 11 15.8702 11 15.0568Z" fill="currentColor"/>
</svg>
