<svg width="24" height="25" viewBox="0 0 24 25" fill="none" xmlns="http://www.w3.org/2000/svg">
<path fill-rule="evenodd" clip-rule="evenodd" d="M15 4.55522V9.36576H21C21.3467 9.3618 22.2712 9.3904 22.5875 9.53357C22.9038 9.67673 23.1855 9.88754 23.413 10.1514C23.6406 10.4152 23.8085 10.7258 23.9052 11.0616C24.0018 11.3973 24.025 11.7503 23.9729 12.096L22.3225 22.9497C22.236 23.5248 21.9463 24.0491 21.5068 24.4258C21.0672 24.8026 20.5075 25.0064 19.9306 24.9998H6V11.771L11.1238 1.50089C11.2931 1.16168 11.6416 0.936638 12.0163 0.994305C13.589 1.23636 15 2.41484 15 4.55522ZM2 25H4V12H2C0.895432 12 0 12.8954 0 14V23C0 24.1046 0.895432 25 2 25Z" fill="currentColor"/>
</svg>
