<svg width="24" height="24" viewBox="0 0 24 24" fill="none" xmlns="http://www.w3.org/2000/svg">
<path fill-rule="evenodd" clip-rule="evenodd" d="M1 3C1 1.34315 2.34315 0 4 0H20C21.6569 0 23 1.34315 23 3V21C23 22.6569 21.6569 24 20 24H4C2.34315 24 1 22.6569 1 21V3ZM9 6C9 5.44772 9.44772 5 10 5H18C18.5523 5 19 5.44772 19 6C19 6.55228 18.5523 7 18 7H10C9.44772 7 9 6.55228 9 6ZM10 11C9.44772 11 9 11.4477 9 12C9 12.5523 9.44772 13 10 13H18C18.5523 13 19 12.5523 19 12C19 11.4477 18.5523 11 18 11H10ZM9 18C9 17.4477 9.44772 17 10 17H18C18.5523 17 19 17.4477 19 18C19 18.5523 18.5523 19 18 19H10C9.44772 19 9 18.5523 9 18ZM6 5C5.44772 5 5 5.44772 5 6C5 6.55228 5.44772 7 6 7C6.55228 7 7 6.55228 7 6C7 5.44772 6.55228 5 6 5ZM5 12C5 11.4477 5.44772 11 6 11C6.55228 11 7 11.4477 7 12C7 12.5523 6.55228 13 6 13C5.44772 13 5 12.5523 5 12ZM6 17C5.44772 17 5 17.4477 5 18C5 18.5523 5.44772 19 6 19C6.55228 19 7 18.5523 7 18C7 17.4477 6.55228 17 6 17Z" fill="currentColor"/>
</svg>
