<svg width="24" height="24" viewBox="0 0 24 24" fill="none" xmlns="http://www.w3.org/2000/svg">
<path opacity="0.3" d="M24 12C24 18.6274 18.6274 24 12 24C5.37258 24 0 18.6274 0 12C0 5.37258 5.37258 0 12 0C18.6274 0 24 5.37258 24 12ZM3.6 12C3.6 16.6392 7.36081 20.4 12 20.4C16.6392 20.4 20.4 16.6392 20.4 12C20.4 7.36081 16.6392 3.6 12 3.6C7.36081 3.6 3.6 7.36081 3.6 12Z" fill="currentColor"/>
<path d="M22.2 12C23.1941 12 24.0138 11.1897 23.8653 10.2067C23.7203 9.24784 23.4594 8.30785 23.0866 7.4078C22.4835 5.95189 21.5996 4.62902 20.4853 3.51472C19.371 2.40042 18.0481 1.5165 16.5922 0.913445C15.6922 0.540634 14.7522 0.279673 13.7933 0.134749C12.8103 -0.0138115 12 0.805888 12 1.8V1.8C12 2.79411 12.8149 3.58072 13.7863 3.79212C14.2736 3.89817 14.7516 4.04766 15.2145 4.23941C16.2337 4.66155 17.1597 5.28029 17.9397 6.0603C18.7197 6.84032 19.3384 7.76632 19.7606 8.78546C19.9523 9.2484 20.1018 9.72644 20.2079 10.2137C20.4193 11.1851 21.2059 12 22.2 12V12Z" fill="currentColor"/>
</svg>
