<svg width="25" height="25" viewBox="0 0 25 25" fill="none" xmlns="http://www.w3.org/2000/svg">
<path fill-rule="evenodd" clip-rule="evenodd" d="M19.9698 1.43688C20.5556 0.85112 21.5054 0.851119 22.0912 1.43688L24.5602 3.90563C25.146 4.49138 25.146 5.44108 24.5602 6.02684L6.02468 24.5605C5.43886 25.1462 4.48906 25.1462 3.90325 24.5605L1.43424 22.0917C0.848418 21.5059 0.848419 20.5562 1.43424 19.9705L19.9698 1.43688ZM21.0305 2.67121L23.3257 4.9662L17.5877 10.7036L15.2924 8.40867L21.0305 2.67121ZM11.9968 4.49888C9.86715 3.34342 9.65453 3.13007 8.49865 0.999975C7.34278 3.13007 7.13015 3.34342 4.99987 4.49888C7.12948 5.6557 7.34278 5.86837 8.49865 7.99846C9.65521 5.86837 9.86783 5.65435 11.9968 4.49888ZM24.9968 17.4989C22.8672 16.3434 22.6545 16.1301 21.4987 14C20.3428 16.1301 20.1302 16.3434 17.9999 17.4989C20.1295 18.6557 20.3428 18.8684 21.4987 20.9985C22.6552 18.8684 22.8678 18.6543 24.9968 17.4989ZM3.49826 12.9989C2.67324 11.4775 2.52102 11.3252 0.999959 10.4989C2.52102 9.67364 2.67324 9.52139 3.49826 7.99998C4.32445 9.52139 4.47667 9.67364 5.99773 10.4989C4.47667 11.3252 4.32445 11.4775 3.49826 12.9989Z" fill="currentColor"/>
</svg>
