<svg width="24" height="25" viewBox="0 0 24 25" fill="none" xmlns="http://www.w3.org/2000/svg">
<path d="M12.0004 0C10.6159 0 9.26242 0.410543 8.11121 1.17971C6.95999 1.94888 6.06273 3.04213 5.53288 4.32121C5.00303 5.6003 4.8644 7.00776 5.13451 8.36563C5.40463 9.7235 6.07135 10.9708 7.05038 11.9497C8.02941 12.9287 9.27677 13.5954 10.6347 13.8655C11.9927 14.1356 13.4002 13.997 14.6794 13.4672C15.9586 12.9373 17.0519 12.0401 17.8211 10.889C18.5903 9.73784 19.0009 8.38447 19.0009 7C19.0009 5.14348 18.2633 3.36301 16.9505 2.05025C15.6377 0.737498 13.8571 0 12.0004 0V0ZM13.6339 8.63333L8.73357 10.2667L10.367 5.36666L15.2673 3.73333L13.6339 8.63333Z" fill="currentColor"/>
<path fill-rule="evenodd" clip-rule="evenodd" d="M3.04086 7.86319L1.90964 7.54205C0.95197 7.27019 0 7.98952 0 8.98503V21.1064C0 21.7357 0.392876 22.2982 0.983791 22.5148L4.38379 23.7609C5.36268 24.1197 6.4 23.3951 6.4 22.3526V14.0459C4.53955 12.5653 3.27879 10.3634 3.04086 7.86319ZM8 15.0644V22.5282C8 23.5321 8.96692 24.2526 9.92887 23.9656L14.9289 22.4738C15.5644 22.2841 16 21.6996 16 21.0364V15.0644C14.795 15.6632 13.4368 15.9999 12 15.9999C10.5632 15.9999 9.20496 15.6632 8 15.0644ZM17.6 14.0459V21.1434C17.6 21.7544 17.9705 22.3043 18.5368 22.5337L21.9368 23.9112C22.9229 24.3107 24 23.585 24 22.5209V10.5076C24 9.8902 23.6217 9.33584 23.0467 9.11081L20.9104 8.27472C20.5801 10.6044 19.3577 12.6471 17.6 14.0459Z" fill="currentColor"/>
</svg>
