<svg width="24" height="24" viewBox="0 0 24 24" fill="none" xmlns="http://www.w3.org/2000/svg">
<path fill-rule="evenodd" clip-rule="evenodd" d="M16.2132 0.617757C15.726 -0.0522222 14.7878 -0.200347 14.1178 0.28691C13.4479 0.774167 13.2997 1.71229 13.787 2.38227L15.6908 5H8.30941L10.2132 2.38227C10.7005 1.71229 10.5523 0.774167 9.88236 0.28691C9.21239 -0.200347 8.27426 -0.0522222 7.787 0.617757L4.59992 5H1.5C0.671573 5 0 5.67157 0 6.5V8.5C0 9.32843 0.671573 10 1.5 10H22.5C23.3284 10 24 9.32843 24 8.5V6.5C24 5.67157 23.3284 5 22.5 5H19.4003L16.2132 0.617757ZM23 11H1L2.98459 21.5544C3.25126 22.9726 4.48986 24 5.93292 24H18.0671C19.5101 24 20.7487 22.9726 21.0154 21.5544L23 11ZM11.7071 14.7071C12.0976 14.3166 12.0976 13.6834 11.7071 13.2929C11.3166 12.9024 10.6834 12.9024 10.2929 13.2929L7.29289 16.2929C6.90237 16.6834 6.90237 17.3166 7.29289 17.7071L10.2929 20.7071C10.6834 21.0976 11.3166 21.0976 11.7071 20.7071C12.0976 20.3166 12.0976 19.6834 11.7071 19.2929L10.4142 18H16C16.5523 18 17 17.5523 17 17C17 16.4477 16.5523 16 16 16H10.4142L11.7071 14.7071Z" fill="currentColor"/>
</svg>
