<svg width="24" height="24" viewBox="0 0 24 24" fill="none" xmlns="http://www.w3.org/2000/svg">
<path fill-rule="evenodd" clip-rule="evenodd" d="M9.88236 0.286758C10.5523 0.774015 10.7005 1.71214 10.2132 2.38212L8.30939 4.99988H15.6908L13.787 2.38212C13.2997 1.71214 13.4479 0.774015 14.1178 0.286758C14.7878 -0.2005 15.726 -0.0523748 16.2132 0.617604L19.4003 4.99988H22.5C23.3284 4.99988 24 5.67145 24 6.49988V8.49988C24 9.32831 23.3284 9.99988 22.5 9.99988H1.5C0.671573 9.99988 0 9.32831 0 8.49988V6.49988C0 5.67145 0.671573 4.99988 1.5 4.99988H4.59989L7.787 0.617604C8.27426 -0.0523748 9.21239 -0.2005 9.88236 0.286758ZM23 10.9999H1L2.98459 21.5543C3.25126 22.9725 4.48986 23.9999 5.93292 23.9999H18.0671C19.5101 23.9999 20.7487 22.9725 21.0154 21.5543L23 10.9999ZM9.70711 13.2928C9.31658 12.9022 8.68342 12.9022 8.29289 13.2928C7.90237 13.6833 7.90237 14.3165 8.29289 14.707L10.5858 16.9999L8.29289 19.2928C7.90237 19.6833 7.90237 20.3165 8.29289 20.707C8.68342 21.0975 9.31658 21.0975 9.70711 20.707L12 18.4141L14.2929 20.707C14.6834 21.0975 15.3166 21.0975 15.7071 20.707C16.0976 20.3165 16.0976 19.6833 15.7071 19.2928L13.4142 16.9999L15.7071 14.707C16.0976 14.3165 16.0976 13.6833 15.7071 13.2928C15.3166 12.9022 14.6834 12.9022 14.2929 13.2928L12 15.5857L9.70711 13.2928Z" fill="currentColor"/>
</svg>
