<svg width="24" height="24" viewBox="0 0 24 24" fill="none" xmlns="http://www.w3.org/2000/svg">
<mask id="path-1-inside-1_12547_26193" fill="white">
<path fill-rule="evenodd" clip-rule="evenodd" d="M14.1178 0.287002C14.7878 -0.200256 15.7259 -0.0521306 16.2132 0.617848L19.4003 5.00011H22.5C23.3284 5.00011 24 5.67168 24 6.50011V8.50011C24 9.27846 23.4072 9.91835 22.6484 9.99286C21.104 8.74641 19.1392 8.00009 17 8.00009C14.8567 8.00009 12.8884 8.7493 11.3426 10.0001H1.5C0.671573 10.0001 0 9.32853 0 8.50011V6.50011C0 5.67168 0.671573 5.00011 1.5 5.00011H4.59975L7.78685 0.617848C8.2741 -0.0521306 9.21223 -0.200256 9.88221 0.287002C10.5522 0.774259 10.7003 1.71238 10.2131 2.38236L8.30924 5.00011H15.6908L13.787 2.38236C13.2997 1.71238 13.4479 0.774259 14.1178 0.287002ZM8 17.0001C8 14.695 8.86656 12.5924 10.2917 11.0001H1L2.98459 21.5545C3.25126 22.9727 4.48986 24.0001 5.93292 24.0001H11.3427C9.30367 22.3502 8 19.8274 8 17.0001ZM10 17C10 13.15 13.15 10 17 10C20.85 10 24 13.15 24 17C24 20.85 20.85 24 17 24C13.15 24 10 20.85 10 17ZM17 17.7H19.1C19.52 17.7 19.8 17.42 19.8 17C19.8 16.58 19.52 16.3 19.1 16.3H17.7V13.5C17.7 13.08 17.42 12.8 17 12.8C16.58 12.8 16.3 13.08 16.3 13.5V17C16.3 17.42 16.58 17.7 17 17.7Z"/>
</mask>
<path fill-rule="evenodd" clip-rule="evenodd" d="M14.1178 0.287002C14.7878 -0.200256 15.7259 -0.0521306 16.2132 0.617848L19.4003 5.00011H22.5C23.3284 5.00011 24 5.67168 24 6.50011V8.50011C24 9.27846 23.4072 9.91835 22.6484 9.99286C21.104 8.74641 19.1392 8.00009 17 8.00009C14.8567 8.00009 12.8884 8.7493 11.3426 10.0001H1.5C0.671573 10.0001 0 9.32853 0 8.50011V6.50011C0 5.67168 0.671573 5.00011 1.5 5.00011H4.59975L7.78685 0.617848C8.2741 -0.0521306 9.21223 -0.200256 9.88221 0.287002C10.5522 0.774259 10.7003 1.71238 10.2131 2.38236L8.30924 5.00011H15.6908L13.787 2.38236C13.2997 1.71238 13.4479 0.774259 14.1178 0.287002ZM8 17.0001C8 14.695 8.86656 12.5924 10.2917 11.0001H1L2.98459 21.5545C3.25126 22.9727 4.48986 24.0001 5.93292 24.0001H11.3427C9.30367 22.3502 8 19.8274 8 17.0001ZM10 17C10 13.15 13.15 10 17 10C20.85 10 24 13.15 24 17C24 20.85 20.85 24 17 24C13.15 24 10 20.85 10 17ZM17 17.7H19.1C19.52 17.7 19.8 17.42 19.8 17C19.8 16.58 19.52 16.3 19.1 16.3H17.7V13.5C17.7 13.08 17.42 12.8 17 12.8C16.58 12.8 16.3 13.08 16.3 13.5V17C16.3 17.42 16.58 17.7 17 17.7Z" fill="currentColor"/>
<path d="M16.2132 0.617848L15.4045 1.20602L15.4045 1.20602L16.2132 0.617848ZM19.4003 5.00011L18.5916 5.58828L18.8911 6.00011H19.4003V5.00011ZM22.6484 9.99286L22.0203 10.771L22.3388 11.0281L22.7461 10.9881L22.6484 9.99286ZM11.3426 10.0001V11.0001H11.6966L11.9717 10.7775L11.3426 10.0001ZM4.59975 5.00011V6.00011H5.10898L5.40849 5.58828L4.59975 5.00011ZM7.78685 0.617848L8.59558 1.20602L8.59558 1.20602L7.78685 0.617848ZM9.88221 0.287002L9.29404 1.09574L9.29404 1.09574L9.88221 0.287002ZM10.2131 2.38236L9.40432 1.79419L9.40432 1.79419L10.2131 2.38236ZM8.30924 5.00011L7.50051 4.41193L6.34547 6.00011H8.30924V5.00011ZM15.6908 5.00011V6.00011H17.6546L16.4995 4.41193L15.6908 5.00011ZM13.787 2.38236L12.9783 2.97053L12.9783 2.97053L13.787 2.38236ZM10.2917 11.0001L11.0368 11.667L12.5287 10.0001H10.2917V11.0001ZM1 11.0001V10.0001H-0.205559L0.017223 11.1849L1 11.0001ZM2.98459 21.5545L2.00181 21.7393L2.00181 21.7393L2.98459 21.5545ZM11.3427 24.0001V25.0001H14.1682L11.9717 23.2227L11.3427 24.0001ZM17.7 16.3H16.7V17.3H17.7V16.3ZM17.0219 0.0296769C16.2098 -1.08696 14.6463 -1.33383 13.5297 -0.521735L14.706 1.09574C14.9293 0.933318 15.242 0.982694 15.4045 1.20602L17.0219 0.0296769ZM20.209 4.41193L17.0219 0.0296767L15.4045 1.20602L18.5916 5.58828L20.209 4.41193ZM22.5 4.00011H19.4003V6.00011H22.5V4.00011ZM25 6.50011C25 5.11939 23.8807 4.00011 22.5 4.00011V6.00011C22.7761 6.00011 23 6.22396 23 6.50011H25ZM25 8.50011V6.50011H23V8.50011H25ZM22.7461 10.9881C24.0118 10.8638 25 9.79796 25 8.50011H23C23 8.75896 22.8025 8.97292 22.5507 8.99765L22.7461 10.9881ZM17 9.00009C18.9024 9.00009 20.6473 9.6629 22.0203 10.771L23.2764 9.21469C21.5607 7.82992 19.3759 7.00009 17 7.00009V9.00009ZM11.9717 10.7775C13.3459 9.66546 15.0939 9.00009 17 9.00009V7.00009C14.6195 7.00009 12.4308 7.83314 10.7136 9.22274L11.9717 10.7775ZM1.5 11.0001H11.3426V9.00011H1.5V11.0001ZM-1 8.50011C-1 9.88082 0.119288 11.0001 1.5 11.0001V9.00011C1.22386 9.00011 1 8.77625 1 8.50011H-1ZM-1 6.50011V8.50011H1V6.50011H-1ZM1.5 4.00011C0.119288 4.00011 -1 5.11939 -1 6.50011H1C1 6.22396 1.22386 6.00011 1.5 6.00011V4.00011ZM4.59975 4.00011H1.5V6.00011H4.59975V4.00011ZM6.97811 0.0296766L3.79101 4.41193L5.40849 5.58828L8.59558 1.20602L6.97811 0.0296766ZM10.4704 -0.521734C9.35375 -1.33383 7.79021 -1.08696 6.97811 0.0296769L8.59558 1.20602C8.758 0.982694 9.07071 0.933319 9.29404 1.09574L10.4704 -0.521734ZM11.0218 2.97054C11.8339 1.8539 11.587 0.290361 10.4704 -0.521735L9.29404 1.09574C9.51736 1.25816 9.56674 1.57087 9.40432 1.79419L11.0218 2.97054ZM9.11798 5.58828L11.0218 2.97053L9.40432 1.79419L7.50051 4.41193L9.11798 5.58828ZM15.6908 4.00011H8.30924V6.00011H15.6908V4.00011ZM12.9783 2.97053L14.8821 5.58828L16.4995 4.41193L14.5957 1.79419L12.9783 2.97053ZM13.5297 -0.521735C12.413 0.290361 12.1662 1.8539 12.9783 2.97053L14.5957 1.79419C14.4333 1.57087 14.4827 1.25816 14.706 1.09574L13.5297 -0.521735ZM9.54653 10.3332C7.96367 12.1017 7 14.4396 7 17.0001H9C9 14.9505 9.76944 13.083 11.0368 11.667L9.54653 10.3332ZM1 12.0001H10.2917V10.0001H1V12.0001ZM3.96736 21.3697L1.98278 10.8153L0.017223 11.1849L2.00181 21.7393L3.96736 21.3697ZM5.93292 23.0001C4.97088 23.0001 4.14514 22.3152 3.96736 21.3697L2.00181 21.7393C2.35737 23.6302 4.00884 25.0001 5.93292 25.0001V23.0001ZM11.3427 23.0001H5.93292V25.0001H11.3427V23.0001ZM7 17.0001C7 20.1419 8.45008 22.9458 10.7136 24.7775L11.9717 23.2227C10.1573 21.7545 9 19.5128 9 17.0001H7ZM17 9C12.5977 9 9 12.5977 9 17H11C11 13.7023 13.7023 11 17 11V9ZM25 17C25 12.5977 21.4023 9 17 9V11C20.2977 11 23 13.7023 23 17H25ZM17 25C21.4023 25 25 21.4023 25 17H23C23 20.2977 20.2977 23 17 23V25ZM9 17C9 21.4023 12.5977 25 17 25V23C13.7023 23 11 20.2977 11 17H9ZM19.1 16.7H17V18.7H19.1V16.7ZM18.8 17C18.8 16.9828 18.8101 16.8907 18.9004 16.8004C18.9907 16.7101 19.0828 16.7 19.1 16.7V18.7C19.5372 18.7 19.9793 18.5499 20.3146 18.2146C20.6499 17.8793 20.8 17.4372 20.8 17H18.8ZM19.1 17.3C19.0828 17.3 18.9907 17.2899 18.9004 17.1996C18.8101 17.1093 18.8 17.0172 18.8 17H20.8C20.8 16.5628 20.6499 16.1207 20.3146 15.7854C19.9793 15.4501 19.5372 15.3 19.1 15.3V17.3ZM17.7 17.3H19.1V15.3H17.7V17.3ZM16.7 13.5V16.3H18.7V13.5H16.7ZM17 13.8C16.9828 13.8 16.8907 13.7899 16.8004 13.6996C16.7101 13.6093 16.7 13.5172 16.7 13.5H18.7C18.7 13.0628 18.5499 12.6207 18.2146 12.2854C17.8793 11.9501 17.4372 11.8 17 11.8V13.8ZM17.3 13.5C17.3 13.5172 17.2899 13.6093 17.1996 13.6996C17.1093 13.7899 17.0172 13.8 17 13.8V11.8C16.5628 11.8 16.1207 11.9501 15.7854 12.2854C15.4501 12.6207 15.3 13.0628 15.3 13.5H17.3ZM17.3 17V13.5H15.3V17H17.3ZM17 16.7C17.0172 16.7 17.1093 16.7101 17.1996 16.8004C17.2899 16.8907 17.3 16.9828 17.3 17H15.3C15.3 17.4372 15.4501 17.8793 15.7854 18.2146C16.1207 18.5499 16.5628 18.7 17 18.7V16.7Z" fill="currentColor" mask="url(#path-1-inside-1_12547_26193)"/>
</svg>
