<svg width="24" height="24" viewBox="0 0 24 24" fill="none" xmlns="http://www.w3.org/2000/svg">
<path fill-rule="evenodd" clip-rule="evenodd" d="M9.88236 0.28691C10.5523 0.774167 10.7005 1.71229 10.2132 2.38227L8.30941 5H15.6908L13.787 2.38227C13.2997 1.71229 13.4479 0.774167 14.1178 0.28691C14.7878 -0.200347 15.726 -0.0522222 16.2132 0.617757L19.4003 5H22.5C23.3284 5 24 5.67157 24 6.5V8.5C24 9.32843 23.3284 10 22.5 10H1.5C0.671573 10 0 9.32843 0 8.5V6.5C0 5.67157 0.671573 5 1.5 5H4.59992L7.787 0.617757C8.27426 -0.0522222 9.21239 -0.200347 9.88236 0.28691ZM1 11H23L21.0154 21.5544C20.7487 22.9726 19.5101 24 18.0671 24H5.93292C4.48986 24 3.25126 22.9726 2.98459 21.5544L1 11ZM16.7506 13.2547C17.0789 13.5987 17.0837 14.1615 16.7612 14.5117L11.032 20.734C10.8754 20.9041 10.6611 21 10.4375 21C10.2139 21 9.99965 20.9041 9.84296 20.734L7.23879 17.9057C6.9163 17.5554 6.92105 16.9926 7.24941 16.6487C7.57777 16.3047 8.10538 16.3097 8.42787 16.66L10.4375 18.8426L15.5721 13.266C15.8946 12.9158 16.4222 12.9107 16.7506 13.2547Z" fill="currentColor"/>
</svg>
