<svg width="24" height="24" viewBox="0 0 24 24" fill="none" xmlns="http://www.w3.org/2000/svg">
<path d="M2 0C1.44775 0 1 0.447723 1 1V3C1 3.55228 1.44775 4 2 4H22C22.5522 4 23 3.55228 23 3V1C23 0.447723 22.5522 0 22 0H2Z" fill="currentColor"/>
<path d="M10 6H2.8335L1.52393 10.2858C1.17676 11.4223 1 12.6041 1 13.7924V22C1 23.1046 1.89551 24 3 24H21C22.1045 24 23 23.1046 23 22V13.7924C23 12.6041 22.8232 11.4223 22.4761 10.2858L21.1665 6H14V9.19098C14 9.56268 13.6089 9.80441 13.2764 9.63818L12.2236 9.11182C12.1812 9.09048 12.1362 9.07562 12.0903 9.06723C11.9849 9.04788 11.8745 9.06274 11.7764 9.11182L10.7236 9.63818C10.3911 9.80441 10 9.56268 10 9.19098V6Z" fill="currentColor"/>
</svg>
