<svg width="24" height="24" viewBox="0 0 24 24" fill="none" xmlns="http://www.w3.org/2000/svg">
<g clip-path="url(#clip0_15133_21082)">
<path fill-rule="evenodd" clip-rule="evenodd" d="M13 -1.7C13 -1.86569 13.1343 -2 13.3 -2H17.7C17.8657 -2 18 -1.86568 18 -1.7V5.9151C18 6.19147 17.649 6.32863 17.4466 6.14042C16.31 5.08343 14.8655 4.35315 13.2624 4.09904C13.1129 4.07534 13 3.94831 13 3.79698V-1.7Z" fill="#currentColor"/>
<path d="M18 0.3C18 0.134315 17.8657 0 17.7 0H13.3C13.1343 0 13 0.134314 13 0.3V4.57223C13 4.7256 13.1158 4.85375 13.2678 4.87442C14.8424 5.0886 16.286 5.6959 17.4887 6.59011C17.6948 6.74335 18 6.60139 18 6.34456V0.3Z" fill="#currentColor"/>
<path d="M6 0.3C6 0.134315 6.13431 0 6.3 0H10.7C10.8657 0 11 0.134314 11 0.3V4.57223C11 4.7256 10.8842 4.85375 10.7322 4.87442C9.15763 5.0886 7.71397 5.6959 6.51127 6.59011C6.30517 6.74335 6 6.60139 6 6.34456V0.3Z" fill="#currentColor"/>
<path fill-rule="evenodd" clip-rule="evenodd" d="M12 24C16.9706 24 21 19.9706 21 15C21 10.0294 16.9706 6 12 6C7.02944 6 3 10.0294 3 15C3 19.9706 7.02944 24 12 24ZM13.4233 12.6722L12.373 9.9623C12.241 9.62171 11.759 9.62171 11.627 9.96231L10.5767 12.6722C10.52 12.8187 10.3828 12.9183 10.226 12.9271L7.32412 13.0886C6.9594 13.1089 6.81048 13.5672 7.09361 13.798L9.34635 15.6343C9.46808 15.7335 9.52048 15.8948 9.48032 16.0466L8.73718 18.8564C8.64378 19.2095 9.03366 19.4928 9.34065 19.2948L11.7832 17.7198C11.9152 17.6347 12.0848 17.6347 12.2168 17.7198L14.6593 19.2948C14.9663 19.4928 15.3562 19.2095 15.2628 18.8564L14.5197 16.0466C14.4795 15.8948 14.5319 15.7335 14.6536 15.6343L16.9064 13.798C17.1895 13.5672 17.0406 13.1089 16.6759 13.0886L13.774 12.9271C13.6172 12.9183 13.48 12.8187 13.4233 12.6722Z" fill="currentColor"/>
</g>
<defs>
<clipPath id="clip0_15133_21082">
<rect width="24" height="24" fill="white"/>
</clipPath>
</defs>
</svg>
