<svg width="24" height="24" viewBox="0 0 24 24" fill="none" xmlns="http://www.w3.org/2000/svg">
<circle opacity="0.1" cx="12" cy="12" r="12" fill="currentColor"/>
<path fill-rule="evenodd" clip-rule="evenodd" d="M10.0697 7.5L15.7957 7.5C16.1847 7.5 16.5 7.81534 16.5 8.20433V13.9303C16.5 14.3193 16.1847 14.6346 15.7957 14.6346C15.4067 14.6346 15.0913 14.3193 15.0913 13.9303L15.0908 9.90461L8.70236 16.2937C8.4273 16.5688 7.98135 16.5688 7.70629 16.2937C7.43124 16.0187 7.43124 15.5727 7.70629 15.2976L14.0947 8.90855L10.0697 8.90865C9.68073 8.90865 9.36539 8.59331 9.36539 8.20433C9.36539 7.81534 9.68073 7.5 10.0697 7.5Z" fill="currentColor"/>
</svg>
