<svg width="24" height="24" viewBox="0 0 24 24" fill="none" xmlns="http://www.w3.org/2000/svg">
<g clip-path="url(#clip0_147_146)">
<path d="M3.79133 0.388601C3.45364 -0.0484139 2.82562 -0.12893 2.3886 0.208763C1.95159 0.546456 1.87107 1.17448 2.20876 1.6115L8 9.10604V12C8 14.2092 9.79086 16 12 16C12.4138 16 12.813 15.9372 13.1885 15.8205L14.4647 17.4721C13.7128 17.8113 12.8784 18 12 18C8.68629 18 6 15.3138 6 12C6 11.4478 5.55228 11 5 11C4.44772 11 4 11.4478 4 12C4 16.0797 7.05369 19.4461 11 19.9382V21H9C8.44772 21 8 21.4478 8 22C8 22.5523 8.44772 23 9 23H15C15.5523 23 16 22.5523 16 22C16 21.4478 15.5523 21 15 21H13V19.9382C13.9689 19.8173 14.884 19.5233 15.7133 19.0879L19.2088 23.6115C19.5465 24.0485 20.1745 24.129 20.6115 23.7913C21.0485 23.4536 21.129 22.8256 20.7913 22.3886L3.79133 0.388601Z" fill="currentColor"/>
<path d="M8.20091 3.74481L15.7429 13.414C15.9091 12.9744 16 12.4978 16 12V5.00005C16 2.79091 14.2091 1.00005 12 1.00005C10.2293 1.00005 8.72737 2.15056 8.20091 3.74481Z" fill="currentColor"/>
<path d="M17.1029 15.1576L18.3924 16.8109C19.4017 15.472 20 13.8059 20 12C20 11.4478 19.5523 11 19 11C18.4477 11 18 11.4478 18 12C18 13.1586 17.6716 14.2404 17.1029 15.1576Z" fill="currentColor"/>
</g>
<defs>
<clipPath id="clip0_147_146">
<rect width="24" height="24" fill="white"/>
</clipPath>
</defs>
</svg>
