<svg width="24" height="24" viewBox="0 0 24 24" fill="none" xmlns="http://www.w3.org/2000/svg">
<path fill-rule="evenodd" clip-rule="evenodd" d="M14.5 2.5H17C17.2761 2.5 17.5 2.72386 17.5 3V21C17.5 21.2761 17.2761 21.5 17 21.5H7C6.72386 21.5 6.5 21.2761 6.5 21V3C6.5 2.72386 6.72386 2.5 7 2.5H9.5V3C9.5 3.55228 9.94772 4 10.5 4H13.5C14.0523 4 14.5 3.55228 14.5 3V2.5ZM4 3C4 1.34315 5.34315 0 7 0H17C18.6569 0 20 1.34315 20 3V21C20 22.6569 18.6569 24 17 24H7C5.34315 24 4 22.6569 4 21V3Z" fill="currentColor"/>
</svg>
