<svg width="24" height="24" viewBox="0 0 24 24" fill="none" xmlns="http://www.w3.org/2000/svg">
<path fill-rule="evenodd" clip-rule="evenodd" d="M1.45609 1.5H22.5439C22.9304 1.50084 23.3007 1.66304 23.5737 1.95101C23.8467 2.23898 24 2.6292 24 3.03603V14.9671C24 15.3737 23.8466 15.7636 23.5735 16.051C23.3004 16.3385 22.9301 16.5 22.5439 16.5H1.45609C1.07015 16.4992 0.700253 16.3374 0.427355 16.0501C0.154456 15.7628 0.000793293 15.3734 0 14.9671V3.03603C0 2.6292 0.153312 2.23898 0.426296 1.95101C0.699281 1.66304 1.06963 1.50084 1.45609 1.5ZM6 9C6 9.82843 5.32843 10.5 4.5 10.5C3.67157 10.5 3 9.82843 3 9C3 8.17157 3.67157 7.5 4.5 7.5C5.32843 7.5 6 8.17157 6 9ZM19.5 10.5C20.3284 10.5 21 9.82843 21 9C21 8.17157 20.3284 7.5 19.5 7.5C18.6716 7.5 18 8.17157 18 9C18 9.82843 18.6716 10.5 19.5 10.5ZM12 5.25C9.92893 5.25 8.25 6.92893 8.25 9C8.25 11.0711 9.92893 12.75 12 12.75C14.0711 12.75 15.75 11.0711 15.75 9C15.75 6.92893 14.0711 5.25 12 5.25Z" fill="currentColor"/>
<path fill-rule="evenodd" clip-rule="evenodd" d="M1.8208 18L2.16674 18.088L2.39397 18.1459L2.40232 18.148L19.3352 22.4576C19.6879 22.5474 20.0657 22.4934 20.3855 22.3074C20.7053 22.1215 20.9408 21.8189 21.0403 21.4662L22.0181 18H19.6803L19.095 20.0747L10.9431 18H1.8208Z" fill="currentColor"/>
</svg>
