<svg width="24" height="24" viewBox="0 0 24 24" fill="none" xmlns="http://www.w3.org/2000/svg">
<path fill-rule="evenodd" clip-rule="evenodd" d="M0 1C0 0.447716 0.447715 0 1 0H23C23.5523 0 24 0.447715 24 1V13C24 13.5523 23.5523 14 23 14H19.6274V13.9998L12.5552 13.9998C12.3426 13.4359 12.0215 12.8384 11.5325 12.3217C10.9669 11.7242 10.2134 11.2749 9.25 11.0911V9.00011C9.25 7.03216 7.99705 5.72395 6.66235 5.32353C6.00915 5.12757 5.24346 5.12473 4.59294 5.49335C3.88823 5.89267 3.5 6.62564 3.5 7.50007V14H1C0.447716 14 0 13.5523 0 13V1ZM15 7C15 8.65685 13.6569 10 12 10C10.3431 10 9 8.65685 9 7C9 5.34315 10.3431 4 12 4C13.6569 4 15 5.34315 15 7ZM11.8182 14.9999C11.4995 13.6911 10.6278 12.0002 8.25 12.0002V9.00016C8.25 6.00015 4.5 5.25016 4.5 7.50011V15C4.5 16.6568 5.84299 17.9998 7.4997 18L7.5 18.0001V19.5H6V24H18V19.5H16.5V17.9998C16.5 17.9998 18.6274 17.2889 18.6274 14.9999L11.8182 14.9999ZM7.5 21V22.5H9V21H7.5Z" fill="currentColor"/>
</svg>
