<svg width="24" height="24" viewBox="0 0 24 24" fill="none" xmlns="http://www.w3.org/2000/svg">
<path fill-rule="evenodd" clip-rule="evenodd" d="M18 1C21.3137 1 24 3.68629 24 7C24 10.3137 21.3137 13 18 13C14.6863 13 12 10.3137 12 7C12 3.68629 14.6863 1 18 1ZM20.7046 5.04543C20.9556 5.29648 20.9556 5.70352 20.7046 5.95457L17.7046 8.95457C17.4535 9.20562 17.0465 9.20562 16.7954 8.95457L15.2954 7.45457C15.0444 7.20352 15.0444 6.79648 15.2954 6.54543C15.5465 6.29438 15.9535 6.29438 16.2046 6.54543L17.25 7.59086L19.7954 5.04543C20.0465 4.79438 20.4535 4.79438 20.7046 5.04543ZM9.00002 6C9.54992 6 9.9966 6.4436 10 6.99368L10 7L10 7.00632C9.9966 7.5564 9.54992 8 9.00002 8H7.85702L6.15802 14.409C6.31402 14.47 6.46902 14.537 6.62102 14.611C7.82402 15.199 8.80002 16.175 9.39002 17.382C9.48802 17.582 9.57402 17.788 9.65002 18H12V14C12 13.5183 12.3141 13.117 12.7329 13.0216C14.1401 14.2534 15.9828 15 18 15C19.1376 15 20.2198 14.7625 21.1997 14.3345C21.4127 14.6792 21.5623 15.076 21.629 15.507L21.988 18.836C22.081 19.445 21.646 20 21.075 20H8.00002C8.00002 17.794 6.20602 16 4.00002 16C3.12702 16 2.29602 16.276 1.60002 16.8C1.15902 17.131 0.531018 17.042 0.200018 16.6C-0.130982 16.159 -0.041982 15.532 0.399018 15.2C0.930018 14.802 1.51202 14.499 2.12702 14.297C2.41202 13.54 3.14402 13 4.00002 13H4.50002L5.00002 11H4.50002C3.67102 11 3.00002 10.328 3.00002 9.5C3.00002 8.672 3.67102 8 4.50002 8H5.75002L6.00002 7C6.00002 6.486 6.38702 6.064 6.88402 6.007L7.00002 6H9.00002ZM17 23C18.391 23 19.561 22.162 20 21H14C14.44 22.162 15.61 23 17 23ZM4 17C5.657 17 7 18.344 7 20C7 21.656 5.657 23 4 23C2.343 23 1 21.656 1 20C1 18.344 2.343 17 4 17Z" fill="currentColor"/>
</svg>
