<svg width="24" height="24" viewBox="0 0 24 24" fill="none" xmlns="http://www.w3.org/2000/svg">
<path d="M0 12.5C0 11.6716 0.671573 11 1.5 11V11C2.32843 11 3 11.6716 3 12.5V21.5C3 22.3284 2.32843 23 1.5 23V23C0.671573 23 0 22.3284 0 21.5V12.5Z" fill="currentColor"/>
<path d="M7.32677 12H5V22L13.753 23.7506C14.5643 23.9129 15.406 23.8196 16.1621 23.4835L23.1996 20.3558C23.6863 20.1394 24 19.6567 24 19.1241C24 18.2801 23.2332 17.6438 22.4038 17.7993L16 19L12.4254 18.1063C12.1754 18.0438 12 17.8192 12 17.5616C12 17.2514 12.2514 17 12.5616 17H17.6097C18.3776 17 19 16.3776 19 15.6097C19 14.9606 18.5508 14.3979 17.9179 14.2541L8.65649 12.1492C8.2202 12.05 7.77418 12 7.32677 12Z" fill="currentColor"/>
<path fill-rule="evenodd" clip-rule="evenodd" d="M18.6499 14.6873C17.9689 14.8907 17.2472 15 16.5 15C14.3791 15 12.4638 14.1197 11.0997 12.7045L17.9179 14.2541C18.2096 14.3204 18.4622 14.4756 18.6499 14.6873ZM20.0722 14.0963C19.6755 13.4515 19.03 12.9686 18.2503 12.7914L9.79816 10.8704C9.28755 9.8571 9 8.71213 9 7.5C9 3.35786 12.3579 0 16.5 0C20.6421 0 24 3.35786 24 7.5C24 10.3489 22.4116 12.8267 20.0722 14.0963ZM15.3333 5.16667C15.3333 5.811 14.811 6.33333 14.1667 6.33333C13.5223 6.33333 13 5.811 13 5.16667C13 4.52233 13.5223 4 14.1667 4C14.811 4 15.3333 4.52233 15.3333 5.16667ZM20 9.83333C20 10.4777 19.4777 11 18.8333 11C18.189 11 17.6667 10.4777 17.6667 9.83333C17.6667 9.189 18.189 8.66667 18.8333 8.66667C19.4777 8.66667 20 9.189 20 9.83333ZM19.4167 4.58336C19.0945 4.2612 18.5722 4.2612 18.25 4.58336L13.5833 9.25004C13.2611 9.5722 13.2611 10.0945 13.5833 10.4167C13.9055 10.7389 14.4278 10.7389 14.75 10.4167L19.4167 5.75005C19.7389 5.42788 19.7389 4.90553 19.4167 4.58336Z" fill="currentColor"/>
</svg>
