<svg width="24" height="24" viewBox="0 0 24 24" fill="none" xmlns="http://www.w3.org/2000/svg">
<path fill-rule="evenodd" clip-rule="evenodd" d="M13.111 0.742219C12.4385 0.292958 11.5616 0.292958 10.8891 0.742219L10.5817 0.947537C10.1408 1.2421 9.60091 1.34949 9.0808 1.24609L8.71827 1.17402C7.92502 1.01632 7.11487 1.3519 6.66547 2.02432L6.46009 2.33163C6.16543 2.77252 5.70774 3.07834 5.18765 3.18184L4.82514 3.25399C4.03192 3.41186 3.41186 4.03192 3.25399 4.82514L3.18184 5.18765C3.07834 5.70774 2.77252 6.16543 2.33163 6.46009L2.02432 6.66547C1.3519 7.11487 1.01632 7.92502 1.17402 8.71827L1.24609 9.0808C1.34949 9.60091 1.2421 10.1408 0.947537 10.5817L0.742219 10.8891C0.292958 11.5616 0.292958 12.4385 0.742219 13.111L0.947537 13.4184C1.2421 13.8593 1.34949 14.3992 1.24609 14.9193L1.17402 15.2819C1.01632 16.0751 1.3519 16.8853 2.02432 17.3347L2.33163 17.54C2.77252 17.8347 3.07834 18.2924 3.18184 18.8125L3.25399 19.175C3.41186 19.9682 4.03192 20.5883 4.82514 20.7461L5.18765 20.8183C5.70774 20.9218 6.16543 21.2276 6.46009 21.6685L6.66547 21.9758C7.11487 22.6482 7.92502 22.9838 8.71827 22.8261L9.0808 22.754C9.60091 22.6506 10.1408 22.758 10.5817 23.0526L10.8891 23.2579C11.5616 23.7072 12.4385 23.7072 13.111 23.2579L13.4184 23.0526C13.8593 22.758 14.3992 22.6506 14.9193 22.754L15.2818 22.8261C16.0751 22.9838 16.8853 22.6482 17.3347 21.9758L17.54 21.6685C17.8347 21.2276 18.2924 20.9218 18.8125 20.8183L19.175 20.7461C19.9682 20.5883 20.5883 19.9682 20.7461 19.175L20.8183 18.8125C20.9218 18.2924 21.2276 17.8347 21.6685 17.54L21.9758 17.3347C22.6482 16.8853 22.9838 16.0751 22.8261 15.2818L22.754 14.9193C22.6506 14.3992 22.758 13.8593 23.0526 13.4184L23.2579 13.111C23.7072 12.4385 23.7072 11.5616 23.2579 10.8891L23.0526 10.5817C22.758 10.1408 22.6506 9.60091 22.754 9.0808L22.8261 8.71827C22.9838 7.92502 22.6482 7.11487 21.9758 6.66547L21.6685 6.46009C21.2276 6.16543 20.9218 5.70774 20.8183 5.18765L20.7461 4.82514C20.5883 4.03192 19.9682 3.41186 19.175 3.25399L18.8125 3.18184C18.2924 3.07834 17.8347 2.77252 17.54 2.33163L17.3347 2.02432C16.8853 1.3519 16.0751 1.01632 15.2818 1.17402L14.9193 1.24609C14.3992 1.34949 13.8593 1.2421 13.4184 0.947537L13.111 0.742219ZM17.7002 12.8523C17.3044 12.8231 16.9454 12.665 16.6668 12.4207C16.4988 12.5681 16.3014 12.6841 16.0842 12.7594L16.0834 15.1429H7.91673L7.9168 12.7597C7.69944 12.6844 7.50178 12.5683 7.33345 12.4207C7.02424 12.692 6.61518 12.8572 6.16673 12.8572V16.8572C6.16673 17.4884 6.68906 18.0001 7.33339 18.0001H16.6667C17.3111 18.0001 17.8334 17.4884 17.8334 16.8572V12.8572L17.7002 12.8523ZM17.7751 6.68578C17.4446 6.25411 16.9259 6.00006 16.3751 6.00006H7.62506C7.07424 6.00006 6.55556 6.25411 6.22506 6.68578L5.35006 7.82863C5.12287 8.12537 5.00006 8.48628 5.00006 8.8572V10.5715C5.00006 11.2027 5.5224 11.7143 6.16673 11.7143C6.81106 11.7143 7.33339 11.2027 7.33339 10.5715C7.33339 11.2027 7.85573 11.7143 8.50006 11.7143C9.14439 11.7143 9.66673 11.2027 9.66673 10.5715C9.66673 11.2027 10.1891 11.7143 10.8334 11.7143C11.4777 11.7143 12.0001 11.2027 12.0001 10.5715C12.0001 11.2027 12.5224 11.7143 13.1667 11.7143C13.8111 11.7143 14.3334 11.2027 14.3334 10.5715C14.3334 11.2027 14.8557 11.7143 15.5001 11.7143C16.1444 11.7143 16.6667 11.2027 16.6667 10.5715C16.6667 11.2027 17.1891 11.7143 17.8334 11.7143C18.4777 11.7143 19.0001 11.2027 19.0001 10.5715V8.8572C19.0001 8.48628 18.8773 8.12537 18.6501 7.82863L17.7751 6.68578Z" fill="currentColor"/>
</svg>
