<svg width="24" height="24" viewBox="0 0 24 24" fill="none" xmlns="http://www.w3.org/2000/svg">
<path fill-rule="evenodd" clip-rule="evenodd" d="M13 6.66551C14.0831 6.23604 15.264 6 16.5 6C18.0266 6 19.4692 6.3601 20.7473 7H24L21.2372 1.62796C20.7232 0.628356 19.6934 0 18.5694 0H13V6.66551ZM9.57175 9L0 9V21C0 22.6569 1.34315 24 3 24H12.2527C9.13823 22.4407 7 19.2201 7 15.5C7 12.9856 7.97685 10.6993 9.57175 9ZM11 0V7H0L2.76276 1.62796C3.27684 0.628358 4.30658 0 5.43063 0H11ZM22.3615 20.1795C23.3869 18.8967 24 17.27 24 15.5C24 11.3579 20.6421 8 16.5 8C12.3579 8 9 11.3579 9 15.5C9 19.6421 12.3579 23 16.5 23C17.8517 23 19.1198 22.6424 20.215 22.0167L21.5877 23.5419C21.8501 23.8335 22.2239 24 22.6162 24C23.3804 24 23.9999 23.3805 23.9999 22.6163V22.5546C23.9999 22.1976 23.8677 21.8531 23.6289 21.5877L22.3615 20.1795ZM20.7473 24L21 24L21.0048 24H20.7473ZM16.5 20C18.9853 20 21 17.9853 21 15.5C21 13.0147 18.9853 11 16.5 11C14.0147 11 12 13.0147 12 15.5C12 17.9853 14.0147 20 16.5 20Z" fill="currentColor"/>
</svg>
