<svg width="24" height="24" viewBox="0 0 24 24" fill="none" xmlns="http://www.w3.org/2000/svg">
<path d="M13 7H24L21.2372 1.62796C20.7232 0.628356 19.6934 0 18.5694 0H13V7Z" fill="currentColor"/>
<path d="M11 7V0H5.43063C4.30658 0 3.27684 0.628358 2.76276 1.62796L0 7H11Z" fill="currentColor"/>
<path d="M0 9H24V12.2876C22.695 11.4716 21.1526 11 19.5 11C14.8056 11 11 14.8056 11 19.5C11 21.1526 11.4716 22.695 12.2876 24H3C1.34315 24 0 22.6569 0 21V9Z" fill="currentColor"/>
<path fill-rule="evenodd" clip-rule="evenodd" d="M18.5355 14C18.3124 14 18.0985 14.0886 17.9403 14.2466C17.7822 14.4045 17.6926 14.6189 17.6913 14.8429V15.3899C17.6913 15.4601 17.6364 15.5103 17.5614 15.5454C17.5351 15.5507 17.5079 15.5507 17.4815 15.5454C17.4622 15.5464 17.4429 15.5433 17.4249 15.5364C17.4068 15.5295 17.3904 15.5189 17.3766 15.5053L16.997 15.1189C16.9192 15.0403 16.8266 14.978 16.7245 14.9358C16.6224 14.8936 16.513 14.8722 16.4026 14.8731C16.293 14.8723 16.1843 14.8937 16.0831 14.936C15.9818 14.9782 15.8901 15.0404 15.8132 15.1189L15.1439 15.7913C15.0658 15.8692 15.0038 15.9618 14.9615 16.0638C14.9192 16.1659 14.8975 16.2753 14.8975 16.3859C14.8975 16.4964 14.9192 16.6058 14.9615 16.7079C15.0038 16.8099 15.0658 16.9025 15.1439 16.9804L15.5285 17.3668C15.5481 17.3975 15.5585 17.4332 15.5585 17.4696C15.5585 17.5061 15.5481 17.5418 15.5285 17.5725C15.5175 17.6034 15.4981 17.6306 15.4725 17.651C15.4469 17.6714 15.4161 17.6842 15.3836 17.6879H14.8392C14.6175 17.6879 14.4048 17.776 14.2475 17.933C14.0903 18.09 14.0013 18.3031 14 18.5258V19.4742C14 19.5849 14.0217 19.6945 14.0639 19.7967C14.1061 19.899 14.1679 19.9919 14.2458 20.0702C14.3237 20.1485 14.4162 20.2106 14.518 20.253C14.6198 20.2953 14.729 20.3171 14.8392 20.3171H15.3836C15.4535 20.3171 15.5035 20.3773 15.5335 20.4526C15.5513 20.4802 15.5608 20.5125 15.5608 20.5454C15.5608 20.5784 15.5513 20.6106 15.5335 20.6382L15.1489 21.0196C14.9916 21.1785 14.902 21.3926 14.8991 21.6167C14.8989 21.7279 14.9209 21.838 14.9638 21.9406C15.0067 22.0431 15.0696 22.136 15.1489 22.2137L15.8182 22.8861C15.8949 22.9648 15.9866 23.0272 16.0879 23.0695C16.1892 23.1117 16.2979 23.133 16.4076 23.132C16.518 23.1328 16.6274 23.1115 16.7295 23.0693C16.8315 23.027 16.9242 22.9648 17.002 22.8861L17.3866 22.4998C17.4148 22.4766 17.4501 22.4642 17.4865 22.4646C17.5211 22.4575 17.5568 22.4575 17.5914 22.4646C17.6219 22.4754 17.6486 22.4949 17.6681 22.5208C17.6877 22.5467 17.6992 22.5777 17.7013 22.6101V23.1571C17.7013 23.3806 17.7897 23.595 17.9471 23.7531C18.1045 23.9112 18.3179 24 18.5405 24H19.4845C19.7075 24 19.9215 23.9114 20.0797 23.7534C20.2378 23.5955 20.3273 23.3811 20.3287 23.1571V22.6101C20.3287 22.5399 20.3836 22.4897 20.4585 22.4546C20.4849 22.4493 20.5121 22.4493 20.5385 22.4546C20.5578 22.4536 20.577 22.4567 20.5951 22.4636C20.6131 22.4705 20.6296 22.4811 20.6434 22.4947L21.023 22.8811C21.1008 22.9598 21.1934 23.022 21.2955 23.0642C21.3976 23.1064 21.507 23.1278 21.6174 23.1269C21.727 23.1277 21.8357 23.1063 21.9369 23.064C22.0381 23.0218 22.1299 22.9596 22.2068 22.8811L22.8761 22.2087C22.9542 22.1308 23.0162 22.0382 23.0585 21.9362C23.1007 21.8341 23.1225 21.7247 23.1225 21.6141C23.1225 21.5036 23.1007 21.3942 23.0585 21.2921C23.0162 21.1901 22.9542 21.0975 22.8761 21.0196L22.4915 20.6332C22.4737 20.6056 22.4642 20.5733 22.4642 20.5404C22.4642 20.5075 22.4737 20.4752 22.4915 20.4476C22.5025 20.4167 22.5219 20.3895 22.5475 20.3691C22.5731 20.3487 22.6039 20.3359 22.6364 20.3322H23.1808C23.3948 20.3272 23.5988 20.2402 23.7511 20.0891C23.9034 19.938 23.9924 19.7342 24 19.5193V18.571C24 18.3474 23.9116 18.133 23.7542 17.9749C23.5968 17.8169 23.3834 17.728 23.1608 17.728H22.6164C22.5465 17.728 22.4965 17.6678 22.4665 17.5926C22.4487 17.5649 22.4392 17.5327 22.4392 17.4998C22.4392 17.4668 22.4487 17.4346 22.4665 17.4069L22.8511 17.0206C22.9304 16.9434 22.9935 16.851 23.0366 16.7488C23.0796 16.6467 23.1018 16.5369 23.1018 16.426C23.1018 16.3151 23.0796 16.2053 23.0366 16.1031C22.9935 16.001 22.9304 15.9086 22.8511 15.8314L22.1818 15.1591C22.1051 15.0803 22.0134 15.0179 21.9121 14.9757C21.8108 14.9334 21.7021 14.9122 21.5924 14.9132C21.482 14.9124 21.3726 14.9337 21.2705 14.9759C21.1685 15.0181 21.0758 15.0804 20.998 15.1591L20.6134 15.5454C20.5857 15.57 20.5504 15.5842 20.5135 15.5856C20.4772 15.5844 20.4415 15.5758 20.4086 15.5605C20.3781 15.5497 20.3514 15.5302 20.3319 15.5043C20.3123 15.4784 20.3008 15.4474 20.2987 15.415V14.868C20.3055 14.6478 20.2262 14.4336 20.0778 14.2714C19.9294 14.1091 19.7236 14.0117 19.5045 14H18.5355ZM18.9998 20.6666C19.9202 20.6666 20.6664 19.9204 20.6664 19C20.6664 18.0795 19.9202 17.3333 18.9998 17.3333C18.0793 17.3333 17.3331 18.0795 17.3331 19C17.3331 19.9204 18.0793 20.6666 18.9998 20.6666Z" fill="currentColor"/>
</svg>
