<svg width="24" height="24" viewBox="0 0 24 24" fill="none" xmlns="http://www.w3.org/2000/svg">
<path fill-rule="evenodd" clip-rule="evenodd" d="M22 0H2V22C2 23.1046 2.89543 24 4 24H20C21.1046 24 22 23.1046 22 22V0ZM5.99998 5.75C5.99998 5.05964 6.55962 4.5 7.24998 4.5H16.75C17.4403 4.5 18 5.05964 18 5.75C18 6.44036 17.4403 7 16.75 7H7.24998C6.55962 7 5.99998 6.44036 5.99998 5.75ZM5.99998 11.75C5.99998 11.0596 6.55962 10.5 7.24998 10.5H16.75C17.4403 10.5 18 11.0596 18 11.75C18 12.4404 17.4403 13 16.75 13H7.24998C6.55962 13 5.99998 12.4404 5.99998 11.75ZM7.24998 16.5C6.55962 16.5 5.99998 17.0596 5.99998 17.75C5.99998 18.4404 6.55962 19 7.24998 19H12.75C13.4403 19 14 18.4404 14 17.75C14 17.0596 13.4403 16.5 12.75 16.5H7.24998ZM15.5 17.75C15.5 17.0596 16.0596 16.5 16.75 16.5C17.4403 16.5 18 17.0596 18 17.75C18 18.4404 17.4403 19 16.75 19C16.0596 19 15.5 18.4404 15.5 17.75Z" fill="currentColor"/>
</svg>
