<svg width="24" height="24" viewBox="0 0 24 24" fill="none" xmlns="http://www.w3.org/2000/svg">
<path d="M0 13.6154L2.46786 14.6453L7.94119 12.0832L5.80645 11.1923L0 13.6154Z" fill="currentColor"/>
<path d="M3.46726 15.0623L8.94058 12.5002L11.6129 13.6154L5.80645 16.0385L3.46726 15.0623Z" fill="currentColor"/>
<path d="M2.32258 15.5769L0 14.625V20.2789L5.41935 22.5V16.8462L3.09677 15.8942V17.5661L2.32258 17.25V15.5769Z" fill="currentColor"/>
<path d="M11.6129 14.625V20.2789L6.19355 22.5V16.8462L11.6129 14.625Z" fill="currentColor"/>
<path d="M12.3867 13.6152L14.8546 14.6451L20.3279 12.083L18.1932 11.1921L12.3867 13.6152Z" fill="currentColor"/>
<path d="M15.854 15.0621L21.3273 12.5L23.9996 13.6152L18.1932 16.0383L15.854 15.0621Z" fill="currentColor"/>
<path d="M14.7093 15.5768L12.3867 14.6248V20.2787L17.8061 22.4998V16.846L15.4835 15.8941V17.5659L14.7093 17.2498V15.5768Z" fill="currentColor"/>
<path d="M23.9996 14.6248V20.2787L18.5803 22.4998V16.846L23.9996 14.6248Z" fill="currentColor"/>
<path d="M6.19336 3.92308L8.66122 4.95293L14.1345 2.39084L11.9998 1.5L6.19336 3.92308Z" fill="currentColor"/>
<path d="M9.66062 5.36999L15.1339 2.8079L17.8063 3.92308L11.9998 6.34615L9.66062 5.36999Z" fill="currentColor"/>
<path d="M8.51594 5.88462L6.19336 4.93269V10.5865L11.6127 12.8077V7.15385L9.29013 6.20192V7.87375L8.51594 7.55769V5.88462Z" fill="currentColor"/>
<path d="M17.8063 4.93269V10.5865L12.3869 12.8077V7.15385L17.8063 4.93269Z" fill="currentColor"/>
</svg>
