<svg width="24" height="24" viewBox="0 0 24 24" fill="none" xmlns="http://www.w3.org/2000/svg">
<path fill-rule="evenodd" clip-rule="evenodd" d="M11 0V7H0L2.76276 1.62796C3.27684 0.628358 4.30658 0 5.43063 0H11ZM24 7H13V0H18.5694C19.6934 0 20.7232 0.628356 21.2372 1.62796L24 7ZM12.8728 9H0V21C0 22.6569 1.34315 24 3 24H11.3427C9.30367 22.35 8 19.8273 8 17C8 13.5171 9.97844 10.4962 12.8728 9ZM17 24C20.866 24 24 20.866 24 17C24 13.134 20.866 10 17 10C13.134 10 10 13.134 10 17C10 20.866 13.134 24 17 24ZM16.7071 15.7071C17.0976 15.3166 17.0976 14.6834 16.7071 14.2929C16.3166 13.9024 15.6834 13.9024 15.2929 14.2929L13.2929 16.2929C12.9024 16.6834 12.9024 17.3166 13.2929 17.7071L15.2929 19.7071C15.6834 20.0976 16.3166 20.0976 16.7071 19.7071C17.0976 19.3166 17.0976 18.6834 16.7071 18.2929L16.4142 18H20C20.5523 18 21 17.5523 21 17C21 16.4477 20.5523 16 20 16H16.4142L16.7071 15.7071Z" fill="currentColor"/>
</svg>
