<svg width="24" height="24" viewBox="0 0 24 24" fill="none" xmlns="http://www.w3.org/2000/svg">
<path fill-rule="evenodd" clip-rule="evenodd" d="M0 0H19.2V6.44832C18.2515 6.15687 17.2441 6 16.2 6C12.6779 6 9.57279 7.78514 7.74003 10.5H5.2499C4.55955 10.5 3.9999 11.0596 3.9999 11.75C3.9999 12.4404 4.55955 13 5.2499 13H6.51205C6.1798 14.0064 6 15.0822 6 16.2C6 16.3003 6.00145 16.4003 6.00433 16.5H5.24996C4.55963 16.5 4 17.0596 3.99996 17.7499C3.99993 18.4403 4.55958 19 5.24996 19H6.38911C6.95236 20.9773 8.09724 22.7096 9.62698 24H3C1.34314 24 0 22.6569 0 21V0ZM3.99996 5.74994C4 5.0596 4.55963 4.5 5.24996 4.5H8.74996C9.44034 4.5 10 5.05968 9.99996 5.75006C9.99993 6.44039 9.4403 7 8.74996 7H5.24996C4.55958 7 3.99993 6.44032 3.99996 5.74994Z" fill="currentColor"/>
<path d="M16 8C11.6 8 8 11.6 8 16C8 20.4 11.6 24 16 24C20.4 24 24 20.4 24 16C24 11.6 20.4 8 16 8ZM18.4 16.8H16C15.52 16.8 15.2 16.48 15.2 16V12C15.2 11.52 15.52 11.2 16 11.2C16.48 11.2 16.8 11.52 16.8 12V15.2H18.4C18.88 15.2 19.2 15.52 19.2 16C19.2 16.48 18.88 16.8 18.4 16.8Z" fill="currentColor"/>
</svg>
