<svg width="24" height="24" viewBox="0 0 24 24" fill="none" xmlns="http://www.w3.org/2000/svg">
<path fill-rule="evenodd" clip-rule="evenodd" d="M19.2 0H0V22C0 23.1046 0.89543 24 2 24H9.62698C8.09724 22.7096 6.95236 20.9773 6.38911 19H5.24996C4.55958 19 3.99993 18.4403 3.99996 17.7499C4 17.0596 4.55963 16.5 5.24996 16.5H6.00433C6.00145 16.4003 6 16.3003 6 16.2C6 15.0822 6.1798 14.0064 6.51205 13H5.2499C4.55955 13 3.9999 12.4404 3.9999 11.75C3.9999 11.0596 4.55955 10.5 5.2499 10.5H7.74003C9.57279 7.78514 12.6779 6 16.2 6C17.2441 6 18.2515 6.15687 19.2 6.44832V0ZM5.24996 4.5C4.55963 4.5 4 5.0596 3.99996 5.74994C3.99993 6.44032 4.55958 7 5.24996 7H8.74996C9.4403 7 9.99993 6.44039 9.99996 5.75006C10 5.05968 9.44034 4.5 8.74996 4.5H5.24996ZM24.0001 16C24.0001 20.4183 20.4184 24 16.0001 24C11.5818 24 8.00008 20.4183 8.00008 16C8.00008 11.5817 11.5818 8.00001 16.0001 8.00001C20.4184 8.00001 24.0001 11.5817 24.0001 16ZM15.9854 18.983C15.992 18.9768 15.9984 18.9705 16.0049 18.9641L20.0284 14.9502C20.4646 14.515 20.4646 13.8082 20.0284 13.373C19.5936 12.9392 18.8897 12.9392 18.4549 13.373L15.2983 16.522L13.719 14.9464C13.2842 14.5127 12.5803 14.5127 12.1455 14.9464C11.7093 15.3817 11.7093 16.0884 12.1455 16.5237L14.6435 19.0157C15.0053 19.3766 15.5909 19.3766 15.9526 19.0157L15.9854 18.983Z" fill="currentColor"/>
</svg>
