<svg width="24" height="24" viewBox="0 0 24 24" fill="none" xmlns="http://www.w3.org/2000/svg">
<path fill-rule="evenodd" clip-rule="evenodd" d="M13 7H24L21.2372 1.62796C20.7232 0.628356 19.6934 0 18.5694 0H13V7ZM11 7V0H5.43063C4.30658 0 3.27684 0.628358 2.76276 1.62796L0 7H11ZM12.8728 9H0V21C0 22.6569 1.34315 24 3 24H11.3427C9.30367 22.35 8 19.8273 8 17C8 13.5171 9.97844 10.4962 12.8728 9Z" fill="currentColor"/>
<path fill-rule="evenodd" clip-rule="evenodd" d="M17 24C20.866 24 24 20.866 24 17C24 13.134 20.866 10 17 10C13.134 10 10 13.134 10 17C10 20.866 13.134 24 17 24ZM15.4143 13.8284C14.9764 13.3905 14.2664 13.3905 13.8285 13.8284C13.3906 14.2663 13.3906 14.9763 13.8285 15.4142L15.4142 16.9999L13.8284 18.5858C13.3905 19.0237 13.3905 19.7337 13.8284 20.1716C14.2663 20.6095 14.9763 20.6095 15.4142 20.1716L17 18.5857L18.5858 20.1716C19.0237 20.6095 19.7337 20.6095 20.1716 20.1716C20.6095 19.7337 20.6095 19.0237 20.1716 18.5858L18.5858 16.9999L20.1715 15.4142C20.6094 14.9763 20.6094 14.2663 20.1715 13.8284C19.7336 13.3905 19.0236 13.3905 18.5857 13.8284L17 15.4142L15.4143 13.8284Z" fill="currentColor"/>
</svg>
