<svg width="24" height="24" viewBox="0 0 24 24" fill="none" xmlns="http://www.w3.org/2000/svg">
<path d="M0 2.4C0 1.07452 1.07452 0 2.4 0H8.4C9.72548 0 10.8 1.07452 10.8 2.4V8.4C10.8 9.72548 9.72548 10.8 8.4 10.8H2.4C1.07452 10.8 0 9.72548 0 8.4V2.4Z" fill="currentColor" />
<path d="M0 15.6C0 14.2745 1.07452 13.2 2.4 13.2H8.4C9.72548 13.2 10.8 14.2745 10.8 15.6V21.6C10.8 22.9255 9.72548 24 8.4 24H2.4C1.07452 24 0 22.9255 0 21.6V15.6Z" fill="currentColor" />
<path d="M15.6 0C14.2745 0 13.2 1.07452 13.2 2.4V8.4C13.2 9.72548 14.2745 10.8 15.6 10.8H21.6C22.9255 10.8 24 9.72548 24 8.4V2.4C24 1.07452 22.9255 0 21.6 0H15.6Z" fill="currentColor" />
<path fill-rule="evenodd" clip-rule="evenodd" d="M15.6 13.2C14.2745 13.2 13.2 14.2745 13.2 15.6V21.6C13.2 22.9255 14.2745 24 15.6 24H21.6C22.9255 24 24 22.9255 24 21.6V15.6C24 14.2745 22.9255 13.2 21.6 13.2H15.6ZM21.521 17.4709C21.7921 17.1998 21.7921 16.7602 21.521 16.489C21.2498 16.2179 20.8102 16.2179 20.5391 16.489L17.79 19.2381L16.661 18.109C16.3898 17.8379 15.9502 17.8379 15.6791 18.109C15.408 18.3802 15.408 18.8198 15.6791 19.0909L17.2991 20.7109C17.5702 20.982 18.0098 20.982 18.281 20.7109L21.521 17.4709Z" fill="currentColor" />
</svg>
