<svg width="24" height="24" viewBox="0 0 24 24" fill="none" xmlns="http://www.w3.org/2000/svg">
<path d="M21.5178 14.7763C20.4614 14.6402 19.4243 14.3822 18.4273 14.0076C17.9119 13.8166 17.3525 13.7766 16.8151 13.8925C16.2778 14.0084 15.7847 14.2752 15.3941 14.6615L14.2452 15.8088C11.7502 14.3158 9.66257 12.2313 8.16738 9.73996L9.3163 8.59273C9.69909 8.20253 9.96281 7.71163 10.0767 7.17739C10.1907 6.64315 10.1502 6.08758 9.95977 5.57551C9.58231 4.5728 9.32391 3.52932 9.18994 2.4665C9.08333 1.78138 8.73564 1.15671 8.20918 0.704624C7.68272 0.252537 7.012 0.00269789 6.31764 0H2.87088C2.47239 0.00335186 2.07883 0.0888141 1.71494 0.251026C1.35105 0.413238 1.02474 0.648701 0.756199 0.942696C0.487654 1.23669 0.282766 1.58284 0.15439 1.95955C0.0260148 2.33625 -0.0231486 2.73538 0.0100741 3.13191C0.405373 6.76638 1.64463 10.2586 3.6292 13.3308C5.43765 16.1717 7.85 18.5805 10.6951 20.3863C13.756 22.3658 17.2379 23.6033 20.863 24H21.1272C21.5054 24 21.8798 23.9255 22.229 23.7806C22.5783 23.6358 22.8955 23.4234 23.1624 23.1559C23.4293 22.8884 23.6406 22.5708 23.7843 22.2215C23.9279 21.8722 24.0011 21.4981 23.9995 21.1204V17.6788C24.012 16.9759 23.7665 16.2927 23.3094 15.7581C22.8522 15.2234 22.215 14.8742 21.5178 14.7763Z" fill="currentColor"/>
<path fill-rule="evenodd" clip-rule="evenodd" d="M16.7284 0.295909C16.9182 0.106379 17.1749 -4.70605e-06 17.4426 1.56129e-10H18.6054C18.8683 0.0140377 19.1152 0.130925 19.2934 0.325621C19.4715 0.520317 19.5666 0.777346 19.5584 1.04165V1.69795C19.561 1.73684 19.5748 1.77412 19.5982 1.80517C19.6217 1.83621 19.6537 1.85964 19.6903 1.87255C19.7298 1.89099 19.7726 1.90124 19.8162 1.90266C19.8605 1.901 19.9028 1.88397 19.9361 1.85448L20.3976 1.39087C20.491 1.29647 20.6021 1.22175 20.7246 1.17109C20.8471 1.12042 20.9784 1.09485 21.1109 1.09584C21.2425 1.09463 21.373 1.12013 21.4945 1.17083C21.6161 1.22153 21.7261 1.29637 21.8182 1.39087L22.6214 2.19769C22.7165 2.29031 22.7922 2.4012 22.8439 2.52377C22.8956 2.64634 22.9222 2.77808 22.9222 2.91119C22.9222 3.04429 22.8956 3.17605 22.8439 3.29862C22.7922 3.42119 22.7165 3.53206 22.6214 3.62468L22.1598 4.08832C22.1384 4.12148 22.127 4.16017 22.127 4.1997C22.127 4.23924 22.1384 4.27792 22.1598 4.31109C22.1958 4.40141 22.2557 4.47366 22.3397 4.47366H22.993C23.2601 4.47366 23.5162 4.58023 23.7051 4.76993C23.8939 4.95963 24 5.21691 24 5.48519V6.62318C23.9909 6.88104 23.884 7.12565 23.7013 7.30697C23.5186 7.48829 23.2738 7.59261 23.017 7.5986H22.3636C22.3247 7.60305 22.2877 7.6184 22.257 7.64288C22.2263 7.66736 22.203 7.69999 22.1898 7.73709C22.1684 7.77026 22.157 7.80894 22.157 7.84847C22.157 7.88801 22.1684 7.92669 22.1898 7.95986L22.6513 8.42348C22.745 8.51694 22.8194 8.6281 22.8702 8.75055C22.9209 8.87301 22.947 9.00434 22.947 9.13698C22.947 9.26962 22.9209 9.40094 22.8702 9.5234C22.8194 9.64585 22.745 9.75701 22.6513 9.85047L21.8482 10.6573C21.7559 10.7515 21.6458 10.8262 21.5243 10.8769C21.4028 10.9275 21.2724 10.9532 21.1409 10.9523C21.0084 10.9533 20.8771 10.9277 20.7546 10.8771C20.6321 10.8264 20.5209 10.7517 20.4276 10.6573L19.972 10.1937C19.9555 10.1774 19.9358 10.1646 19.9141 10.1564C19.8925 10.1481 19.8693 10.1444 19.8462 10.1455C19.8145 10.1392 19.7819 10.1392 19.7503 10.1455C19.6603 10.1877 19.5944 10.2479 19.5944 10.3322V10.9885C19.5928 11.2573 19.4854 11.5146 19.2956 11.7041C19.1058 11.8936 18.849 12 18.5814 12H17.4486C17.1815 12 16.9254 11.8934 16.7365 11.7037C16.5477 11.514 16.4416 11.2567 16.4416 10.9885V10.3322C16.439 10.2933 16.4252 10.256 16.4018 10.225C16.3783 10.1939 16.3463 10.1705 16.3097 10.1576C16.2682 10.149 16.2253 10.149 16.1838 10.1576C16.1402 10.157 16.0977 10.1719 16.0639 10.1997L15.6024 10.6633C15.509 10.7577 15.3979 10.8324 15.2754 10.8831C15.1529 10.9338 15.0216 10.9594 14.8891 10.9584C14.7575 10.9596 14.627 10.9341 14.5055 10.8834C14.3839 10.8327 14.2739 10.7578 14.1818 10.6633L13.3786 9.8565C13.2836 9.76322 13.2081 9.65177 13.1566 9.52871C13.1051 9.40565 13.0787 9.27347 13.0789 9.13999C13.0824 8.87113 13.1899 8.61418 13.3786 8.42348L13.8402 7.96589C13.8616 7.93272 13.873 7.89404 13.873 7.8545C13.873 7.81497 13.8616 7.77626 13.8402 7.7431C13.8042 7.65278 13.7443 7.58053 13.6603 7.58053H13.007C12.8748 7.58053 12.7438 7.55438 12.6216 7.50354C12.4995 7.45271 12.3885 7.37819 12.2949 7.28426C12.2014 7.19033 12.1273 7.07883 12.0767 6.9561C12.026 6.83337 12 6.70183 12 6.569V5.431C12.0016 5.16377 12.1084 4.90804 12.2971 4.71964C12.4857 4.53124 12.741 4.42549 13.007 4.42549H13.6603C13.6993 4.42104 13.7362 4.40569 13.767 4.38121C13.7977 4.35673 13.821 4.3241 13.8342 4.287C13.8577 4.25016 13.8702 4.20733 13.8702 4.16358C13.8702 4.11983 13.8577 4.07698 13.8342 4.04014L13.3726 3.57652C13.2789 3.48306 13.2046 3.3719 13.1538 3.24945C13.1031 3.12699 13.077 2.99566 13.077 2.86302C13.077 2.73038 13.1031 2.59906 13.1538 2.4766C13.2046 2.35415 13.2789 2.24299 13.3726 2.14953L14.1758 1.34271C14.2681 1.24849 14.3782 1.17382 14.4997 1.12315C14.6212 1.07247 14.7516 1.0468 14.8831 1.04766C15.0156 1.04667 15.1469 1.07226 15.2694 1.12292C15.3919 1.17359 15.503 1.24831 15.5964 1.34271L16.052 1.80632C16.0685 1.82265 16.0882 1.83535 16.1099 1.84364C16.1315 1.85193 16.1547 1.85562 16.1778 1.85448C16.2095 1.86081 16.2421 1.86081 16.2737 1.85448C16.3636 1.81234 16.4296 1.75213 16.4296 1.66783V1.01154C16.4312 0.742707 16.5386 0.485438 16.7284 0.295909ZM19.9997 5.99995C19.9997 7.10452 19.1043 7.99995 17.9997 7.99995C16.8951 7.99995 15.9997 7.10452 15.9997 5.99995C15.9997 4.89538 16.8951 3.99995 17.9997 3.99995C19.1043 3.99995 19.9997 4.89538 19.9997 5.99995Z" fill="currentColor"/>
</svg>
