<svg width="24" height="24" viewBox="0 0 24 24" fill="none" xmlns="http://www.w3.org/2000/svg">
<path d="M21.5178 14.7763C20.4614 14.6402 19.4243 14.3822 18.4273 14.0076C17.9119 13.8166 17.3525 13.7766 16.8151 13.8925C16.2778 14.0084 15.7847 14.2752 15.3941 14.6615L14.2452 15.8088C11.7502 14.3158 9.66257 12.2313 8.16738 9.73996L9.3163 8.59273C9.69909 8.20253 9.96281 7.71163 10.0767 7.17739C10.1907 6.64315 10.1502 6.08758 9.95977 5.57551C9.58231 4.5728 9.32391 3.52932 9.18994 2.4665C9.08333 1.78138 8.73564 1.15671 8.20918 0.704624C7.68272 0.252537 7.012 0.00269789 6.31764 0H2.87088C2.47239 0.00335186 2.07883 0.0888141 1.71494 0.251026C1.35105 0.413238 1.02474 0.648701 0.756199 0.942696C0.487654 1.23669 0.282766 1.58284 0.15439 1.95955C0.0260148 2.33625 -0.0231486 2.73538 0.0100741 3.13191C0.405373 6.76638 1.64463 10.2586 3.6292 13.3308C5.43765 16.1717 7.85 18.5805 10.6951 20.3863C13.756 22.3658 17.2379 23.6033 20.863 24H21.1272C21.5054 24 21.8798 23.9255 22.229 23.7806C22.5783 23.6358 22.8955 23.4234 23.1624 23.1559C23.4293 22.8884 23.6406 22.5708 23.7843 22.2215C23.9279 21.8722 24.0011 21.4981 23.9995 21.1204V17.6788C24.012 16.9759 23.7665 16.2927 23.3094 15.7581C22.8522 15.2234 22.215 14.8742 21.5178 14.7763Z" fill="currentColor"/>
</svg>
