<svg width="24" height="24" viewBox="0 0 24 24" fill="none" xmlns="http://www.w3.org/2000/svg">
<path fill-rule="evenodd" clip-rule="evenodd" d="M3.84182 0.399554C3.49649 -0.0478985 2.85177 -0.132255 2.4018 0.211139C1.95183 0.554533 1.867 1.19564 2.21233 1.64309L4.03134 4.00005H4C1.79086 4.00005 0 5.79091 0 8.00005V17C0 19.2092 1.79086 21 4 21H17.1513L19.1582 23.6004C19.5035 24.0479 20.1482 24.1323 20.5982 23.7889C21.0482 23.4455 21.133 22.8044 20.7877 22.3569L3.84182 0.399554ZM13.8051 16.6643L7.94615 9.07261C7.35087 9.89549 7 10.9068 7 12.0001C7 14.7615 9.23858 17 12 17C12.6365 17 13.2452 16.8811 13.8051 16.6643Z" fill="currentColor"/>
<path fill-rule="evenodd" clip-rule="evenodd" d="M7.19626 2.20566L10.9276 7.11532C11.2731 7.03983 11.6319 7.00005 12 7.00005C14.7614 7.00005 17 9.23863 17 12.0001C17 12.8459 16.79 13.6427 16.4192 14.3411L21.3126 20.7797C22.877 20.2365 24 18.7494 24 17V8.00005C24 5.79091 22.2091 4.00005 20 4.00005H18L16.5937 1.89065C16.2228 1.33425 15.5983 1.00005 14.9296 1.00005H9.07037C8.40166 1.00005 7.7772 1.33425 7.40627 1.89065L7.19626 2.20566ZM21 8.00005C21 8.55234 20.5523 9.00005 20 9.00005C19.4477 9.00005 19 8.55234 19 8.00005C19 7.44777 19.4477 7.00005 20 7.00005C20.5523 7.00005 21 7.44777 21 8.00005Z" fill="currentColor"/>
</svg>
