<svg width="24" height="24" viewBox="0 0 24 24" fill="none" xmlns="http://www.w3.org/2000/svg">
<path fill-rule="evenodd" clip-rule="evenodd" d="M2.4018 0.211139C2.85177 -0.132255 3.49649 -0.0478985 3.84182 0.399554L20.7877 22.3569C21.133 22.8044 21.0482 23.4455 20.5982 23.7889C20.1482 24.1323 19.5035 24.0479 19.1582 23.6004L17.1513 21H4C1.79086 21 0 19.2092 0 17V8.00005C0 5.79091 1.79086 4.00005 4 4.00005H4.03134L2.21233 1.64309C1.867 1.19564 1.95183 0.554533 2.4018 0.211139ZM12.4896 14.9597L13.8051 16.6643C13.2452 16.8811 12.6365 17 12 17C9.23858 17 7 14.7615 7 12.0001C7 10.9068 7.35087 9.89549 7.94615 9.07261L9.26084 10.7761C9.13801 11.051 9.05705 11.3432 9.02112 11.6432C8.97426 12.0344 9.00491 12.4309 9.11132 12.8103C9.21772 13.1896 9.3978 13.5442 9.64127 13.854C9.88473 14.1637 10.1868 14.4224 10.5303 14.6154C10.8737 14.8084 11.2519 14.9319 11.643 14.9787C11.9252 15.0125 12.2103 15.006 12.4896 14.9597ZM10.9276 7.11532L7.19626 2.20566L7.40627 1.89065C7.7772 1.33425 8.40166 1.00005 9.07037 1.00005H14.9296C15.5983 1.00005 16.2228 1.33425 16.5937 1.89065L18 4.00005H20C22.2091 4.00005 24 5.79091 24 8.00005V17C24 18.7494 22.877 20.2365 21.3126 20.7797L16.4192 14.3411C16.79 13.6427 17 12.8459 17 12.0001C17 9.23863 14.7614 7.00005 12 7.00005C11.6319 7.00005 11.2731 7.03983 10.9276 7.11532ZM20 9.00005C20.5523 9.00005 21 8.55234 21 8.00005C21 7.44777 20.5523 7.00005 20 7.00005C19.4477 7.00005 19 7.44777 19 8.00005C19 8.55234 19.4477 9.00005 20 9.00005Z" fill="currentColor"/>
</svg>
