<svg width="24" height="24" viewBox="0 0 24 24" fill="none" xmlns="http://www.w3.org/2000/svg">
<path fill-rule="evenodd" clip-rule="evenodd" d="M2 3C2 1.34315 3.34315 0 5 0H19C20.6569 0 22 1.34315 22 3V21C22 22.6569 20.6569 24 19 24H5C3.34315 24 2 22.6569 2 21V3ZM12.4298 3.47691C12.4298 3.2001 12.6551 2.97283 12.9303 3.00263C15.0679 3.23418 16.7658 4.93197 16.9974 7.06958C17.0272 7.34479 16.7999 7.57001 16.5231 7.57001H12.8475C12.6168 7.57001 12.4298 7.38301 12.4298 7.15234V3.47691ZM11.0737 3.44944C11.3558 3.4061 11.5945 3.63639 11.5945 3.92175V7.57036C11.5945 8.0317 11.9685 8.40569 12.4298 8.40569H16.0786C16.364 8.40569 16.5942 8.64438 16.5509 8.92643C16.4447 9.61713 16.1886 10.2794 15.7971 10.8653C15.2693 11.6552 14.5192 12.2708 13.6415 12.6344C12.7638 12.9979 11.798 13.093 10.8662 12.9077C9.93448 12.7224 9.07862 12.2649 8.40686 11.5932C7.7351 10.9215 7.27763 10.0656 7.0923 9.1339C6.90696 8.20218 7.00208 7.23643 7.36563 6.35877C7.72918 5.48111 8.34484 4.73097 9.13474 4.20319C9.72069 3.81168 10.383 3.55559 11.0737 3.44944ZM6 16C6 15.4477 6.44772 15 7 15H17C17.5523 15 18 15.4477 18 16C18 16.5523 17.5523 17 17 17H7C6.44771 17 6 16.5523 6 16ZM6 20C6 19.4477 6.44772 19 7 19H12C12.5523 19 13 19.4477 13 20C13 20.5523 12.5523 21 12 21H7C6.44772 21 6 20.5523 6 20Z" fill="currentColor"/>
</svg>
