<svg width="24" height="24" viewBox="0 0 24 24" fill="none" xmlns="http://www.w3.org/2000/svg">
<path d="M13.0316 1.14459C13.0316 0.480236 13.5721 -0.0652185 14.2326 0.00632196C19.3631 0.562024 23.4379 4.63673 23.9937 9.767C24.0652 10.4275 23.5198 10.968 22.8554 10.968H14.034C13.4804 10.968 13.0316 10.5192 13.0316 9.96562V1.14459Z" fill="currentColor"/>
<path d="M9.77697 1.07866C10.4539 0.974634 11.0267 1.52733 11.0267 2.2122V10.9689C11.0267 12.0761 11.9243 12.9737 13.0316 12.9737H21.7886C22.4735 12.9737 23.0262 13.5465 22.9222 14.2234C22.6674 15.8811 22.0527 17.4706 21.1131 18.8768C19.8464 20.7725 18.046 22.25 15.9395 23.1225C13.8331 23.995 11.5152 24.2233 9.27896 23.7785C7.04276 23.3337 4.98868 22.2358 3.37646 20.6237C1.76425 19.0115 0.66632 16.9575 0.221512 14.7214C-0.223297 12.4852 0.00499487 10.1674 0.877518 8.06106C1.75004 5.95467 3.22761 4.15432 5.12337 2.88766C6.52965 1.94804 8.1192 1.33341 9.77697 1.07866Z" fill="currentColor"/>
</svg>
