<svg width="24" height="24" viewBox="0 0 24 24" fill="none" xmlns="http://www.w3.org/2000/svg">
<path fill-rule="evenodd" clip-rule="evenodd" d="M14.0292 22.7354C15.1183 21.8682 16.207 20.8883 17.226 19.8127C20.1976 16.676 22 13.3716 22 10C22 4.47715 17.5228 0 12 0C6.47715 0 2 4.47715 2 10C2 13.3716 3.8024 16.676 6.77405 19.8127C7.793 20.8883 8.88175 21.8682 9.97082 22.7354C10.3526 23.0394 10.7078 23.3081 11.0278 23.5392C11.2228 23.68 11.3649 23.7784 11.4453 23.8321C11.7812 24.056 12.2188 24.056 12.5547 23.8321C12.6351 23.7784 12.7772 23.68 12.9722 23.5392C13.2922 23.3081 13.6474 23.0394 14.0292 22.7354ZM12 14C14.2091 14 16 12.2091 16 10C16 7.79086 14.2091 6 12 6C9.79086 6 8 7.79086 8 10C8 12.2091 9.79086 14 12 14Z" fill="currentColor"/>
</svg>
