<svg width="24" height="24" viewBox="0 0 24 24" fill="none" xmlns="http://www.w3.org/2000/svg">
<path fill-rule="evenodd" clip-rule="evenodd" d="M12 0C5.37258 0 0 5.37258 0 12C0 18.6274 5.37258 24 12 24C18.6274 24 24 18.6274 24 12C24 5.37258 18.6274 0 12 0ZM8 16C8 16.369 8.22838 16.708 8.594 16.882C8.7605 16.961 8.94275 17 9.125 17C9.34325 17 9.5615 16.944 9.74938 16.832L16.4994 12.8319C16.8121 12.6469 17 12.3349 17 11.9999C17 11.6659 16.8121 11.3539 16.4994 11.1678L9.74938 7.16774C9.40512 6.96273 8.95963 6.94473 8.594 7.11874C8.22837 7.29274 8 7.63175 8 7.99976V16Z" fill="currentColor"/>
</svg>
