<svg width="24" height="24" viewBox="0 0 24 24" fill="none" xmlns="http://www.w3.org/2000/svg">
<path fill-rule="evenodd" clip-rule="evenodd" d="M11 22C17.0751 22 22 17.0751 22 11C22 4.92487 17.0751 0 11 0C4.92487 0 0 4.92487 0 11C0 17.0751 4.92487 22 11 22ZM11 6C7.73014 6 5.27158 7.83741 3.28402 10.221C2.90533 10.6752 2.90533 11.3248 3.28402 11.779C5.27158 14.1626 7.73014 16 11 16C14.2699 16 16.7284 14.1626 18.716 11.779C19.0947 11.3248 19.0947 10.6752 18.716 10.221C16.7284 7.83741 14.2699 6 11 6ZM8.5 11C8.5 9.61929 9.61929 8.5 11 8.5C12.3807 8.5 13.5 9.61929 13.5 11C13.5 12.3807 12.3807 13.5 11 13.5C9.61929 13.5 8.5 12.3807 8.5 11Z" fill="currentColor"/>
<path fill-rule="evenodd" clip-rule="evenodd" d="M18.0488 15.8872C17.5102 16.7677 16.7679 17.51 15.8875 18.0487L21.3192 23.5358C21.9124 24.135 22.897 24.1571 23.5185 23.5851C24.1399 23.0131 24.1628 22.0636 23.5696 21.4643L18.0488 15.8872Z" fill="currentColor"/>
</svg>
