<svg width="24" height="24" viewBox="0 0 24 24" fill="none" xmlns="http://www.w3.org/2000/svg">
<path d="M22.0655 11.484L23.3143 12.198C23.6301 12.3801 23.8599 12.6775 23.9537 13.0255C24.0475 13.3735 23.9977 13.7438 23.8151 14.0559L22.4451 16.4102C22.356 16.5644 22.2368 16.6997 22.0942 16.8083C21.9517 16.9169 21.7887 16.9966 21.6146 17.0429C21.4405 17.0891 21.2588 17.101 21.0801 17.0777C20.9013 17.0545 20.729 16.9967 20.5731 16.9075L19.3088 16.1827C18.6222 16.762 17.8509 17.2456 16.9999 17.5811V16.5C16.9999 14.9688 16.6377 13.5222 15.9942 12.2413C16.6113 11.6918 17 10.8913 17 10C17 8.34315 15.6568 7 14 7C13.1087 7 12.3082 7.38867 11.7587 8.00577C10.4778 7.36227 9.03116 7 7.49995 7C6.39886 7 5.34152 7.18733 4.35807 7.53185C4.22755 7.37931 4.13132 7.19906 4.07837 7.00273C3.98462 6.65509 4.03412 6.28511 4.21611 5.97315L5.58527 3.61795C5.67425 3.46374 5.79343 3.3284 5.93593 3.21978C6.07843 3.11115 6.24142 3.03139 6.41546 2.98511C6.58951 2.93882 6.77115 2.92694 6.9499 2.95013C7.12864 2.97333 7.30093 3.03116 7.45681 3.12026L8.6757 3.81727C9.43316 3.17865 10.2942 2.65599 11.2511 2.31976V1.3594C11.2503 1.18162 11.2852 1.00544 11.3537 0.840908C11.4221 0.676378 11.5229 0.526725 11.6502 0.400492C11.7775 0.27426 11.9288 0.173921 12.0955 0.105205C12.2622 0.0364889 12.4411 0.000740667 12.6219 0H15.3622C15.7272 0.00149404 16.0767 0.1455 16.3338 0.40035C16.5908 0.6552 16.7344 1.00003 16.733 1.359V2.31936C17.6899 2.65558 18.5505 3.17824 19.308 3.81687L20.5453 3.10939C20.7012 3.02017 20.8735 2.96225 21.0523 2.93899C21.2311 2.91573 21.4128 2.92758 21.5869 2.97387C21.761 3.02016 21.9241 3.09997 22.0666 3.20866C22.2091 3.31735 22.3283 3.45277 22.4172 3.60708L23.7872 5.96066C23.9693 6.27265 24.0188 6.6427 23.9249 6.99038C23.8311 7.33805 23.6015 7.63525 23.2861 7.81735L22.0655 8.51598C22.2642 9.49568 22.2642 10.5043 22.0655 11.484Z" fill="currentColor"/>
<path fill-rule="evenodd" clip-rule="evenodd" d="M15.0001 16.5C15.0001 20.6421 11.6422 24 7.50005 24C3.35789 24 0 20.6421 0 16.5C0 12.3578 3.35789 8.99991 7.50005 8.99991C11.6422 8.99991 15.0001 12.3578 15.0001 16.5ZM6.51154 20.25C6.34579 20.25 6.16426 20.2396 5.96694 20.2189C5.76962 20.2051 5.59204 20.1809 5.43418 20.1464V16.9765L4.28579 17.3184V16.4171L5.43418 16.0753V15.433L4.28579 15.7748V14.8736L5.43418 14.5317V12.75H7.16269V14.0138L9.00958 13.4544V14.3556L7.16269 14.915V15.5573L9.00958 14.9979V15.8888L7.16269 16.4482V18.9862C7.65993 18.9102 8.04667 18.7652 8.32292 18.5511C8.60705 18.337 8.80437 18.0573 8.91487 17.712C9.03326 17.3667 9.09245 16.9696 9.09245 16.5207H10.7144C10.7144 16.9972 10.6434 17.4599 10.5013 17.9088C10.3592 18.3508 10.1264 18.7479 9.8028 19.1001C9.48709 19.4523 9.05694 19.732 8.51234 19.9392C7.97564 20.1464 7.3087 20.25 6.51154 20.25Z" fill="currentColor"/>
</svg>
