<svg width="24" height="24" viewBox="0 0 24 24" fill="none" xmlns="http://www.w3.org/2000/svg">
<path d="M10.5 12C13.8311 12 16.5 9.32993 16.5 6C16.5 2.67007 13.8311 0 10.5 0C7.17007 0 4.5 2.67007 4.5 6C4.5 9.32993 7.17007 12 10.5 12Z" fill="currentColor"/>
<path fill-rule="evenodd" clip-rule="evenodd" d="M11.3691 13.523C11.0821 13.5077 10.7922 13.5 10.5 13.5C4.83706 13.5 0 16.4339 0 21.0833C0 23.4167 5 24 10.5 24C11.2463 24 11.9834 24 12.7001 23.9927C11.044 22.527 10 20.3854 10 18C10 16.3414 10.5048 14.8006 11.3691 13.523Z" fill="currentColor"/>
<path fill-rule="evenodd" clip-rule="evenodd" d="M24 18C24 14.6863 21.3137 12 18 12C14.6863 12 12 14.6863 12 18C12 21.3137 14.6863 24 18 24C21.3137 24 24 21.3137 24 18ZM21.0303 17.0303C21.3232 16.7374 21.3232 16.2626 21.0303 15.9697C20.7374 15.6768 20.2626 15.6768 19.9697 15.9697L17 18.9393L16.0303 17.9697C15.7374 17.6768 15.2626 17.6768 14.9697 17.9697C14.6768 18.2626 14.6768 18.7374 14.9697 19.0303L16.4697 20.5303C16.7626 20.8232 17.2374 20.8232 17.5303 20.5303L21.0303 17.0303Z" fill="currentColor"/>
</svg>
