<svg width="24" height="24" viewBox="0 0 24 24" fill="none" xmlns="http://www.w3.org/2000/svg">
<path fill-rule="evenodd" clip-rule="evenodd" d="M0 3.00002C0 1.34317 1.34315 2.46763e-05 3 2.46763e-05L11 0V3.00002C11 3.62502 11.487 3.62502 11.75 3.62502C12.9926 3.62502 14 4.46449 14 5.50002C14 6.53556 12.9926 7.37503 11.75 7.37503C11.487 7.37503 11 7.37502 11 8.00002V11H8.96456C8.72194 9.30388 7.26324 8.00002 5.5 8.00002C3.73676 8.00002 2.27806 9.30388 2.03544 11H9.02116e-05L0 3.00002ZM5.50002 10C6.53556 10 7.37503 11.0074 7.37503 12.25C7.37503 12.513 7.37503 13 8.00003 13L11 13L11 15.0354C9.30388 15.2781 8.00003 16.7368 8.00003 18.5C8.00003 20.2632 9.30388 21.7219 11 21.9646V23.9999L3.00002 24C1.34317 24 2.48525e-05 22.6569 2.50697e-05 21L0 13H3.00003C3.62502 13 3.62502 12.513 3.62502 12.25C3.62502 11.0074 4.46449 10 5.50002 10ZM21 24C22.6569 24 24 22.6568 24 21L23.9999 13H21.9646C21.7219 14.6961 20.2632 16 18.5 16C16.7368 16 15.2781 14.6961 15.0354 13H13V16C13 16.625 12.513 16.625 12.25 16.625C11.0074 16.625 10 17.4644 10 18.5C10 19.5355 11.0074 20.375 12.25 20.375C12.513 20.375 13 20.375 13 21L13 24L21 24ZM24 3C24 1.34315 22.6568 0 21 0L13 8.97308e-05V2.03544C14.6961 2.27806 16 3.73676 16 5.5C16 7.26324 14.6961 8.72194 13 8.96455L13 11L16 11C16.625 11 16.625 11.487 16.625 11.75C16.625 12.9926 17.4644 14 18.5 14C19.5355 14 20.375 12.9926 20.375 11.75C20.375 11.487 20.375 11 21 11L24 11L24 3Z" fill="currentColor"/>
</svg>
