<svg width="24" height="24" viewBox="0 0 24 24" fill="none" xmlns="http://www.w3.org/2000/svg">
<path fill-rule="evenodd" clip-rule="evenodd" d="M24 0H16V8H10.6667V10.6667H5.33333V13.3333H8V16H0V24H8V16H10.6667V18.6667H13.3333V21.3333L10.6667 21.3333V24H13.3333L13.3333 21.3333L16 21.3333V24H24V21.3333L18.6667 21.3333V18.6667H13.3333V13.3333H16V16H21.3333V18.6667H24V13.3333L21.3333 13.3333V10.6667H18.6667V13.3333L16 13.3333V8H24V0ZM13.3333 13.3333H10.6667V10.6667H13.3333V13.3333ZM21.3333 2.66667H18.6667V5.33333H21.3333V2.66667ZM5.33333 18.6667H2.66667V21.3333H5.33333V18.6667Z" fill="currentColor"/>
<path fill-rule="evenodd" clip-rule="evenodd" d="M0 0H8V8H0V0ZM2.66667 2.66667H5.33333V5.33333H2.66667V2.66667Z" fill="currentColor"/>
<path d="M10.6667 0H13.3333V5.33333H10.6667V0Z" fill="currentColor"/>
<path d="M2.66667 10.6667H0V13.3333H2.66667V10.6667Z" fill="currentColor"/>
</svg>
