<svg width="24" height="24" viewBox="0 0 24 24" fill="none" xmlns="http://www.w3.org/2000/svg">
<path fill-rule="evenodd" clip-rule="evenodd" d="M12.6989 2.45452C12.413 1.84849 11.587 1.84849 11.3011 2.45452L9.43275 6.41518C9.31923 6.65583 9.09978 6.82263 8.84594 6.86122L4.66814 7.49635C4.02889 7.59353 3.77365 8.4154 4.23621 8.88713L7.25929 11.9701C7.44298 12.1574 7.5268 12.4273 7.48343 12.6918L6.76978 17.045C6.66058 17.7111 7.32884 18.219 7.9006 17.9045L11.6373 15.8492C11.8644 15.7243 12.1356 15.7243 12.3627 15.8492L16.0994 17.9045C16.6712 18.219 17.3394 17.7111 17.2302 17.045L16.5166 12.6918C16.4732 12.4273 16.557 12.1574 16.7407 11.9701L19.7638 8.88713C20.2264 8.4154 19.9711 7.59353 19.3319 7.49635L15.1541 6.86122C14.9002 6.82263 14.6808 6.65583 14.5672 6.41518L12.6989 2.45452ZM4.85384 11.6594L4.07456 13.3114C3.98942 13.4919 3.82484 13.617 3.63445 13.6459L0.501107 14.1223C0.0216702 14.1951 -0.169766 14.8115 0.177158 15.1653L2.44447 17.4775C2.58223 17.618 2.6451 17.8205 2.61258 18.0188L2.07734 21.2837C1.99544 21.7833 2.49663 22.1643 2.92545 21.9284L5.728 20.3869C5.89828 20.2933 6.10172 20.2933 6.272 20.3869L9.07455 21.9284C9.50338 22.1643 10.0046 21.7833 9.92266 21.2837L9.50469 18.7341L8.62349 19.2188C6.81747 20.2122 5.00381 18.5451 5.28953 16.8023L5.94947 12.7767L4.85384 11.6594ZM14.4953 18.7342L14.0774 21.2837C13.9955 21.7833 14.4966 22.1643 14.9255 21.9284L17.728 20.3869C17.8983 20.2933 18.1017 20.2933 18.272 20.3869L21.0746 21.9284C21.5034 22.1643 22.0046 21.7833 21.9227 21.2837L21.3874 18.0189C21.3549 17.8205 21.4178 17.6181 21.5555 17.4776L23.8229 15.1654C24.1698 14.8116 23.9783 14.1952 23.4989 14.1223L20.3656 13.6459C20.1752 13.617 20.0106 13.4919 19.9255 13.3114L19.1462 11.6594L18.0505 12.7768L18.7105 16.8023C18.9962 18.5451 17.1825 20.2122 15.3765 19.2188L14.4953 18.7342Z" fill="currentColor"/>
</svg>
