<svg width="24" height="24" viewBox="0 0 24 24" fill="none" xmlns="http://www.w3.org/2000/svg">
<path fill-rule="evenodd" clip-rule="evenodd" d="M6 3H5C3.34315 3 2 4.34315 2 6V21C2 22.6569 3.34315 24 5 24H19C20.6569 24 22 22.6569 22 21V6C22 4.34315 20.6569 3 19 3H18V4.50001C18 5.88072 16.8807 7.00001 15.5 7.00001H8.5C7.11929 7.00001 6 5.88072 6 4.50001V3ZM7 11C6.44772 11 6 11.4477 6 12C6 12.5523 6.44771 13 7 13H17C17.5523 13 18 12.5523 18 12C18 11.4477 17.5523 11 17 11H7ZM6 18C6 17.4477 6.44772 17 7 17H11C11.5523 17 12 17.4477 12 18C12 18.5523 11.5523 19 11 19H7C6.44772 19 6 18.5523 6 18Z" fill="currentColor"/>
<path d="M7 2C7 0.89543 7.89543 0 9 0H15C16.1046 0 17 0.895431 17 2V4C17 5.10457 16.1046 6 15 6H9C7.89543 6 7 5.10457 7 4V2Z" fill="currentColor"/>
</svg>
