<svg width="24" height="24" viewBox="0 0 24 24" fill="none" xmlns="http://www.w3.org/2000/svg">
<path fill-rule="evenodd" clip-rule="evenodd" d="M0 4C0 2.346 1.346 1 3 1H21C22.655 1 24 2.346 24 4V17C24 18.654 22.655 20 21 20H5.553C5.373 20 5.195 20.048 5.039 20.143L1.514 22.857C1.356 22.953 1.178 23 1 23C0.83 23 0.66 22.957 0.507 22.87C0.194 22.693 0 22.36 0 22V4ZM12.5242 4.34089C12.3098 3.88637 11.6902 3.88637 11.4758 4.34089L10.0746 7.31139C9.98942 7.49188 9.82484 7.61698 9.63445 7.64592L6.50111 8.12226C6.02167 8.19515 5.83023 8.81155 6.17716 9.16535L8.44447 11.4776C8.58223 11.618 8.6451 11.8205 8.61258 12.0188L8.07734 15.2837C7.99544 15.7833 8.49663 16.1643 8.92545 15.9284L11.728 14.3869C11.8983 14.2933 12.1017 14.2933 12.272 14.3869L15.0746 15.9284C15.5034 16.1643 16.0046 15.7833 15.9227 15.2837L15.3874 12.0188C15.3549 11.8205 15.4178 11.618 15.5555 11.4776L17.8228 9.16535C18.1698 8.81155 17.9783 8.19515 17.4989 8.12226L14.3655 7.64592C14.1752 7.61698 14.0106 7.49188 13.9254 7.31139L12.5242 4.34089Z" fill="currentColor"/>
</svg>
