<svg width="24" height="24" viewBox="0 0 24 24" fill="none" xmlns="http://www.w3.org/2000/svg">
<path fill-rule="evenodd" clip-rule="evenodd" d="M4 0C1.79086 0 0 1.79086 0 4V20C0 22.2091 1.79086 24 4 24H20C22.2091 24 24 22.2091 24 20V4C24 1.79086 22.2091 0 20 0H4ZM13 15.0568V13.5H6C5.44772 13.5 5 13.0523 5 12.5V11.5C5 10.9477 5.44772 10.5 6 10.5H13V8.94319C13 8.12982 13.9194 7.6567 14.5812 8.12946L18.8608 11.1863C19.4191 11.5851 19.4191 12.4149 18.8608 12.8137L14.5812 15.8705C13.9194 16.3433 13 15.8702 13 15.0568Z" fill="currentColor"/>
</svg>
