<svg width="24" height="24" viewBox="0 0 24 24" fill="none" xmlns="http://www.w3.org/2000/svg">
<path fill-rule="evenodd" clip-rule="evenodd" d="M5.60996 11.6435L0.555663 9.59717C0.416152 9.55913 0.290271 9.48135 0.193318 9.37327C0.0963631 9.26519 0.0325029 9.13147 0.00951562 8.98838C-0.0134717 8.84528 0.00540231 8.69898 0.0638287 8.56723C0.122257 8.43548 0.217732 8.32397 0.338645 8.24624L6.10489 4.46497C6.58303 4.15013 7.15815 4.01574 7.729 4.08544L10.4743 4.55648C13.7791 1.66817 18.0076 0.0573732 22.4102 0.00969931L23.4658 0.000124602C23.5355 -0.00141355 23.6048 0.0113031 23.6696 0.0374979C23.7345 0.0636932 23.7934 0.102806 23.8429 0.152472C23.8924 0.202139 23.9314 0.261318 23.9575 0.326377C23.9836 0.391437 23.9963 0.461022 23.9947 0.530892L24 1.62844C23.9094 6.01138 22.2845 10.2078 19.41 13.4825L19.8764 16.2285C19.9459 16.8014 19.8119 17.3785 19.4982 17.8583L15.7301 23.6447C15.6555 23.7682 15.5464 23.8669 15.4162 23.9287C15.2861 23.9906 15.1404 24.0129 14.997 23.9929C14.8537 23.9729 14.7188 23.9115 14.6089 23.8162C14.499 23.7209 14.4188 23.5958 14.3781 23.4563L12.3213 18.3549C12.2451 18.3817 12.1793 18.4044 12.111 18.4279C12.0169 18.4603 11.9182 18.4944 11.7812 18.543C11.55 18.6251 11.3327 18.6876 11.1075 18.7524L11.0921 18.7569L10.9957 18.7828C10.1941 19.0124 9.34381 19.0213 8.53343 18.8086C7.72305 18.5958 6.98232 18.1693 6.38855 17.5735C5.79478 16.9776 5.36973 16.2343 5.15775 15.4211C4.94577 14.6079 4.95463 13.7546 5.18341 12.9502C5.22462 12.8214 5.26337 12.6934 5.30055 12.5705C5.33356 12.4615 5.36534 12.3565 5.3965 12.2587C5.45221 12.0838 5.51414 11.911 5.57532 11.7402C5.58691 11.7079 5.59847 11.6756 5.60996 11.6435ZM20.4201 5.89718C20.3019 5.31457 20.0146 4.77854 19.5944 4.35688C19.0309 3.79146 18.2689 3.47166 17.4758 3.46784C16.6828 3.46402 15.9237 3.77648 15.3657 4.3365C14.9495 4.75412 14.6673 5.2874 14.5547 5.8689C14.4421 6.4504 14.5042 7.05401 14.7332 7.60338C14.9621 8.15276 15.3476 8.62324 15.8409 8.95532C16.3342 9.2874 16.9132 9.46615 17.5046 9.469C18.0959 9.47185 18.6732 9.29866 19.1634 8.97133C19.6535 8.64399 20.0345 8.1772 20.2582 7.63001C20.4819 7.08282 20.5382 6.47979 20.4201 5.89718Z" fill="currentColor"/>
<path d="M4.90275 22.2479L0.70447 23.6949C0.651998 23.7124 0.595553 23.7149 0.541496 23.7019C0.487438 23.6889 0.437912 23.6611 0.398508 23.6216C0.359103 23.582 0.331372 23.5323 0.318457 23.4781C0.30554 23.4238 0.307946 23.3672 0.325397 23.3145L1.76446 19.0986C1.93235 18.6176 2.24422 18.2016 2.65769 17.9069C3.07116 17.6123 3.56619 17.4534 4.07558 17.4518C4.65525 17.4561 5.21668 17.6661 5.66058 18.0444C6.10448 18.4228 6.40226 18.9452 6.50127 19.5192C6.60028 20.0933 6.49414 20.6821 6.20161 21.1814C5.90908 21.6808 5.44901 22.0585 4.90275 22.2479Z" fill="currentColor"/>
</svg>
