<svg width="24" height="24" viewBox="0 0 24 24" fill="none" xmlns="http://www.w3.org/2000/svg">
<path fill-rule="evenodd" clip-rule="evenodd" d="M12 0C5.37258 0 0 5.37258 0 12C0 14.9145 1.04098 17.5899 2.76979 19.6688L2.78573 19.6879C2.78905 19.6919 2.79245 19.6958 2.79594 19.6997L2.87043 19.7818H1.52727C0.683783 19.7818 0 20.4656 0 21.3091C0 22.1526 0.683783 22.8364 1.52727 22.8364H6.61818C7.37064 22.8364 8.01098 22.2883 8.12715 21.5449L8.85442 16.8903C8.98464 16.0569 8.41461 15.2758 7.58123 15.1456C6.74785 15.0154 5.96671 15.5854 5.83649 16.4188L5.55836 18.1988L5.09828 17.6915C3.82079 16.1444 3.05455 14.1637 3.05455 12C3.05455 7.05956 7.05956 3.05455 12 3.05455C16.9404 3.05455 20.9455 7.05956 20.9455 12C20.9455 16.9404 16.9404 20.9455 12 20.9455C11.1565 20.9455 10.4727 21.6292 10.4727 22.4727C10.4727 23.3162 11.1565 24 12 24C18.6274 24 24 18.6274 24 12C24 5.37258 18.6274 0 12 0Z" fill="currentColor"/>
</svg>
