<svg width="24" height="24" viewBox="0 0 24 24" fill="none" xmlns="http://www.w3.org/2000/svg">
<mask id="path-1-inside-1_8643_22734" fill="white">
<path fill-rule="evenodd" clip-rule="evenodd" d="M11 22C17.0751 22 22 17.0751 22 11C22 4.92487 17.0751 0 11 0C4.92487 0 0 4.92487 0 11C0 17.0751 4.92487 22 11 22ZM11 19C15.4183 19 19 15.4183 19 11C19 6.58172 15.4183 3 11 3C6.58172 3 3 6.58172 3 11C3 15.4183 6.58172 19 11 19Z"/>
</mask>
<path fill-rule="evenodd" clip-rule="evenodd" d="M11 22C17.0751 22 22 17.0751 22 11C22 4.92487 17.0751 0 11 0C4.92487 0 0 4.92487 0 11C0 17.0751 4.92487 22 11 22ZM11 19C15.4183 19 19 15.4183 19 11C19 6.58172 15.4183 3 11 3C6.58172 3 3 6.58172 3 11C3 15.4183 6.58172 19 11 19Z" fill="currentColor"/>
<path d="M20 11C20 15.9706 15.9706 20 11 20V24C18.1797 24 24 18.1797 24 11H20ZM11 2C15.9706 2 20 6.02944 20 11H24C24 3.8203 18.1797 -2 11 -2V2ZM2 11C2 6.02944 6.02944 2 11 2V-2C3.8203 -2 -2 3.8203 -2 11H2ZM11 20C6.02944 20 2 15.9706 2 11H-2C-2 18.1797 3.8203 24 11 24V20ZM17 11C17 14.3137 14.3137 17 11 17V21C16.5228 21 21 16.5228 21 11H17ZM11 5C14.3137 5 17 7.68629 17 11H21C21 5.47715 16.5228 1 11 1V5ZM5 11C5 7.68629 7.68629 5 11 5V1C5.47715 1 1 5.47715 1 11H5ZM11 17C7.68629 17 5 14.3137 5 11H1C1 16.5228 5.47715 21 11 21V17Z" fill="currentColor" mask="url(#path-1-inside-1_8643_22734)"/>
<path fill-rule="evenodd" clip-rule="evenodd" d="M18.0488 15.8872C17.5102 16.7677 16.7679 17.51 15.8875 18.0487L21.3192 23.5358C21.9124 24.135 22.8971 24.1571 23.5185 23.5851C24.14 23.0131 24.1629 22.0636 23.5697 21.4644L18.0488 15.8872Z" fill="currentColor"/>
</svg>
