<svg width="24" height="24" viewBox="0 0 24 24" fill="none" xmlns="http://www.w3.org/2000/svg">
<path fill-rule="evenodd" clip-rule="evenodd" d="M23.6392 11.3817C23.562 11.3389 23.4819 11.3019 23.4019 11.2619C22.9494 11.0366 22.4969 10.8114 22.0444 10.5832C21.2828 10.2011 20.5185 9.82179 19.7569 9.43965C18.7719 8.94914 17.7868 8.45579 16.8017 7.96528C15.6953 7.41204 14.5888 6.86164 13.4823 6.3084C12.34 5.73804 11.1977 5.16769 10.0581 4.59733C8.97921 4.05835 7.89757 3.51936 6.8187 2.98038C5.8971 2.52124 4.97827 2.0621 4.05667 1.60012C3.38341 1.26361 2.7129 0.927097 2.03964 0.593439C1.70853 0.428036 1.37466 0.262633 1.04354 0.0972297C1.02423 0.0886744 1.00767 0.0772673 0.988358 0.068712C0.585504 -0.122357 0.0888353 0.0972298 0.0170942 0.576328C-0.0132577 0.770249 0.00605715 0.978429 0.00605715 1.1752V4.27508V8.00806V9.29136C0.00605715 9.5138 -0.0242948 9.78186 0.0584833 9.99004C0.163336 10.2581 0.392355 10.395 0.660005 10.4264C0.706912 10.4321 0.756579 10.4349 0.803487 10.4406C1.02147 10.4634 1.23945 10.4863 1.45743 10.5091C2.28246 10.5946 3.11024 10.6773 3.93526 10.7629C5.0914 10.8826 6.24477 10.9996 7.40091 11.1193C8.65913 11.2477 9.9146 11.3789 11.1728 11.5072C12.2959 11.6213 13.4189 11.7382 14.5391 11.8523C15.0259 11.902 15.5115 11.9518 15.9974 12.0015C15.9345 12.0078 15.8714 12.0143 15.8084 12.0205C14.8344 12.1203 13.8576 12.2201 12.8836 12.3199C11.6667 12.4454 10.4499 12.5709 9.23306 12.6935C7.99691 12.819 6.76351 12.9473 5.52736 13.0728C4.51195 13.1783 3.49378 13.281 2.47836 13.3865C1.91547 13.4435 1.35258 13.5034 0.78969 13.5605C0.745542 13.5662 0.701394 13.569 0.660005 13.5747C0.362003 13.6089 0.0943539 13.7972 0.0281313 14.1166C-0.0132578 14.3162 0.0115757 14.5415 0.0115757 14.744V17.8439V21.5911V23.2383C0.00705049 23.2615 0.00484307 23.2864 0.00605715 23.3135C0.0281313 23.8411 0.530319 24.1463 0.991117 23.9295C1.00767 23.921 1.02423 23.9124 1.04078 23.9067C1.15391 23.8497 1.2698 23.7926 1.38293 23.7356C1.8934 23.4818 2.40386 23.2251 2.91157 22.9713C3.71728 22.5692 4.52023 22.1671 5.32593 21.7651C6.33307 21.2631 7.3402 20.7584 8.34734 20.2564C9.4676 19.6975 10.5906 19.1357 11.7109 18.5767C12.8477 18.0092 13.9873 17.4389 15.1241 16.8714C16.1809 16.3438 17.2377 15.8162 18.2945 15.2886C19.183 14.8466 20.0687 14.4017 20.9572 13.9597C21.5836 13.646 22.2099 13.3352 22.8363 13.0215C23.1039 12.8874 23.3743 12.762 23.6365 12.6222C24.1193 12.3656 24.1221 11.6412 23.6392 11.3817" fill="currentColor"/>
</svg>
