<svg width="24" height="24" viewBox="0 0 24 24" fill="none" xmlns="http://www.w3.org/2000/svg">
<path fill-rule="evenodd" clip-rule="evenodd" d="M8.74141 3C7.35761 3 6.15335 3.94651 5.82636 5.29112L4.68126 10L5.93929 10C6.49157 10 6.93929 10.4477 6.93929 11C6.93929 11.5523 6.49157 12 5.93929 12L4.19489 12L3.70853 14L7.91249 14C8.46477 14 8.91249 14.4477 8.91249 15C8.91249 15.5523 8.46477 16 7.91249 16L3.22217 16L2.60756 18.5274C2.30136 19.7866 3.25508 21 4.55092 21L17.8689 21C19.2464 21 20.4469 20.0619 20.7799 18.7253L23.9246 6.10443C24.3176 4.52704 23.1244 3 21.4988 3L8.74141 3ZM8.77052 5.5C8.30796 5.5 8.09342 6.0741 8.44261 6.37746L13.1474 10.4648C13.8461 11.0718 14.8701 11.1201 15.6228 10.5815L21.458 6.40664C21.8534 6.12372 21.6532 5.5 21.167 5.5L8.77052 5.5Z" fill="currentColor"/>
<rect x="-0.000976562" y="8" width="3" height="2" rx="1" fill="currentColor"/>
<rect x="1.99902" y="12" width="7" height="2" rx="1" fill="currentColor"/>
<rect x="-0.000976562" y="16" width="6" height="2" rx="1" fill="currentColor"/>
</svg>
