<svg width="24" height="24" viewBox="0 0 24 24" fill="none" xmlns="http://www.w3.org/2000/svg">
<path fill-rule="evenodd" clip-rule="evenodd" d="M12 2.5C13.1893 2.5 14.2401 3.09326 14.8726 4H9.12731C9.75978 3.09326 10.8106 2.5 12 2.5ZM12 0C9.38753 0 7.16505 1.66962 6.34138 4H3.9317C2.33833 4 1.02293 5.2456 0.93615 6.83661L0.172514 20.8366C0.0787768 22.5551 1.447 24 3.16806 24H20.8319C22.5529 24 23.9212 22.5551 23.8274 20.8366L23.0638 6.83661C22.977 5.2456 21.6616 4 20.0682 4H17.6586C16.8349 1.66962 14.6124 0 12 0ZM8.66664 12.3333C9.58711 12.3333 10.3333 11.5871 10.3333 10.6667C10.3333 9.74619 9.58711 9 8.66664 9C7.74616 9 6.99997 9.74619 6.99997 10.6667C6.99997 11.5871 7.74616 12.3333 8.66664 12.3333ZM15.3332 19C16.2537 19 16.9999 18.2538 16.9999 17.3333C16.9999 16.4128 16.2537 15.6666 15.3332 15.6666C14.4127 15.6666 13.6665 16.4128 13.6665 17.3333C13.6665 18.2538 14.4127 19 15.3332 19ZM14.5001 9.83338C14.9603 9.37314 15.7065 9.37314 16.1667 9.83337C16.627 10.2936 16.627 11.0398 16.1668 11.5001L9.50002 18.1667C9.03978 18.627 8.29359 18.627 7.83336 18.1667C7.37312 17.7065 7.37312 16.9603 7.83336 16.5L14.5001 9.83338Z" fill="currentColor"/>
</svg>
