<svg width="24" height="24" viewBox="0 0 24 24" fill="none" xmlns="http://www.w3.org/2000/svg">
<path fill-rule="evenodd" clip-rule="evenodd" d="M11.9995 0C14.9428 0 17.3911 2.15588 17.9017 5H19.9835C21.5669 5 22.8777 6.23062 22.9775 7.8109L23.1424 10.4219C21.6243 9.0037 19.6147 8.10486 17.397 8.0086C17.3487 8.00292 17.2995 8 17.2496 8C17.2269 8 17.2043 8.00061 17.1819 8.0018C17.1214 8.0006 17.0608 8 17 8C12.0294 8 8 12.0294 8 17C8 19.8273 9.30367 22.35 11.3427 24H3.19544C1.46419 24 0.0922759 22.5387 0.2014 20.8109L1.02245 7.8109C1.12226 6.23062 2.43306 5 4.01649 5H6.09732C6.6079 2.15588 9.0562 0 11.9995 0ZM11.9995 2.5C13.5315 2.5 14.8764 3.53041 15.3335 5H8.66551C9.12255 3.53041 10.4675 2.5 11.9995 2.5ZM6.74965 8C6.0593 8 5.49965 8.55964 5.49965 9.25C5.49965 9.94036 6.0593 10.5 6.74965 10.5C7.44001 10.5 7.99965 9.94036 7.99965 9.25C7.99965 8.55964 7.44001 8 6.74965 8ZM17 24C20.866 24 24 20.866 24 17C24 13.134 20.866 10 17 10C13.134 10 10 13.134 10 17C10 20.866 13.134 24 17 24ZM14 16C13.4477 16 13 16.4477 13 17C13 17.5523 13.4477 18 14 18H16V20C16 20.5523 16.4477 21 17 21C17.5523 21 18 20.5523 18 20V18H20C20.5523 18 21 17.5523 21 17C21 16.4477 20.5523 16 20 16H18V14C18 13.4477 17.5523 13 17 13C16.4477 13 16 13.4477 16 14V16H14Z" fill="currentColor"/>
</svg>
