<svg width="24" height="24" viewBox="0 0 24 24" fill="none" xmlns="http://www.w3.org/2000/svg">
<path d="M16.7495 6.10358C16.7495 6.2237 16.7277 6.24105 16.7091 6.25585C16.707 6.25748 16.705 6.25909 16.7031 6.26079C16.6294 6.3255 16.4287 6.44278 15.9755 6.54171C15.0524 6.74325 13.7117 6.75 11.9995 6.75C10.2873 6.75 8.94659 6.74325 8.02349 6.54171C7.57036 6.44278 7.3696 6.3255 7.29594 6.26079C7.294 6.25909 7.29198 6.25748 7.28993 6.25585C7.27132 6.24105 7.24951 6.2237 7.24951 6.10358C7.24951 3.40277 9.39624 1.25 11.9995 1.25C14.6028 1.25 16.7495 3.40277 16.7495 6.10358Z" stroke="currentColor" stroke-width="2.5"/>
<mask id="path-2-inside-1_8654_17272" fill="white">
<path fill-rule="evenodd" clip-rule="evenodd" d="M1.02245 7.8109C1.12226 6.23062 2.43306 5 4.01649 5H19.9835C21.5669 5 22.8777 6.23062 22.9775 7.8109L23.4 14.5L23.7986 20.8109C23.9077 22.5387 22.5358 24 20.8045 24H3.19544C1.46419 24 0.0922759 22.5387 0.2014 20.8109L1.02245 7.8109ZM5.49965 9.25C5.49965 8.55964 6.0593 8 6.74965 8C7.44001 8 7.99965 8.55964 7.99965 9.25C7.99965 9.94036 7.44001 10.5 6.74965 10.5C6.0593 10.5 5.49965 9.94036 5.49965 9.25ZM17.2496 8C16.5592 8 15.9996 8.55964 15.9996 9.25C15.9996 9.94036 16.5592 10.5 17.2496 10.5C17.94 10.5 18.4996 9.94036 18.4996 9.25C18.4996 8.55964 17.94 8 17.2496 8Z"/>
</mask>
<path fill-rule="evenodd" clip-rule="evenodd" d="M1.02245 7.8109C1.12226 6.23062 2.43306 5 4.01649 5H19.9835C21.5669 5 22.8777 6.23062 22.9775 7.8109L23.4 14.5L23.7986 20.8109C23.9077 22.5387 22.5358 24 20.8045 24H3.19544C1.46419 24 0.0922759 22.5387 0.2014 20.8109L1.02245 7.8109ZM5.49965 9.25C5.49965 8.55964 6.0593 8 6.74965 8C7.44001 8 7.99965 8.55964 7.99965 9.25C7.99965 9.94036 7.44001 10.5 6.74965 10.5C6.0593 10.5 5.49965 9.94036 5.49965 9.25ZM17.2496 8C16.5592 8 15.9996 8.55964 15.9996 9.25C15.9996 9.94036 16.5592 10.5 17.2496 10.5C17.94 10.5 18.4996 9.94036 18.4996 9.25C18.4996 8.55964 17.94 8 17.2496 8Z" fill="currentColor"/>
<path d="M1.02245 7.8109L0.0244411 7.74787L1.02245 7.8109ZM22.9775 7.8109L23.9755 7.74787V7.74787L22.9775 7.8109ZM23.4 14.5L22.402 14.563L23.4 14.5ZM23.7986 20.8109L22.8006 20.8739V20.8739L23.7986 20.8109ZM0.2014 20.8109L1.19941 20.8739L0.2014 20.8109ZM4.01649 4C1.90524 4 0.157518 5.64083 0.0244411 7.74787L2.02046 7.87394C2.087 6.82041 2.96087 6 4.01649 6V4ZM19.9835 4H4.01649V6H19.9835V4ZM23.9755 7.74787C23.8425 5.64083 22.0947 4 19.9835 4V6C21.0391 6 21.913 6.82041 21.9795 7.87394L23.9755 7.74787ZM24.398 14.437L23.9755 7.74787L21.9795 7.87393L22.402 14.563L24.398 14.437ZM24.7966 20.7479L24.398 14.437L22.402 14.563L22.8006 20.8739L24.7966 20.7479ZM20.8045 25C23.1129 25 24.9421 23.0516 24.7966 20.7479L22.8006 20.8739C22.8733 22.0258 21.9587 23 20.8045 23V25ZM3.19544 25H20.8045V23H3.19544V25ZM-0.796611 20.7479C-0.94211 23.0516 0.887113 25 3.19544 25V23C2.04127 23 1.12666 22.0258 1.19941 20.8739L-0.796611 20.7479ZM0.0244411 7.74787L-0.796611 20.7479L1.19941 20.8739L2.02046 7.87394L0.0244411 7.74787ZM6.74965 7C5.50701 7 4.49965 8.00736 4.49965 9.25H6.49965C6.49965 9.11193 6.61158 9 6.74965 9V7ZM8.99965 9.25C8.99965 8.00736 7.9923 7 6.74965 7V9C6.88773 9 6.99965 9.11193 6.99965 9.25H8.99965ZM6.74965 11.5C7.9923 11.5 8.99965 10.4926 8.99965 9.25H6.99965C6.99965 9.38807 6.88773 9.5 6.74965 9.5V11.5ZM4.49965 9.25C4.49965 10.4926 5.50701 11.5 6.74965 11.5V9.5C6.61158 9.5 6.49965 9.38807 6.49965 9.25H4.49965ZM16.9996 9.25C16.9996 9.11193 17.1115 9 17.2496 9V7C16.007 7 14.9996 8.00736 14.9996 9.25H16.9996ZM17.2496 9.5C17.1115 9.5 16.9996 9.38807 16.9996 9.25H14.9996C14.9996 10.4926 16.007 11.5 17.2496 11.5V9.5ZM17.4996 9.25C17.4996 9.38807 17.3877 9.5 17.2496 9.5V11.5C18.4922 11.5 19.4996 10.4926 19.4996 9.25H17.4996ZM17.2496 9C17.3877 9 17.4996 9.11193 17.4996 9.25H19.4996C19.4996 8.00736 18.4922 7 17.2496 7V9Z" fill="currentColor" mask="url(#path-2-inside-1_8654_17272)"/>
</svg>
