<svg width="24" height="24" viewBox="0 0 24 24" fill="none" xmlns="http://www.w3.org/2000/svg">
<path fill-rule="evenodd" clip-rule="evenodd" d="M18 3.5C18.8284 3.5 19.5 4.17157 19.5 5V18.5911L21.3851 16.4966C21.9392 15.8808 22.8877 15.8309 23.5034 16.3851C24.1192 16.9392 24.1691 17.8877 23.6149 18.5034L19.1149 23.5034C18.8305 23.8195 18.4252 24 18 24C17.5748 24 17.1695 23.8195 16.8851 23.5034L12.3851 18.5034C11.8309 17.8877 11.8808 16.9392 12.4966 16.3851C13.1123 15.8309 14.0608 15.8808 14.6149 16.4966L16.5 18.5911V5C16.5 4.17157 17.1716 3.5 18 3.5Z" fill="currentColor"/>
<path fill-rule="evenodd" clip-rule="evenodd" d="M6 20.5C5.17157 20.5 4.5 19.8284 4.5 19L4.5 5.40894L2.61494 7.50345C2.06075 8.11921 1.11232 8.16913 0.496552 7.61494C-0.119212 7.06075 -0.16913 6.11232 0.385059 5.49655L4.88506 0.496554C5.16952 0.180483 5.57477 5.61712e-07 6 5.24538e-07C6.42523 4.87363e-07 6.83048 0.180483 7.11494 0.496554L11.6149 5.49655C12.1691 6.11232 12.1192 7.06075 11.5034 7.61494C10.8877 8.16913 9.93925 8.11921 9.38506 7.50345L7.5 5.40894L7.5 19C7.5 19.8284 6.82843 20.5 6 20.5Z" fill="currentColor"/>
</svg>
