<svg width="24" height="24" viewBox="0 0 24 24" fill="none" xmlns="http://www.w3.org/2000/svg">
<path d="M10.7768 0.778807L5 7H3C1.34315 7 0 8.34315 0 10V15C0 16.6569 1.34315 18 3 18H5L10.7771 23.3327C11.2419 23.7618 11.8512 24 12.4838 24C13.8735 24 15 22.8735 15 21.4838V2.43721C15 1.09118 13.9088 0 12.5628 0C11.8851 0 11.238 0.282184 10.7768 0.778807Z" fill="currentColor"/>
<path d="M16.6986 8.19065C16.3128 8.57645 16.3128 9.20196 16.6986 9.58776L18.8568 11.746L16.6986 13.9043C16.3127 14.2901 16.3127 14.9156 16.6986 15.3014C17.0844 15.6872 17.7099 15.6872 18.0957 15.3014L20.254 13.1431L22.3095 15.1987C22.6953 15.5845 23.3208 15.5845 23.7066 15.1987C24.0924 14.8129 24.0924 14.1874 23.7066 13.8016L21.6511 11.746L23.7066 9.69051C24.0924 9.30471 24.0924 8.67919 23.7066 8.29339C23.3208 7.90759 22.6953 7.90759 22.3095 8.29339L20.2539 10.3489L18.0957 8.19065C17.7099 7.80484 17.0844 7.80484 16.6986 8.19065Z" fill="currentColor"/>
</svg>
