<svg width="24" height="24" viewBox="0 0 24 24" fill="none" xmlns="http://www.w3.org/2000/svg">
<path fill-rule="evenodd" clip-rule="evenodd" d="M13.1743 4.50033H1.45609C1.06963 4.50117 0.699281 4.66337 0.426296 4.95134C0.153312 5.23931 0 5.62953 0 6.03636V17.9675C0.000793293 18.3738 0.154456 18.7632 0.427355 19.0504C0.700253 19.3377 1.07015 19.4995 1.45609 19.5003H6.74577L8.99721 14.247C8.52797 13.6208 8.25 12.843 8.25 12.0003C8.25 10.0795 9.69423 8.49592 11.5561 8.27633L13.1743 4.50033ZM12.4439 15.7243C14.3058 15.5047 15.75 13.9212 15.75 12.0003C15.75 11.1576 15.472 10.3799 15.0028 9.75368L17.2542 4.50033H22.5439C22.9304 4.50117 23.3007 4.66337 23.5737 4.95134C23.8467 5.23931 24 5.62953 24 6.03636V17.9675C24 18.374 23.8466 18.7639 23.5735 19.0514C23.3005 19.3388 22.9301 19.5003 22.5439 19.5003H10.8257L12.4439 15.7243ZM4.5 13.5003C5.32843 13.5003 6 12.8288 6 12.0003C6 11.1719 5.32843 10.5003 4.5 10.5003C3.67157 10.5003 3 11.1719 3 12.0003C3 12.8288 3.67157 13.5003 4.5 13.5003ZM21 12.0003C21 12.8288 20.3284 13.5003 19.5 13.5003C18.6716 13.5003 18 12.8288 18 12.0003C18 11.1719 18.6716 10.5003 19.5 10.5003C20.3284 10.5003 21 11.1719 21 12.0003Z" fill="currentColor"/>
<path fill-rule="evenodd" clip-rule="evenodd" d="M14.1708 1.65869C14.9118 2.02917 15.2121 2.93018 14.8416 3.67115L7.34164 21.6711C6.97116 22.4121 6.07015 22.7125 5.32918 22.342C4.58821 21.9715 4.28788 21.0705 4.65836 20.3295L6.47494 15.9697L7.50004 10.5004L10.2834 6.82951L12.1584 2.32951C12.5288 1.58854 13.4299 1.2882 14.1708 1.65869Z" fill="currentColor"/>
</svg>
