<svg width="24" height="24" viewBox="0 0 24 24" fill="none" xmlns="http://www.w3.org/2000/svg">
<path fill-rule="evenodd" clip-rule="evenodd" d="M12 24C18.6274 24 24 18.6274 24 12C24 5.37258 18.6274 0 12 0C5.37258 0 0 5.37258 0 12C0 18.6274 5.37258 24 12 24ZM14.116 9.08768L12.4484 5.70864C12.265 5.33702 11.735 5.33702 11.5516 5.70864L9.88397 9.08768L6.15497 9.62954C5.74486 9.68913 5.58111 10.1931 5.87787 10.4824L8.5762 13.1126L7.93921 16.8265C7.86915 17.235 8.29787 17.5465 8.66468 17.3536L12 15.6001L15.3353 17.3536C15.7021 17.5465 16.1308 17.235 16.0608 16.8265L15.4238 13.1126L18.1221 10.4824C18.4189 10.1931 18.2551 9.68913 17.845 9.62954L14.116 9.08768Z" fill="currentColor"/>
</svg>
