<svg xmlns="http://www.w3.org/2000/svg" width="24" height="24" viewBox="0 0 24 24" fill="none">
<path d="M14.2138 3.51133C14.5354 2.82956 15.4646 2.82956 15.7862 3.51133L17.8882 7.96708C18.0159 8.23781 18.2627 8.42546 18.5483 8.46888L23.2483 9.18339C23.9675 9.29272 24.2546 10.2173 23.7343 10.748L20.3333 14.2163C20.1267 14.4271 20.0324 14.7307 20.0811 15.0283L20.884 19.9256C21.0068 20.6749 20.2551 21.2464 19.6118 20.8926L15.408 18.5804C15.1526 18.4399 14.8474 18.4399 14.592 18.5804L10.3882 20.8926C9.74494 21.2464 8.99316 20.6749 9.116 19.9256L9.91886 15.0283C9.96764 14.7307 9.87335 14.4271 9.6667 14.2163L6.26574 10.748C5.74535 10.2173 6.03251 9.29272 6.75166 9.18339L11.4517 8.46888C11.7373 8.42546 11.9841 8.23781 12.1118 7.96708L14.2138 3.51133Z" fill="currentColor"/>
<path fill-rule="evenodd" clip-rule="evenodd" d="M9.34191 18.5476C9.34184 18.5476 9.34178 18.5476 9.34172 18.5475L9.91867 15.0283C9.96745 14.7307 9.87315 14.4271 9.66651 14.2163L6.26554 10.748C5.74516 10.2173 6.03231 9.29272 6.75146 9.18339L11.4515 8.46888C11.6213 8.44307 11.7774 8.36628 11.9029 8.25136L11.9029 8.25149C11.7774 8.36634 11.6214 8.44308 11.4517 8.46888L6.75166 9.18339C6.03251 9.29272 5.74535 10.2173 6.26574 10.748L9.6667 14.2163C9.87335 14.4271 9.96764 14.7307 9.91886 15.0283L9.34191 18.5476ZM11.4015 7.1286L11.2306 7.49097L6.60117 8.19475C5.0153 8.43584 4.50359 10.3795 5.55154 11.4482L8.92778 14.8913L8.29633 18.743L4.38817 20.8926C3.74494 21.2464 2.99316 20.6749 3.116 19.9256L3.91886 15.0283C3.96764 14.7307 3.87335 14.4271 3.6667 14.2163L0.265736 10.748C-0.254649 10.2173 0.0325053 9.29272 0.75166 9.18339L5.45168 8.46888C5.73726 8.42546 5.98413 8.23781 6.11184 7.96708L8.21376 3.51133C8.53537 2.82956 9.46463 2.82956 9.78624 3.51133L11.4015 7.1286Z" fill="currentColor"/>
</svg>
