<svg width="24" height="24" viewBox="0 0 24 24" fill="none" xmlns="http://www.w3.org/2000/svg">
<path fill-rule="evenodd" clip-rule="evenodd" d="M7.38851 0.397704C7.63866 -0.132567 8.36141 -0.132568 8.61156 0.397703L10.2464 3.86328C10.3457 4.07385 10.5377 4.2198 10.7598 4.25357L14.4154 4.8093C14.9748 4.89434 15.1981 5.61348 14.7934 6.02624L12.1482 8.72381C11.9874 8.88772 11.9141 9.12387 11.952 9.35531L12.1631 10.643L11.5744 11.891L8.69925 12.3281L8.31737 12.1181C8.11871 12.0088 7.88137 12.0088 7.6827 12.1181L4.41306 13.9165C3.91277 14.1916 3.32805 13.7472 3.42359 13.1644L4.04804 9.35531C4.08598 9.12387 4.01264 8.88772 3.85192 8.72381L1.20672 6.02624C0.801976 5.61348 1.02532 4.89434 1.58466 4.8093L5.24023 4.25357C5.46235 4.2198 5.65436 4.07385 5.75369 3.86328L7.38851 0.397704ZM17.5673 12.4152L15.6989 8.45452C15.413 7.84849 14.587 7.84849 14.3012 8.45452L12.4328 12.4152C12.3193 12.6558 12.0998 12.8226 11.846 12.8612L7.66818 13.4963C7.02893 13.5935 6.77368 14.4154 7.23625 14.8871L10.2593 17.9701C10.443 18.1574 10.5268 18.4273 10.4835 18.6918L9.76982 23.045C9.66062 23.7111 10.3289 24.219 10.9006 23.9045L14.6374 21.8492C14.8644 21.7243 15.1357 21.7243 15.3627 21.8492L19.0994 23.9045C19.6712 24.219 20.3395 23.7111 20.2303 23.045L19.5166 18.6918C19.4732 18.4273 19.5571 18.1574 19.7407 17.9701L22.7638 14.8871C23.2264 14.4154 22.9711 13.5935 22.3319 13.4963L18.1541 12.8612C17.9003 12.8226 17.6808 12.6558 17.5673 12.4152Z" fill="currentColor"/>
</svg>

