<svg width="24" height="24" viewBox="0 0 24 24" fill="none" xmlns="http://www.w3.org/2000/svg">
<path fill-rule="evenodd" clip-rule="evenodd" d="M8.5 2H15.5C15.7761 2 16 2.22386 16 2.5V4.97925H8V2.5C8 2.22386 8.22386 2 8.5 2ZM6 4.97925V2.5C6 1.11929 7.11929 0 8.5 0H15.5C16.8807 0 18 1.11929 18 2.5V4.97925H21.5C22.8807 4.97925 24 6.09854 24 7.47925V12.4378C24 13.8185 22.8807 14.9378 21.5 14.9378H13C12.9978 14.3874 12.5509 13.9419 12 13.9419C11.4491 13.9419 11.0022 14.3874 11 14.9378H2.5C1.11929 14.9378 0 13.8185 0 12.4378V7.47925C0 6.09854 1.11929 4.97925 2.5 4.97925H6ZM10.9998 16.9294H1.99982C1.45339 16.9294 0.941077 16.7833 0.499817 16.5281V21.5C0.499817 22.8807 1.6191 24 2.99982 24H20.9998C22.3805 24 23.4998 22.8807 23.4998 21.5V16.5281C23.0586 16.7833 22.5462 16.9294 21.9998 16.9294H12.9998C12.9976 17.4798 12.5507 17.9253 11.9998 17.9253C11.4489 17.9253 11.0021 17.4798 10.9998 16.9294Z" fill="currentColor"/>
</svg>
