<svg width="24" height="24" viewBox="0 0 24 24" fill="none" xmlns="http://www.w3.org/2000/svg">
<path d="M15.2929 4.70706C15.1054 4.89459 15 5.14895 15 5.41416V7.58574L10.2929 12.2928C9.90237 12.6834 9.90237 13.3165 10.2929 13.7071C10.6834 14.0976 11.3166 14.0976 11.7071 13.7071L16.4142 8.99995H18.5858C18.851 8.99995 19.1054 8.89459 19.2929 8.70706L23.1464 4.8535C23.4614 4.53852 23.2383 3.99995 22.7929 3.99995H20V1.20706C20 0.761605 19.4614 0.538521 19.1464 0.853504L15.2929 4.70706Z" fill="currentColor"/>
<path d="M13 6.81344V6.99996L10.9999 8.99995C8.79083 8.99998 7 10.7908 7 13C7 15.2091 8.79086 17 11 17C13.2091 17 15 15.2091 15 13L16.9998 11H17.1865C17.39 11.6301 17.5 12.3022 17.5 13C17.5 16.5898 14.5899 19.5 11 19.5C7.41015 19.5 4.5 16.5898 4.5 13C4.5 9.4101 7.41015 6.49995 11 6.49995C11.6978 6.49995 12.3699 6.60991 13 6.81344Z" fill="currentColor"/>
<path d="M13.0734 4.75462C12.4097 4.58828 11.7152 4.49995 11 4.49995C6.30558 4.49995 2.5 8.30553 2.5 13C2.5 17.6944 6.30558 21.5 11 21.5C15.6944 21.5 19.5 17.6944 19.5 13C19.5 12.2848 19.4117 11.5902 19.2453 10.9266C19.7946 10.8028 20.3026 10.5258 20.7071 10.1213L21.4054 9.42305C21.7908 10.5444 22 11.7478 22 13C22 19.0751 17.0751 24 11 24C4.92487 24 0 19.0751 0 13C0 6.92482 4.92487 1.99995 11 1.99995C12.2522 1.99995 13.4555 2.20919 14.577 2.5946L13.8786 3.29292C13.4742 3.69735 13.1972 4.20537 13.0734 4.75462Z" fill="currentColor"/>
</svg>
