<svg width="24" height="24" viewBox="0 0 24 24" fill="none" xmlns="http://www.w3.org/2000/svg">
<path d="M12 24L10.8 20.4H2.4C1.74 20.4 1.175 20.165 0.705 19.695C0.235 19.225 0 18.66 0 18V2.4C0 1.74 0.235 1.175 0.705 0.705C1.175 0.235 1.74 0 2.4 0H9.6L10.65 3.6H21.6C22.3 3.6 22.875 3.825 23.325 4.275C23.775 4.725 24 5.3 24 6V21.6C24 22.26 23.775 22.825 23.325 23.295C22.875 23.765 22.3 24 21.6 24H12ZM6.18 15.12C7.56 15.12 8.695 14.675 9.585 13.785C10.475 12.895 10.92 11.74 10.92 10.32C10.92 10.16 10.915 10.015 10.905 9.885C10.895 9.755 10.87 9.62 10.83 9.48H6.09V11.34H8.76C8.6 11.9 8.295 12.335 7.845 12.645C7.395 12.955 6.85 13.11 6.21 13.11C5.43 13.11 4.76 12.83 4.2 12.27C3.64 11.71 3.36 11.02 3.36 10.2C3.36 9.38 3.64 8.69 4.2 8.13C4.76 7.57 5.43 7.29 6.21 7.29C6.57 7.29 6.91 7.355 7.23 7.485C7.55 7.615 7.84 7.81 8.1 8.07L9.57 6.66C9.15 6.22 8.645 5.88 8.055 5.64C7.465 5.4 6.84 5.28 6.18 5.28C4.84 5.28 3.695 5.755 2.745 6.705C1.795 7.655 1.32 8.82 1.32 10.2C1.32 11.58 1.795 12.745 2.745 13.695C3.695 14.645 4.84 15.12 6.18 15.12ZM14.22 15.72L14.88 15.09C14.6 14.75 14.345 14.42 14.115 14.1C13.885 13.78 13.66 13.44 13.44 13.08L14.22 15.72ZM15.72 14.19C16.28 13.53 16.705 12.9 16.995 12.3C17.285 11.7 17.48 11.23 17.58 10.89H12.81L13.17 12.15H14.37C14.53 12.45 14.72 12.775 14.94 13.125C15.16 13.475 15.42 13.83 15.72 14.19ZM13.2 22.8H21.6C21.96 22.8 22.25 22.685 22.47 22.455C22.69 22.225 22.8 21.94 22.8 21.6V6C22.8 5.64 22.69 5.35 22.47 5.13C22.25 4.91 21.96 4.8 21.6 4.8H11.01L12.42 9.66H14.79V8.4H16.02V9.66H20.4V10.89H18.87C18.67 11.65 18.37 12.39 17.97 13.11C17.57 13.83 17.1 14.5 16.56 15.12L19.83 18.33L18.96 19.2L15.72 15.96L14.64 17.07L15.6 20.4L13.2 22.8Z" fill="currentColor"/>
</svg>
