<svg width="24" height="24" viewBox="0 0 24 24" fill="none" xmlns="http://www.w3.org/2000/svg">
<path fill-rule="evenodd" clip-rule="evenodd" d="M9.01742 2.60221C9.62615 2.04031 9.66411 1.09132 9.10221 0.482587C8.5403 -0.126144 7.59131 -0.164103 6.98258 0.397802L0.48258 6.3978C0.174957 6.68176 0 7.08136 0 7.50001C0 7.91865 0.174957 8.31825 0.48258 8.60221L6.98258 14.6022C7.59131 15.1641 8.5403 15.1262 9.10221 14.5174C9.66411 13.9087 9.62615 12.9597 9.01742 12.3978L5.33647 9H15C18.3137 9 21 11.6863 21 15C21 18.3137 18.3137 21 15 21H1.5C0.671573 21 0 21.6716 0 22.5C0 23.3284 0.671573 24 1.5 24H15C19.9706 24 24 19.9706 24 15C24 10.0294 19.9706 6 15 6H5.33648L9.01742 2.60221Z" fill="currentColor"/>
</svg>
