<svg width="24" height="24" viewBox="0 0 24 24" fill="none" xmlns="http://www.w3.org/2000/svg">
<path fill-rule="evenodd" clip-rule="evenodd" d="M12 0C5.37258 0 0 5.37258 0 12C0 18.6274 5.37258 24 12 24C18.6274 24 24 18.6274 24 12C24 5.37258 18.6274 0 12 0ZM10.2071 11.2072C9.81659 11.5977 9.18342 11.5977 8.7929 11.2072L6.7929 9.20717C6.43259 8.84686 6.40083 8.27326 6.71914 7.87536L8.71914 5.37536C9.06415 4.9441 9.69344 4.87418 10.1247 5.21919C10.556 5.5642 10.6259 6.19349 10.2809 6.62475L9.58068 7.5H13.5C16.2615 7.5 18.5 9.73857 18.5 12.5C18.5 15.2614 16.2615 17.5 13.5 17.5H7.50004C6.94775 17.5 6.50004 17.0523 6.50004 16.5C6.50004 15.9477 6.94775 15.5 7.50004 15.5H13.5C15.1569 15.5 16.5 14.1569 16.5 12.5C16.5 10.8431 15.1569 9.5 13.5 9.5H9.91416L10.2071 9.79295C10.5976 10.1835 10.5976 10.8166 10.2071 11.2072Z" fill="currentColor"/>
</svg>
