<svg width="24" height="24" viewBox="0 0 24 24" fill="none" xmlns="http://www.w3.org/2000/svg">
<path fill-rule="evenodd" clip-rule="evenodd" d="M4 0C1.79086 0 0 1.79086 0 4V20C0 22.2091 1.79086 24 4 24H20C22.2091 24 24 22.2091 24 20V4C24 1.79086 22.2091 0 20 0H4ZM5.99989 9.00034H14V10.0002C13.9998 10.1981 14.0584 10.3916 14.1683 10.5561C14.2782 10.7207 14.4344 10.849 14.6172 10.9247C14.8 11.0005 15.0012 11.0203 15.1953 10.9816C15.3894 10.943 15.5676 10.8476 15.7075 10.7076L18.7075 8.70787C18.8005 8.61501 18.8742 8.50473 18.9246 8.38335C18.9749 8.26196 19.0008 8.13185 19.0008 8.00045C19.0008 7.86905 18.9749 7.73894 18.9246 7.61755C18.8742 7.49617 18.8005 7.38589 18.7075 7.29303L15.7075 5.29325C15.5676 5.15326 15.3894 5.0579 15.1953 5.01926C15.0012 4.98061 14.8 5.00041 14.6172 5.07616C14.4344 5.1519 14.2782 5.28018 14.1683 5.44476C14.0584 5.60933 13.9998 5.8028 14 6.00068V7.00056H5.99989C5.44766 7.00056 5 7.44823 5 8.00045C5 8.55267 5.44766 9.00034 5.99989 9.00034ZM18.0001 16.9994H10V17.9993C10.0002 18.1972 9.94159 18.3907 9.83172 18.5552C9.72185 18.7198 9.56561 18.8481 9.38279 18.9238C9.19997 18.9996 8.99878 19.0194 8.80469 18.9807C8.61061 18.9421 8.43235 18.8467 8.2925 18.7067L5.2925 16.707C5.19952 16.6141 5.12576 16.5038 5.07544 16.3824C5.02512 16.2611 4.99921 16.131 4.99921 15.9996C4.99921 15.8681 5.02512 15.738 5.07544 15.6167C5.12576 15.4953 5.19952 15.385 5.2925 15.2921L8.2925 13.2924C8.43235 13.1524 8.61061 13.057 8.80469 13.0184C8.99878 12.9797 9.19997 12.9995 9.38279 13.0753C9.56561 13.151 9.72185 13.2793 9.83172 13.4439C9.94159 13.6084 10.0002 13.8019 10 13.9998V14.9997H18.0001C18.5523 14.9997 19 15.4473 19 15.9996C19 16.5518 18.5523 16.9994 18.0001 16.9994Z" fill="currentColor"/>
</svg>
