<svg width="24" height="24" viewBox="0 0 24 24" fill="none" xmlns="http://www.w3.org/2000/svg">
<path d="M15.5 6.5C15.5 7.32843 16.1716 8 17 8C17.8284 8 18.5 7.32843 18.5 6.5H15.5ZM8.5 12V6.5H5.5V12H8.5ZM8.5 6.5C8.5 4.567 10.067 3 12 3V0C8.41015 0 5.5 2.91015 5.5 6.5H8.5ZM12 3C13.933 3 15.5 4.567 15.5 6.5H18.5C18.5 2.91015 15.5899 0 12 0V3Z" fill="currentColor"/>
<path fill-rule="evenodd" clip-rule="evenodd" d="M5 9C3.34315 9 2 10.3431 2 12V21C2 22.6569 3.34315 24 5 24H19C20.6569 24 22 22.6569 22 21V12C22 10.3431 20.6569 9 19 9H5ZM12 13.5C11.1716 13.5 10.5 14.1716 10.5 15V18C10.5 18.8284 11.1716 19.5 12 19.5C12.8284 19.5 13.5 18.8284 13.5 18V15C13.5 14.1716 12.8284 13.5 12 13.5Z" fill="currentColor"/>
</svg>
