<svg width="24" height="24" viewBox="0 0 24 24" fill="none" xmlns="http://www.w3.org/2000/svg">
<path fill-rule="evenodd" clip-rule="evenodd" d="M24 12C24 18.6274 18.6274 24 12 24C5.37258 24 0 18.6274 0 12C0 5.37258 5.37258 0 12 0C18.6274 0 24 5.37258 24 12ZM9.17082 8.33542C9.35606 7.96494 9.20589 7.51443 8.83541 7.32919C8.46493 7.14395 8.01442 7.29412 7.82918 7.6646C7.47382 8.37533 6.75751 8.75001 6 8.75001C5.58579 8.75001 5.25 9.0858 5.25 9.50001C5.25 9.91423 5.58579 10.25 6 10.25C7.24249 10.25 8.52618 9.62469 9.17082 8.33542ZM15.1646 7.32919C14.7941 7.51443 14.6439 7.96494 14.8292 8.33542C15.4738 9.62469 16.7575 10.25 18 10.25C18.4142 10.25 18.75 9.91423 18.75 9.50001C18.75 9.0858 18.4142 8.75001 18 8.75001C17.2425 8.75001 16.5262 8.37533 16.1708 7.6646C15.9856 7.29412 15.5351 7.14395 15.1646 7.32919ZM15.0892 16.9046C16.4556 17.0637 17 17.1271 17 16.2358C17 14.4487 15.6819 13 12 13C8.3181 13 7 14.4487 7 16.2358C7 17.1271 7.54442 17.0637 8.91082 16.9046C9.67054 16.8162 10.6844 16.6981 12 16.6981C13.3156 16.6981 14.3295 16.8162 15.0892 16.9046Z" fill="currentColor"/>
</svg>
