<svg width="24" height="24" viewBox="0 0 24 24" fill="none" xmlns="http://www.w3.org/2000/svg">
<path fill-rule="evenodd" clip-rule="evenodd" d="M24 12C24 18.6274 18.6274 24 12 24C5.37258 24 0 18.6274 0 12C0 5.37258 5.37258 0 12 0C18.6274 0 24 5.37258 24 12ZM5.50017 14.5192C5.5069 13.8408 6.1609 13.52 6.67396 13.6331C8.95961 14.1369 13.5297 14.676 17.3983 13.6656C17.9145 13.5307 18.6083 13.8409 18.6094 14.5468C18.6116 15.9086 17.7866 17.155 16.5985 18.0392C15.4028 18.929 13.7833 19.5 12.0547 19.5C10.3204 19.5 8.69573 18.9252 7.49878 18.0301C6.3094 17.1407 5.48659 15.887 5.50017 14.5192ZM6 9.59999C6 8.93725 6.53726 8.39999 7.2 8.39999C7.86274 8.39999 8.4 8.93725 8.4 9.59999C8.4 10.2627 7.86274 10.8 7.2 10.8C6.53726 10.8 6 10.2627 6 9.59999ZM16.8001 8.39999C16.1374 8.39999 15.6001 8.93725 15.6001 9.59999C15.6001 10.2627 16.1374 10.8 16.8001 10.8C17.4628 10.8 18.0001 10.2627 18.0001 9.59999C18.0001 8.93725 17.4628 8.39999 16.8001 8.39999Z" fill="currentColor"/>
</svg>
