<svg width="24" height="24" viewBox="0 0 24 24" fill="none" xmlns="http://www.w3.org/2000/svg">
<path fill-rule="evenodd" clip-rule="evenodd" d="M0 6.0261C0 5.20987 0.495957 4.47553 1.25309 4.17071L11.2531 0.144709C11.7323 -0.0482365 12.2677 -0.0482363 12.7469 0.144709L22.7469 4.17071C23.504 4.47553 24 5.20987 24 6.02609V23C24 23.5523 23.5523 24 23 24H20V21.5845H4V24H1C0.447716 24 0 23.5523 0 23V6.0261ZM4 17V19H20V17H4ZM4 12V14.5H20V12H4ZM12 10C13.6569 10 15 8.65685 15 7C15 5.34315 13.6569 4 12 4C10.3431 4 9 5.34315 9 7C9 8.65685 10.3431 10 12 10Z" fill="currentColor"/>
</svg>
