<svg width="24" height="24" viewBox="0 0 24 24" fill="none" xmlns="http://www.w3.org/2000/svg">
<path d="M23.6455 18.0455L14.8524 2.63146C13.984 1.09006 11.9214 0.539559 10.4016 1.42036C9.85884 1.75066 9.42462 2.19106 9.2075 2.63146L0.414465 18.0455C-0.453983 19.5869 0.0887974 21.6788 1.60858 22.5596C2.15136 22.8899 2.69414 23 3.23692 23H20.7144C22.5599 23 23.9711 21.4586 23.9711 19.697C24.0797 19.0364 23.8626 18.4859 23.6455 18.0455ZM12.03 18.596C11.3786 18.596 10.9444 18.1556 10.9444 17.495C10.9444 16.8344 11.3786 16.394 12.03 16.394C12.6813 16.394 13.1155 16.8344 13.1155 17.495C13.1155 18.1556 12.6813 18.596 12.03 18.596ZM13.1155 13.091C13.1155 13.7516 12.6813 14.192 12.03 14.192C11.3786 14.192 10.9444 13.7516 10.9444 13.091V8.68697C10.9444 8.02637 11.3786 7.58597 12.03 7.58597C12.6813 7.58597 13.1155 8.02637 13.1155 8.68697V13.091Z" fill="currentColor"/>
</svg>
