<svg width="24" height="24" viewBox="0 0 24 24" fill="none" xmlns="http://www.w3.org/2000/svg">
<path fill-rule="evenodd" clip-rule="evenodd" d="M21.3904 3.55059C22.4184 3.84706 23.2289 4.71529 23.5057 5.81647C24.0197 7.82824 23.9999 12.0212 23.9999 12.0212C23.9999 12.0212 23.9999 16.1929 23.5057 18.2047C23.2289 19.3059 22.4184 20.1741 21.3904 20.4706C19.5123 21 11.9999 21 11.9999 21C11.9999 21 4.50739 21 2.60954 20.4494C1.58154 20.1529 0.771002 19.2847 0.494232 18.1835C0 16.1929 0 12 0 12C0 12 0 7.82824 0.494232 5.81647C0.771002 4.71529 1.60131 3.82588 2.60954 3.52941C4.48763 3 11.9999 3 11.9999 3C11.9999 3 19.5123 3 21.3904 3.55059ZM16.5 12L8.5 16.5V7.5L16.5 12Z" fill="currentColor"/>
</svg>
