<svg width="24" height="24" viewBox="0 0 24 24" fill="none" xmlns="http://www.w3.org/2000/svg">
<path d="M23.6059 21.714L19.076 17.1974C20.7395 15.0559 21.5243 12.361 21.2705 9.66123C21.0168 6.96148 19.7435 4.45997 17.7101 2.666C15.6767 0.872035 13.036 -0.079488 10.3257 0.00520496C7.6154 0.089898 5.03926 1.20441 3.12184 3.12184C1.20441 5.03926 0.0898982 7.6154 0.00520516 10.3257C-0.0794878 13.036 0.871994 15.6768 2.66596 17.7102C4.45993 19.7436 6.96152 21.0168 9.66127 21.2705C12.361 21.5243 15.056 20.7395 17.1974 19.076L21.714 23.6059C21.8378 23.7308 21.9852 23.8299 22.1476 23.8975C22.3099 23.9652 22.4841 24 22.6599 24C22.8358 24 23.01 23.9652 23.1723 23.8975C23.3347 23.8299 23.4821 23.7308 23.6059 23.6059C23.7308 23.482 23.8299 23.3347 23.8975 23.1723C23.9652 23.01 24 22.8358 24 22.6599C24 22.4841 23.9652 22.3099 23.8975 22.1476C23.8299 21.9852 23.7308 21.8379 23.6059 21.714V21.714ZM13.3336 12.0013H12.0013V13.3336C12.0013 13.687 11.8609 14.0259 11.6111 14.2757C11.3612 14.5256 11.0223 14.666 10.669 14.666C10.3156 14.666 9.97675 14.5256 9.72689 14.2757C9.47703 14.0259 9.33664 13.687 9.33664 13.3336V12.0013H8.00431C7.65095 12.0013 7.31209 11.8609 7.06223 11.6111C6.81237 11.3612 6.67198 11.0223 6.67198 10.669C6.67198 10.3156 6.81237 9.97675 7.06223 9.72689C7.31209 9.47703 7.65095 9.33664 8.00431 9.33664H9.33664V8.00431C9.33664 7.65095 9.47703 7.31209 9.72689 7.06223C9.97675 6.81237 10.3156 6.67198 10.669 6.67198C11.0223 6.67198 11.3612 6.81237 11.6111 7.06223C11.8609 7.31209 12.0013 7.65095 12.0013 8.00431V9.33664H13.3336C13.687 9.33664 14.0259 9.47703 14.2757 9.72689C14.5256 9.97675 14.666 10.3156 14.666 10.669C14.666 11.0223 14.5256 11.3612 14.2757 11.6111C14.0259 11.8609 13.687 12.0013 13.3336 12.0013Z" fill="currentColor"/>
</svg>
